<?xml version="1.0" encoding="UTF-8"?>
<svg width="109px" height="33px" viewBox="0 0 109 33" version="1.1" xmlns="http://www.w3.org/2000/svg" xmlns:xlink="http://www.w3.org/1999/xlink">
    <title>logo-amazon</title>
    <g id="Cheebot-2.0" stroke="none" stroke-width="1" fill="none" fill-rule="evenodd">
        <g transform="translate(-149.000000, -4555.000000)" fill="#FFFFFF" id="logo-amazon">
            <path d="M165.569249,4576.1296 C173.629703,4580.81941 183.596129,4583.64079 193.891165,4583.64079 C200.834328,4583.64079 208.472239,4582.20427 215.495208,4579.22328 C216.556095,4578.77259 217.443349,4579.91803 216.405865,4580.68795 C210.138792,4585.30734 201.054982,4587.77196 193.233947,4587.77196 C182.267567,4587.77196 172.395075,4583.71585 164.926052,4576.96994 C164.339367,4576.43944 164.865119,4575.71654 165.569249,4576.1296 Z M221.68722,4575.66952 C222.372585,4576.51935 221.508842,4582.4108 218.142842,4585.2229 C217.626473,4585.65472 217.133506,4585.42468 217.363543,4584.85191 L217.587943,4584.2895 L217.587943,4584.2895 L217.670284,4584.08093 L217.670284,4584.08093 L217.755468,4583.86329 L217.755468,4583.86329 L217.842939,4583.6375 L217.842939,4583.6375 L217.932139,4583.40445 L217.932139,4583.40445 L217.992291,4583.24549 L217.992291,4583.24549 L218.0528,4583.08396 L218.0528,4583.08396 L218.143871,4582.83746 L218.143871,4582.83746 L218.204549,4582.6707 L218.204549,4582.6707 L218.265006,4582.5023 L218.265006,4582.5023 L218.325078,4582.33255 L218.325078,4582.33255 L218.384598,4582.16169 C218.394464,4582.13314 218.404299,4582.10455 218.414101,4582.07594 L218.472486,4581.90393 L218.472486,4581.90393 L218.529908,4581.7315 L218.529908,4581.7315 L218.586202,4581.55889 L218.586202,4581.55889 L218.641202,4581.38639 C218.668352,4581.3002 218.694955,4581.21416 218.720918,4581.1284 L218.771965,4580.95731 C219.18979,4579.53547 219.412789,4578.22101 219.011438,4577.70696 C218.572503,4577.14406 217.014513,4577.05409 215.365349,4577.12695 L215.185129,4577.13553 C215.155048,4577.13706 215.124949,4577.13865 215.094839,4577.14028 L214.914089,4577.15063 L214.914089,4577.15063 L214.733358,4577.16204 C214.703253,4577.16403 214.673163,4577.16606 214.643091,4577.16812 L214.462942,4577.18097 L214.462942,4577.18097 L214.283553,4577.19467 L214.283553,4577.19467 L214.105219,4577.20912 L214.105219,4577.20912 L213.928238,4577.22424 L213.928238,4577.22424 L213.665951,4577.24796 L213.665951,4577.24796 L213.493648,4577.26435 L213.493648,4577.26435 L213.239769,4577.28957 L213.239769,4577.28957 L212.992269,4577.31527 L212.992269,4577.31527 L212.596664,4577.35839 L212.596664,4577.35839 L212.08608,4577.41697 L212.08608,4577.41697 L211.697283,4577.4629 C211.082342,4577.53797 210.988515,4577.00283 211.542415,4576.61782 C215.124324,4574.0969 221.001855,4574.82455 221.68722,4575.66952 Z M233.507961,4555.43632 C238.460599,4555.43632 241.141234,4559.68946 241.141234,4565.09754 C241.141234,4570.32249 238.179012,4574.46779 233.507853,4574.46779 C228.644403,4574.46779 225.99677,4570.21454 225.99677,4564.91452 C225.99677,4559.63484 228.623954,4555.51934 233.363686,4555.43756 L233.507961,4555.43632 Z M201.280381,4555.27196 C201.420751,4555.27196 201.564837,4555.27519 201.711776,4555.28187 L201.838402,4555.28846 C203.344601,4555.37655 205.118912,4555.82777 206.260339,4556.88868 L206.308189,4556.93388 C207.277581,4557.8389 207.613218,4558.92449 207.726288,4560.12085 L207.736249,4560.23333 C207.73936,4560.27093 207.742267,4560.30864 207.744981,4560.34645 L207.752559,4560.46019 C207.754901,4560.4982 207.757064,4560.53632 207.759059,4560.57454 L207.764557,4560.68949 L207.764557,4560.68949 L207.769126,4560.80502 L207.769126,4560.80502 L207.774406,4560.97939 L207.774406,4560.97939 L207.776986,4561.09634 L207.776986,4561.09634 L207.778901,4561.21382 L207.778901,4561.21382 L207.780694,4561.39103 L207.780694,4561.39103 L207.781417,4561.56938 L207.781417,4561.56938 L207.781418,4561.69755 L207.780694,4561.92316 L207.780694,4561.92316 L207.778256,4562.37907 C207.777905,4562.45555 207.777637,4562.53226 207.777535,4562.6092 L207.777491,4567.87664 C207.777491,4568.66275 207.941323,4569.22687 208.181806,4569.70091 L208.221462,4569.77702 C208.228178,4569.78958 208.234947,4569.80207 208.241767,4569.81451 L208.283284,4569.88848 C208.2903,4569.9007 208.297364,4569.91287 208.304473,4569.92499 L208.347664,4569.9971 C208.362235,4570.02095 208.376974,4570.04463 208.391869,4570.06814 L208.437004,4570.13822 L208.437004,4570.13822 L208.482987,4570.20748 L208.482987,4570.20748 L208.529736,4570.27603 L208.529736,4570.27603 L208.577167,4570.344 L208.577167,4570.344 L208.625199,4570.41151 L208.625199,4570.41151 L208.675522,4570.48114 L208.739068,4570.56789 L208.739068,4570.56789 L208.854705,4570.72406 C208.914942,4570.80526 208.975469,4570.88702 209.035629,4570.97032 C209.247009,4571.27078 209.293814,4571.63229 209.021609,4571.85758 L208.850994,4572.00079 L208.850994,4572.00079 L208.598133,4572.21528 L208.598133,4572.21528 L208.32317,4572.45055 L208.32317,4572.45055 L207.959849,4572.7637 L207.959849,4572.7637 L207.662666,4573.02134 L207.662666,4573.02134 L207.22365,4573.40404 L207.22365,4573.40404 L206.752026,4573.81796 L206.752026,4573.81796 L206.463057,4574.07339 L206.463057,4574.07339 L206.458419,4574.06401 L206.458204,4574.06401 C206.237657,4574.26115 205.918431,4574.27539 205.669629,4574.14382 C205.632073,4574.11263 205.595558,4574.08201 205.560033,4574.05192 L205.456377,4573.96319 C205.439579,4573.94866 205.423016,4573.93424 205.406681,4573.91995 L205.311362,4573.83558 C205.249576,4573.78023 205.191239,4573.72663 205.135944,4573.67449 L205.055233,4573.59733 C205.042144,4573.58464 205.029233,4573.57204 205.016493,4573.5595 L204.942052,4573.48521 C204.869562,4573.41177 204.802768,4573.34078 204.740293,4573.27125 L204.679207,4573.20217 C204.669249,4573.19072 204.659399,4573.17931 204.649649,4573.16792 L204.592309,4573.09989 L204.592309,4573.09989 L204.537083,4573.03227 C204.528038,4573.02102 204.519068,4573.00978 204.510167,4572.99855 L204.457539,4572.93115 L204.457539,4572.93115 L204.40626,4572.86362 L204.40626,4572.86362 L204.356023,4572.79574 L204.356023,4572.79574 L204.306524,4572.72729 L204.306524,4572.72729 L204.257456,4572.65805 L204.257456,4572.65805 L204.208512,4572.5878 L204.208512,4572.5878 L204.08469,4572.40629 L204.08469,4572.40629 L203.87228,4572.09125 L203.87228,4572.09125 L203.754274,4571.91862 L203.754274,4571.91862 L203.699504,4571.97428 L203.699504,4571.97428 L203.590881,4572.08326 C203.500856,4572.17279 203.412036,4572.2591 203.324223,4572.34228 L203.219318,4572.44061 C201.896309,4573.66724 200.787298,4574.18073 199.189446,4574.3108 L199.062271,4574.32028 C198.80584,4574.33766 198.53676,4574.34571 198.252265,4574.34571 C195.440273,4574.34571 193.25735,4572.61347 193.25735,4569.14427 C193.25735,4566.43548 194.722015,4564.59055 196.815748,4563.68917 C197.860036,4563.22927 199.142813,4562.98766 200.412574,4562.82325 L200.636463,4562.79501 C200.673738,4562.79042 200.710989,4562.7859 200.74821,4562.78143 L200.971118,4562.75527 L200.971118,4562.75527 L201.192987,4562.73029 L201.192987,4562.73029 L201.413512,4562.7063 L201.413512,4562.7063 L201.849296,4562.66063 L201.849296,4562.66063 L202.588624,4562.58454 L202.588624,4562.58454 L202.792917,4562.56285 L202.792917,4562.56285 L202.993562,4562.54087 C203.026681,4562.53717 203.059636,4562.53345 203.09242,4562.52971 L203.09242,4562.09779 L203.09276,4561.98529 L203.09276,4561.98529 L203.09439,4561.75554 C203.094645,4561.7168 203.094852,4561.67787 203.094948,4561.63878 L203.094903,4561.5342 L203.094081,4561.42906 C203.086521,4560.81442 203.026208,4560.1799 202.683897,4559.68008 C202.280227,4559.06514 201.50082,4558.81159 200.810817,4558.81159 C199.538551,4558.81159 198.40724,4559.46406 198.13029,4560.81614 C198.073887,4561.1166 197.853232,4561.41242 197.548134,4561.42655 L194.3136,4561.07907 C194.282667,4561.07213 194.251309,4561.06313 194.220137,4561.05202 L194.182861,4561.03766 C193.954029,4560.94283 193.748885,4560.7309 193.815995,4560.37957 C194.557764,4556.45504 198.10678,4555.27196 201.280381,4555.27196 Z M157.522923,4555.27196 C157.723438,4555.27196 157.93154,4555.27854 158.144712,4555.2924 L158.273204,4555.30159 C159.735877,4555.41577 161.409681,4555.8726 162.502881,4556.88868 L162.550731,4556.93388 C163.520123,4557.8389 163.85576,4558.92449 163.96883,4560.12085 L163.978791,4560.23333 C163.981902,4560.27093 163.984808,4560.30864 163.987523,4560.34645 L163.995101,4560.46019 C163.997443,4560.4982 163.999606,4560.53632 164.001601,4560.57454 L164.007099,4560.68949 L164.007099,4560.68949 L164.011668,4560.80502 L164.011668,4560.80502 L164.016948,4560.97939 L164.016948,4560.97939 L164.019528,4561.09634 L164.019528,4561.09634 L164.021443,4561.21382 L164.021443,4561.21382 L164.023236,4561.39103 L164.023236,4561.39103 L164.023959,4561.56938 L164.023959,4561.56938 L164.02396,4561.69755 L164.023236,4561.92316 L164.023236,4561.92316 L164.020798,4562.37907 C164.020447,4562.45555 164.020179,4562.53226 164.020077,4562.6092 L164.020033,4567.87664 C164.020033,4568.80143 164.24673,4569.419 164.558253,4569.94411 L164.603318,4570.01852 C164.61092,4570.03083 164.618566,4570.04308 164.626254,4570.0553 L164.672878,4570.12808 C164.680728,4570.14013 164.688617,4570.15215 164.696542,4570.16412 L164.744518,4570.2356 L164.744518,4570.2356 L164.79328,4570.30637 L164.79328,4570.30637 L164.867697,4570.41151 L164.867697,4570.41151 L164.918023,4570.48114 L164.918023,4570.48114 L165.019978,4570.61989 L165.019978,4570.61989 L165.200659,4570.86399 L165.200659,4570.86399 L165.278171,4570.97032 L165.278171,4570.97032 C165.494188,4571.27078 165.541101,4571.63229 165.268789,4571.85758 L165.098175,4572.00079 L165.098175,4572.00079 L164.845322,4572.21528 L164.845322,4572.21528 L164.570372,4572.45055 L164.570372,4572.45055 L164.207069,4572.7637 L164.207069,4572.7637 L163.909903,4573.02134 L163.909903,4573.02134 L163.400043,4573.46605 L163.400043,4573.46605 L162.999309,4573.81796 L162.999309,4573.81796 L162.710344,4574.07339 L162.710344,4574.07339 L162.700853,4574.06401 C162.480307,4574.26115 162.161081,4574.27539 161.912279,4574.14382 C161.70572,4573.97228 161.530816,4573.81788 161.378988,4573.67449 L161.298409,4573.59733 L161.298409,4573.59733 L161.222099,4573.52214 C161.12306,4573.42309 161.034576,4573.3287 160.953349,4573.2366 L160.893738,4573.16792 L160.893738,4573.16792 L160.836539,4573.09989 C160.81784,4573.07729 160.799491,4573.05476 160.781442,4573.03227 L160.728138,4572.96485 L160.728138,4572.96485 L160.676317,4572.89742 C160.667787,4572.88616 160.659306,4572.8749 160.650867,4572.86362 L160.600692,4572.79574 L160.600692,4572.79574 L160.551228,4572.72729 L160.551228,4572.72729 L160.502165,4572.65805 L160.502165,4572.65805 L160.453194,4572.5878 L160.453194,4572.5878 L160.379232,4572.48004 L160.379232,4572.48004 L160.143967,4572.13267 L160.143967,4572.13267 L160.057606,4572.00638 L160.057606,4572.00638 L159.996924,4571.91862 L159.996924,4571.91862 L159.942156,4571.97428 L159.942156,4571.97428 L159.833544,4572.08326 C159.743531,4572.17279 159.654736,4572.2591 159.566957,4572.34228 L159.462096,4572.44061 C158.1397,4573.66724 157.033221,4574.18073 155.43357,4574.3108 L155.306244,4574.32028 C155.049492,4574.33766 154.779979,4574.34571 154.494915,4574.34571 C151.687668,4574.34571 149.5,4572.61347 149.5,4569.14427 C149.5,4566.43548 150.96941,4564.59055 153.058398,4563.68917 C154.102686,4563.22927 155.385463,4562.98766 156.655203,4562.82325 L156.879088,4562.79501 C156.916363,4562.79042 156.953613,4562.7859 156.990833,4562.78143 L157.213736,4562.75527 L157.213736,4562.75527 L157.435601,4562.73029 L157.435601,4562.73029 L157.65612,4562.7063 L157.65612,4562.7063 L158.091892,4562.66063 L158.091892,4562.66063 L158.831191,4562.58454 L158.831191,4562.58454 L159.035475,4562.56285 L159.035475,4562.56285 L159.236109,4562.54087 C159.269227,4562.53717 159.30218,4562.53345 159.334962,4562.52971 L159.335036,4562.04801 L159.335036,4562.04801 L159.337531,4561.63878 L159.337531,4561.63878 L159.337236,4561.48169 L159.337236,4561.48169 L159.335978,4561.37633 L159.335978,4561.37633 L159.333572,4561.27067 C159.317227,4560.70664 159.241063,4560.13706 158.931184,4559.68008 C158.522769,4559.06514 157.743577,4558.81159 157.058104,4558.81159 C155.785946,4558.81159 154.64989,4559.46406 154.372832,4560.81614 C154.316536,4561.1166 154.095882,4561.41242 153.795422,4561.42655 L150.556249,4561.07896 C150.525305,4561.07202 150.493998,4561.06302 150.462921,4561.05191 L150.425778,4561.03755 C150.197872,4560.94272 149.995526,4560.7308 150.058645,4560.37947 C150.805052,4556.45504 154.34943,4555.27196 157.522923,4555.27196 Z M185.64295,4555.43632 C187.041828,4555.43632 188.572279,4556.01373 189.506446,4557.3094 C190.12678,4558.15578 190.308321,4559.2273 190.352509,4560.3394 L190.357254,4560.47576 L190.357254,4560.47576 L190.360749,4560.61246 L190.360749,4560.61246 L190.363117,4560.74941 L190.363117,4560.74941 L190.36448,4560.88654 L190.36448,4560.88654 L190.364913,4561.09241 L190.364913,4561.09241 L190.363778,4561.29826 L190.363778,4561.29826 L190.362355,4561.43536 L190.362355,4561.43536 L190.358596,4561.70074 L190.358596,4561.70074 L190.352175,4562.09622 C190.349151,4562.29293 190.346787,4562.48785 190.346787,4562.67994 L190.342041,4573.49135 C190.342041,4573.83397 190.055709,4574.11103 189.698952,4574.11103 L186.365845,4574.11103 C186.0326,4574.08752 185.764924,4573.81985 185.764924,4573.49135 L185.764993,4564.37011 L185.764993,4564.37011 L185.767031,4564.1283 L185.767031,4564.1283 L185.77562,4563.45572 L185.77562,4563.45572 L185.777795,4563.18092 L185.777795,4563.18092 L185.778356,4562.96981 L185.778356,4562.96981 L185.778043,4562.82802 L185.778043,4562.82802 L185.777072,4562.68622 L185.777072,4562.68622 L185.775349,4562.54511 L185.775349,4562.54511 L185.77278,4562.40539 L185.77278,4562.40539 L185.76927,4562.26779 L185.76927,4562.26779 L185.764727,4562.133 C185.763879,4562.11081 185.762983,4562.08877 185.762038,4562.06689 L185.755768,4561.93766 L185.755768,4561.93766 L185.748229,4561.81301 C185.733188,4561.58913 185.711277,4561.39196 185.679894,4561.24112 L185.671098,4561.20115 C185.447176,4560.16598 184.820195,4559.80014 183.991972,4559.73732 L183.922492,4559.73278 C183.910836,4559.73214 183.899142,4559.73155 183.887411,4559.73102 L183.816582,4559.72849 C183.804704,4559.72818 183.79279,4559.72792 183.780841,4559.72772 L183.708721,4559.7271 L183.708721,4559.7271 C182.901274,4559.7271 182.056296,4560.26687 181.713559,4561.13073 C181.508355,4561.6481 181.437848,4562.37421 181.414302,4563.08222 L181.410071,4563.22837 L181.410071,4563.22837 L181.407008,4563.37356 C181.406585,4563.39765 181.406204,4563.42169 181.40586,4563.44565 L181.404225,4563.58856 L181.404225,4563.58856 L181.403097,4563.79888 L181.403097,4563.79888 L181.403052,4564.01005 L181.403782,4564.34813 L181.403782,4564.34813 L181.403824,4573.49135 C181.403824,4573.83397 181.117384,4574.11103 180.760627,4574.11103 L177.42752,4574.11103 C177.089529,4574.08752 176.826599,4573.81985 176.826599,4573.49135 L176.822053,4564.35458 L176.822053,4564.35458 L176.823279,4564.1788 L176.823279,4564.1788 L176.833827,4563.44103 L176.833827,4563.44103 L176.835446,4563.25094 L176.835446,4563.25094 L176.835788,4563.12358 L176.835788,4563.12358 L176.835373,4562.99594 L176.835373,4562.99594 L176.834058,4562.86818 L176.834058,4562.86818 L176.831697,4562.74049 C176.796033,4561.18802 176.496358,4559.68957 174.765759,4559.68957 C173.154704,4559.68957 172.667953,4560.9261 172.522002,4562.33838 L172.510758,4562.45483 C172.505503,4562.51324 172.500787,4562.57188 172.496557,4562.63071 L172.488726,4562.74857 L172.488726,4562.74857 L172.482092,4562.86676 C172.481081,4562.88648 172.480116,4562.90621 172.479194,4562.92594 L172.474173,4563.04439 L172.474173,4563.04439 L172.470108,4563.16284 L172.470108,4563.16284 L172.4669,4563.28117 L172.4669,4563.28117 L172.463486,4563.45814 L172.463486,4563.45814 L172.461459,4563.63409 L172.461459,4563.63409 L172.460493,4563.80859 L172.460493,4563.80859 L172.460299,4564.04811 L172.460662,4564.29242 L172.460662,4564.29242 L172.460754,4573.49135 C172.460754,4573.83397 172.174421,4574.11103 171.817665,4574.11103 L168.479813,4574.11103 C168.160587,4574.08752 167.907147,4573.8481 167.883637,4573.5429 L167.883637,4556.41276 C167.883637,4556.07002 168.16997,4555.79782 168.526726,4555.79782 L171.639179,4555.79782 C171.96315,4555.81184 172.221334,4556.06064 172.244845,4556.37048 L172.244845,4558.60981 L172.305886,4558.60981 C173.117971,4556.44565 174.643677,4555.43632 176.69988,4555.43632 C178.788868,4555.43632 180.094027,4556.44565 181.03294,4558.60981 C181.840387,4556.44565 183.675936,4555.43632 185.64295,4555.43632 Z M252.576963,4555.43632 C254.07452,4555.43632 255.534547,4555.9762 256.47346,4557.45488 C257.06341,4558.38105 257.254745,4559.7338 257.3168,4561.02503 L257.323643,4561.17965 L257.323643,4561.17965 L257.329348,4561.33349 L257.329348,4561.33349 L257.33402,4561.48637 L257.33402,4561.48637 L257.33776,4561.6381 L257.33776,4561.6381 L257.340673,4561.78848 L257.340673,4561.78848 L257.343718,4562.01113 L257.343718,4562.01113 L257.345847,4562.30156 L257.345847,4562.30156 L257.346586,4562.58326 L257.346586,4562.58326 L257.346586,4573.57115 C257.309055,4573.87161 257.032105,4574.11103 256.703497,4574.11103 L253.356262,4574.11103 C253.051056,4574.08752 252.797617,4573.86223 252.764724,4573.57115 L252.764786,4564.21013 L252.764786,4564.21013 L252.766002,4563.97956 L252.766002,4563.97956 L252.769915,4563.43873 L252.769915,4563.43873 L252.770005,4563.25375 L252.770005,4563.25375 L252.768749,4563.06739 L252.768749,4563.06739 L252.766945,4562.94268 C252.766571,4562.92188 252.766158,4562.90107 252.765704,4562.88025 L252.76246,4562.75534 C252.761199,4562.7137 252.759751,4562.67208 252.758093,4562.6305 L252.752471,4562.50593 C252.677995,4561.03396 252.312289,4559.65193 250.675735,4559.65193 C249.86365,4559.65193 249.117136,4560.19656 248.74636,4561.02266 C248.330155,4561.95066 248.234903,4562.87485 248.218629,4563.87716 L248.216716,4564.03199 L248.216716,4564.03199 L248.215853,4564.18812 L248.215853,4564.18812 L248.215755,4573.49135 C248.211117,4573.83397 247.920039,4574.11103 247.563283,4574.11103 L244.239559,4574.11103 C243.906313,4574.08752 243.638638,4573.81985 243.638638,4573.49135 L243.634,4556.35646 C243.66204,4556.04188 243.939206,4555.79782 244.277089,4555.79782 L247.370777,4555.79782 C247.661854,4555.81184 247.901274,4556.00898 247.966952,4556.27666 L247.966952,4558.89614 L248.027994,4558.89614 C248.962269,4556.55361 250.271958,4555.43632 252.576963,4555.43632 Z M223.428835,4555.7508 C223.780954,4555.7508 224.062649,4556.00424 224.062649,4556.37048 L224.062649,4558.46896 C224.060226,4558.64871 223.981932,4558.85664 223.83588,4559.11399 L223.79796,4559.17936 C223.784853,4559.20151 223.77128,4559.22401 223.757245,4559.24687 L223.713764,4559.31659 L223.713764,4559.31659 L223.667543,4559.38859 L223.667543,4559.38859 L223.618612,4559.46294 L223.618612,4559.46294 L223.566999,4559.53972 L223.566999,4559.53972 L223.484611,4559.6596 L223.484611,4559.6596 L223.426415,4559.74277 L223.426415,4559.74277 L223.334285,4559.87258 L223.334285,4559.87258 L223.236436,4560.00869 L223.236436,4560.00869 L217.551411,4568.12555 C219.66391,4568.07378 221.893746,4568.38837 223.809102,4569.46813 C224.182659,4569.6793 224.320907,4569.97469 224.372728,4570.27838 L224.381468,4570.33541 C224.385368,4570.36395 224.38859,4570.39252 224.391257,4570.42106 L224.391257,4573.03591 C224.391257,4573.39277 223.996862,4573.81057 223.58381,4573.59455 C220.242181,4571.84249 215.814798,4571.63629 212.105294,4573.55454 L211.993106,4573.61332 C211.612839,4573.81995 211.213807,4573.40679 211.213807,4573.05004 L211.213988,4570.48251 L211.213988,4570.48251 L211.214541,4570.42152 L211.214541,4570.42152 L211.215698,4570.35753 L211.215698,4570.35753 L211.217678,4570.29075 L211.217678,4570.29075 L211.220703,4570.22137 L211.220703,4570.22137 L211.224991,4570.14959 C211.225824,4570.13744 211.226718,4570.1252 211.227679,4570.11287 L211.234277,4570.03788 C211.269132,4569.68337 211.363278,4569.2671 211.617476,4568.88134 L218.203883,4559.43602 L212.471837,4559.43602 C212.119826,4559.43602 211.838131,4559.18722 211.838131,4558.82097 L211.838131,4556.37048 C211.838131,4555.9996 212.119826,4555.7508 212.457817,4555.7508 L223.428835,4555.7508 Z M203.092312,4565.9285 L203.092312,4565.20549 L202.947119,4565.20613 L202.947119,4565.20613 L202.80174,4565.20809 C200.47486,4565.25054 198.125545,4565.83576 198.125545,4568.56675 C198.125545,4570.00801 198.876697,4570.98445 200.158237,4570.98445 C201.092512,4570.98445 201.93749,4570.40704 202.46788,4569.46813 C202.929161,4568.65773 203.050537,4567.88201 203.081906,4567.04198 L203.085967,4566.91548 L203.085967,4566.91548 L203.088866,4566.78794 L203.088866,4566.78794 L203.09079,4566.65929 L203.09079,4566.65929 L203.091925,4566.52945 L203.091925,4566.52945 L203.092562,4566.33231 L203.092562,4566.33231 L203.092312,4565.9285 Z M159.335212,4566.33231 L159.334962,4565.20549 L159.190042,4565.20613 L159.190042,4565.20613 L159.044924,4565.20809 C156.722147,4565.25054 154.372832,4565.83576 154.372832,4568.56675 C154.372832,4570.00801 155.119346,4570.98445 156.400887,4570.98445 C157.3398,4570.98445 158.18014,4570.40704 158.71053,4569.46813 C159.17181,4568.65773 159.293187,4567.88201 159.324556,4567.04198 L159.328617,4566.91548 L159.328617,4566.91548 L159.331516,4566.78794 L159.331516,4566.78794 L159.33344,4566.65929 L159.33344,4566.65929 L159.334575,4566.52945 L159.334575,4566.52945 L159.335212,4566.33231 L159.335212,4566.33231 Z M233.536217,4558.93367 C231.568124,4558.93367 231.075399,4561.07894 230.957029,4563.00661 L230.948836,4563.15074 L230.948836,4563.15074 L230.941943,4563.29383 L230.941943,4563.29383 L230.936248,4563.43567 L230.936248,4563.43567 L230.931648,4563.57602 L230.931648,4563.57602 L230.928038,4563.71467 L230.928038,4563.71467 L230.925316,4563.8514 L230.925316,4563.8514 L230.923378,4563.98598 L230.923378,4563.98598 L230.922122,4564.1182 L230.922122,4564.1182 L230.921241,4564.37464 L230.921241,4564.37464 L230.92165,4564.83829 L230.92165,4564.83829 L230.922801,4565.04921 L230.922801,4565.04921 L230.925093,4565.26862 L230.925093,4565.26862 L230.928911,4565.49555 L230.928911,4565.49555 L230.932494,4565.65053 L230.932494,4565.65053 L230.93704,4565.80812 L230.93704,4565.80812 L230.942663,4565.96803 L230.942663,4565.96803 L230.949478,4566.12998 C231.048792,4568.30152 231.496196,4570.93754 233.507961,4570.93754 C235.556627,4570.93754 236.05926,4568.67606 236.179722,4566.64375 L236.188058,4566.49179 C236.191886,4566.41607 236.195218,4566.34076 236.198114,4566.26598 L236.203345,4566.1172 C236.204126,4566.09253 236.204863,4566.06794 236.205559,4566.04342 L236.209254,4565.89724 L236.209254,4565.89724 L236.212061,4565.75308 L236.212061,4565.75308 L236.21409,4565.61119 L236.21409,4565.61119 L236.215449,4565.47179 L236.215449,4565.47179 L236.216472,4565.26787 L236.216472,4565.26787 L236.216537,4565.03606 L236.216537,4565.03606 L236.215685,4564.83559 L236.215685,4564.83559 L236.213809,4564.63218 C236.197913,4563.30116 236.105985,4561.80591 235.719031,4560.59085 C235.34351,4559.39849 234.597103,4558.93367 233.536217,4558.93367 Z"></path>
        </g>
    </g>
</svg>