<?xml version="1.0" encoding="UTF-8"?>
<svg width="104px" height="33px" viewBox="0 0 104 33" version="1.1" xmlns="http://www.w3.org/2000/svg" xmlns:xlink="http://www.w3.org/1999/xlink">
    <title>logo-google</title>
    <g id="Cheebot-2.0" stroke="none" stroke-width="1" fill="none" fill-rule="evenodd">
        <g transform="translate(-299.000000, -4555.000000)" fill="#FFFFFF" fill-rule="nonzero" id="logo-google">
            <path d="M370.235104,4564.0225 C372.077277,4564.0225 373.559133,4564.79284 374.401116,4565.6812 L374.560898,4565.86026 L374.688127,4565.86026 L374.688127,4564.4466 L378.10918,4564.4466 L378.10918,4579.21933 C378.10918,4585.28392 374.532625,4587.77196 370.305787,4587.77196 C366.452155,4587.77196 364.091236,4585.2753 363.120874,4583.14235 L363.025447,4582.92311 L366.163768,4581.62255 C366.729232,4582.96552 368.10048,4584.54882 370.305787,4584.54882 C372.912767,4584.54882 374.570899,4582.98058 374.682153,4580.0477 L374.688127,4579.72824 L374.688127,4578.58318 L374.560898,4578.58318 C373.755113,4579.57274 372.200089,4580.44921 370.235104,4580.44921 C366.135495,4580.44921 362.55894,4576.84438 362.55894,4572.23586 C362.55894,4567.59906 366.135495,4564.0225 370.235104,4564.0225 Z M312.006526,4555.27196 C315.718557,4555.27196 318.417908,4556.67413 320.452958,4558.55776 L320.71466,4558.8061 L318.269032,4561.25173 C316.784691,4559.85221 314.76316,4558.76369 312.006526,4558.76369 C306.889084,4558.76369 302.888431,4562.89158 302.888431,4568.00902 C302.888431,4573.12646 306.889084,4577.25434 312.006526,4577.25434 C315.314486,4577.25434 317.208788,4575.9255 318.424534,4574.70976 C319.343412,4573.77775 319.969749,4572.48007 320.258271,4570.73749 L320.318836,4570.32742 L312.006526,4570.32742 L312.006526,4566.84982 L323.711615,4566.84982 C323.838845,4567.47183 323.895391,4568.22107 323.895391,4569.02685 C323.895391,4571.62798 323.174425,4574.86526 320.884299,4577.15539 C318.650719,4579.47379 315.79513,4580.71781 312.006526,4580.71781 C304.994782,4580.71781 299.099828,4575.00663 299.099828,4567.99488 C299.099828,4560.98314 304.994782,4555.27196 312.006526,4555.27196 Z M334.285778,4564.0225 C338.823621,4564.0225 342.527405,4567.47183 342.527405,4572.23586 C342.527405,4576.97161 338.823621,4580.44921 334.285778,4580.44921 C329.747936,4580.44921 326.044151,4576.95747 326.044151,4572.23586 C326.044151,4567.47183 329.747936,4564.0225 334.285778,4564.0225 Z M352.663334,4564.0225 C357.201176,4564.0225 360.90496,4567.47183 360.90496,4572.23586 C360.90496,4576.97161 357.201176,4580.44921 352.663334,4580.44921 C348.125491,4580.44921 344.421707,4576.95747 344.421707,4572.23586 C344.421707,4567.47183 348.125491,4564.0225 352.663334,4564.0225 Z M395.044804,4564.0225 C398.502081,4564.0225 400.531509,4566.26227 401.534961,4568.08791 L401.748497,4568.50065 C401.846342,4568.70214 401.930939,4568.8954 402.002905,4569.07634 L402.438236,4570.18605 L391.454112,4574.72389 C392.302307,4576.37787 393.602872,4577.21193 395.440628,4577.21193 C397.17028,4577.21193 398.399038,4576.4105 399.315473,4575.18478 L399.48369,4574.95008 L402.282733,4576.81611 L402.069273,4577.11459 C402.030413,4577.16643 401.989901,4577.21922 401.947725,4577.27279 L401.674568,4577.60262 C400.549992,4578.89442 398.529471,4580.44921 395.440628,4580.44921 C390.775556,4580.44921 387.297957,4576.84438 387.297957,4572.23586 C387.297957,4567.3446 390.817966,4564.0225 395.044804,4564.0225 Z M384.484778,4555.61124 L384.484778,4580.44921 L380.936496,4580.44921 L380.936496,4555.61124 L384.484778,4555.61124 Z M334.285778,4567.25978 C331.79774,4567.25978 329.648979,4569.28131 329.648979,4572.23586 C329.648979,4575.16213 331.79774,4577.21193 334.285778,4577.21193 C336.773816,4577.21193 338.922577,4575.16213 338.922577,4572.23586 C338.922577,4569.28131 336.773816,4567.25978 334.285778,4567.25978 Z M370.546109,4567.25978 C368.05807,4567.25978 366.163768,4569.33786 366.163768,4572.23586 C366.163768,4575.09145 368.05807,4577.21193 370.546109,4577.21193 C373.005874,4577.21193 374.942585,4575.13386 374.928602,4572.26413 C374.928602,4569.38027 373.005874,4567.25978 370.546109,4567.25978 Z M352.663334,4567.25978 C350.175295,4567.25978 348.026535,4569.28131 348.026535,4572.23586 C348.026535,4575.16213 350.175295,4577.21193 352.663334,4577.21193 C355.151372,4577.21193 357.300132,4575.16213 357.300132,4572.23586 C357.300132,4569.28131 355.151372,4567.25978 352.663334,4567.25978 Z M395.18617,4567.10428 C393.382342,4567.10428 391.03691,4568.43847 390.882552,4571.64318 L390.874512,4571.9814 L398.296217,4568.91376 C397.886257,4567.85352 396.642237,4567.10428 395.18617,4567.10428 Z"></path>
        </g>
    </g>
</svg>