<?xml version="1.0" encoding="UTF-8"?>
<svg width="137px" height="30px" viewBox="0 0 137 30" version="1.1" xmlns="http://www.w3.org/2000/svg" xmlns:xlink="http://www.w3.org/1999/xlink">
    <title>logo-microsoft</title>
    <g id="Cheebot-2.0" stroke="none" stroke-width="1" fill="none" fill-rule="evenodd">
        <g transform="translate(-825.000000, -4557.000000)" fill="#FFFFFF" fill-rule="nonzero" id="logo-microsoft">
            <path d="M839.124168,4572.24211 L839.124168,4586.02196 L825.344586,4586.02196 L825.344586,4572.24211 L839.124168,4572.24211 Z M854.339198,4572.24211 L854.339198,4586.02196 L840.559484,4586.02196 L840.559484,4572.24211 L854.339198,4572.24211 Z M952.419762,4561.55563 C953.106343,4561.55563 953.660207,4561.62935 954.067425,4561.77573 L954.067425,4561.77573 L954.118935,4561.79465 L954.118935,4564.31049 L954.009476,4564.26161 C953.572955,4564.067 953.139194,4563.96832 952.720281,4563.96832 C952.137508,4563.96832 951.68062,4564.15544 951.361179,4564.5235 C951.039504,4564.89603 950.876302,4565.45462 950.876302,4566.18456 L950.876302,4566.18456 L950.876302,4567.7522 L955.274231,4567.7522 L955.274231,4564.93821 L955.329157,4564.92152 L958.115559,4564.06897 L958.215426,4564.03823 L958.215426,4567.75207 L961.182113,4567.75207 L961.182113,4570.14098 L958.215557,4570.14098 L958.215557,4576.02021 C958.215557,4576.77368 958.350771,4577.3123 958.617256,4577.62031 C958.880719,4577.92556 959.305414,4578.08022 959.879383,4578.08022 C960.032073,4578.08022 960.229178,4578.04698 960.465178,4577.98062 C960.700126,4577.91544 960.900516,4577.8278 961.061485,4577.72057 L961.061485,4577.72057 L961.182113,4577.64081 L961.182113,4580.05179 L961.143086,4580.07492 C960.96648,4580.1761 960.666487,4580.27084 960.226024,4580.36571 C959.793314,4580.45809 959.369539,4580.50526 958.96692,4580.50526 C956.516647,4580.50526 955.274231,4579.17047 955.274231,4576.5365 L955.274231,4576.5365 L955.274231,4570.14098 L950.876302,4570.14098 L950.876302,4580.20501 L947.910928,4580.20501 L947.910928,4570.14098 L945.845272,4570.14098 L945.845272,4567.75207 L947.910928,4567.75207 L947.910928,4566.02859 C947.910928,4565.16264 948.10212,4564.38014 948.478853,4563.70262 C948.856899,4563.02432 949.396572,4562.49082 950.082627,4562.11711 C950.768288,4561.74393 951.554473,4561.55563 952.419762,4561.55563 Z M939.354881,4567.45208 C941.289265,4567.45208 942.823527,4568.02762 943.914304,4569.16308 C945.004555,4570.29801 945.557105,4571.878 945.557105,4573.85824 C945.557105,4575.86306 944.968288,4577.48996 943.806028,4578.69177 C942.643637,4579.8949 941.045118,4580.505 939.054625,4580.505 C937.144418,4580.505 935.600432,4579.92604 934.465898,4578.7831 C933.331364,4577.64055 932.756213,4576.07225 932.756213,4574.12249 C932.756213,4572.06971 933.345424,4570.42731 934.507553,4569.24047 C935.67047,4568.05377 937.301445,4567.45208 939.354881,4567.45208 Z M927.975112,4567.45208 C928.402566,4567.45208 928.894014,4567.5028 929.435789,4567.60332 C929.98006,4567.7045 930.428145,4567.8292 930.767953,4567.97493 L930.767953,4567.97493 L930.81447,4567.9949 L930.81447,4570.70312 L930.693316,4570.62034 C930.324993,4570.36975 929.883742,4570.16489 929.381388,4570.01194 C928.87864,4569.85899 928.373132,4569.78093 927.879056,4569.78093 C927.346611,4569.78093 926.922048,4569.90104 926.617061,4570.13717 C926.31444,4570.37212 926.167006,4570.66225 926.167006,4571.0244 C926.167006,4571.43293 926.286451,4571.75553 926.521663,4571.98364 C926.765678,4572.21978 927.357123,4572.52739 928.280361,4572.89795 C929.439205,4573.36522 930.270067,4573.89385 930.748768,4574.46966 C931.230754,4575.0502 931.475296,4575.77002 931.475296,4576.60943 C931.475296,4577.773 931.021035,4578.72436 930.124735,4579.43788 C929.234085,4580.14653 928.013482,4580.50553 926.497747,4580.50553 C926.006563,4580.50553 925.441135,4580.44009 924.81881,4580.31144 C924.195303,4580.18293 923.666274,4580.0196 923.246704,4579.82591 L923.246704,4579.82591 L923.201501,4579.80489 L923.201501,4576.94989 L923.324626,4577.03819 C923.831607,4577.40219 924.391527,4577.6861 924.984772,4577.87996 C925.582262,4578.0768 926.127716,4578.17667 926.605892,4578.17667 C927.895088,4578.17667 928.521617,4577.76958 928.521617,4576.93294 C928.521617,4576.63912 928.459858,4576.40102 928.338047,4576.22704 C928.212689,4576.04925 927.990749,4575.86674 927.67801,4575.68514 C927.358043,4575.49986 926.854375,4575.26478 926.178964,4574.98686 C925.375565,4574.64167 924.769271,4574.30238 924.376508,4573.97847 C923.980722,4573.65194 923.682831,4573.26285 923.490325,4572.82094 C923.299003,4572.38048 923.201764,4571.86118 923.201764,4571.27656 C923.201764,4570.15189 923.652214,4569.22247 924.540236,4568.51381 C925.42287,4567.80936 926.578297,4567.45208 927.975112,4567.45208 Z M915.603382,4567.45208 C917.537372,4567.45208 919.071372,4568.02762 920.162411,4569.16308 C921.252925,4570.29801 921.805607,4571.878 921.805607,4573.85824 C921.805607,4575.86306 921.216527,4577.48996 920.054529,4578.69177 C918.892138,4579.8949 917.293225,4580.505 915.302994,4580.505 C913.392788,4580.505 911.848933,4579.92604 910.714399,4578.7831 C909.579865,4577.64055 909.00432,4576.07304 909.00432,4574.12249 C909.00432,4572.06971 909.593925,4570.42731 910.756054,4569.24047 C911.918314,4568.05377 913.549421,4567.45208 915.603382,4567.45208 Z M896.327997,4567.45208 C896.851376,4567.45208 897.402217,4567.51095 897.965411,4567.62776 C898.53097,4567.74484 898.986544,4567.89924 899.320571,4568.08623 L899.320571,4568.08623 L899.360254,4568.10857 L899.360254,4570.93623 L899.237393,4570.84701 C898.349765,4570.20313 897.411547,4569.87712 896.448757,4569.87712 C895.323158,4569.87712 894.398737,4570.25872 893.701381,4571.011 C893.001923,4571.76551 892.647003,4572.78809 892.647003,4574.05048 C892.647003,4575.30499 892.987337,4576.30194 893.658544,4577.01191 C894.328305,4577.72096 895.251018,4578.08061 896.4004,4578.08061 C896.81432,4578.08061 897.28632,4577.98929 897.804048,4577.80861 C898.32309,4577.6278 898.805471,4577.37682 899.23713,4577.06237 L899.23713,4577.06237 L899.360254,4576.97249 L899.360254,4579.65614 L899.321753,4579.67821 C898.368818,4580.22708 897.180278,4580.5054 895.788193,4580.5054 C894.595316,4580.5054 893.517943,4580.24351 892.585769,4579.72696 C891.652282,4579.20976 890.914848,4578.46405 890.393835,4577.51085 C889.873084,4576.55923 889.609621,4575.47949 889.609621,4574.30291 C889.609621,4572.95971 889.881363,4571.75527 890.416567,4570.72415 C890.954137,4569.69053 891.744264,4568.87767 892.765923,4568.3083 C893.785479,4567.74024 894.984138,4567.45208 896.327997,4567.45208 Z M907.62012,4567.53604 C908.108414,4567.53604 908.494345,4567.59452 908.767137,4567.71042 L908.767137,4567.71042 L908.814574,4567.73078 L908.814574,4570.68394 L908.691449,4570.59471 C908.555841,4570.49695 908.325886,4570.40405 908.008416,4570.3185 C907.687661,4570.23244 907.391479,4570.18894 907.127621,4570.18894 C906.349189,4570.18894 905.711622,4570.52546 905.233183,4571.18958 C904.748569,4571.8617 904.502976,4572.75156 904.502976,4573.83472 L904.502976,4573.83472 L904.502976,4580.20475 L901.573739,4580.20475 L901.573739,4567.75207 L904.502976,4567.75207 L904.502976,4569.90866 L904.534119,4569.90866 C904.807831,4569.20881 905.165773,4568.64758 905.661032,4568.23826 C906.225276,4567.77257 906.884,4567.53604 907.62012,4567.53604 Z M887.59219,4567.7522 L887.59219,4580.20475 L884.662953,4580.20475 L884.662953,4567.7522 L887.59219,4567.7522 Z M867.338247,4562.82853 L872.44181,4575.73507 L877.700824,4562.82853 L881.838312,4562.82853 L881.838312,4580.20475 L878.848893,4580.20475 L878.848893,4566.83343 L878.752443,4566.83343 L873.447307,4580.20475 L871.32725,4580.20475 L865.938016,4566.83212 L865.841566,4566.83212 L865.841566,4580.20475 L863.0323,4580.20475 L863.0323,4562.82853 L867.338247,4562.82853 Z M939.198905,4569.87712 C938.139271,4569.87712 937.298817,4570.23966 936.700407,4570.95397 C936.09845,4571.67301 935.793595,4572.70649 935.793595,4574.02696 C935.793595,4575.30683 936.09845,4576.31416 936.700144,4577.02072 C937.29816,4577.72372 938.146761,4578.08061 939.223083,4578.08061 C940.305713,4578.08061 941.133815,4577.73029 941.684526,4577.04069 C942.239046,4576.34583 942.520249,4575.30709 942.520249,4573.95482 C942.520249,4572.61898 942.221176,4571.59377 941.631964,4570.9068 C941.045644,4570.22337 940.227134,4569.87712 939.198905,4569.87712 Z M915.447406,4569.87712 C914.387246,4569.87712 913.546924,4570.23966 912.94904,4570.95397 C912.346951,4571.67301 912.042227,4572.70649 912.042227,4574.02696 C912.042227,4575.30709 912.346557,4576.31416 912.948383,4577.02072 C913.546267,4577.72372 914.395131,4578.08061 915.47119,4578.08061 C916.554214,4578.08061 917.381922,4577.73029 917.932633,4577.04069 C918.487154,4576.34583 918.768488,4575.30709 918.768488,4573.95482 C918.768488,4572.61898 918.469546,4571.59377 917.880203,4570.9068 C917.293751,4570.22337 916.475241,4569.87712 915.447406,4569.87712 Z M839.124563,4557.02196 L839.124563,4570.80194 L825.344586,4570.80194 L825.344586,4557.02196 L839.124563,4557.02196 Z M854.339198,4557.02196 L854.339198,4570.80194 L840.559484,4570.80194 L840.559484,4557.02196 L854.339198,4557.02196 Z M886.157531,4562.44733 C886.664616,4562.44733 887.093253,4562.61631 887.43109,4562.94981 C887.76919,4563.28397 887.940802,4563.6904 887.940802,4564.15807 C887.940802,4564.63519 887.764459,4565.0382 887.416767,4565.3562 C887.071308,4565.67222 886.647928,4565.83267 886.157663,4565.83267 C885.667266,4565.83267 885.245463,4565.67222 884.904077,4565.35567 C884.560458,4565.0382 884.386612,4564.63506 884.386612,4564.15807 C884.386612,4563.67345 884.562561,4563.26282 884.909465,4562.93667 C885.254924,4562.61145 885.675413,4562.44733 886.157531,4562.44733 Z"></path>
        </g>
    </g>
</svg>