<svg width="182" height="36" xmlns="http://www.w3.org/2000/svg"><path d="M113.303.5v12.286c1.844-1.667 4.303-2.62 7.378-2.62 6.29 0 11.587 5.144 11.587 12.667 0 7.572-5.297 12.667-11.587 12.667-3.075 0-5.534-.952-7.378-2.619v1.905h-7.567V.5h7.567zm60.368 0v7.85h7.521v6.543h-7.521v8.831l.004.429c.013.561.05 1.081.11 1.561.076.6.247 1.118.513 1.554.266.436.674.772 1.225 1.008.55.237 1.282.355 2.194.355.455 0 1.054-.046 1.794-.136.741-.091 1.301-.3 1.681-.627v6.814l-.409.134c-.823.253-1.675.427-2.554.52a28.56 28.56 0 01-3.02.164c-1.443 0-2.773-.145-3.988-.436-1.216-.29-2.28-.754-3.191-1.39a6.584 6.584 0 01-2.137-2.48c-.513-1.019-.77-2.254-.77-3.708V14.893h-5.47V8.35h5.47V.5h8.548zM65.6 10.167c6.717 0 12.108 4.857 12.25 12.666v1.953H60.447c.615 2.857 2.554 4.619 5.108 4.619 1.75 0 3.783-.429 5.06-2.762l6.933.605c-.013.109-.086.367-.217.776-2.034 5.047-6.338 7.476-11.776 7.476-6.858 0-12.533-5.095-12.533-12.667 0-7.523 5.675-12.666 12.58-12.666zm26.225 0c6.715 0 12.107 4.857 12.249 12.666v1.953H86.67c.615 2.857 2.554 4.619 5.108 4.619 1.75 0 3.784-.429 5.06-2.762l6.934.605c-.014.109-.086.367-.217.776-2.034 5.047-6.338 7.476-11.777 7.476-6.857 0-12.533-5.095-12.533-12.667 0-7.523 5.676-12.666 12.58-12.666zM26.058 24.623c-.972 7.539-6.649 10.837-12.387 10.837-5.094 0-9.548-2.666-11.633-6.963l11.633.332c2.303 0 4.402-1.35 4.978-4.206h7.409zm120.59-14.361c7.047 0 13.006 5.048 13.006 12.571 0 7.572-5.96 12.62-13.006 12.62-7.189 0-13.148-5.048-13.148-12.62 0-7.523 5.96-12.571 13.148-12.571zM35.118.5v12.667c1.844-1.905 4.304-3 7.33-3 5.487 0 9.176 3.952 9.176 9.952v14.667h-7.52V21.738c0-2.81-1.656-4.714-4.115-4.714-2.932 0-4.871 2.047-4.871 6.666v11.096H27.55V.5h7.567zm84.002 16.143c-3.074 0-5.817 2.524-5.817 6.19 0 3.715 2.743 6.19 5.817 6.19 3.31 0 5.723-2.475 5.723-6.19 0-3.666-2.413-6.19-5.723-6.19zm27.528 0c-3.074 0-5.865 2.476-5.865 6.19 0 3.762 2.79 6.19 5.865 6.19 2.932 0 5.723-2.428 5.723-6.19 0-3.714-2.79-6.19-5.723-6.19zM.808 23.679l9.88.232c.76.024 1.363.651 1.363 1.416 0 .765-.603 1.392-1.363 1.416l-9.277.191a12.967 12.967 0 01-.603-3.255zm.605-4.896l9.275.215c.76.024 1.363.651 1.363 1.417 0 .765-.603 1.391-1.363 1.415l-9.88.206a12.99 12.99 0 01.605-3.253zm12.258-8.52c5.578 0 11.143 3.537 12.229 10.02h-4.013l-.278.001-.813.001-.75.001-.445.001c-.7.002-1.167.004-1.167.007-.78-2.306-2.688-3.4-4.763-3.4l-11.633.332c2.085-4.297 6.54-6.963 11.633-6.963zm51.93 6.094c-2.127 0-4.303 1.333-5.012 3.762h9.79c-.71-2.571-2.602-3.762-4.777-3.762zm26.225 0c-2.129 0-4.304 1.333-5.014 3.762h9.79c-.71-2.571-2.6-3.762-4.776-3.762z" fill="#000D33" fill-rule="nonzero"/></svg>