<?xml version="1.0" encoding="UTF-8"?>
<svg width="125px" height="41px" viewBox="0 0 125 41" version="1.1" xmlns="http://www.w3.org/2000/svg" xmlns:xlink="http://www.w3.org/1999/xlink">
    <title>logo-expedia-group</title>
    <g id="Cheebot-2.0" stroke="none" stroke-width="1" fill="none" fill-rule="evenodd">
        <g transform="translate(-444.000000, -4551.000000)" fill="#FFFFFF" id="logo-expedia-group">
            <path d="M463.885644,4551.74732 C474.773298,4551.74732 483.659837,4560.63386 483.659837,4571.52196 C483.659837,4573.68357 483.259704,4575.76516 482.699517,4577.6867 L460.683235,4577.6867 L460.683235,4575.52508 L468.448507,4575.285 C472.371603,4575.12495 474.133084,4573.12339 474.133084,4570.00101 C474.133084,4566.15794 470.610568,4560.63386 463.805617,4560.63386 C457.641327,4560.63386 453.47815,4565.9183 453.47815,4571.36191 C453.47815,4577.84675 457.961433,4582.48964 465.647125,4582.48964 L480.217795,4582.48964 C476.774859,4587.85366 470.770622,4591.2966 463.885644,4591.2966 C452.997543,4591.2966 444.191478,4582.40961 444.191478,4571.52196 C444.191478,4560.63386 452.997543,4551.74732 463.885644,4551.74732 Z M495.564649,4575.07206 C497.022104,4575.07206 498.456307,4575.83567 499.267347,4577.55634 C499.315712,4577.65214 499.387329,4577.62889 499.387329,4577.53216 L499.387329,4575.38179 L502.254805,4575.38179 L502.254805,4585.82486 C502.254805,4588.90719 500.127683,4591.2966 496.448237,4591.2966 C494.392732,4591.2966 492.601374,4590.5795 491.286223,4589.36015 L493.007824,4587.49624 C494.154628,4588.40494 495.062399,4588.88301 496.400802,4588.88301 C498.503741,4588.88301 499.387329,4587.40137 499.387329,4585.56165 L499.387329,4584.22325 C499.387329,4584.12838 499.315712,4584.10326 499.267347,4584.19999 C498.456307,4585.91973 497.022104,4586.6852 495.564649,4586.6852 C492.912025,4586.6852 490.498434,4584.4381 490.498434,4580.8777 C490.498434,4577.31731 492.912025,4575.07206 495.564649,4575.07206 Z M541.537265,4575.07113 C544.214072,4575.07113 546.650915,4577.34149 546.650915,4580.92607 C546.650915,4584.50971 544.214072,4586.78007 541.537265,4586.78007 C540.055628,4586.78007 538.598173,4586.01553 537.785272,4584.29486 C537.737837,4584.19999 537.66622,4584.22418 537.66622,4584.31904 L537.66622,4591.03338 L534.798745,4591.03338 L534.798745,4575.38272 L537.66622,4575.38272 L537.66622,4577.53309 C537.66622,4577.62796 537.737837,4577.65214 537.785272,4577.55634 C538.598173,4575.8366 540.055628,4575.07113 541.537265,4575.07113 Z M526.436282,4575.38272 L526.436282,4582.43096 C526.436282,4583.53033 527.152453,4584.24743 528.22764,4584.24743 C529.207958,4584.24743 529.948312,4583.50614 529.948312,4582.45514 L529.948312,4575.38272 L532.815787,4575.38272 L532.815787,4582.64581 C532.815787,4585.13195 530.880265,4586.82843 528.156023,4586.82843 C525.360165,4586.82843 523.567877,4585.13195 523.567877,4582.64581 L523.567877,4575.38272 L526.436282,4575.38272 Z M516.328966,4575.0237 C519.554527,4575.0237 522.207151,4577.67632 522.207151,4580.92607 C522.207151,4584.17488 519.554527,4586.82843 516.328966,4586.82843 C513.05597,4586.82843 510.402416,4584.17488 510.402416,4580.92607 C510.402416,4577.67632 513.05597,4575.0237 516.328966,4575.0237 Z M510.235929,4575.07113 L510.235929,4578.08277 L508.944961,4578.08277 C507.773974,4578.08277 507.176855,4578.99054 507.176855,4580.28058 L507.176855,4586.47035 L504.309379,4586.47035 L504.309379,4575.38179 L507.176855,4575.38179 L507.176855,4577.79538 C507.176855,4577.84374 507.22429,4577.86792 507.248472,4577.79538 C507.63074,4575.81242 508.491076,4575.07113 509.972713,4575.07113 L510.235929,4575.07113 Z M540.748547,4577.43636 C539.099493,4577.43636 537.617855,4578.89474 537.617855,4580.92607 C537.617855,4582.95739 539.099493,4584.41484 540.748547,4584.41484 C542.420853,4584.41484 543.879239,4582.95739 543.879239,4580.92607 C543.879239,4578.89474 542.420853,4577.43636 540.748547,4577.43636 Z M496.352437,4577.43729 C494.704313,4577.43729 493.27011,4578.87149 493.27011,4580.8777 C493.27011,4582.88577 494.704313,4584.31811 496.352437,4584.31811 C497.977309,4584.31811 499.434764,4582.88577 499.434764,4580.8777 C499.434764,4578.87149 497.977309,4577.43729 496.352437,4577.43729 Z M516.304784,4577.62796 C514.584112,4577.62796 513.174092,4579.06216 513.174092,4580.92607 C513.174092,4582.78997 514.584112,4584.22418 516.304784,4584.22418 C518.025455,4584.22418 519.435475,4582.78997 519.435475,4580.92607 C519.435475,4579.06216 518.025455,4577.62796 516.304784,4577.62796 Z M520.008412,4556.33454 C522.683359,4556.33454 525.121131,4558.60489 525.121131,4562.18947 C525.121131,4565.77312 522.683359,4568.04347 520.008412,4568.04347 C518.526775,4568.04347 517.06932,4567.27894 516.256419,4565.55826 C516.208984,4565.46339 516.136437,4565.48758 516.136437,4565.58245 L516.136437,4572.29678 L513.269891,4572.29678 L513.269891,4556.64612 L516.136437,4556.64612 L516.136437,4558.79649 C516.136437,4558.89136 516.208984,4558.91554 516.256419,4558.81974 C517.06932,4557.1 518.526775,4556.33454 520.008412,4556.33454 Z M496.37662,4556.2871 C499.626363,4556.2871 502.278987,4558.93973 502.278987,4562.18854 C502.278987,4562.83402 502.159005,4563.45532 501.991589,4564.02919 L495.420484,4564.02919 L495.420484,4563.38371 L497.738275,4563.31209 C498.908332,4563.26373 499.434764,4562.66661 499.434764,4561.73558 C499.434764,4560.58878 498.383759,4558.93973 496.352437,4558.93973 C494.512714,4558.93973 493.27011,4560.51623 493.27011,4562.1411 C493.27011,4564.07663 494.608514,4565.46339 496.902122,4565.46339 L501.251235,4565.46339 C500.223483,4567.06315 498.431194,4568.09091 496.37662,4568.09091 C493.126876,4568.09091 490.498434,4565.43921 490.498434,4562.18854 C490.498434,4558.93973 493.126876,4556.2871 496.37662,4556.2871 Z M531.931269,4556.2871 C535.181013,4556.2871 537.833637,4558.93973 537.833637,4562.18854 C537.833637,4562.83402 537.713655,4563.45532 537.546238,4564.02919 L530.975134,4564.02919 L530.975134,4563.38371 L533.292925,4563.31209 C534.463911,4563.26466 534.989414,4562.66661 534.989414,4561.73558 C534.989414,4560.58878 533.937479,4558.93973 531.906157,4558.93973 C530.067364,4558.93973 528.82476,4560.51623 528.82476,4562.1411 C528.82476,4564.07663 530.162233,4565.46339 532.456771,4565.46339 L536.805884,4565.46339 C535.778132,4567.06315 533.985844,4568.09091 531.931269,4568.09091 C528.680596,4568.09091 526.053084,4565.43921 526.053084,4562.18854 C526.053084,4558.93973 528.680596,4556.2871 531.931269,4556.2871 Z M550.615899,4551.84219 L550.615899,4567.73282 L547.748424,4567.73282 L547.748424,4565.58245 C547.748424,4565.48758 547.676807,4565.46339 547.629372,4565.55826 C546.816471,4567.27894 545.359016,4568.04347 543.877378,4568.04347 C541.200572,4568.04347 538.763729,4565.77312 538.763729,4562.18947 C538.763729,4558.60489 541.200572,4556.33454 543.877378,4556.33454 C545.359016,4556.33454 546.816471,4557.1 547.629372,4558.81974 C547.676807,4558.91554 547.748424,4558.89136 547.748424,4558.79649 L547.748424,4551.84219 L550.615899,4551.84219 Z M562.084871,4556.33454 C563.565578,4556.33454 565.023964,4557.1 565.835934,4558.81974 C565.884299,4558.91554 565.954986,4558.89136 565.954986,4558.79649 L565.954986,4556.64612 L568.823392,4556.64612 L568.823392,4567.73282 L565.954986,4567.73282 L565.954986,4565.58245 C565.954986,4565.48758 565.884299,4565.46339 565.835934,4565.55826 C565.023964,4567.27894 563.565578,4568.04347 562.084871,4568.04347 C559.408995,4568.04347 556.971222,4565.77312 556.971222,4562.18947 C556.971222,4558.60489 559.408995,4556.33454 562.084871,4556.33454 Z M504.906499,4556.64519 L507.176855,4559.9433 L509.423028,4556.64519 L512.528608,4556.64519 L508.705927,4561.97462 L512.840189,4567.73282 L509.54208,4567.73282 L507.080125,4564.14917 L504.595848,4567.73282 L501.489339,4567.73282 L505.551053,4562.11692 L501.609321,4556.64519 L504.906499,4556.64519 Z M555.538879,4556.64519 L555.538879,4567.73282 L552.670474,4567.73282 L552.670474,4556.64519 L555.538879,4556.64519 Z M519.219694,4558.69976 C517.57064,4558.69976 516.089002,4560.15815 516.089002,4562.18947 C516.089002,4564.22079 517.57064,4565.67825 519.219694,4565.67825 C520.892,4565.67825 522.349455,4564.22079 522.349455,4562.18947 C522.349455,4560.15815 520.892,4558.69976 519.219694,4558.69976 Z M544.666097,4558.69976 C542.99379,4558.69976 541.535405,4560.15815 541.535405,4562.18947 C541.535405,4564.22079 542.99379,4565.67825 544.666097,4565.67825 C546.315151,4565.67825 547.796789,4564.22079 547.796789,4562.18947 C547.796789,4560.15815 546.315151,4558.69976 544.666097,4558.69976 Z M562.87359,4558.69976 C561.200353,4558.69976 559.742898,4560.15815 559.742898,4562.18947 C559.742898,4564.22079 561.200353,4565.67825 562.87359,4565.67825 C564.521714,4565.67825 566.003351,4564.22079 566.003351,4562.18947 C566.003351,4560.15815 564.521714,4558.69976 562.87359,4558.69976 Z M554.103746,4551.74732 C555.011517,4551.74732 555.776983,4552.51186 555.776983,4553.41963 C555.776983,4554.3274 555.011517,4555.09193 554.103746,4555.09193 C553.195976,4555.09193 552.43144,4554.3274 552.43144,4553.41963 C552.43144,4552.51186 553.195976,4551.74732 554.103746,4551.74732 Z"></path>
        </g>
    </g>
</svg>