<?xml version="1.0" encoding="UTF-8"?>
<svg width="132px" height="47px" viewBox="0 0 132 47" version="1.1" xmlns="http://www.w3.org/2000/svg" xmlns:xlink="http://www.w3.org/1999/xlink">
    <title>logo-comcast</title>
    <g id="Cheebot-2.0" stroke="none" stroke-width="1" fill="none" fill-rule="evenodd">
        <g transform="translate(-1164.000000, -4548.000000)" fill="#FFFFFF" id="logo-comcast">
            <path d="M1223.61623,4575.04981 C1224.01189,4575.04494 1224.35858,4575.29369 1224.48811,4575.6567 L1224.52618,4575.79791 L1227.95187,4594.36314 L1226.09113,4594.36314 L1223.29366,4579.19684 L1217.97342,4592.25026 C1217.88045,4592.47986 1217.69874,4592.66016 1217.47055,4592.75312 C1217.04669,4592.926 1216.56696,4592.75662 1216.34142,4592.37198 L1216.2817,4592.25026 L1210.96849,4579.20952 L1208.28372,4593.79548 L1208.28372,4593.79548 C1208.18089,4594.28849 1207.69774,4594.60542 1207.20333,4594.50259 C1206.75386,4594.4104 1206.45107,4594.00155 1206.47699,4593.55758 L1206.49481,4593.42361 L1209.73598,4575.80073 C1209.79232,4575.49788 1210.00079,4575.24152 1210.28673,4575.12461 C1210.71059,4574.95046 1211.19033,4575.11972 1211.41798,4575.50329 L1211.4784,4575.62466 L1217.12685,4589.48378 L1222.78375,4575.62043 C1222.92039,4575.28096 1223.24859,4575.05418 1223.61623,4575.04981 Z M1258.13375,4575.03023 C1258.46283,4575.02284 1258.76711,4575.19447 1258.93335,4575.47151 L1258.99581,4575.59649 L1266.65009,4594.37019 L1264.67525,4594.37019 L1261.75806,4587.21454 L1254.54044,4587.21454 L1251.79932,4593.94761 C1251.62517,4594.37275 1251.16813,4594.59649 1250.73618,4594.48973 L1250.60765,4594.44766 C1250.18251,4594.27351 1249.9576,4593.81647 1250.06521,4593.38346 L1250.1076,4593.25458 L1257.30268,4575.59649 C1257.44213,4575.25842 1257.76893,4575.03587 1258.13375,4575.03023 Z M1240.06153,4575.07531 C1242.82501,4575.07531 1244.84348,4576.21098 1245.96871,4577.06274 L1246.27934,4577.30833 L1246.27934,4577.30833 L1246.64284,4577.62614 L1246.64284,4577.62614 L1246.93164,4577.91077 L1246.93164,4577.91077 L1246.99743,4577.98264 L1246.99743,4577.98264 C1247.33409,4578.37564 1247.2876,4578.97006 1246.89179,4579.30812 C1246.53682,4579.61111 1246.01984,4579.60376 1245.67355,4579.31174 L1245.5577,4579.19549 L1245.5577,4579.19549 L1245.45002,4579.07936 L1245.45002,4579.07936 L1245.3069,4578.93844 L1245.3069,4578.93844 L1245.1071,4578.7582 L1245.1071,4578.7582 L1244.85092,4578.54846 C1243.99816,4577.88484 1242.38872,4576.95578 1240.06153,4576.95578 C1235.81463,4576.95578 1232.27343,4580.41809 1232.27343,4584.82135 C1232.27343,4588.9133 1235.55827,4592.59114 1240.10097,4592.59114 C1242.56525,4592.59114 1244.27279,4591.48311 1245.19061,4590.67595 L1245.45416,4590.4327 L1245.45416,4590.4327 L1245.66498,4590.21932 L1245.66498,4590.21932 L1245.88183,4589.97679 L1247.2214,4591.29523 L1246.91117,4591.61951 L1246.91117,4591.61951 L1246.64143,4591.87707 C1246.5432,4591.96731 1246.43668,4592.06147 1246.32197,4592.15819 L1245.95333,4592.45467 C1244.70868,4593.4092 1242.73237,4594.4716 1240.10097,4594.4716 C1234.53704,4594.4716 1230.39296,4589.92608 1230.39296,4584.82135 C1230.39296,4579.40391 1234.78917,4575.07531 1240.06153,4575.07531 Z M1174.24653,4575.07531 C1177.01089,4575.07531 1179.02913,4576.21098 1180.15408,4577.06274 L1180.46462,4577.30833 L1180.46462,4577.30833 L1180.72067,4577.52837 L1180.72067,4577.52837 L1180.92137,4577.71434 L1180.92137,4577.71434 L1181.15313,4577.94999 L1181.15313,4577.94999 L1181.18243,4577.98264 L1181.18243,4577.98264 C1181.52049,4578.37564 1181.47401,4578.97006 1181.07678,4579.30812 C1180.72182,4579.61111 1180.20598,4579.60376 1179.85991,4579.31174 L1179.7441,4579.19549 L1179.7441,4579.19549 L1179.63635,4579.07936 L1179.63635,4579.07936 L1179.49314,4578.93844 L1179.49314,4578.93844 L1179.29322,4578.7582 L1179.29322,4578.7582 L1179.03692,4578.54846 C1178.18374,4577.88484 1176.57372,4576.95578 1174.24653,4576.95578 C1170.00103,4576.95578 1166.45843,4580.41809 1166.45843,4584.82135 C1166.45843,4588.9133 1169.74185,4592.59114 1174.28738,4592.59114 C1176.75062,4592.59114 1178.45864,4591.48311 1179.37624,4590.67595 L1179.6397,4590.4327 L1179.6397,4590.4327 L1179.85036,4590.21932 L1179.85036,4590.21932 L1180.06682,4589.97679 L1181.4078,4591.29523 L1181.09721,4591.61951 L1181.09721,4591.61951 L1180.82732,4591.87707 C1179.69724,4592.91478 1177.47275,4594.4716 1174.28738,4594.4716 C1168.72344,4594.4716 1164.57655,4589.92608 1164.57655,4584.82135 C1164.57655,4579.40391 1168.97558,4575.07531 1174.24653,4575.07531 Z M1275.1777,4575.08939 C1276.21243,4575.08939 1277.14689,4575.31682 1277.88501,4575.58216 L1278.30354,4575.74439 C1278.36912,4575.77168 1278.43253,4575.79897 1278.4937,4575.82607 L1278.8329,4575.98489 L1278.8329,4575.98489 L1279.11345,4576.13007 L1279.11345,4576.13007 L1279.33073,4576.2525 L1279.33073,4576.2525 L1279.56687,4576.39938 C1279.59223,4576.41347 1279.61758,4576.43178 1279.64012,4576.45009 C1280.05847,4576.75717 1280.14721,4577.34596 1279.83732,4577.76431 C1279.55969,4578.14082 1279.05386,4578.24922 1278.65255,4578.04122 L1278.34922,4577.85712 L1278.34922,4577.85712 L1278.01359,4577.6811 L1278.01359,4577.6811 L1277.70619,4577.539 C1277.08705,4577.26941 1276.17477,4576.96986 1275.1777,4576.96986 C1274.15647,4576.96986 1273.18455,4577.24735 1272.52814,4577.72909 C1271.87033,4578.21083 1271.47593,4578.83765 1271.47593,4579.87719 C1271.47593,4580.87588 1271.68581,4581.27733 1272.2422,4581.78302 C1272.54415,4582.05654 1272.98021,4582.33803 1273.541,4582.65422 L1274.14302,4582.98297 C1274.25018,4583.04002 1274.36071,4583.09828 1274.47457,4583.15788 L1275.21151,4583.53953 L1275.21151,4583.53953 L1276.71867,4584.27278 C1277.53436,4584.67767 1278.30425,4585.09673 1278.97949,4585.62143 C1280.06129,4586.46377 1280.87264,4587.716 1280.87264,4589.33588 C1280.87264,4590.8966 1280.19651,4592.23617 1279.1612,4593.12217 C1278.12448,4594.00677 1276.75532,4594.46738 1275.32842,4594.46738 C1273.01709,4594.46738 1271.19939,4593.43121 1270.06721,4592.54549 L1269.71547,4592.25745 L1269.71547,4592.25745 L1269.41609,4591.99032 L1269.41609,4591.99032 L1269.17065,4591.75387 L1269.17065,4591.75387 L1269.06864,4591.6502 L1270.45892,4590.37965 L1270.67274,4590.58547 L1270.67274,4590.58547 L1270.9476,4590.82886 C1271.81004,4591.55951 1273.37169,4592.58691 1275.32842,4592.58691 C1276.34824,4592.58691 1277.28496,4592.25026 1277.93713,4591.69105 C1278.59213,4591.12902 1278.99358,4590.37542 1278.99358,4589.33588 C1278.99358,4588.26535 1278.62171,4587.72305 1277.82304,4587.10186 C1277.42441,4586.79197 1276.91344,4586.49546 1276.32518,4586.18909 L1275.5844,4585.81523 L1275.5844,4585.81523 L1274.35086,4585.21153 L1274.35086,4585.21153 L1273.46293,4584.75531 C1272.47425,4584.24391 1271.64965,4583.78572 1270.97588,4583.1733 C1270.10959,4582.38589 1269.59546,4581.25902 1269.59546,4579.87719 C1269.59546,4578.29535 1270.3406,4576.99944 1271.41254,4576.21486 C1272.48307,4575.42886 1273.83109,4575.08939 1275.1777,4575.08939 Z M1194.18936,4575.06263 C1199.79696,4575.06263 1203.88187,4579.75183 1203.88187,4584.77768 C1203.88187,4589.35983 1200.28151,4594.46456 1194.26401,4594.46456 C1189.00152,4594.46456 1184.4898,4590.30781 1184.4898,4584.8467 C1184.4898,4578.84892 1189.37902,4575.06263 1194.18936,4575.06263 Z M1295.01771,4575.18659 C1295.53889,4575.19363 1295.95301,4575.62184 1295.94614,4576.1402 C1295.93957,4576.61144 1295.58509,4576.9977 1295.13124,4577.05874 L1294.99235,4577.06706 L1290.47218,4577.06565 L1290.47218,4594.36596 L1288.69877,4594.36596 L1288.69877,4577.06565 L1284.13423,4577.06811 L1284.13423,4577.06811 C1283.60249,4577.06001 1283.18695,4576.63462 1283.19382,4576.11344 C1283.20039,4575.64092 1283.55487,4575.25455 1284.00872,4575.19455 L1284.14761,4575.18659 L1295.01771,4575.18659 Z M1194.18936,4576.94169 C1190.34813,4576.94169 1186.37027,4579.8617 1186.37027,4584.8467 C1186.37027,4589.27813 1189.9819,4592.58268 1194.26401,4592.58268 C1199.21662,4592.58268 1202.0014,4588.38086 1202.0014,4584.77768 C1202.0014,4580.77165 1198.74615,4576.94169 1194.18936,4576.94169 Z M1258.15066,4578.36014 L1255.30671,4585.33408 L1260.99178,4585.33408 L1258.15066,4578.36014 Z M1243.58723,4560.65134 C1245.15781,4560.65274 1246.51006,4561.76553 1246.96785,4563.18257 C1247.62898,4565.36498 1246.21108,4567.73735 1243.95248,4567.88814 L1243.72387,4567.89572 L1232.07905,4567.89572 L1241.53773,4561.30492 C1242.22653,4560.84854 1242.9266,4560.65134 1243.58723,4560.65134 Z M1213.57157,4563.04735 C1214.42838,4560.80332 1216.74932,4559.96301 1218.87479,4561.16796 L1219.1017,4561.30492 L1228.5632,4567.89572 L1217.08882,4567.89572 C1214.69703,4567.89572 1212.81938,4565.70959 1213.57157,4563.04735 Z M1217.35927,4553.99715 C1219.27586,4552.37909 1221.96154,4552.86512 1223.05964,4555.28673 L1223.16407,4555.53533 L1228.04907,4566.69983 L1217.97482,4559.80477 C1215.44922,4558.12855 1215.95913,4555.26207 1217.35927,4553.99715 Z M1240.70807,4553.08439 C1241.67906,4553.08439 1242.60034,4553.48089 1243.16703,4554.01786 L1243.31256,4554.16759 C1244.5665,4555.42153 1244.96034,4557.91243 1242.89534,4559.56229 L1242.66461,4559.73575 L1232.59318,4566.66743 L1237.33872,4555.63675 C1238.11627,4553.74642 1239.45584,4553.08439 1240.70807,4553.08439 Z M1226.03196,4548.56844 C1227.85041,4548.36806 1230.11738,4549.70452 1229.88897,4552.60591 L1229.8577,4552.90127 L1228.08146,4565.40533 L1223.03026,4553.51823 C1221.93578,4550.54751 1224.39377,4548.60225 1226.03196,4548.56844 Z M1234.22996,4548.52196 L1234.36765,4548.52495 L1234.36765,4548.52495 L1234.50323,4548.53323 C1236.35359,4548.60009 1238.43265,4550.68686 1237.62849,4553.23631 L1237.54156,4553.48443 L1232.52275,4565.40392 L1230.91696,4554.64651 C1230.83155,4553.61276 1231.20857,4553.21673 1231.59236,4552.98787 L1231.78271,4552.8852 L1231.78271,4552.8852 L1232.04267,4552.75483 C1232.09439,4552.72629 1232.14102,4552.69695 1232.18046,4552.66463 C1232.13733,4552.51496 1231.92197,4552.45884 1231.76651,4552.43779 L1231.60153,4552.42516 L1231.60153,4552.42516 L1230.64651,4552.42516 C1230.54932,4549.76575 1232.5143,4548.52196 1234.22996,4548.52196 Z"></path>
        </g>
    </g>
</svg>