<svg width="37" height="36" xmlns="http://www.w3.org/2000/svg"><path d="M19.185 26.526c3.292 0 6.29-1.927 7.114-6.008h10.584C35.495 31.288 27.384 36 19.185 36c-7.276 0-13.641-3.809-16.62-9.948l16.62.474zm6.806-12.195c-1.113-3.293-3.84-4.857-6.806-4.857l-16.62.474C5.544 3.808 11.91 0 19.185 0c7.97 0 15.922 5.054 17.473 14.315 0 0-10.667 0-10.667.016zm-9.12.173a2.017 2.017 0 01-1.947 2.023L.808 16.82c.097-1.642.393-3.196.864-4.648l13.252.308a2.018 2.018 0 011.947 2.023zm0 7.02a2.017 2.017 0 01-1.947 2.022l-13.254.273a18.527 18.527 0 01-.862-4.65l14.116.33a2.018 2.018 0 011.947 2.024z" fill="#FFF" fill-rule="evenodd"/></svg>