<?xml version="1.0" encoding="UTF-8"?>
<svg width="113px" height="21px" viewBox="0 0 113 21" version="1.1" xmlns="http://www.w3.org/2000/svg" xmlns:xlink="http://www.w3.org/1999/xlink">
    <title>logo-bungie</title>
    <g id="Cheebot-2.0" stroke="none" stroke-width="1" fill="none" fill-rule="evenodd">
        <g transform="translate(-1012.000000, -4561.000000)" fill="#FFFFFF" fill-rule="nonzero" id="logo-bungie">
            <path d="M1036.48549,4562.04828 L1036.48579,4573.01319 C1036.48579,4576.06529 1038.96001,4578.5395 1042.01211,4578.5395 C1044.99154,4578.5395 1047.42028,4576.1817 1047.53424,4573.23019 L1047.53842,4573.01319 L1047.53749,4562.04828 L1050.43249,4562.04828 L1050.43316,4573.18863 C1050.43316,4577.791 1046.7022,4581.52196 1042.09983,4581.52196 C1037.49746,4581.52196 1033.76649,4577.791 1033.76649,4573.18863 L1033.76649,4562.04828 L1036.48549,4562.04828 Z M1087.80158,4561.52196 C1091.06188,4561.52196 1093.97604,4562.84596 1095.9069,4565.01476 L1093.76176,4567.07269 C1092.37099,4565.45318 1090.23746,4564.4167 1087.84544,4564.4167 C1083.65486,4564.4167 1080.25772,4567.59783 1080.25772,4571.52196 C1080.25772,4575.44609 1083.65486,4578.62722 1087.84544,4578.62722 C1089.92992,4578.62722 1091.81984,4578.13196 1093.19214,4577.00602 L1093.41601,4576.8125 L1093.41527,4573.80196 L1088.50334,4573.80266 L1088.50334,4570.8202 L1096.39827,4570.81996 L1096.39844,4577.99351 C1094.49181,4580.40866 1091.35193,4581.34652 1087.80158,4581.34652 C1081.98806,4581.34652 1077.27527,4576.90864 1077.27527,4571.43424 C1077.27527,4565.95984 1081.98806,4561.52196 1087.80158,4561.52196 Z M1104.29281,4569.06582 L1104.29281,4580.99564 L1101.31035,4580.99564 L1101.31035,4569.06582 L1104.29281,4569.06582 Z M1124.11709,4561.78003 L1124.11711,4564.8667 L1112.01211,4564.86763 L1112.01211,4569.66188 L1120.25111,4569.6617 L1120.25111,4572.6327 L1112.01211,4572.63361 L1112.01211,4578.14831 L1124.46809,4578.14803 L1124.46825,4580.99564 L1109.20509,4580.99564 L1109.20509,4561.78007 L1124.11709,4561.78003 Z M1059.1212,4562.04828 L1069.9943,4575.9381 L1069.9942,4562.04828 L1073.06474,4562.04828 L1073.06474,4580.99564 L1069.9952,4580.99528 L1059.11764,4567.0989 L1059.1172,4580.99528 L1056.0472,4580.99564 L1056.0472,4562.04828 L1059.1212,4562.04828 Z M1024.81913,4562.04828 L1024.8195,4562.07695 C1027.23627,4562.34173 1029.11737,4564.40754 1029.11737,4566.9167 C1029.11737,4568.5984 1028.27237,4570.08096 1026.98744,4570.9556 C1028.50406,4571.79056 1029.55597,4573.61557 1029.55597,4575.73249 C1029.55597,4578.63925 1027.57267,4580.99564 1025.12614,4580.99564 C1025.02306,4580.99564 1024.9208,4580.99146 1024.81948,4580.98323 L1024.81913,4580.99564 L1012.71386,4580.99564 L1012.71386,4562.04828 L1024.81913,4562.04828 Z M1023.81478,4572.866 L1015.69632,4572.866 L1015.69632,4578.12033 L1023.81478,4578.12033 L1023.98794,4578.11553 C1025.47717,4578.03282 1026.65727,4576.89037 1026.65727,4575.49316 C1026.65727,4574.04222 1025.38464,4572.866 1023.81478,4572.866 Z M1023.24018,4564.86035 L1015.69632,4564.86035 L1015.69632,4569.89908 L1023.24018,4569.89908 C1023.28419,4569.89815 1023.3289,4569.89908 1023.37385,4569.89908 C1024.88333,4569.89908 1026.118,4568.85622 1026.21074,4567.53904 L1026.21633,4567.37971 L1026.21074,4567.22038 C1026.12171,4565.9559 1024.98028,4564.94422 1023.55361,4564.86531 L1023.37385,4564.86035 L1023.23932,4564.86335 L1023.24018,4564.86035 Z M1102.74687,4561.78007 C1104.26972,4561.78007 1105.50422,4563.01458 1105.50422,4564.53742 C1105.50422,4566.06027 1104.26972,4567.29478 1102.74687,4567.29478 C1101.22403,4567.29478 1099.98952,4566.06027 1099.98952,4564.53742 C1099.98952,4563.01458 1101.22403,4561.78007 1102.74687,4561.78007 Z"></path>
        </g>
    </g>
</svg>