<?xml version="1.0" encoding="UTF-8"?>
<svg width="164px" height="17px" viewBox="0 0 164 17" version="1.1" xmlns="http://www.w3.org/2000/svg" xmlns:xlink="http://www.w3.org/1999/xlink">
    <title>logo-starbucks</title>
    <g id="Cheebot-2.0" stroke="none" stroke-width="1" fill="none" fill-rule="evenodd">
        <g transform="translate(-615.000000, -4563.000000)" fill="#FFFFFF" fill-rule="nonzero" id="logo-starbucks">
            <path d="M731.61445,4563.52768 C733.764567,4563.49983 735.887614,4564.00926 737.790981,4565.00974 L737.790981,4565.00974 L736.15469,4568.90487 C735.159749,4568.10929 733.918424,4567.40023 732.4909,4567.40023 C730.233946,4567.40023 728.962528,4569.25094 728.962528,4571.45523 C728.962528,4573.62943 730.406979,4575.41618 732.575536,4575.41618 C734.179854,4575.41618 735.169153,4574.75979 736.149047,4574.02251 L736.149047,4574.02251 L737.806028,4578.00792 C736.361577,4578.89001 734.465735,4579.51632 731.770556,4579.52196 C726.869203,4579.52196 723.43299,4576.38103 723.43299,4571.41385 C723.43299,4566.7081 726.967005,4563.52768 731.61445,4563.52768 Z M710.297516,4563.83425 L710.297516,4571.99314 C710.297516,4574.25009 710.918178,4575.25255 712.392722,4575.25255 C713.867265,4575.25255 714.576325,4574.34037 714.576325,4571.7618 L714.576325,4563.83425 L720.05132,4563.83425 L720.056963,4572.21507 C720.056963,4576.9716 717.40128,4579.51632 712.437861,4579.51632 C707.568482,4579.51632 704.82064,4576.90201 704.82064,4572.26021 L704.82064,4563.83425 L710.297516,4563.83425 Z M622.59039,4563.52203 C624.725093,4563.52203 626.982047,4564.15774 628.862842,4564.9646 L628.862842,4564.9646 L627.429676,4568.46664 C626.150735,4567.688 624.664907,4567.03724 623.069993,4567.03724 C622.430522,4567.03724 621.236217,4567.11059 621.236217,4568.05099 C621.236217,4568.75817 622.086337,4568.94625 623.858046,4569.32241 C626.216563,4569.82646 629.225836,4570.79695 629.225836,4574.34037 C629.225836,4578.27499 625.614709,4579.51632 622.127714,4579.51632 C619.828956,4579.48664 617.586642,4578.80011 615.665302,4577.53772 L615.665302,4577.53772 L617.399395,4574.15229 C618.657318,4575.19385 620.23329,4575.77447 621.866284,4575.79798 C622.658099,4575.79798 623.478125,4575.55536 623.478125,4574.72969 C623.478125,4573.90402 622.417357,4573.77613 620.739687,4573.37364 C618.330389,4572.77743 616.144904,4571.66776 616.144904,4568.78826 C616.144904,4565.26741 618.975501,4563.52203 622.59039,4563.52203 Z M765.276924,4563.52203 C767.409745,4563.52203 769.6667,4564.15774 771.547495,4564.9646 L771.547495,4564.9646 L770.114329,4568.46664 C768.837269,4567.688 767.34956,4567.03724 765.756526,4567.03724 C765.117056,4567.03724 763.92087,4567.11059 763.92087,4568.05099 C763.92087,4568.75817 764.77099,4568.94625 766.542699,4569.32241 C768.903097,4569.82646 771.912369,4570.79695 771.912369,4574.34037 C771.912369,4578.27499 768.299362,4579.51632 764.814248,4579.51632 C762.516839,4579.4855 760.276042,4578.79904 758.355597,4577.53772 L758.355597,4577.53772 L760.091571,4574.15229 C761.346463,4575.19601 762.9208,4575.77875 764.552817,4575.80363 C765.344632,4575.80363 766.164659,4575.561 766.164659,4574.73534 C766.164659,4573.90967 765.094486,4573.78553 763.426221,4573.37364 C761.016922,4572.77743 758.831438,4571.66776 758.831438,4568.78826 C758.831438,4565.26741 761.662035,4563.52203 765.276924,4563.52203 Z M646.164278,4563.83425 L646.164278,4567.73125 L641.53376,4567.73125 L641.53376,4579.2041 L636.002341,4579.2041 L636.002341,4567.73125 L631.371823,4567.73125 L631.371823,4563.83425 L646.164278,4563.83425 Z M746.779302,4563.83425 L746.779302,4569.46159 L750.023674,4563.83425 L756.025292,4563.83425 L750.980999,4571.40821 L756.672285,4579.2041 L750.241846,4579.2041 L746.779302,4573.60122 L746.779302,4579.2041 L741.40587,4579.2041 L741.40587,4563.83425 L746.779302,4563.83425 Z M695.379048,4563.83425 C698.832188,4563.83425 700.791977,4565.30503 700.791977,4567.92121 C700.791977,4569.80201 699.810202,4570.92484 697.810916,4571.35367 C699.851579,4571.51918 701.119235,4572.86771 701.119235,4574.87828 C701.119235,4577.77282 699.095499,4579.2041 695.031101,4579.2041 L695.031101,4579.2041 L686.614542,4579.2041 L686.614542,4563.83425 Z M659.021394,4563.83425 L664.547171,4579.20222 L659.042083,4579.20222 L658.116732,4576.38103 L652.921975,4576.38103 L651.9402,4579.20222 L646.425708,4579.20222 L652.019194,4563.83425 L659.021394,4563.83425 Z M676.036949,4563.83989 C679.557798,4563.83989 682.038567,4565.47994 682.038567,4569.10612 C682.038567,4570.87971 681.017295,4572.7699 679.1365,4573.45828 L679.1365,4573.45828 L682.937587,4579.20222 L677.187996,4579.20222 L674.419465,4574.64318 L673.072816,4574.64318 L673.072816,4579.20222 L667.744523,4579.20222 L667.744523,4563.83989 Z M693.859365,4572.98996 L691.886411,4572.98996 L691.886411,4575.86945 L693.840557,4575.86945 C694.922015,4575.86945 695.580293,4575.34471 695.580293,4574.44005 L695.580293,4574.44005 L695.580293,4574.39867 C695.580293,4573.45263 694.903207,4572.98996 693.859365,4572.98996 L693.859365,4572.98996 Z M655.481738,4567.33817 L654.120042,4572.60439 L656.881049,4572.60439 L655.481738,4567.33817 Z M674.976181,4567.5112 L673.065293,4567.5112 L673.065293,4570.72548 L674.95173,4570.72548 C676.006857,4570.72548 676.644446,4570.14055 676.644446,4569.13245 L676.644446,4569.13245 L676.644446,4569.08166 C676.644446,4568.02654 675.988049,4567.5112 674.976181,4567.5112 L674.976181,4567.5112 Z M693.816107,4567.16513 L691.886411,4567.16513 L691.886411,4569.90357 L693.797299,4569.90357 C694.856187,4569.90357 695.499419,4569.40328 695.499419,4568.54376 L695.499419,4568.54376 L695.499419,4568.50426 C695.499419,4567.60524 694.837379,4567.16513 693.816107,4567.16513 L693.816107,4567.16513 Z M776.159205,4563.522 C777.453468,4563.522 778.502676,4564.57124 778.502676,4565.8655 C778.502676,4567.15977 777.453468,4568.209 776.159205,4568.209 C775.536941,4568.21201 774.939393,4567.96565 774.500089,4567.52493 C774.060784,4567.08421 773.816339,4566.48588 773.821377,4565.86362 C773.816839,4565.24187 774.061566,4564.64421 774.500872,4564.2042 C774.940177,4563.76418 775.537443,4563.5185 776.159205,4563.522 Z M775.179839,4564.14235 C774.57404,4564.50057 774.211302,4565.16018 774.233271,4565.86362 C774.216529,4566.38647 774.41154,4566.89394 774.774109,4567.27103 C775.136677,4567.64811 775.636104,4567.86288 776.159205,4567.86667 C776.682629,4567.86233 777.182293,4567.64757 777.545639,4567.27078 C777.908985,4566.89399 778.105452,4566.38686 778.090782,4565.86362 C778.112751,4565.16018 777.750013,4564.50057 777.144213,4564.14235 C776.538414,4563.78414 775.785638,4563.78414 775.179839,4564.14235 Z M776.300265,4564.49252 C776.949139,4564.49252 777.253828,4564.74831 777.253828,4565.27305 C777.253828,4565.7978 776.939735,4565.97835 776.531603,4566.02537 L777.319656,4567.23472 L776.872026,4567.23472 L776.119708,4566.05735 L775.683364,4566.05735 L775.683364,4567.23096 L775.265827,4567.23096 L775.265827,4564.49252 L776.300265,4564.49252 Z M776.228794,4564.83107 L775.683364,4564.83107 L775.683364,4565.71128 L776.112185,4565.71128 C776.488344,4565.71128 776.841934,4565.69247 776.841934,4565.25048 C776.841934,4564.87433 776.512795,4564.83107 776.228794,4564.83107 Z"></path>
        </g>
    </g>
</svg>