<svg xmlns="http://www.w3.org/2000/svg" data-name="Your Icon" viewBox="0 0 100 125"><path d="M21.275 87.256a1.5 1.5 0 01-1.5-1.43c-.536-11.562-.752-22.107-.641-31.343A1.5 1.5 0 0120.637 53h.018a1.5 1.5 0 011.482 1.518c-.11 9.179.1 19.665.637 31.169a1.5 1.5 0 01-1.429 1.567z" data-name="STROKE 7D517F55-4034-43BC-9C18-27FE0A2BDD5C"/><path d="M70 87.944c-1.7 0-3.744-.123-5.867-.252-2.28-.138-4.633-.276-6.5-.255-4.9.062-9.768-.1-14.474-.264a192.018 192.018 0 00-21.767.078 1.518 1.518 0 01-1.612-1.378 1.5 1.5 0 011.378-1.612 194.322 194.322 0 0122.1-.087c4.67.161 9.5.332 14.33.263 1.965-.025 4.387.119 6.723.261a56.581 56.581 0 007.515.169 1.5 1.5 0 11.323 2.982 20.614 20.614 0 01-2.149.095z" data-name="STROKE 301DAB25-D8AC-4816-ACFD-060C3FC5C65A"/><path d="M20.635 56a1.5 1.5 0 01-.106-3 355.35 355.35 0 0138.776-1.175c1.652.066 3.409-.045 5.27-.16a51.95 51.95 0 016.183-.138 1.5 1.5 0 011.408 1.586 1.484 1.484 0 01-1.586 1.408 50.645 50.645 0 00-5.822.138c-1.849.115-3.76.232-5.564.164A353.859 353.859 0 0020.745 56h-.11z" data-name="STROKE FA4F9091-3EE3-4643-83AA-5B11FCCCB752"/><path d="M71.992 87.858a1.5 1.5 0 01-1.5-1.456c-.088-3.031-.275-5.226-.471-7.551a176.192 176.192 0 01-.43-5.95c-.15-2.836-.3-7.06-.3-9.646V61.43c.011-2.687.024-6.029-.122-8.307a1.5 1.5 0 011.4-1.592 1.47 1.47 0 011.592 1.4c.152 2.38.139 5.778.128 8.509v1.814c0 2.507.155 6.758.3 9.487.121 2.287.275 4.1.423 5.856.2 2.367.39 4.6.481 7.716a1.5 1.5 0 01-1.456 1.543z" data-name="STROKE D30D232E-FACE-4C9F-BC0B-F6B50B22D8AE"/><path d="M32.781 59.784a1.5 1.5 0 01-1.5-1.5v-.2a130.744 130.744 0 01.7-16.85c.893-6.991 2.851-12.633 5.819-16.772a10.9 10.9 0 017.6-4.616 9.485 9.485 0 018.259 3.692c3.852 4.6 4.767 10.8 5.122 15.071a125.685 125.685 0 01-.259 18.242l-.036.567a1.5 1.5 0 11-2.994-.187l.036-.569a123.305 123.305 0 00.262-17.8c-.508-6.136-1.916-10.391-4.43-13.391a6.735 6.735 0 00-5.675-2.634 7.99 7.99 0 00-5.445 3.378c-2.674 3.73-4.451 8.912-5.281 15.4a128.523 128.523 0 00-.673 16.464v.2a1.5 1.5 0 01-1.5 1.5z" data-name="STROKE FF0E9B82-E8CE-49C7-864E-77300BF1D711"/><path d="M20.615 55.971a1.5 1.5 0 01-.9-2.7 19.413 19.413 0 002.128-2.087 36.713 36.713 0 014.954-4.617 1.5 1.5 0 111.8 2.4 33.6 33.6 0 00-4.556 4.261 21.194 21.194 0 01-2.516 2.435 1.5 1.5 0 01-.91.308z" data-name="STROKE 130B557B-3F15-4D90-888D-6C0897613CD2"/><path d="M70.67 54.528a1.5 1.5 0 01-.969-2.646c1.271-1.075 2.28-2.1 3.347-3.195s2.177-2.223 3.557-3.39a1.5 1.5 0 111.937 2.291c-1.272 1.075-2.282 2.107-3.35 3.2s-2.175 2.221-3.554 3.387a1.5 1.5 0 01-.968.353z" data-name="STROKE 7238C294-B31D-4038-B7A1-F3742EDD31E3"/><path d="M79.39 78.82a1.5 1.5 0 01-1.49-1.383 835.241 835.241 0 01-1.822-30.933 1.5 1.5 0 011.437-1.56 1.475 1.475 0 011.561 1.437 835.544 835.544 0 001.814 30.821 1.5 1.5 0 01-1.378 1.613 1.184 1.184 0 01-.122.005z" data-name="STROKE CC880794-4270-4355-B1FD-B8D234C0C699"/><path d="M71.992 87.858a1.5 1.5 0 01-1.146-2.467c1.7-2.019 2.728-3.3 3.813-4.648.992-1.238 2-2.5 3.583-4.386a1.5 1.5 0 112.3 1.926C78.983 80.146 77.98 81.4 77 82.619c-1.1 1.368-2.132 2.66-3.859 4.706a1.5 1.5 0 01-1.149.533z" data-name="STROKE 5B010159-D447-4F4D-B08E-769118A796BD"/><path d="M27.689 49.271a1.5 1.5 0 01-.176-2.989 280.8 280.8 0 0137.835-2.038c2.6.045 6.947.34 10.124.555l2.2.147a1.5 1.5 0 11-.193 2.994l-2.207-.148c-3.145-.213-7.452-.5-9.974-.548a276.466 276.466 0 00-37.43 2.016 1.354 1.354 0 01-.179.011z" data-name="STROKE AA7FC822-C4D1-4447-8A0E-3779F99F9736"/><path d="M39.625 48.09a1.5 1.5 0 01-1.5-1.5 143.234 143.234 0 01.544-14.641c.548-5.155 1.434-10.6 4.181-15.538 1.477-2.654 3.712-4.24 6.128-4.351a9.338 9.338 0 017.372 3.7c3.368 4 4.518 9.382 5.144 13.626.706 4.776.963 10.429 1.191 15.415l.037.812a1.5 1.5 0 11-3 .138l-.037-.812c-.225-4.916-.48-10.489-1.163-15.116-.568-3.851-1.588-8.71-4.47-12.129a6.553 6.553 0 00-4.939-2.639c-1.98.092-3.291 2.178-3.646 2.814-2.485 4.464-3.3 9.557-3.819 14.4a140.416 140.416 0 00-.527 14.316 1.5 1.5 0 01-1.5 1.5z" data-name="STROKE AEE4F88E-A02A-42F6-944F-B47BE5FCF0F0"/><text y="115" font-size="5" font-weight="bold" font-family="'Helvetica Neue', Helvetica, Arial-Unicode, Arial, Sans-serif">Created by Insticon</text><text y="120" font-size="5" font-weight="bold" font-family="'Helvetica Neue', Helvetica, Arial-Unicode, Arial, Sans-serif">from the Noun Project</text></svg>