<svg xmlns="http://www.w3.org/2000/svg" viewBox="0 0 91 113.75"><path d="M79.052 18.137c.293-.03.291-.143 0 0z"/><path d="M6.014 49.98c.986.654 7.837 4.24 7.481 6.568-.223 1.465-1.54 9.506-1.954 12.064-.303 1.871.765 3.719 2.844 3.734 2.141.016 11.331-.582 12.463.104.88.533 1.287 4.289 1.546 5.262l1.811 6.799c.463 1.738 2.849 2.979 4.449 1.809 3.491-2.545 7.867-5.871 12.411-5.822 3.771.039 7.565 3.18 10.895 4.721 1.631.756 3.719.219 4.215-1.715.845-3.277 2.5-6.299 3.54-9.543a171.75 171.75 0 0013.555-.287c1.805-.109 3.057-1.652 2.632-3.455-.53-2.244-2.948-10.914-3.052-12.908-.18-3.445 6.486-6.262 8.795-8.508 2.256-2.193 1.961-5.176-.121-7.361-2.701-2.838-5.979-5.305-9.025-7.836.585-1.707 3.102-9.988 3.635-12.428.398-1.824-3.195-2.984-3.08-3.041-.135.014-11.812-1.51-14.519-1.557a61.649 61.649 0 00-4.819-11.574c-.569-1.053-2.248-1.6-3.269-.857-1.793 1.307-9.801 7.449-10.451 7.594C44.26 12.131 33.754 4.4 33.754 4.4c-1.114-.725-2.545-.172-3.226.846-2.616 3.91-3.607 8.932-3.595 13.674-4.86.275-9.717.602-14.578.875-1.801.102-3.183 1.703-2.691 3.533l2.097 7.811c.369 1.373 1.04 2.561.351 3.783-.407.723-1.561 1.377-2.167 1.904-2.522 2.201-8.245 5.389-7.404 9.412.383 1.832 2.041 2.793 3.473 3.742zm3.917-5.582l3.225-2.844c1.561-1.377 3.555-2.721 4.464-4.656.967-2.059.435-4.047-.128-6.141-.504-1.875-1.02-3.746-1.536-5.617 3.771-.248 7.541-.508 11.312-.74 1.314-.082 2.141-.9 2.476-1.883.253-.254 1.74-9.127 3.603-12.756l5.71 3.736c1.986 1.299 4.287 3.365 6.837 3.199 2.234-.143 4.07-1.973 5.783-3.215 1.701-1.232 3.402-2.467 5.104-3.701a56.25 56.25 0 013.622 9.85c.264.99 1.275 1.799 2.318 1.766 3.821-.127 7.649.426 11.425.943.62.086 1.526.313 2.498.5-.393 1.242-.819 2.477-1.203 3.705-.465 1.492-2.699 8.686-1.685 9.58 1.579 1.391 10.841 8.535 9.151 9.826-.743.568-1.497 1.123-2.246 1.684-1.525 1.145-3.086 2.256-4.578 3.445-2.917 2.326-3.047 4.725-2.283 8.221.66 3.025 1.367 6.043 2.07 9.061-4.088.145-8.168.154-12.265-.004-1.162-.043-2.428.891-2.683 2.043-.642 2.896-1.987 5.531-3.103 8.236-3.393-1.932-6.828-4.023-10.756-4.078-4.371-.063-8.471 1.854-12.141 4.219l-1.341-4.93c-.619-2.271-1.051-4.787-3.082-6.254-1.933-1.396-4.523-1.127-6.771-1.131l-5.918-.01.791-5.059c.361-2.307 1.159-4.922.787-7.254-.35-2.201-1.753-3.428-3.514-4.641-1.296-.893-2.654-1.711-3.978-2.563-.628-.406-1.734-1.414-2.657-1.93.232-.2.462-.403.692-.607z"/><path d="M35.95 65.051c8.679-11.207 15.14-23.889 21.541-36.496 1.297-2.557-2.585-4.814-3.844-2.248-6.213 12.662-13.283 24.916-18.776 37.91-.271.638.552 1.513 1.079.834zM39.643 44.008c3.195-3.143 2.408-8.719.489-12.33-.929-1.748-2.827-3.576-4.93-3.66-.633-.027-1.219.131-1.777.387-.977-.633-2.293-.746-3.387.248-3.394 3.086-4.335 9.494-1.997 13.451 2.358 3.99 8.152 5.298 11.602 1.904zm-5.717-11.467c.474-.393.739-.84.846-1.301.975.553 1.528 1.676 1.916 2.742.658 1.807 1.392 4.604.151 6.318-1.57 2.172-4.386.398-4.826-1.719-.409-1.972.367-4.759 1.913-6.04zM53.628 46.186c-.425.1-.84.313-1.21.68-3.255 3.221-3.115 10.43-.389 13.91 3.126 3.992 9.82 4.109 12.262-.723 2.084-4.121.884-11.605-2.977-14.367-2.315-1.655-6.037-1.405-7.686.5zm5.798 5.503c.396 1.285 1.002 5.262-.381 6.217-1.978 1.367-3.252-1.387-3.369-2.883-.132-1.707.012-3.471.906-4.945.26-.428.367-.859.374-1.271 1.103.488 2.149 1.839 2.47 2.882z"/><text y="106" font-size="5" font-weight="bold" font-family="'Helvetica Neue', Helvetica, Arial-Unicode, Arial, Sans-serif">Created by BomSymbols</text><text y="111" font-size="5" font-weight="bold" font-family="'Helvetica Neue', Helvetica, Arial-Unicode, Arial, Sans-serif">from the Noun Project</text></svg>