<svg xmlns="http://www.w3.org/2000/svg" viewBox="0 0 91 113.75"><path d="M83.628 40.458c-3.089-2.869-5.819-6.113-8.087-9.736-1.669-2.666-2.685-6.373-6.021-6.984-4.028-.736-8.522-.283-12.608-.381-4.935-.119-9.87-.156-14.806-.203-9.45-.088-19.048-.623-28.472.232-1.467.133-1.418 2.172 0 2.361 8.275 1.111 16.728 1.068 25.057 1.354 4.829.164 9.659.307 14.487.436-.148 1.889-.065 3.818-.132 5.695-.107 2.969-.188 5.938-.299 8.906-.034.895.777 1.768 1.635 1.721 8.11-.457 27.219.541 27.737 1.012 1.179 1.063 3.087 2.106 3.873 3.536.882 1.609.267 4.107.152 5.977l-.294 4.803c-1.711.289-3.425.57-5.142.832-.172-1.338-.65-2.578-1.724-3.498-2.081-1.785-5.147-2.367-7.823-2.293-3.817-.922-7.879 2.16-9.71 5.799a212.21 212.21 0 00-10.391.566c-2.214.182-4.615.262-6.911.635-.745-4.512-4.844-6.395-9.247-7.008-3.011-3.328-8.822 2.963-9.874 5.896a9.75 9.75 0 00-.215.691c-1.65.092-3.314.285-4.945.457-1.938.203-4.028.295-5.758 1.291-.563.324-.401 1.199.172 1.387 1.869.611 3.938.334 5.88.436 1.517.078 3.039.25 4.56.307.912 3.852 4.761 6.65 8.61 7.494 5.639 1.238 9.797-1.602 10.753-7.391 2.324.063 4.693-.146 6.975-.156a201.8 201.8 0 019.235.188c-.013 1.564.355 3.111 1.35 4.26 1.937 2.242 5.405 3.244 8.182 3.35 4.645.172 9.304-2.688 10.542-7.432.114-.008.226-.01.343-.035 2.609-.545 5.23-1.01 7.85-1.488.993-.182 1.597-1.307 1.645-2.271l.362-7.387c.093-1.904.485-4.141.093-6.033-.697-3.381-4.764-5.221-7.034-7.326zm-27.59-.18c.062-4.086.194-8.674-.57-12.688 2.948.074 5.898.152 8.847.209 1.469.029 4.029-.451 5.191.527 1.011.854 1.859 3.377 2.58 4.52a61.129 61.129 0 005.347 7.197 147.345 147.345 0 00-21.395.235zM38.7 66.355c-1.045 1.508-3.039 1.291-4.563.949-2.491-.561-5.499-2.303-5.094-5.426.183-1.432.894-2.607 1.85-3.555.399.744 1.12 1.275 2.167 1.244 2.558-.08 6.313-.252 6.443 3.303.038 1.017-.218 2.642-.803 3.485zm37.846-2.943c-.561 3.059-3.45 4.645-6.236 4.715-1.541.039-3.699-.313-4.925-1.369-1.37-1.18-1.121-3.363-.517-4.982.707-1.895 1.924-3.057 3.375-3.887.285.865 1 1.508 2.133 1.377 1.56-.178 3.542-.357 5.015.377 1.493.744 1.464 2.082 1.155 3.769z"/><path d="M17.003 31.397c-3.341.556-6.813.443-10.132 1.174-1.639.359-1.069 2.691.367 2.855 3.778.43 7.628.4 11.426.32 2.367-.051 7.945.928 9.042-2.033.491-1.324-.23-2.283-1.225-2.622-.14-.048-5.589-.341-9.478.306zM2.631 44.827c2.622.371 5.267.361 7.907.42 2.769.063 5.54.125 8.311.191.865.02 1.742.07 2.61.068 3.084-.007 3.538-3.107 3.025-4.32-.786-1.861-2.916-1.594-4.474-1.479-2.504.184-5.003.465-7.501.717-2.675.268-5.372.443-8.035.826-.961.137-1.979.229-2.923.457-.304.074-1.536 1.01-1.12 1.889.449.954 1.389 1.118 2.2 1.231zM19.646 54.199c2.502-.697 1.897-4.533-.598-4.641-2.287-.098-4.802.668-7.062 1.025-2.363.375-5.456.293-7.607 1.504-.644.363-.69 1.512 0 1.861 2.194 1.105 5.479.488 7.821.48 2.347-.006 5.155.41 7.446-.229z"/><text y="106" font-size="5" font-weight="bold" font-family="'Helvetica Neue', Helvetica, Arial-Unicode, Arial, Sans-serif">Created by BomSymbols</text><text y="111" font-size="5" font-weight="bold" font-family="'Helvetica Neue', Helvetica, Arial-Unicode, Arial, Sans-serif">from the Noun Project</text></svg>