<svg xmlns="http://www.w3.org/2000/svg" data-name="Слой 1" viewBox="0 0 100 125"><path d="M91.747 42.633l2.952 1.998-.4.788-3.318.552.496 5.872a9.944 9.944 0 01-2.47-.298c-2.95-1.051-5.811-2.367-8.79-3.32-2.161-.692-3.865-1.65-4.67-3.89-1.362-3.789-3.38-4.313-6.86-1.843-4.595 3.26-5.133 4.979-3.77 10.604a3.236 3.236 0 01-1.007 2.733c-5.687 4.146-11.468 8.163-17.273 12.144a3.367 3.367 0 01-2.332.462c-3.464-.708-6.872-1.708-10.348-2.346-5.891-1.083-11.817-1.975-17.73-2.938-1.752-.286-2.771-.993-2.557-3.07.291-2.832-1.092-4.332-4.043-4.295a6.773 6.773 0 01-2.57-.385c-2.16-.875-2.335-3.256-.48-4.722 6.75-5.335 13.51-10.66 20.197-16.074 2.837-2.297 5.728-3.654 9.564-2.862 8.959 1.848 17.956 3.522 26.963 5.12a98.184 98.184 0 0010.366 1.158 4.01 4.01 0 014.158 3.565c.908 4.06 2.22 4.465 5.585 2.204a48.54 48.54 0 016.01-3.457c.68-.328 1.699.048 2.563.103zM8.496 52.314c3.215.936 5.998 1.946 8.867 2.545q13.698 2.86 27.461 5.406a4.558 4.558 0 003.497-.932c4.416-4.267 8.655-8.716 12.936-13.121 1.906-1.962 3.77-3.966 5.961-6.275-11.354-2.08-22.135-4.165-32.969-5.932a8.225 8.225 0 00-5.664 1.354c-4.931 3.696-9.573 7.782-14.288 11.762-1.942 1.639-3.79 3.387-5.801 5.194zm34.84 11.754l.221-.887c-1.598-.443-3.176-.992-4.798-1.311-5.753-1.134-11.509-2.261-17.29-3.228a23.202 23.202 0 00-4.687.149c1.458.798 2.833 1.988 4.39 2.317 3.907.824 7.889 1.314 11.854 1.834 3.427.45 6.873.756 10.31 1.126zm6.873-2.898l.876 1.112c3.493-2.905 7.027-5.765 10.424-8.777.4-.354.05-1.552.047-3.07L50.21 61.17z"/><text y="115" font-size="5" font-weight="bold" font-family="'Helvetica Neue', Helvetica, Arial-Unicode, Arial, Sans-serif">Created by Tatyana</text><text y="120" font-size="5" font-weight="bold" font-family="'Helvetica Neue', Helvetica, Arial-Unicode, Arial, Sans-serif">from the Noun Project</text></svg>