<svg xmlns="http://www.w3.org/2000/svg" viewBox="0 0 91 113.75"><path d="M14.334 42.892c2.803 2.467 5.729 4.736 8.756 6.922 2.441 1.764 5.271 4.574 8.555 3.896 3.014-.623 5.963-3.076 8.332-5.066 1.553 1.689 2.971 3.502 4.512 5.219.328.363.662.725.992 1.088a109.257 109.257 0 00-3.805 3.508c-4.621 4.473-9.926 8.801-13.533 14.16-1.732 2.576 1.721 6.031 4.297 4.297 5.361-3.609 9.686-8.912 14.16-13.531a108.847 108.847 0 003.322-3.592l1.668 1.801c2.254 2.436 4.432 4.936 6.654 7.396 2.301 2.551 4.492 5.484 7.105 7.707 2.34 1.988 6.375-.561 4.506-3.477-3.611-5.637-9.254-10.447-14.094-15.018a149.93 149.93 0 00-2.531-2.322c.922-1.088 1.969-2.246 2.785-3.488 3.463 2.506 8.24 3.08 12.623 1.467 6.605-2.434 13.971-9.184 15.973-16.072 2.451-8.43-5.475-17.336-13.254-19.449-1.566-.426-2.734.443-3.246 1.609-3.838.859-8.33 3.666-9.945 5.07-5.672 4.928-8.627 13.801-6.52 21.096a12.128 12.128 0 001.213 2.805c-1.438.91-2.764 2.15-4.002 3.178-.189-.156-.377-.318-.566-.475-2.018-1.672-4.213-3.121-6.307-4.693 1.85-1.648 3.701-3.598 4.416-5.852.883-2.789-.313-5.209-2.107-7.32-5.32-6.254-11.432-11.9-17.291-17.639-2.23-2.184-5.719 1.334-3.416 3.416 4.49 4.066 8.771 8.365 12.955 12.744 1.549 1.621 4.143 3.592 5.123 5.666 1.256 2.652-2.873 5.475-4.705 6.947-2.365 1.902-5.186 4.502-8.162 2.814-2.334-1.324-4.494-3.248-6.605-4.883-4.393-3.398-8.793-7.674-13.701-10.281-1.322-.701-3.037.764-2.148 2.148 2.055 3.211 5.151 5.708 7.991 8.204zm42.482-8.407c1.207-3.27 3.49-6.188 6.293-8.252.785-.58 3.322-2.184 5.543-3.02.307.271.701.48 1.199.592 3.152.709 5.664 2.734 7.783 5.115 2.719 3.053 3.131 6.465 1.084 10.029-2.883 5.02-9.418 11.148-15.564 10.977-8.006-.224-8.484-9.634-6.338-15.441z"/><path d="M15.844 26.108c1.709 3.291 4.814 6.26 7.273 9.016 2.752 3.086 5.438 6.314 8.393 9.205 2.098 2.057 5.137-1.039 3.203-3.201-2.754-3.078-5.854-5.904-8.809-8.791-2.645-2.582-5.445-5.777-8.656-7.633-.92-.531-1.869.512-1.404 1.404z"/><text y="106" font-size="5" font-weight="bold" font-family="'Helvetica Neue', Helvetica, Arial-Unicode, Arial, Sans-serif">Created by BomSymbols</text><text y="111" font-size="5" font-weight="bold" font-family="'Helvetica Neue', Helvetica, Arial-Unicode, Arial, Sans-serif">from the Noun Project</text></svg>