<svg xmlns="http://www.w3.org/2000/svg" viewBox="0 0 32 40"><switch><g><path d="M28.03 16.17a4.02 4.02 0 00-.96-.64c1.76-1.03 2.57-3.03 2.06-5.24-.49-2.15-2.04-3.65-3.76-3.65h-.06c-.03 0-.06-.01-.09 0-.69.02-1.35.18-1.95.45-.95-1.32-2.76-2.1-4.62-1.92-.69.07-1.31.27-1.85.58-.98-1.21-3.24-1.84-5.15-1.39-1.18.28-3.2 1.21-3.74 4.26-.22-.03-.44-.05-.68-.04-1.85.05-3.67 1.42-4.14 3.12-.44 1.58.06 3.25 1.27 4.27.37.31.78.53 1.22.68-1.62.69-2.86 2.45-3.19 4.66-.12.8-.16 1.69.43 2.28.39.38.9.49 1.39.49.24 0 .46-.03.66-.05l2.75-.39c-.47 1.03-.78 2.15-.89 3.31-.02.21.05.42.19.58.14.16.34.25.56.25 2.56 0 6.66-.11 7.84-.14.46 0 .89-.06 1.31-.11l.52-.06c.33-.03.6-.28.66-.61.31-1.7.18-3.42-.37-5.01l3.16-.15c.03.15.08.3.19.41.02.03.04.06.07.09.5.59 1.08.76 1.61.76.4 0 .77-.09 1.06-.17.16-.04.31-.08.45-.1 1.15-.16 3.06-.56 4.17-.84 1.14-.28 1.57-.88 1.57-2.19-.01-.78-.47-2.37-1.69-3.49zm-7.21 3.98l-3.77.18c-.08 0-.14.03-.21.05-.25-.44-.57-.82-.97-1.12 1.12-.4 1.88-1.26 2.44-2.7.13-.32.22-.63.31-.93.04.01.08.02.12.02.04 0 .07 0 .11-.01.67-.1 1.32-.27 1.95-.51.02.01.03.03.05.04.59.35 1.07.85 1.4 1.44-.73 1.01-1.17 2.34-1.43 3.54zm-5.07-9.8c2.39 1.5 1.75 4.17 1.15 5.65-.66 1.69-1.39 2.33-4.22 1.92-.33-.04-.65-.12-.95-.25-.8-.34-1.41-.98-1.73-1.79s-.3-1.69.04-2.49c0 0 0-.01.01-.01.75-1.83 2.77-3.26 4.06-3.26h.04c.54-.04 1.1.04 1.6.23zm9.51-2.21H25.37c1.13 0 2.01 1.25 2.29 2.49.3 1.3.04 2.96-1.56 3.74-.6.29-1.57.24-2.49-.11-.8-.31-1.43-.81-1.62-1.28-.13-.36-.2-.74-.22-1.12-.03-.96.32-1.88.97-2.58.16-.17.33-.31.51-.45.01 0 .02 0 .03-.01.07-.03.13-.08.18-.12.55-.34 1.16-.54 1.8-.56zm-6.47-1.47c1.27-.13 2.58.41 3.23 1.27-.12.11-.25.2-.36.31a5.084 5.084 0 00-1.06 5.27c.01.03.03.05.04.08-.56.23-1.13.4-1.73.51.2-2.16-.64-3.97-2.43-5.06a.673.673 0 00-.11-.07c-.05-.02-.1-.03-.14-.05.4-1.84 1.92-2.2 2.56-2.26zM9.36 8.98c.34-2.17 1.62-2.91 2.63-3.15 1.58-.38 3.18.26 3.66.88-.43.53-.73 1.17-.89 1.91-.22-.01-.44-.01-.65 0-1.18-.03-2.57.67-3.7 1.73-.3-.5-.68-.9-1.12-1.19.03-.05.06-.11.07-.18zM4.53 12.1c.3-1.06 1.55-1.99 2.74-2.02.96-.02 1.66.5 2.09 1.5-.28.39-.52.8-.7 1.23-.31.72-.41 1.48-.36 2.24-1.18.47-2.23.39-2.98-.24-.75-.62-1.06-1.71-.79-2.71zm.12 10.43c-.62.09-.77-.01-.77-.01s-.13-.17-.01-1c.28-1.9 1.43-3.41 2.8-3.66 1.23-.23 2.49.58 3.59 2.27-.63.54-1.19 1.16-1.67 1.83l-3.94.57zm11.76 3.48c-.39.05-.75.1-1.12.1-1.06.03-4.43.12-6.95.14a8.76 8.76 0 013.27-5.27h.01l.03-.03c.14-.11.28-.22.44-.32a.27.27 0 00.08-.07c.2-.18.43-.32.69-.42.25-.09.51-.14.77-.14.31 0 .61.07.9.2.53.24.94.68 1.17 1.27.65 1.43.9 2.99.71 4.54zm11.73-5.79s-.06.06-.37.13c-1.08.28-2.94.67-4.01.82-.2.03-.4.08-.6.13-.59.15-.83.18-1.04.01.38-2.26 1.27-4.6 2.7-4.73.86-.08 1.6.16 2.21.71.83.76 1.19 1.91 1.19 2.34-.01.49-.08.59-.08.59z"/></g></switch><text y="47" font-size="5" font-weight="bold" font-family="'Helvetica Neue', Helvetica, Arial-Unicode, Arial, Sans-serif">Created by Valerie Lamm</text><text y="52" font-size="5" font-weight="bold" font-family="'Helvetica Neue', Helvetica, Arial-Unicode, Arial, Sans-serif">from the Noun Project</text></svg>