<?xml version="1.0" encoding="UTF-8"?>
<svg width="1194px" height="1581px" viewBox="0 0 1194 1581" version="1.1" xmlns="http://www.w3.org/2000/svg" xmlns:xlink="http://www.w3.org/1999/xlink">
    <title>Group 29</title>
    <defs>
        <path d="M120,-5.58736051e-14 L477.110383,-5.58736051e-14 C543.384553,-5.58736051e-14 597.110383,53.72583 597.110383,120 L597.110383,477.110383 C597.110383,543.384553 543.384553,597.110383 477.110383,597.110383 L120,597.110383 C53.72583,597.110383 5.4132348e-12,543.384553 5.4132348e-12,477.110383 L5.4132348e-12,120 C5.4132348e-12,53.72583 53.72583,-5.58736051e-14 120,-5.58736051e-14 Z" id="path-1"></path>
        <filter x="-10.0%" y="-6.9%" width="116.7%" height="116.7%" filterUnits="objectBoundingBox" id="filter-2">
            <feOffset dx="-10" dy="9" in="SourceAlpha" result="shadowOffsetOuter1"></feOffset>
            <feGaussianBlur stdDeviation="15" in="shadowOffsetOuter1" result="shadowBlurOuter1"></feGaussianBlur>
            <feComposite in="shadowBlurOuter1" in2="SourceAlpha" operator="out" result="shadowBlurOuter1"></feComposite>
            <feColorMatrix values="0 0 0 0 0   0 0 0 0 0   0 0 0 0 0  0 0 0 0.06 0" type="matrix" in="shadowBlurOuter1"></feColorMatrix>
        </filter>
        <path d="M120,-1.42011566e-12 L477.110383,-1.42011566e-12 C543.384553,-1.42011566e-12 597.110383,53.72583 597.110383,120 L597.110383,477.110383 C597.110383,543.384553 543.384553,597.110383 477.110383,597.110383 L120,597.110383 C53.72583,597.110383 5.4132348e-12,543.384553 5.4132348e-12,477.110383 L5.4132348e-12,120 C5.4132348e-12,53.72583 53.72583,-1.42011566e-12 120,-1.42011566e-12 Z" id="path-3"></path>
        <filter x="-10.0%" y="-6.9%" width="116.7%" height="116.7%" filterUnits="objectBoundingBox" id="filter-4">
            <feOffset dx="-10" dy="9" in="SourceAlpha" result="shadowOffsetOuter1"></feOffset>
            <feGaussianBlur stdDeviation="15" in="shadowOffsetOuter1" result="shadowBlurOuter1"></feGaussianBlur>
            <feComposite in="shadowBlurOuter1" in2="SourceAlpha" operator="out" result="shadowBlurOuter1"></feComposite>
            <feColorMatrix values="0 0 0 0 0   0 0 0 0 0   0 0 0 0 0  0 0 0 0.06 0" type="matrix" in="shadowBlurOuter1"></feColorMatrix>
        </filter>
        <path d="M120,-9.85061693e-14 L477.110383,-9.85061693e-14 C543.384553,-9.85061693e-14 597.110383,53.72583 597.110383,120 L597.110383,477.110383 C597.110383,543.384553 543.384553,597.110383 477.110383,597.110383 L120,597.110383 C53.72583,597.110383 5.37060224e-12,543.384553 5.37060224e-12,477.110383 L5.37060224e-12,120 C5.37060224e-12,53.72583 53.72583,-9.85061693e-14 120,-9.85061693e-14 Z" id="path-5"></path>
        <filter x="-10.0%" y="-6.9%" width="116.7%" height="116.7%" filterUnits="objectBoundingBox" id="filter-6">
            <feOffset dx="-10" dy="9" in="SourceAlpha" result="shadowOffsetOuter1"></feOffset>
            <feGaussianBlur stdDeviation="15" in="shadowOffsetOuter1" result="shadowBlurOuter1"></feGaussianBlur>
            <feComposite in="shadowBlurOuter1" in2="SourceAlpha" operator="out" result="shadowBlurOuter1"></feComposite>
            <feColorMatrix values="0 0 0 0 0   0 0 0 0 0   0 0 0 0 0  0 0 0 0.06 0" type="matrix" in="shadowBlurOuter1"></feColorMatrix>
        </filter>
    </defs>
    <g id="Cheebot-2.0" stroke="none" stroke-width="1" fill="none" fill-rule="evenodd">
        <g id="Group-29" transform="translate(40.000000, 21.000000)">
            <g id="Group-20" transform="translate(535.120856, 0.000000)">
                <g id="Rectangle" fill-rule="nonzero">
                    <use fill="black" fill-opacity="1" filter="url(#filter-2)" xlink:href="#path-1"></use>
                    <path stroke="#BEBEBE" stroke-width="1" d="M477.110383,0.5 C510.109397,0.5 539.984397,13.8754931 561.609644,35.5007396 C583.23489,57.1259862 596.610383,87.0009862 596.610383,120 L596.610383,120 L596.610383,477.110383 C596.610383,510.109397 583.23489,539.984397 561.609644,561.609644 C539.984397,583.23489 510.109397,596.610383 477.110383,596.610383 L477.110383,596.610383 L120,596.610383 C87.0009862,596.610383 57.1259862,583.23489 35.5007396,561.609644 C13.8754931,539.984397 0.5,510.109397 0.5,477.110383 L0.5,477.110383 L0.5,120 C0.5,87.0009862 13.8754931,57.1259862 35.5007396,35.5007396 C57.1259862,13.8754931 87.0009862,0.5 120,0.5 L120,0.5 Z" stroke-linejoin="square" fill="#FFFFFF" fill-rule="evenodd"></path>
                </g>
                <g id="microsoft-teams-1" transform="translate(117.055192, 117.055192)">
                    <circle id="Oval" fill="#7B83EB" fill-rule="nonzero" cx="192.793038" cy="68.0446015" r="52.9273592"></circle>
                    <path d="M189.016562,79.3853684 L141.07914,79.3853684 L141.317297,80.4400597 L141.339978,80.5307859 L141.589475,81.5060918 C148.826582,108.950007 176.407621,125.813699 204.133804,119.747158 L204.133804,94.5026107 C204.108894,86.1639283 197.355245,79.4102787 189.016562,79.3853684 L189.016562,79.3853684 Z" id="Path" fill="#000000" fill-rule="nonzero" opacity="0.1"></path>
                    <path d="M177.675795,90.7261353 L144.969023,90.7261353 C153.730573,109.19872 172.347962,120.973103 192.793038,120.971961 L192.793038,105.843378 C192.768127,97.5046952 186.014478,90.7510457 177.675795,90.7261353 L177.675795,90.7261353 Z" id="Path" fill="#000000" fill-rule="nonzero" opacity="0.2"></path>
                    <circle id="Oval" fill="#5059C9" fill-rule="nonzero" cx="311.87109" cy="85.0557519" r="39.6926842"></circle>
                    <path d="M345.893391,136.089203 L256.743622,136.089203 C252.735089,136.089203 249.485531,139.338761 249.485531,143.347294 L249.485531,235.320913 C248.979115,262.754176 267.741077,286.799 294.474354,292.977372 C311.205649,296.488027 328.628143,292.272159 341.903439,281.500556 C355.178736,270.728953 362.893234,254.548614 362.904541,237.452978 L362.904541,153.100353 C362.904541,143.705354 355.28839,136.089203 345.893391,136.089203 Z" id="Path" fill="#5059C9" fill-rule="nonzero"></path>
                    <path d="M283.519188,153.100353 L283.519188,260.837639 C283.542046,301.88928 255.980154,337.834479 216.328769,348.464877 C176.677383,359.095275 134.830718,341.758269 114.31493,306.200707 C112.132624,302.573737 110.236739,298.781967 108.644547,294.85994 C107.160179,291.162014 105.91022,287.374259 104.902094,283.519173 C103.032429,276.103168 102.080243,268.485684 102.066887,260.837639 L102.066887,153.100353 C102.060872,148.58687 103.851177,144.256513 107.042694,141.064995 C110.234212,137.873478 114.564569,136.083173 119.078053,136.089188 L266.508022,136.089188 C271.021506,136.083173 275.351863,137.873478 278.543381,141.064995 C281.734898,144.256513 283.525203,148.58687 283.519188,153.100353 Z" id="Path" fill="#7B83EB" fill-rule="nonzero"></path>
                    <path d="M177.675795,90.7261353 L144.969023,90.7261353 C153.730573,109.19872 172.347962,120.973103 192.793038,120.971961 L192.793038,105.843378 C192.768127,97.5046952 186.014478,90.7510457 177.675795,90.7261353 L177.675795,90.7261353 Z" id="Path" fill="#000000" fill-rule="nonzero" opacity="0.2"></path>
                    <path d="M204.133804,136.089188 L204.133804,279.77672 C204.133804,286.820833 199.22322,292.912103 192.339407,294.406309 C191.272544,294.723718 190.163538,294.876685 189.050584,294.86118 L108.644547,294.86118 C107.160179,291.162014 105.91022,287.374259 104.902094,283.519173 C103.032429,276.103168 102.080243,268.485684 102.066887,260.837639 L102.066887,153.100353 C102.060872,148.58687 103.851177,144.256513 107.042694,141.064995 C110.234212,137.873478 114.564569,136.083173 119.078053,136.089188 L204.133804,136.089188 Z" id="Path" fill="#000000" fill-rule="nonzero" opacity="0.1"></path>
                    <path d="M192.793038,136.089188 L192.793038,291.117487 C192.809606,292.230429 192.656643,293.339408 192.339407,294.406309 C190.845201,301.290122 184.753931,306.200707 177.709818,306.200707 L114.31493,306.200707 C112.132624,302.573737 110.236739,298.781967 108.644547,294.85994 C107.160179,291.162014 105.91022,287.374259 104.902094,283.519173 C103.032429,276.103168 102.080243,268.485684 102.066887,260.837639 L102.066887,153.100353 C102.060872,148.58687 103.851177,144.256513 107.042694,141.064995 C110.234212,137.873478 114.564569,136.083173 119.078053,136.089188 L192.793038,136.089188 Z" id="Path" fill="#000000" fill-rule="nonzero" opacity="0.2"></path>
                    <path d="M192.793038,136.089188 L192.793038,268.435953 C192.755779,276.750703 186.024568,283.481914 177.709818,283.519173 L104.902094,283.519173 C103.032429,276.103168 102.080243,268.485684 102.066887,260.837639 L102.066887,153.100353 C102.060872,148.58687 103.851177,144.256513 107.042694,141.064995 C110.234212,137.873478 114.564569,136.083173 119.078053,136.089188 L192.793038,136.089188 Z" id="Path" fill="#000000" fill-rule="nonzero" opacity="0.2"></path>
                    <path d="M119.078053,136.089188 C114.564569,136.083173 110.234212,137.873478 107.042694,141.064995 C103.851177,144.256513 102.060872,148.58687 102.066887,153.100353 L102.066887,260.837639 C102.080243,268.485684 103.032429,276.103168 104.902094,283.519173 L166.369051,283.519173 C174.683801,283.481914 181.415012,276.750703 181.452271,268.435953 L181.452271,136.089188 L119.078053,136.089188 Z" id="Path" fill="#000000" fill-rule="nonzero" opacity="0.2"></path>
                    <path d="M15.1172423,90.7261353 L166.335028,90.7261353 C174.684051,90.7261353 181.452271,97.4943552 181.452271,105.843378 L181.452271,257.061164 C181.452271,265.410186 174.684051,272.178406 166.335028,272.178406 L15.1172423,272.178406 C6.76821992,272.178406 0,265.410186 0,257.061164 L0,105.843378 C0,97.4943552 6.76821992,90.7261353 15.1172423,90.7261353 Z" id="Path" fill="#4B53BC" fill-rule="nonzero"></path>
                    <polygon id="Path" fill="#FFFFFF" fill-rule="nonzero" points="135.862388 147.146451 101.953495 147.146451 101.953495 238.099401 79.7029099 238.099401 79.7029099 147.146451 45.589883 147.146451 45.589883 124.80514 135.862388 124.80514"></polygon>
                    <polygon id="Path" points="0 0 362.904541 0 362.904541 362.904541 0 362.904541"></polygon>
                </g>
            </g>
            <g id="Group-18" transform="translate(300.000000, 922.775814)" fill-rule="nonzero">
                <g id="Rectangle">
                    <use fill="black" fill-opacity="1" filter="url(#filter-4)" xlink:href="#path-3"></use>
                    <path stroke="#BEBEBE" stroke-width="1" d="M477.110383,0.5 C510.109397,0.5 539.984397,13.8754931 561.609644,35.5007396 C583.23489,57.1259862 596.610383,87.0009862 596.610383,120 L596.610383,120 L596.610383,477.110383 C596.610383,510.109397 583.23489,539.984397 561.609644,561.609644 C539.984397,583.23489 510.109397,596.610383 477.110383,596.610383 L477.110383,596.610383 L120,596.610383 C87.0009862,596.610383 57.1259862,583.23489 35.5007396,561.609644 C13.8754931,539.984397 0.5,510.109397 0.5,477.110383 L0.5,477.110383 L0.5,120 C0.5,87.0009862 13.8754931,57.1259862 35.5007396,35.5007396 C57.1259862,13.8754931 87.0009862,0.5 120,0.5 L120,0.5 Z" stroke-linejoin="square" fill="#FFFFFF" fill-rule="evenodd"></path>
                </g>
                <g id="Group-7" transform="translate(133.291616, 133.500000)">
                    <path d="M12.9067996,110.982423 L149.36316,30.438236 C159.241491,24.6074916 171.508509,24.6074916 181.38684,30.438236 L317.8432,110.982423 C325.841783,115.703635 330.75,124.300195 330.75,133.588208 L330.75,275.612151 C330.75,307.506595 304.894444,333.362151 273,333.362151 L57.75,333.362151 C25.8555557,333.362151 0,307.506595 0,275.612151 L0,133.588208 C0,124.300195 4.90821653,115.703635 12.9067996,110.982423 Z" id="Rectangle" fill="#E15D03"></path>
                    <path d="M73.5,0 L257.25,0 C268.84798,0 278.25,9.40202025 278.25,21 L278.25,236.25 C278.25,247.84798 268.84798,257.25 257.25,257.25 L73.5,257.25 C61.9020203,257.25 52.5,247.84798 52.5,236.25 L52.5,21 C52.5,9.40202025 61.9020203,0 73.5,0 Z" id="Rectangle" fill="#FAF0EA"></path>
                    <rect id="Rectangle" fill="#E9DCD3" x="84" y="42" width="81.375" height="21"></rect>
                    <rect id="Rectangle" fill="#E9DCD3" x="84" y="78.75" width="136.231406" height="21"></rect>
                    <rect id="Rectangle" fill="#E9DCD3" opacity="0.751464844" x="84" y="115.5" width="162.75" height="21"></rect>
                    <rect id="Rectangle" fill="#E9DCD3" opacity="0.704171317" x="84" y="152.25" width="101.875259" height="21"></rect>
                    <rect id="Rectangle" fill="#E9DCD3" opacity="0.704171317" x="84" y="189" width="126.608673" height="21"></rect>
                    <path d="M0,146.987151 L154.501925,240.492291 C161.186232,244.537658 169.563768,244.537658 176.248075,240.492291 L330.75,146.987151 L330.75,286.112151 C330.75,312.207605 309.595454,333.362151 283.5,333.362151 L47.25,333.362151 C21.1545456,333.362151 0,312.207605 0,286.112151 L0,146.987151 Z" id="Rectangle" fill="#FF6700"></path>
                </g>
            </g>
            <g id="Group-19" transform="translate(0.000000, 226.775814)" fill-rule="nonzero">
                <g id="Rectangle">
                    <use fill="black" fill-opacity="1" filter="url(#filter-6)" xlink:href="#path-5"></use>
                    <path stroke="#BEBEBE" stroke-width="1" d="M477.110383,0.5 C510.109397,0.5 539.984397,13.8754931 561.609644,35.5007396 C583.23489,57.1259862 596.610383,87.0009862 596.610383,120 L596.610383,120 L596.610383,477.110383 C596.610383,510.109397 583.23489,539.984397 561.609644,561.609644 C539.984397,583.23489 510.109397,596.610383 477.110383,596.610383 L477.110383,596.610383 L120,596.610383 C87.0009862,596.610383 57.1259862,583.23489 35.5007396,561.609644 C13.8754931,539.984397 0.5,510.109397 0.5,477.110383 L0.5,477.110383 L0.5,120 C0.5,87.0009862 13.8754931,57.1259862 35.5007396,35.5007396 C57.1259862,13.8754931 87.0009862,0.5 120,0.5 L120,0.5 Z" stroke-linejoin="square" fill="#FFFFFF" fill-rule="evenodd"></path>
                </g>
                <g id="slack-new-logo" transform="translate(130.555192, 130.555192)">
                    <path d="M122.921484,-7.10542736e-15 C104.388748,0.0136975132 89.3899715,15.0535671 89.4036596,33.5863025 C89.3899715,52.1190379 104.402446,67.1589075 122.935181,67.172605 L156.466703,67.172605 L156.466703,33.6 C156.480391,15.0672646 141.467917,0.0273950265 122.921484,-7.10542736e-15 C122.935181,-7.10542736e-15 122.935181,-7.10542736e-15 122.921484,-7.10542736e-15 M122.921484,89.5817366 L33.5315124,89.5817366 C14.998777,89.5954342 -0.0136975133,104.635304 -3.74336143e-05,123.168039 C-0.0273950265,141.700775 14.9850795,156.740644 33.5178149,156.768039 L122.921484,156.768039 C141.454219,156.754342 156.466694,141.714472 156.453006,123.181737 C156.466694,104.635304 141.454219,89.5954342 122.921484,89.5817366 Z" id="Shape" fill="#36C5F0"></path>
                    <path d="M335.260344,123.168039 C335.274032,104.635304 320.261557,89.5954342 301.728822,89.5817366 C283.196086,89.5954342 268.183612,104.635304 268.1973,123.168039 L268.1973,156.768039 L301.728822,156.768039 C320.261557,156.754342 335.274032,141.714472 335.260344,123.168039 Z M245.856675,123.168039 L245.856675,33.5863025 C245.870363,15.0672646 230.871586,0.0273950265 212.33885,2.48689958e-14 C193.806115,0.0136975132 178.79364,15.0535671 178.807301,33.5863025 L178.807301,123.168039 C178.779943,141.700775 193.792417,156.740644 212.325153,156.768039 C230.857888,156.754342 245.870363,141.714472 245.856675,123.168039 Z" id="Shape" fill="#2EB67D"></path>
                    <path d="M212.325153,335.931512 C230.857888,335.917815 245.870363,320.877945 245.856675,302.34521 C245.870363,283.812475 230.857888,268.772605 212.325153,268.758907 L178.793631,268.758907 L178.793631,302.34521 C178.779943,320.864248 193.792417,335.904117 212.325153,335.931512 Z M212.325153,246.336078 L301.728822,246.336078 C320.261557,246.322381 335.274032,231.282511 335.260372,212.749776 C335.287729,194.21704 320.275255,179.177171 301.742519,179.149776 L212.33885,179.149776 C193.806115,179.163473 178.79364,194.203343 178.807329,212.736078 C178.79364,231.282511 193.792417,246.322381 212.325153,246.336078 L212.325153,246.336078 Z" id="Shape" fill="#ECB22E"></path>
                    <path d="M-9.36584026e-06,212.749776 C-0.0136975132,231.282511 14.998777,246.322381 33.5315124,246.336078 C52.0642479,246.322381 67.0767224,231.282511 67.0630342,212.749776 L67.0630342,179.163473 L33.5315124,179.163473 C14.998777,179.177171 -0.0136975132,194.21704 -9.36584026e-06,212.749776 Z M89.4036315,212.749776 L89.4036315,302.331512 C89.376274,320.864248 104.388748,335.904117 122.921484,335.931512 C141.454219,335.917815 156.466694,320.877945 156.453034,302.34521 L156.453034,212.777171 C156.480391,194.244435 141.467917,179.204566 122.935181,179.177171 C104.388748,179.177171 89.3899715,194.21704 89.4036315,212.749776 C89.4036315,212.749776 89.4036315,212.763473 89.4036315,212.749776" id="Shape" fill="#E01E5A"></path>
                </g>
            </g>
        </g>
    </g>
</svg>