<svg id="f53dd7ee-75d3-4643-84af-05326bd4988f" xmlns="http://www.w3.org/2000/svg" viewBox="0 0 57.72 96.58"><path d="M5.32,80.4C9.4,51.72,23.06,28.81,47.14,11.62a9.55,9.55,0,0,1,.16,1.59,40.34,40.34,0,0,0,1.43,17.1,21.66,21.66,0,0,0,1.19,3.05,6.12,6.12,0,0,0,1.18,1.27.62.62,0,0,0,.36,0c.09,0,.14-.1.18-.26-.12-1-.21-2.08-.38-3.11A71.81,71.81,0,0,1,51.4,10c.39-2.84-.65-4-3.59-3.75a43.13,43.13,0,0,0-6.88,1c-7.26,1.86-14.28,4.39-20.58,8.62a16.06,16.06,0,0,0-2,1.84.58.58,0,0,0,0,.34.73.73,0,0,0,.28.27,7.76,7.76,0,0,0,2.18-.33A73.59,73.59,0,0,1,37,12.64c1.32-.27,2.62-.58,4.19-.92-.21.52-.22.72-.32.78-8.1,5.2-14.12,12.43-19.82,20C14.63,41,9.29,50.1,6.73,60.5c-1.3,5.28-2,10.72-2.76,16.11-.17,1.18.48,2.47.75,3.71Z" fill="currentColor"/></svg>