<?xml version="1.0" encoding="UTF-8"?>
<svg width="500px" height="650px" viewBox="0 0 500 650" version="1.1" xmlns="http://www.w3.org/2000/svg" xmlns:xlink="http://www.w3.org/1999/xlink">
    <title>feature-integration</title>
    <defs>
        <path d="M46.469428,-2.16367873e-14 L184.758722,-2.16367873e-14 C210.423078,-2.16367873e-14 231.22815,20.8050716 231.22815,46.469428 L231.22815,184.758722 C231.22815,210.423078 210.423078,231.22815 184.758722,231.22815 L46.469428,231.22815 C20.8050716,231.22815 2.09624937e-12,210.423078 2.09624937e-12,184.758722 L2.09624937e-12,46.469428 C2.09624937e-12,20.8050716 20.8050716,-2.16367873e-14 46.469428,-2.16367873e-14 Z" id="path-1"></path>
        <filter x="-25.9%" y="-17.7%" width="143.2%" height="143.2%" filterUnits="objectBoundingBox" id="filter-2">
            <feOffset dx="-10" dy="9" in="SourceAlpha" result="shadowOffsetOuter1"></feOffset>
            <feGaussianBlur stdDeviation="15" in="shadowOffsetOuter1" result="shadowBlurOuter1"></feGaussianBlur>
            <feComposite in="shadowBlurOuter1" in2="SourceAlpha" operator="out" result="shadowBlurOuter1"></feComposite>
            <feColorMatrix values="0 0 0 0 0   0 0 0 0 0   0 0 0 0 0  0 0 0 0.06 0" type="matrix" in="shadowBlurOuter1"></feColorMatrix>
        </filter>
        <path d="M46.469428,-5.49933019e-13 L184.758722,-5.49933019e-13 C210.423078,-5.49933019e-13 231.22815,20.8050716 231.22815,46.469428 L231.22815,184.758722 C231.22815,210.423078 210.423078,231.22815 184.758722,231.22815 L46.469428,231.22815 C20.8050716,231.22815 2.09624937e-12,210.423078 2.09624937e-12,184.758722 L2.09624937e-12,46.469428 C2.09624937e-12,20.8050716 20.8050716,-5.49933019e-13 46.469428,-5.49933019e-13 Z" id="path-3"></path>
        <filter x="-25.9%" y="-17.7%" width="143.2%" height="143.2%" filterUnits="objectBoundingBox" id="filter-4">
            <feOffset dx="-10" dy="9" in="SourceAlpha" result="shadowOffsetOuter1"></feOffset>
            <feGaussianBlur stdDeviation="15" in="shadowOffsetOuter1" result="shadowBlurOuter1"></feGaussianBlur>
            <feComposite in="shadowBlurOuter1" in2="SourceAlpha" operator="out" result="shadowBlurOuter1"></feComposite>
            <feColorMatrix values="0 0 0 0 0   0 0 0 0 0   0 0 0 0 0  0 0 0 0.06 0" type="matrix" in="shadowBlurOuter1"></feColorMatrix>
        </filter>
        <path d="M46.469428,-3.81460445e-14 L184.758722,-3.81460445e-14 C210.423078,-3.81460445e-14 231.22815,20.8050716 231.22815,46.469428 L231.22815,184.758722 C231.22815,210.423078 210.423078,231.22815 184.758722,231.22815 L46.469428,231.22815 C20.8050716,231.22815 2.07974012e-12,210.423078 2.07974012e-12,184.758722 L2.07974012e-12,46.469428 C2.07974012e-12,20.8050716 20.8050716,-3.81460445e-14 46.469428,-3.81460445e-14 Z" id="path-5"></path>
        <filter x="-25.9%" y="-17.7%" width="143.2%" height="143.2%" filterUnits="objectBoundingBox" id="filter-6">
            <feOffset dx="-10" dy="9" in="SourceAlpha" result="shadowOffsetOuter1"></feOffset>
            <feGaussianBlur stdDeviation="15" in="shadowOffsetOuter1" result="shadowBlurOuter1"></feGaussianBlur>
            <feComposite in="shadowBlurOuter1" in2="SourceAlpha" operator="out" result="shadowBlurOuter1"></feComposite>
            <feColorMatrix values="0 0 0 0 0   0 0 0 0 0   0 0 0 0 0  0 0 0 0.06 0" type="matrix" in="shadowBlurOuter1"></feColorMatrix>
        </filter>
    </defs>
    <g id="Cheebot-2.0" stroke="none" stroke-width="1" fill="none" fill-rule="evenodd">
        <g id="feature-integration" transform="translate(40.000000, 21.000000)" fill-rule="nonzero">
            <g id="Group-20" transform="translate(207.223001, 0.000000)">
                <g id="Rectangle">
                    <use fill="black" fill-opacity="1" filter="url(#filter-2)" xlink:href="#path-1"></use>
                    <path stroke="#DDDDDD" stroke-width="1" d="M184.758722,0.5 C197.452829,0.5 208.945186,5.64530349 217.264016,13.9641337 C225.582846,22.282964 230.72815,33.775321 230.72815,46.469428 L230.72815,46.469428 L230.72815,184.758722 C230.72815,197.452829 225.582846,208.945186 217.264016,217.264016 C208.945186,225.582846 197.452829,230.72815 184.758722,230.72815 L184.758722,230.72815 L46.469428,230.72815 C33.775321,230.72815 22.282964,225.582846 13.9641337,217.264016 C5.64530349,208.945186 0.5,197.452829 0.5,184.758722 L0.5,184.758722 L0.5,46.469428 C0.5,33.775321 5.64530349,22.282964 13.9641337,13.9641337 C22.282964,5.64530349 33.775321,0.5 46.469428,0.5 L46.469428,0.5 Z" stroke-linejoin="square" fill="#FFFFFF" fill-rule="evenodd"></path>
                </g>
                <g id="microsoft-teams-1" transform="translate(45.329065, 50.329065)">
                    <circle id="Oval" fill="#7B83EB" cx="74.6581848" cy="21.3499476" r="20.4958676"></circle>
                    <path d="M73.1957627,25.7416055 L54.6322247,25.7416055 L54.7244495,26.1500297 L54.7332328,26.185163 L54.8298493,26.5628455 C57.6323846,37.1903708 68.3130102,43.7207551 79.0498428,41.3715161 L79.0498428,31.5956855 C79.0401963,28.3665705 76.4248777,25.7512519 73.1957627,25.7416055 L73.1957627,25.7416055 Z" id="Path" fill="#000000" opacity="0.1"></path>
                    <path d="M68.8041048,30.1332634 L56.1385633,30.1332634 C59.5314316,37.2866838 66.7409266,41.8462577 74.6581848,41.8458151 L74.6581848,35.9873435 C74.6485384,32.7582285 72.0332198,30.1429099 68.8041048,30.1332634 L68.8041048,30.1332634 Z" id="Path" fill="#000000" opacity="0.2"></path>
                    <circle id="Oval" fill="#5059C9" cx="120.770593" cy="27.9374345" r="15.3708028"></circle>
                    <path d="M133.945567,47.6998952 L99.4227439,47.6998952 C97.8704586,47.6998952 96.6120828,48.958271 96.6120828,50.5105562 L96.6120828,86.1269021 C96.4159754,96.7503022 103.681456,106.061546 114.03379,108.454091 C120.512904,109.813575 127.259682,108.181 132.400477,104.009749 C137.541272,99.8384968 140.528675,93.5727376 140.533054,86.9525338 L140.533054,54.2873821 C140.533054,50.6492135 137.583735,47.6998952 133.945567,47.6998952 Z" id="Path" fill="#5059C9"></path>
                    <path d="M109.791454,54.2873821 L109.791454,96.0081324 C109.800306,111.905185 99.1270946,125.824792 83.7722845,129.941363 C68.4174744,134.057934 52.2125528,127.344261 44.2679119,113.574764 C43.4228242,112.170237 42.6886517,110.701892 42.072083,109.183106 C41.4972685,107.751102 41.0132277,106.284312 40.6228359,104.791448 C39.8988169,101.919636 39.5300876,98.9698015 39.5249155,96.0081324 L39.5249155,54.2873821 C39.5225863,52.5395571 40.2158732,50.8626469 41.4517732,49.626747 C42.6876732,48.390847 44.3645833,47.6975601 46.1124083,47.6998893 L103.203961,47.6998893 C104.951786,47.6975601 106.628696,48.390847 107.864596,49.626747 C109.100496,50.8626469 109.793783,52.5395571 109.791454,54.2873821 Z" id="Path" fill="#7B83EB"></path>
                    <path d="M68.8041048,30.1332634 L56.1385633,30.1332634 C59.5314316,37.2866838 66.7409266,41.8462577 74.6581848,41.8458151 L74.6581848,35.9873435 C74.6485384,32.7582285 72.0332198,30.1429099 68.8041048,30.1332634 L68.8041048,30.1332634 Z" id="Path" fill="#000000" opacity="0.2"></path>
                    <path d="M79.0498428,47.6998893 L79.0498428,103.342201 C79.0498428,106.070001 77.1482423,108.428816 74.4825185,109.00744 C74.0693808,109.130355 73.6399236,109.189591 73.2089377,109.183586 L42.072083,109.183586 C41.4972685,107.751102 41.0132277,106.284312 40.6228359,104.791448 C39.8988169,101.919636 39.5300876,98.9698015 39.5249155,96.0081324 L39.5249155,54.2873821 C39.5225863,52.5395571 40.2158732,50.8626469 41.4517732,49.626747 C42.6876732,48.390847 44.3645833,47.6975601 46.1124083,47.6998893 L79.0498428,47.6998893 Z" id="Path" fill="#000000" opacity="0.1"></path>
                    <path d="M74.6581848,47.6998893 L74.6581848,107.733859 C74.6646008,108.164841 74.6053668,108.594288 74.4825185,109.00744 C73.9038944,111.673164 71.5450792,113.574764 68.8172798,113.574764 L44.2679119,113.574764 C43.4228242,112.170237 42.6886517,110.701892 42.072083,109.183106 C41.4972685,107.751102 41.0132277,106.284312 40.6228359,104.791448 C39.8988169,101.919636 39.5300876,98.9698015 39.5249155,96.0081324 L39.5249155,54.2873821 C39.5225863,52.5395571 40.2158732,50.8626469 41.4517732,49.626747 C42.6876732,48.390847 44.3645833,47.6975601 46.1124083,47.6998893 L74.6581848,47.6998893 Z" id="Path" fill="#000000" opacity="0.2"></path>
                    <path d="M74.6581848,47.6998893 L74.6581848,98.9505432 C74.6437566,102.170391 72.0371273,104.77702 68.8172798,104.791448 L40.6228359,104.791448 C39.8988169,101.919636 39.5300876,98.9698015 39.5249155,96.0081324 L39.5249155,54.2873821 C39.5225863,52.5395571 40.2158732,50.8626469 41.4517732,49.626747 C42.6876732,48.390847 44.3645833,47.6975601 46.1124083,47.6998893 L74.6581848,47.6998893 Z" id="Path" fill="#000000" opacity="0.2"></path>
                    <path d="M5.85408002,30.1332634 L64.4124469,30.1332634 C67.645566,30.1332634 70.2665269,32.7542243 70.2665269,35.9873435 L70.2665269,94.5457103 C70.2665269,97.7788294 67.645566,100.39979 64.4124469,100.39979 L5.85408002,100.39979 C2.6209609,100.39979 0,97.7788294 0,94.5457103 L0,35.9873435 C0,32.7542243 2.6209609,30.1332634 5.85408002,30.1332634 Z" id="Path" fill="#4B53BC"></path>
                    <polygon id="Path" fill="#FFFFFF" points="52.612062 51.9817616 39.4810048 51.9817616 39.4810048 87.2028583 30.8645719 87.2028583 30.8645719 51.9817616 17.6544649 51.9817616 17.6544649 43.3301955 52.612062 43.3301955"></polygon>
                </g>
            </g>
            <g id="Group-18" transform="translate(116.173570, 357.340535)">
                <g id="Rectangle">
                    <use fill="black" fill-opacity="1" filter="url(#filter-4)" xlink:href="#path-3"></use>
                    <path stroke="#DDDDDD" stroke-width="1" d="M184.758722,0.5 C197.452829,0.5 208.945186,5.64530349 217.264016,13.9641337 C225.582846,22.282964 230.72815,33.775321 230.72815,46.469428 L230.72815,46.469428 L230.72815,184.758722 C230.72815,197.452829 225.582846,208.945186 217.264016,217.264016 C208.945186,225.582846 197.452829,230.72815 184.758722,230.72815 L184.758722,230.72815 L46.469428,230.72815 C33.775321,230.72815 22.282964,225.582846 13.9641337,217.264016 C5.64530349,208.945186 0.5,197.452829 0.5,184.758722 L0.5,184.758722 L0.5,46.469428 C0.5,33.775321 5.64530349,22.282964 13.9641337,13.9641337 C22.282964,5.64530349 33.775321,0.5 46.469428,0.5 L46.469428,0.5 Z" stroke-linejoin="square" fill="#FFFFFF" fill-rule="evenodd"></path>
                </g>
                <g id="Group-7" transform="translate(51.616543, 51.697239)">
                    <path d="M4.99809663,42.9774143 L57.8401716,11.7870618 C61.6655083,9.52913384 66.4158527,9.52913384 70.2411894,11.7870618 L123.083264,42.9774143 C126.180677,44.8056811 128.081361,48.1346582 128.081361,51.7313967 L128.081361,106.729492 C128.081361,119.080463 118.06892,129.092904 105.717949,129.092904 L22.3634122,129.092904 C10.0124407,129.092904 0,119.080463 0,106.729492 L0,51.7313967 C0,48.1346582 1.90068346,44.8056811 4.99809663,42.9774143 Z" id="Rectangle" fill="#007A89"></path>
                    <path d="M28.4625247,0 L99.6188363,0 C104.110099,0 107.750986,3.64088753 107.750986,8.1321499 L107.750986,91.4866864 C107.750986,95.9779488 104.110099,99.6188363 99.6188363,99.6188363 L28.4625247,99.6188363 C23.9712623,99.6188363 20.3303748,95.9779488 20.3303748,91.4866864 L20.3303748,8.1321499 C20.3303748,3.64088753 23.9712623,0 28.4625247,0 Z" id="Rectangle" fill="#F0F7F8"></path>
                    <path d="M81.5572046,73.1893491 L81.5572046,81.321499 L32.5285996,81.321499 L32.5285996,73.1893491 L81.5572046,73.1893491 Z M71.9793082,58.9580868 L71.9793082,67.0902367 L32.5285996,67.0902367 L32.5285996,58.9580868 L71.9793082,58.9580868 Z M95.5527613,44.7268245 L95.5527613,52.8589744 L32.5285996,52.8589744 L32.5285996,44.7268245 L95.5527613,44.7268245 Z M85.2835621,30.4955621 L85.2835621,38.627712 L32.5285996,38.627712 L32.5285996,30.4955621 L85.2835621,30.4955621 Z M64.0406805,16.2642998 L64.0406805,24.3964497 L32.5285996,24.3964497 L32.5285996,16.2642998 L64.0406805,16.2642998 Z" id="Shape" fill="#CEE4E7"></path>
                    <path d="M0,56.9200736 L59.8301341,93.1294934 C62.4185999,94.6960425 65.662761,94.6960425 68.2512268,93.1294934 L128.081361,56.9200736 L128.081361,110.795567 C128.081361,120.900907 119.889364,129.092904 109.784024,129.092904 L18.2973373,129.092904 C8.19199694,129.092904 0,120.900907 0,110.795567 L0,56.9200736 Z" id="Rectangle" fill="#0093A5"></path>
                </g>
            </g>
            <g id="Group-19" transform="translate(0.000000, 87.817853)">
                <g id="Rectangle">
                    <use fill="black" fill-opacity="1" filter="url(#filter-6)" xlink:href="#path-5"></use>
                    <path stroke="#DDDDDD" stroke-width="1" d="M184.758722,0.5 C197.452829,0.5 208.945186,5.64530349 217.264016,13.9641337 C225.582846,22.282964 230.72815,33.775321 230.72815,46.469428 L230.72815,46.469428 L230.72815,184.758722 C230.72815,197.452829 225.582846,208.945186 217.264016,217.264016 C208.945186,225.582846 197.452829,230.72815 184.758722,230.72815 L184.758722,230.72815 L46.469428,230.72815 C33.775321,230.72815 22.282964,225.582846 13.9641337,217.264016 C5.64530349,208.945186 0.5,197.452829 0.5,184.758722 L0.5,184.758722 L0.5,46.469428 C0.5,33.775321 5.64530349,22.282964 13.9641337,13.9641337 C22.282964,5.64530349 33.775321,0.5 46.469428,0.5 L46.469428,0.5 Z" stroke-linejoin="square" fill="#FFFFFF" fill-rule="evenodd"></path>
                </g>
                <g id="slack-new-logo" transform="translate(50.556876, 50.556876)">
                    <path d="M47.6007587,-5.32907052e-15 C40.4240453,0.00530429672 34.6158404,5.82942209 34.621141,13.0061355 C34.6158404,20.182849 40.4293496,26.0069668 47.606063,26.0122711 L60.590985,26.0122711 L60.590985,13.0114398 C60.5962857,5.83472639 54.7827765,0.0106085934 47.6007587,-5.32907052e-15 C47.606063,-5.32907052e-15 47.606063,-5.32907052e-15 47.6007587,-5.32907052e-15 M47.6007587,34.6901005 L12.9849184,34.6901005 C5.8082049,34.6954048 -0.00530429672,40.5195226 -1.44959894e-05,47.6962361 C-0.0106085934,54.8729495 5.80290061,60.6970673 12.9796141,60.7076759 L47.6007587,60.7076759 C54.7774722,60.7023716 60.5909814,54.8782538 60.5856807,47.7015404 C60.5909814,40.5195226 54.7774722,34.6954048 47.6007587,34.6901005 Z" id="Shape" fill="#36C5F0"></path>
                    <path d="M129.82797,47.6962361 C129.833271,40.5195226 124.019761,34.6954048 116.843048,34.6901005 C109.666335,34.6954048 103.852825,40.5195226 103.858126,47.6962361 L103.858126,60.7076759 L116.843048,60.7076759 C124.019761,60.7023716 129.833271,54.8782538 129.82797,47.6962361 Z M95.2068254,47.6962361 L95.2068254,13.0061355 C95.212126,5.83472639 89.4039211,0.0106085934 82.2272077,7.10542736e-15 C75.0504942,0.00530429672 69.236985,5.82942209 69.2422748,13.0061355 L69.2422748,47.6962361 C69.2316807,54.8729495 75.0451899,60.6970673 82.2219034,60.7076759 C89.3986168,60.7023716 95.212126,54.8782538 95.2068254,47.6962361 Z" id="Shape" fill="#2EB67D"></path>
                    <path d="M82.2219034,130.087877 C89.3986168,130.082573 95.212126,124.258455 95.2068254,117.081741 C95.212126,109.905028 89.3986168,104.08091 82.2219034,104.075606 L69.2369814,104.075606 L69.2369814,117.081741 C69.2316807,124.253151 75.0451899,130.077268 82.2219034,130.087877 Z M82.2219034,95.3924721 L116.843048,95.3924721 C124.019761,95.3871678 129.833271,89.56305 129.827981,82.3863366 C129.838575,75.2096231 124.025066,69.3855053 116.848352,69.3748967 L82.2272077,69.3748967 C75.0504942,69.380201 69.236985,75.2043188 69.2422857,82.3810323 C69.236985,89.56305 75.0451899,95.3871678 82.2219034,95.3924721 L82.2219034,95.3924721 Z" id="Shape" fill="#ECB22E"></path>
                    <path d="M-3.62687437e-06,82.3863366 C-0.00530429671,89.56305 5.8082049,95.3871678 12.9849184,95.3924721 C20.1616318,95.3871678 25.975141,89.56305 25.9698403,82.3863366 L25.9698403,69.380201 L12.9849184,69.380201 C5.8082049,69.3855053 -0.00530429671,75.2096231 -3.62687437e-06,82.3863366 Z M34.6211302,82.3863366 L34.6211302,117.076437 C34.6105361,124.253151 40.4240453,130.077268 47.6007587,130.087877 C54.7774722,130.082573 60.5909814,124.258455 60.5856916,117.081741 L60.5856916,82.3969452 C60.5962857,75.2202317 54.7827765,69.3961139 47.606063,69.3855053 C40.4240453,69.3855053 34.6158404,75.2096231 34.6211302,82.3863366 C34.6211302,82.3863366 34.6211302,82.3916409 34.6211302,82.3863366" id="Shape" fill="#E01E5A"></path>
                </g>
            </g>
        </g>
    </g>
</svg>