<?xml version="1.0" encoding="UTF-8"?>
<svg width="410px" height="127px" viewBox="0 0 410 127" version="1.1" xmlns="http://www.w3.org/2000/svg" xmlns:xlink="http://www.w3.org/1999/xlink">
    <title>Path</title>
    <g id="Cheebot-2.0" stroke="none" stroke-width="1" fill="none" fill-rule="evenodd">
        <path d="M318.288833,12.7076574 C341.478352,20.5093443 361.365307,31.086738 383.994015,46.4277757 L387.17181,48.5973257 L390.461401,50.8747628 L393.596568,53.081604 L403.306901,60.01 L402.073017,58.3517135 L400.96098,56.872689 L399.884239,55.4547441 L398.87434,54.0732848 L398.87434,54.0732848 L397.924628,52.7642207 L397.924628,52.7642207 L396.751969,51.1314167 L396.751969,51.1314167 L395.942692,49.9912747 L395.942692,49.9912747 L395.1936,48.9235279 L395.1936,48.9235279 L394.504696,47.9281763 L394.504696,47.9281763 L393.875977,47.0052199 L393.875977,47.0052199 L393.131309,45.8872262 L393.131309,45.8872262 L392.643025,45.1331919 L392.643025,45.1331919 L392.350939,44.670722 L392.350939,44.670722 L391.662467,43.5464577 L391.662467,43.5464577 L391.132703,42.6595165 L391.132703,42.6595165 L390.794981,42.082694 L390.794981,42.082694 L390.315845,41.245747 L390.315845,41.245747 L389.874767,40.4506391 L389.874767,40.4506391 L389.604702,39.9481973 L389.604702,39.9481973 L389.35582,39.4709299 L389.35582,39.4709299 L389.129825,39.0214685 L389.129825,39.0214685 L388.928425,38.6024449 C388.897003,38.5352903 388.866677,38.4695136 388.837482,38.4051697 L388.676175,38.0367371 C388.455435,37.511193 388.332104,37.1105813 388.332104,36.8748705 C388.332104,36.5678144 388.583101,36.5844013 389.085095,36.9246312 L389.299279,37.0779841 L389.299279,37.0779841 L389.540237,37.2658589 L389.540237,37.2658589 L389.807967,37.4882557 L389.807967,37.4882557 L390.102471,37.7451744 L390.102471,37.7451744 L390.423747,38.036615 L390.423747,38.036615 L390.771797,38.3625775 L390.771797,38.3625775 L391.146619,38.723062 L391.146619,38.723062 L394.690145,42.6900141 L395.21021,43.2811344 L395.745683,43.8994135 L396.577832,44.8777996 L397.444781,45.9174073 L398.346611,47.0183052 L399.2834,48.1805618 L399.927387,48.9895214 L400.92262,50.2541944 L401.953026,51.5804087 L402.659544,52.4987749 L403.74875,53.92771 L404.494541,54.9146202 L406.0334,56.9708201 L406.826516,58.0401504 C411.165317,63.9067592 410.369056,68.5356543 404.121673,69.6972627 C402.766017,69.9493269 401.114637,70.0426741 399.162584,69.9784873 L398.416461,69.9470352 L397.642091,69.9008281 L397.244296,69.8721958 L397.244296,69.8721958 L396.427449,69.8038823 L396.427449,69.8038823 L395.582211,69.7208485 L394.708523,69.6231082 L393.576319,69.4802732 L393.576319,69.4802732 L392.399459,69.314508 L391.425743,69.1654045 L390.423318,69.0016569 L389.392124,68.8232792 L388.332104,68.6302851 L387.243199,68.4226886 L385.841363,68.1426794 L385.841363,68.1426794 L384.394191,67.8399026 L383.203736,67.5813067 L381.984136,67.3081707 L380.735333,67.0205086 L379.457269,66.7183341 L377.485182,66.237892 C377.227863,66.174146 376.909381,66.0494904 376.573915,65.8940749 L376.234424,65.7295227 L376.234424,65.7295227 L375.893428,65.5511637 L375.893428,65.5511637 L375.560745,65.3656978 C375.506536,65.3345668 375.453082,65.3034188 375.400589,65.2723934 L375.098784,65.0888295 C375.050949,65.058853 375.004483,65.0292782 374.95959,65.0002448 L374.710754,64.8336576 C374.446294,64.6494904 374.278985,64.5055291 374.278985,64.4496498 L374.280825,64.4061665 L374.280825,64.4061665 L374.292883,64.3524445 L374.292883,64.3524445 L374.311116,64.3085489 L374.311116,64.3085489 L374.340686,64.2593056 C374.34671,64.2507059 374.353321,64.2419233 374.360574,64.2329777 L374.412258,64.1775077 C374.422309,64.16799 374.433117,64.1583491 374.444737,64.1486051 L374.52467,64.0890628 C374.53977,64.0789859 374.555796,64.0688458 374.572806,64.0586624 L374.68712,63.9972018 C374.729461,63.976648 374.776191,63.9560806 374.827762,63.935659 L374.997458,63.8749916 L374.997458,63.8749916 L375.198934,63.8161567 C375.235313,63.8065568 375.27313,63.7970732 375.312441,63.7877258 L375.566697,63.733435 C375.612213,63.7247122 375.659338,63.7161654 375.708127,63.7078146 L376.021296,63.6602221 C376.076972,63.6527353 376.134427,63.6454844 376.193716,63.6384894 L376.571932,63.5997492 C376.638789,63.5938575 376.707596,63.5882615 376.778408,63.5829812 L377.227803,63.5552475 C377.306864,63.5513099 377.388045,63.5477278 377.471402,63.5445213 L377.998109,63.5299482 L377.998109,63.5299482 L378.403397,63.5262345 L378.403397,63.5262345 L378.679395,63.53094 L378.679395,63.53094 L379.175893,63.5502937 L379.175893,63.5502937 L379.771392,63.5844019 L379.771392,63.5844019 L380.719394,63.6528308 L380.719394,63.6528308 L381.843399,63.74749 L381.843399,63.74749 L383.495908,63.9027002 L383.495908,63.9027002 L385.423422,64.098895 L385.423422,64.098895 L386.711932,64.2362846 L386.711932,64.2362846 L387.77768,64.4496498 L388.814517,64.6492185 L389.822384,64.8350046 L390.801223,65.0070217 L391.750976,65.1652839 L392.214927,65.2392612 L393.120943,65.376917 L393.997729,65.5008524 L394.845225,65.6110813 L395.257972,65.6610602 L395.257972,65.6610602 L396.257694,65.7710425 L396.257694,65.7710425 L397.211402,65.8596681 L397.579977,65.8891445 L397.579977,65.8891445 L398.294956,65.937866 L398.980328,65.9729573 L399.636034,65.9944322 C401.024551,66.0262202 402.203763,65.9622241 403.171016,65.8030785 L403.557477,65.7323853 L403.872304,65.6637182 C403.972969,65.6398445 404.069352,65.6149386 404.161431,65.5888578 L404.424738,65.5069479 C405.46028,65.1523862 405.830065,64.5949402 405.495444,63.561967 C405.443139,63.678039 405.378368,63.7905323 405.30143,63.8979973 L404.975225,64.3470254 C404.540579,64.9183191 404.19184,65.184554 403.535398,64.7691818 L394.659604,58.7457604 L389.827572,55.3164982 L387.460529,53.6588078 L385.583412,52.3595275 L382.9329,50.5436192 C360.085763,34.9526851 340.21698,24.3052847 317.013355,16.498852 C288.104264,6.77292012 255.985819,2.51184869 218.600892,4.46208987 C155.378052,7.76020487 83.4652865,47.7182228 2.94346018,124.45055 C2.85207297,124.537637 2.75548497,124.640069 2.65494112,124.752009 L1.97233049,125.538391 L1.7727347,125.757909 C1.20477273,126.364366 0.622289902,126.809795 0.183993382,126.349853 C0.114132077,126.276542 0.14990065,126.089536 0.286973848,125.805698 L0.390051052,125.602313 C0.409518201,125.566086 0.430116206,125.52871 0.451825639,125.490208 L0.595263966,125.245868 L0.595263966,125.245868 L0.764444079,124.975612 L0.764444079,124.975612 L0.958433473,124.680552 L0.958433473,124.680552 L1.29389512,124.19388 L1.29389512,124.19388 L1.67993231,123.657643 L1.67993231,123.657643 L2.11339785,123.075587 L2.11339785,123.075587 L2.75968974,122.234714 L2.75968974,122.234714 L3.66689259,121.091976 L3.66689259,121.091976 L4.67087196,119.863599 L4.67087196,119.863599 L5.53394327,118.830894 L5.53394327,118.830894 L5.98287715,118.300928 L5.98287715,118.300928 L6.91087881,117.219318 L6.91087881,117.219318 L7.87284235,116.116206 L7.87284235,116.116206 L9.11169074,114.720613 L9.11169074,114.720613 L10.4028653,113.294785 L10.4028653,113.294785 L11.3969516,112.216929 L11.3969516,112.216929 L12.3293895,111.222131 C12.4845101,111.057983 12.6394093,110.894755 12.7939693,110.732586 L13.7163165,109.773413 C14.0217804,109.458676 14.3249452,109.1493 14.6248684,108.846407 L15.5139707,107.958299 C16.5377121,106.947481 17.5101993,106.029827 18.3910267,105.253443 C105.414961,28.5483436 154.041993,3.82446337 218.39251,0.467521478 C256.274742,-1.50866239 288.89667,2.81920486 318.288833,12.7076574 Z" id="Path" fill="#2D3134" fill-rule="nonzero"></path>
    </g>
</svg>