<?xml version="1.0" encoding="UTF-8"?>
<svg width="313px" height="253px" viewBox="0 0 313 253" version="1.1" xmlns="http://www.w3.org/2000/svg" xmlns:xlink="http://www.w3.org/1999/xlink">
    <title>feature-menu-dietary</title>
    <defs>
        <path d="M30.0594759,1.50297379 C35.4549276,1.50297379 39.8288055,5.87685166 39.8288055,11.2723034 C39.8288055,16.6677552 35.4549276,21.0416331 30.0594759,21.0416331 C24.6640241,21.0416331 20.2901462,16.6677552 20.2901462,11.2723034 C20.2901462,5.87685166 24.6640241,1.50297379 30.0594759,1.50297379 Z" id="path-1"></path>
        <filter x="-23.0%" y="-12.8%" width="135.8%" height="135.8%" filterUnits="objectBoundingBox" id="filter-2">
            <feMorphology radius="0.5" operator="dilate" in="SourceAlpha" result="shadowSpreadOuter1"></feMorphology>
            <feOffset dx="-1" dy="1" in="shadowSpreadOuter1" result="shadowOffsetOuter1"></feOffset>
            <feGaussianBlur stdDeviation="0.5" in="shadowOffsetOuter1" result="shadowBlurOuter1"></feGaussianBlur>
            <feColorMatrix values="0 0 0 0 0   0 0 0 0 0   0 0 0 0 0  0 0 0 0.112403759 0" type="matrix" in="shadowBlurOuter1"></feColorMatrix>
        </filter>
        <path d="M30.0594759,1.50297379 C35.4549276,1.50297379 39.8288055,5.87685166 39.8288055,11.2723034 C39.8288055,16.6677552 35.4549276,21.0416331 30.0594759,21.0416331 C24.6640241,21.0416331 20.2901462,16.6677552 20.2901462,11.2723034 C20.2901462,5.87685166 24.6640241,1.50297379 30.0594759,1.50297379 Z" id="path-3"></path>
        <filter x="-23.0%" y="-12.8%" width="135.8%" height="135.8%" filterUnits="objectBoundingBox" id="filter-4">
            <feMorphology radius="0.5" operator="dilate" in="SourceAlpha" result="shadowSpreadOuter1"></feMorphology>
            <feOffset dx="-1" dy="1" in="shadowSpreadOuter1" result="shadowOffsetOuter1"></feOffset>
            <feGaussianBlur stdDeviation="0.5" in="shadowOffsetOuter1" result="shadowBlurOuter1"></feGaussianBlur>
            <feColorMatrix values="0 0 0 0 0   0 0 0 0 0   0 0 0 0 0  0 0 0 0.112403759 0" type="matrix" in="shadowBlurOuter1"></feColorMatrix>
        </filter>
        <path d="M30.0594759,1.50297379 C35.4549276,1.50297379 39.8288055,5.87685166 39.8288055,11.2723034 C39.8288055,16.6677552 35.4549276,21.0416331 30.0594759,21.0416331 C24.6640241,21.0416331 20.2901462,16.6677552 20.2901462,11.2723034 C20.2901462,5.87685166 24.6640241,1.50297379 30.0594759,1.50297379 Z" id="path-5"></path>
        <filter x="-23.0%" y="-12.8%" width="135.8%" height="135.8%" filterUnits="objectBoundingBox" id="filter-6">
            <feMorphology radius="0.5" operator="dilate" in="SourceAlpha" result="shadowSpreadOuter1"></feMorphology>
            <feOffset dx="-1" dy="1" in="shadowSpreadOuter1" result="shadowOffsetOuter1"></feOffset>
            <feGaussianBlur stdDeviation="0.5" in="shadowOffsetOuter1" result="shadowBlurOuter1"></feGaussianBlur>
            <feColorMatrix values="0 0 0 0 0   0 0 0 0 0   0 0 0 0 0  0 0 0 0.112403759 0" type="matrix" in="shadowBlurOuter1"></feColorMatrix>
        </filter>
        <path d="M30.0594759,1.50297379 C35.4549276,1.50297379 39.8288055,5.87685166 39.8288055,11.2723034 C39.8288055,16.6677552 35.4549276,21.0416331 30.0594759,21.0416331 C24.6640241,21.0416331 20.2901462,16.6677552 20.2901462,11.2723034 C20.2901462,5.87685166 24.6640241,1.50297379 30.0594759,1.50297379 Z" id="path-7"></path>
        <filter x="-23.0%" y="-12.8%" width="135.8%" height="135.8%" filterUnits="objectBoundingBox" id="filter-8">
            <feMorphology radius="0.5" operator="dilate" in="SourceAlpha" result="shadowSpreadOuter1"></feMorphology>
            <feOffset dx="-1" dy="1" in="shadowSpreadOuter1" result="shadowOffsetOuter1"></feOffset>
            <feGaussianBlur stdDeviation="0.5" in="shadowOffsetOuter1" result="shadowBlurOuter1"></feGaussianBlur>
            <feColorMatrix values="0 0 0 0 0   0 0 0 0 0   0 0 0 0 0  0 0 0 0.112403759 0" type="matrix" in="shadowBlurOuter1"></feColorMatrix>
        </filter>
        <path d="M30.0594759,1.50297379 C35.4549276,1.50297379 39.8288055,5.87685166 39.8288055,11.2723034 C39.8288055,16.6677552 35.4549276,21.0416331 30.0594759,21.0416331 C24.6640241,21.0416331 20.2901462,16.6677552 20.2901462,11.2723034 C20.2901462,5.87685166 24.6640241,1.50297379 30.0594759,1.50297379 Z" id="path-9"></path>
        <filter x="-23.0%" y="-12.8%" width="135.8%" height="135.8%" filterUnits="objectBoundingBox" id="filter-10">
            <feMorphology radius="0.5" operator="dilate" in="SourceAlpha" result="shadowSpreadOuter1"></feMorphology>
            <feOffset dx="-1" dy="1" in="shadowSpreadOuter1" result="shadowOffsetOuter1"></feOffset>
            <feGaussianBlur stdDeviation="0.5" in="shadowOffsetOuter1" result="shadowBlurOuter1"></feGaussianBlur>
            <feColorMatrix values="0 0 0 0 0   0 0 0 0 0   0 0 0 0 0  0 0 0 0.112403759 0" type="matrix" in="shadowBlurOuter1"></feColorMatrix>
        </filter>
        <path d="M30.0594759,1.50297379 C35.4549276,1.50297379 39.8288055,5.87685166 39.8288055,11.2723034 C39.8288055,16.6677552 35.4549276,21.0416331 30.0594759,21.0416331 C24.6640241,21.0416331 20.2901462,16.6677552 20.2901462,11.2723034 C20.2901462,5.87685166 24.6640241,1.50297379 30.0594759,1.50297379 Z" id="path-11"></path>
        <filter x="-23.0%" y="-12.8%" width="135.8%" height="135.8%" filterUnits="objectBoundingBox" id="filter-12">
            <feMorphology radius="0.5" operator="dilate" in="SourceAlpha" result="shadowSpreadOuter1"></feMorphology>
            <feOffset dx="-1" dy="1" in="shadowSpreadOuter1" result="shadowOffsetOuter1"></feOffset>
            <feGaussianBlur stdDeviation="0.5" in="shadowOffsetOuter1" result="shadowBlurOuter1"></feGaussianBlur>
            <feColorMatrix values="0 0 0 0 0   0 0 0 0 0   0 0 0 0 0  0 0 0 0.112403759 0" type="matrix" in="shadowBlurOuter1"></feColorMatrix>
        </filter>
    </defs>
    <g id="Cheebot-2.0" stroke="none" stroke-width="1" fill="none" fill-rule="evenodd">
        <g id="feature-menu-dietary" transform="translate(0.000000, 0.522143)">
            <rect id="Rectangle" fill="#FFFFFF" fill-rule="nonzero" x="1" y="0" width="311" height="252"></rect>
            <g id="Group-70" transform="translate(0.000000, 16.000000)">
                <g id="diet-dairy-free" transform="translate(31.890802, 118.417334)" fill="#4B4A49" fill-rule="nonzero">
                    <path d="M1.06270092,4.58606321 L5.14683673,8.01642857 L5.11904762,8.12225164 L5.11904762,14.2297328 C5.11904762,15.3981049 6.03237344,16.3531583 7.1840182,16.4198861 L7.31292517,16.4236104 L10.2737677,16.4236104 C11.4421398,16.4236104 12.3971932,15.5102845 12.463921,14.3586398 L12.4676452,14.2297328 L12.4670748,14.1651361 L14.2325255,15.6483966 C12.7344485,16.8394468 10.8380778,17.5510204 8.7755102,17.5510204 C3.92892974,17.5510204 0,13.6220907 0,8.7755102 C0,7.25830683 0.385026843,5.8310313 1.06270092,4.58606321 Z M8.7755102,0 C13.6220907,0 17.5510204,3.92892974 17.5510204,8.7755102 C17.5510204,11.0297915 16.7010191,13.0855443 15.3040348,14.6397502 L1.87304868,3.35590111 C3.47975866,1.31242261 5.97436807,0 8.7755102,0 Z M11.2428789,3.51070729 L6.34381389,3.51070729 L5.9614966,4.94865646 L12.4670748,10.4136054 L12.4676452,8.12225164 L11.2428789,3.51070729 Z M10.8943259,1.46258503 L6.69236695,1.46258503 C6.28848524,1.46258503 5.96107443,1.78999585 5.96107443,2.19387755 C5.96107443,2.56891056 6.24338273,2.87800694 6.60708279,2.92025013 L6.69236695,2.92517007 L10.8943259,2.92517007 C11.2982076,2.92517007 11.6256184,2.59775926 11.6256184,2.19387755 C11.6256184,1.81884454 11.3433101,1.50974817 10.9796101,1.46750497 L10.8943259,1.46258503 Z" id="Shape"></path>
                </g>
                <g id="diet-gluten-free" transform="translate(31.890802, 80.266672)" fill="#4B4A49" fill-rule="nonzero">
                    <path d="M1.35493539,4.08887935 L3.74311684,6.09604562 C3.56438646,7.97023143 3.85011668,9.28254668 4.6003075,10.0329914 C5.35325932,10.786198 6.60692655,11.0062315 8.36130919,10.6930921 C8.40590239,10.4753455 8.44134748,10.2650782 8.46764446,10.0622901 L10.4481774,11.7266365 C10.3011308,11.8243413 10.1668464,11.9339753 10.0453243,12.0555384 C9.2587298,12.8423992 9.0413033,14.0945996 9.3930449,15.8121397 C11.1474276,16.1252791 12.4010948,15.9052456 13.1540466,15.152039 C13.3559376,14.9500796 13.5241899,14.7074267 13.6588035,14.42408 L14.6719909,15.2749118 C13.1140284,16.6891969 11.0454142,17.5510204 8.7755102,17.5510204 C3.92892974,17.5510204 0,13.6220907 0,8.7755102 C0,7.05214294 0.496774263,5.44480352 1.35493539,4.08887935 Z M7.70902976,12.0555384 C6.92243515,11.2686777 5.60112826,10.9816241 3.74510908,11.1943775 C3.56228959,13.0796119 3.84735572,14.3988324 4.6003075,15.152039 C5.35325932,15.9052456 6.60692655,16.1252791 8.36130919,15.8121397 C8.7130508,14.0945996 8.4956243,12.8423992 7.70902976,12.0555384 Z M8.7755102,0 C13.6220907,0 17.5510204,3.92892974 17.5510204,8.7755102 C17.5510204,10.8253148 16.8482259,12.710973 15.6704519,14.2046698 L2.23841125,2.9208235 C3.84514469,1.12802538 6.17859523,0 8.7755102,0 Z M14.009245,6.07532988 C12.1532258,5.86257645 10.8319189,6.1496301 10.0453243,6.93649083 C9.89488496,7.08698117 9.76526461,7.25449276 9.65646342,7.4390256 L9.65646342,7.4390256 L12.9559997,10.2096905 C13.0254718,10.1544714 13.0914875,10.0955717 13.1540466,10.0329914 C13.9069984,9.27978481 14.1920645,7.96056426 14.009245,6.07532988 Z M8.77561507,0.731292517 C7.31277194,1.89325687 6.58144446,3.03053951 6.58163254,4.14314044 C6.58168031,4.42481794 6.62861408,4.70178971 6.72243395,4.97405576 L6.72243395,4.97405576 L9.13437394,6.99978271 C10.3578812,6.06389573 10.9695526,5.10880096 10.9693877,4.13449839 C10.9692076,3.06948359 10.23795,1.93508163 8.77561507,0.731292517 Z" id="Combined-Shape"></path>
                </g>
                <g id="diet-halal" transform="translate(31.890802, 195.203048)" fill="#4B4A49" fill-rule="nonzero">
                    <path d="M8.7755102,0 C13.6220907,0 17.5510204,3.92892974 17.5510204,8.7755102 C17.5510204,13.6220907 13.6220907,17.5510204 8.7755102,17.5510204 C3.92892974,17.5510204 0,13.6220907 0,8.7755102 C0,3.92892974 3.92892974,0 8.7755102,0 Z M10.2162866,4.18075856 L10.1290934,4.92991684 C10.0818228,5.35565778 10.040844,5.76181157 10.006187,6.14907099 L9.97044218,6.56920068 L9.88496235,7.13700916 C9.32096455,10.5819115 8.27446828,12.0470457 6.86765286,11.8032824 L6.76891987,11.7835063 L6.44518431,13.2098128 L6.58971948,13.2400392 C8.01740434,13.5127716 9.13105439,12.949134 9.95608742,11.6054781 L10.0500042,11.4469824 L10.1013435,11.352585 L10.1585979,11.5598657 C10.2615157,11.9012766 10.3915883,12.1831119 10.5490701,12.4112602 C11.2099051,13.3686302 11.8903349,13.457388 13.2241737,13.0027013 L13.381014,12.9478442 L13.7129585,12.8241036 L14.4361188,12.5370333 L14.6670521,12.4514459 C15.2747035,12.236641 15.6586053,12.1933593 15.9297873,12.3059146 L15.9952988,12.337291 L16.6969435,11.0539946 C15.9555757,10.8133168 15.4180646,10.4190547 15.08441,9.87120812 L15.0052434,9.73104684 L14.9382758,9.60966918 C14.2749603,8.4753321 13.1541828,8.46955804 12.0482098,9.43048196 L11.9338709,9.53332963 L12.9300747,10.6041858 C13.3004762,10.2624057 13.5927219,10.2566535 13.8068116,10.5869292 L14.0733131,10.9986479 L14.0733131,10.9986479 L14.1423743,11.0859625 L13.9943427,11.1402173 L13.2205039,11.4466878 L12.9396366,11.5530143 C12.2022995,11.822152 11.9464797,11.8209606 11.7810777,11.6182575 L11.7527481,11.5804085 L11.7164782,11.5240368 C11.3625029,10.9348664 11.2313952,9.52287119 11.3964197,7.12865552 L11.4315646,6.65403061 L11.4969704,6.15539077 C11.5497465,5.72184939 11.5956493,5.26944631 11.6347845,4.79841582 L11.6716677,4.32118486 L10.2162866,4.18075856 Z M5.76063876,3.85857847 L4.35960599,4.27841436 L4.3862196,4.37410974 C4.58267395,5.13003032 4.80537519,7.05674223 4.91661519,8.79420899 L4.9555554,9.49098516 L4.97357216,9.93355432 L4.98450999,10.3514123 C4.98439385,11.1970952 4.66069914,11.6123431 4.12211282,11.7329579 C3.67574964,11.8329196 3.17036078,11.6779009 3.08106222,11.5304965 C2.8914594,11.2175208 2.87422278,10.945203 3.03253898,10.6275024 L3.0853036,10.5307447 L1.82588062,9.7870991 L1.74531107,9.93257921 C1.34247283,10.7110125 1.36956446,11.5280865 1.830122,12.2883247 C2.28138858,13.0332264 3.43230833,13.3862499 4.44173749,13.1601912 C5.65629708,12.8881942 6.44697888,11.8738775 6.44697888,10.3383794 C6.41002294,8.25876078 6.09549928,5.12506739 5.79299117,3.974164 L5.76063876,3.85857847 Z M9.06378191,8.64330956 C8.69253922,6.5505937 7.89309799,5.38570038 6.55494171,5.47194939 L6.42375728,5.48421268 L6.6006658,6.93605921 L6.64691151,6.93325296 C7.01656087,6.93364215 7.37716205,7.48643331 7.62385802,8.89838921 L7.65409419,9.07938075 L9.09837556,8.84871595 L9.06378191,8.64330956 Z" id="Shape"></path>
                </g>
                <g id="diet-peanuts" transform="translate(31.890802, 156.810191)" fill="#4B4A49" fill-rule="nonzero">
                    <path d="M8.7755102,0 C13.6220907,0 17.5510204,3.92892974 17.5510204,8.7755102 C17.5510204,13.6220907 13.6220907,17.5510204 8.7755102,17.5510204 C3.92892974,17.5510204 0,13.6220907 0,8.7755102 C0,3.92892974 3.92892974,0 8.7755102,0 Z M14.5707264,3.71158654 C13.1520014,2.29286158 10.8345156,2.31013972 9.39447699,3.75017834 C8.36845465,4.77620069 8.92557618,5.58830954 7.70303945,6.81082519 C6.48050277,8.03334088 5.30176413,7.29242793 3.78170204,8.81248998 C2.17224711,10.421945 2.14085533,12.9999952 3.71158654,14.5707264 C5.28231774,16.1414576 7.86036797,16.1100658 9.46982294,14.5006109 C11.1620604,12.8083733 10.1972272,11.6118334 11.3506375,10.4584231 C12.5040477,9.30501294 13.4049663,10.0150042 14.5321346,8.88783593 C15.9721732,7.4477973 15.9894513,5.1303115 14.5707264,3.71158654 Z M4.47706724,12.9054135 C4.61876659,13.2167697 4.82875416,13.5261523 5.11079669,13.8306768 L5.25783998,13.9825208 L4.74358233,14.5024514 C4.38498592,14.1477676 4.10583262,13.7788916 3.90522537,13.3991142 L3.81146308,13.2083325 L4.47706724,12.9054135 Z M5.29037429,11.2361209 L6.00935243,11.369759 C5.94683917,11.7060825 5.94139632,12.0799579 5.99776399,12.4911826 L6.03112064,12.6999065 L5.3116455,12.8308427 C5.22133878,12.3346203 5.20424843,11.8723389 5.25775189,11.44618 L5.29037429,11.2361209 Z M4.13936454,10.0441839 L4.73874795,10.4631448 C4.51148716,10.7882738 4.358186,11.1401589 4.29150751,11.5015519 L4.26827135,11.6569664 L3.54173056,11.5737365 C3.59689,11.0922316 3.76800385,10.6275761 4.03484949,10.2019295 L4.13936454,10.0441839 Z M6.82285959,8.33049743 L7.04886762,9.02598945 L6.21939627,9.30084215 C6.11277922,9.33885306 6.00439414,9.3864063 5.89612631,9.44271992 L5.73404819,9.53366273 L5.35664354,8.90728071 C5.50846056,8.81580866 5.66335777,8.73694147 5.82031935,8.67150586 L5.97793143,8.61057807 L6.82285959,8.33049743 Z M8.98260793,6.85496244 L9.58955761,7.26288502 C9.46321644,7.45086851 9.31746846,7.6472373 9.14562729,7.85972685 C8.98910261,8.05231214 8.82193156,8.21047221 8.63252043,8.34569098 L8.48611099,8.44298301 L8.10146217,7.82102319 C8.28334273,7.7085398 8.43387849,7.57597877 8.57756804,7.39918741 C8.69615816,7.25254396 8.80059566,7.11511732 8.89347931,6.98403559 L8.98260793,6.85496244 Z M12.6544407,5.10805855 L12.7047089,5.83762133 C12.6245375,5.84314529 12.5430207,5.85244889 12.459638,5.86565543 C12.2132292,5.90475245 12.0528855,5.96671021 11.8759859,6.08488058 L11.7856813,6.14880455 L11.5682047,6.31860189 L11.1152245,5.74449591 L11.3491736,5.5620765 C11.6556764,5.33404787 11.9341918,5.208586 12.3451385,5.14338219 L12.5008234,5.12214001 L12.5008234,5.12214001 L12.6544407,5.10805855 Z M10.4257925,4.2062483 L10.8952866,4.76693006 C10.8336735,4.81852264 10.7731935,4.87396375 10.713498,4.93365926 C10.5371298,5.11012482 10.4438269,5.25449737 10.3701709,5.45407821 L10.3346865,5.55887348 L10.2585487,5.82407194 L9.55462896,5.62586553 L9.63667435,5.34077329 C9.75060841,4.97613645 9.9021875,4.71092839 10.1963245,4.41662899 L10.3097904,4.30793441 L10.3097904,4.30793441 L10.4257925,4.2062483 Z M11.9846422,3.5385187 C12.4767061,3.49648823 12.9740333,3.59571091 13.4446427,3.82509833 L13.6198063,3.91719842 L13.2601595,4.55394245 C12.913175,4.35795807 12.5527514,4.25904686 12.1983439,4.26042017 L12.0468801,4.26715796 L11.9846422,3.5385187 Z" id="Shape"></path>
                </g>
                <g id="diet-vegan" transform="translate(31.890802, 41.391396)" fill="#4B4A49" fill-rule="nonzero">
                    <path d="M8.7755102,0 C13.6220907,0 17.5510204,3.92892974 17.5510204,8.7755102 C17.5510204,13.6220907 13.6220907,17.5510204 8.7755102,17.5510204 C3.92892974,17.5510204 0,13.6220907 0,8.7755102 C0,3.92892974 3.92892974,0 8.7755102,0 Z M3.38330348,3.65646259 C-0.517900645,12.4977861 7.67902958,16.6681565 8.45828363,16.7621858 C6.6726782,13.4894061 5.41132692,10.2037055 4.67422978,6.90508385 C6.20403547,10.1051048 7.66624213,12.4427357 9.06084987,13.9179764 C10.6637061,12.4043617 11.9960422,10.4502189 13.057858,8.05554819 C12.3707958,11.3157171 11.2700117,14.1865865 9.75550565,16.6681565 C15.5253828,14.4077023 16.4222374,8.95042031 14.3253834,4.65171605 C12.3984295,5.20510879 10.9561627,6.19703598 9.99858297,7.62749759 C10.3587174,8.67297144 10.3587174,9.53358024 9.99858297,10.2093241 C9.52342639,7.94949008 7.2753805,4.64155951 3.38330348,3.65646259 Z" id="Shape"></path>
                </g>
                <g id="diet-vegetarian" transform="translate(31.890802, 4.742347)" fill="#4B4A49" fill-rule="nonzero">
                    <path d="M8.7755102,0 C13.6220907,0 17.5510204,3.92892974 17.5510204,8.7755102 C17.5510204,13.6220907 13.6220907,17.5510204 8.7755102,17.5510204 C7.71209644,17.5510204 6.69286119,17.3618697 5.74961356,17.0153774 C5.73218764,16.2942046 5.84956866,15.5296066 5.91021239,15.1882349 L5.94486435,15.0051525 C14.1089033,15.5903618 11.2041768,9.57671334 13.1014698,6.35647361 C13.8848827,5.02680164 15.302796,4.08887935 15.302796,4.02795735 L15.146806,3.94741426 C14.6131773,3.69046129 12.7165744,2.92084583 9.55176946,3.16161214 C5.14697635,3.49671201 2.69434572,6.34442021 2.19387755,11.7047367 C4.27503725,8.31259846 6.72766788,6.3873637 9.55176946,5.92903234 C5.49964545,9.28914681 3.64733279,12.7940134 3.51796775,15.8022547 C1.38232593,14.2021962 0,11.650283 0,8.7755102 C0,3.92892974 3.92892974,0 8.7755102,0 Z" id="Path"></path>
                </g>
                <path d="M66.3072142,18.3036681 L70.2036986,7.73482045 L68.8194212,7.73482045 L65.7139525,16.5971251 L65.596765,16.5971251 L62.4912962,7.73482045 L61.1070189,7.73482045 L65.0035033,18.3036681 L66.3072142,18.3036681 Z M74.0772337,18.4428283 C75.8057494,18.4428283 77.0362181,17.6078673 77.402429,16.2602111 L76.1426634,16.2602111 C75.8130736,16.9560119 75.124597,17.329547 74.1065306,17.329547 C72.7661986,17.329547 71.8946165,16.3407775 71.8286986,14.7807189 L71.8286986,14.7221251 L77.5049681,14.7221251 L77.5049681,14.2387267 C77.5049681,11.7851134 76.2085814,10.2690001 74.0772337,10.2690001 C71.909265,10.2690001 70.5176634,11.8803283 70.5176634,14.3632384 C70.5176634,16.860797 71.8872923,18.4428283 74.0772337,18.4428283 Z M76.1792845,13.7040587 L71.8286986,13.7040587 C71.9239134,12.305133 72.8028197,11.3822814 74.0625853,11.3822814 C75.3150267,11.3822814 76.1499876,12.305133 76.1792845,13.7040587 Z M82.4844603,21.3358947 C84.6377806,21.3358947 86.0000853,20.207965 86.0000853,18.4428283 L86.0000853,10.4081603 L84.7989134,10.4081603 L84.7989134,11.6606017 L84.6817259,11.6606017 C84.2276244,10.8109923 83.2535033,10.2690001 82.1475462,10.2690001 C80.1187376,10.2690001 78.8369994,11.873004 78.8369994,14.2387267 C78.8369994,16.6044494 80.1040892,18.1864806 82.1475462,18.1864806 C83.2315306,18.1864806 84.1250853,17.695758 84.6231322,16.8241759 L84.7403197,16.8241759 L84.7403197,18.3769103 C84.7403197,19.5414611 83.8980345,20.2372619 82.4844603,20.2372619 C81.3492064,20.2372619 80.6460814,19.8197814 80.5069212,19.1752501 L79.1739134,19.1752501 C79.3643431,20.4789611 80.5801634,21.3358947 82.4844603,21.3358947 Z M82.4258665,17.0731994 C80.9610228,17.0731994 80.1407103,15.9599181 80.1407103,14.2387267 C80.1407103,12.5175353 80.9610228,11.404254 82.4258665,11.404254 C83.8833861,11.404254 84.7696165,12.5175353 84.7696165,14.2387267 C84.7696165,15.9599181 83.8907103,17.0731994 82.4258665,17.0731994 Z M91.2871947,18.4428283 C93.0157103,18.4428283 94.246179,17.6078673 94.61239,16.2602111 L93.3526244,16.2602111 C93.0230345,16.9560119 92.334558,17.329547 91.3164915,17.329547 C89.9761595,17.329547 89.1045775,16.3407775 89.0386595,14.7807189 L89.0386595,14.7221251 L94.714929,14.7221251 L94.714929,14.2387267 C94.714929,11.7851134 93.4185423,10.2690001 91.2871947,10.2690001 C89.1192259,10.2690001 87.7276244,11.8803283 87.7276244,14.3632384 C87.7276244,16.860797 89.0972533,18.4428283 91.2871947,18.4428283 Z M93.3892455,13.7040587 L89.0386595,13.7040587 C89.1338744,12.305133 90.0127806,11.3822814 91.2725462,11.3822814 C92.5249876,11.3822814 93.3599486,12.305133 93.3892455,13.7040587 Z M99.2476439,18.3622619 C99.4966673,18.3622619 99.7383665,18.332965 99.98739,18.2890197 L99.98739,17.227008 C99.753015,17.2489806 99.6285033,17.2563048 99.4014525,17.2563048 C98.58114,17.2563048 98.2295775,16.860797 98.2295775,15.9306212 L98.2295775,11.4628478 L99.98739,11.4628478 L99.98739,10.4081603 L98.2295775,10.4081603 L98.2295775,8.36470327 L96.9698119,8.36470327 L96.9698119,10.4081603 L95.6953978,10.4081603 L95.6953978,11.4628478 L96.9698119,11.4628478 L96.9698119,16.2528869 C96.9698119,17.7616759 97.6216673,18.3622619 99.2476439,18.3622619 Z M103.838952,18.4428283 C104.89364,18.4428283 105.757898,17.9814025 106.270593,17.1391173 L106.387781,17.1391173 L106.387781,18.3036681 L107.588952,18.3036681 L107.588952,12.8983947 C107.588952,11.2577697 106.512292,10.2690001 104.586023,10.2690001 C102.901452,10.2690001 101.656335,11.1039611 101.487878,12.3710509 L102.762292,12.3710509 C102.938074,11.7484923 103.597253,11.3896056 104.542077,11.3896056 C105.721277,11.3896056 106.329187,11.9242736 106.329187,12.8983947 L106.329187,13.6161681 L104.051355,13.7553283 C102.212976,13.8651915 101.172937,14.6781798 101.172937,16.091754 C101.172937,17.5346251 102.308191,18.4428283 103.838952,18.4428283 Z M104.073327,17.3368712 C103.1578,17.3368712 102.476648,16.8681212 102.476648,16.0624572 C102.476648,15.2714415 103.003992,14.8539611 104.205163,14.7733947 L106.329187,14.6342345 L106.329187,15.3593322 C106.329187,16.4872619 105.369714,17.3368712 104.073327,17.3368712 Z M110.92782,18.3036681 L110.92782,13.41109 C110.92782,12.2978087 111.799402,11.4921447 113.000574,11.4921447 C113.249597,11.4921447 113.703699,11.53609 113.806238,11.5653869 L113.806238,10.3056212 C113.645105,10.2836486 113.381433,10.2690001 113.176355,10.2690001 C112.128992,10.2690001 111.220788,10.8109923 110.986413,11.5800353 L110.869226,11.5800353 L110.869226,10.4081603 L109.668054,10.4081603 L109.668054,18.3036681 L110.92782,18.3036681 Z M115.790124,8.8847228 C116.273523,8.8847228 116.669031,8.48921498 116.669031,8.00581655 C116.669031,7.52241811 116.273523,7.1269103 115.790124,7.1269103 C115.306726,7.1269103 114.911218,7.52241811 114.911218,8.00581655 C114.911218,8.48921498 115.306726,8.8847228 115.790124,8.8847228 Z M116.420007,18.3036681 L116.420007,10.4081603 L115.160242,10.4081603 L115.160242,18.3036681 L116.420007,18.3036681 Z M120.769617,18.4428283 C121.824304,18.4428283 122.688562,17.9814025 123.201257,17.1391173 L123.318445,17.1391173 L123.318445,18.3036681 L124.519617,18.3036681 L124.519617,12.8983947 C124.519617,11.2577697 123.442956,10.2690001 121.516687,10.2690001 C119.832117,10.2690001 118.586999,11.1039611 118.418542,12.3710509 L119.692956,12.3710509 C119.868738,11.7484923 120.527917,11.3896056 121.472742,11.3896056 C122.651941,11.3896056 123.259851,11.9242736 123.259851,12.8983947 L123.259851,13.6161681 L120.982019,13.7553283 C119.14364,13.8651915 118.103601,14.6781798 118.103601,16.091754 C118.103601,17.5346251 119.238855,18.4428283 120.769617,18.4428283 Z M121.003992,17.3368712 C120.088464,17.3368712 119.407312,16.8681212 119.407312,16.0624572 C119.407312,15.2714415 119.934656,14.8539611 121.135827,14.7733947 L123.259851,14.6342345 L123.259851,15.3593322 C123.259851,16.4872619 122.300378,17.3368712 121.003992,17.3368712 Z M127.858484,18.3036681 L127.858484,13.6308165 C127.858484,12.2465392 128.671472,11.404254 129.931238,11.404254 C131.191003,11.404254 131.791589,12.0780822 131.791589,13.4989806 L131.791589,18.3036681 L133.051355,18.3036681 L133.051355,13.1913634 C133.051355,11.3163634 132.062585,10.2690001 130.290124,10.2690001 C129.081628,10.2690001 128.312585,10.7816955 127.917077,11.6532775 L127.79989,11.6532775 L127.79989,10.4081603 L126.598718,10.4081603 L126.598718,18.3036681 L127.858484,18.3036681 Z M66.3072142,56.5036681 L70.2036986,45.9348205 L68.8194212,45.9348205 L65.7139525,54.7971251 L65.596765,54.7971251 L62.4912962,45.9348205 L61.1070189,45.9348205 L65.0035033,56.5036681 L66.3072142,56.5036681 Z M74.0772337,56.6428283 C75.8057494,56.6428283 77.0362181,55.8078673 77.402429,54.4602111 L76.1426634,54.4602111 C75.8130736,55.1560119 75.124597,55.529547 74.1065306,55.529547 C72.7661986,55.529547 71.8946165,54.5407775 71.8286986,52.9807189 L71.8286986,52.9221251 L77.5049681,52.9221251 L77.5049681,52.4387267 C77.5049681,49.9851134 76.2085814,48.4690001 74.0772337,48.4690001 C71.909265,48.4690001 70.5176634,50.0803283 70.5176634,52.5632384 C70.5176634,55.060797 71.8872923,56.6428283 74.0772337,56.6428283 Z M76.1792845,51.9040587 L71.8286986,51.9040587 C71.9239134,50.505133 72.8028197,49.5822814 74.0625853,49.5822814 C75.3150267,49.5822814 76.1499876,50.505133 76.1792845,51.9040587 Z M82.4844603,59.5358947 C84.6377806,59.5358947 86.0000853,58.407965 86.0000853,56.6428283 L86.0000853,48.6081603 L84.7989134,48.6081603 L84.7989134,49.8606017 L84.6817259,49.8606017 C84.2276244,49.0109923 83.2535033,48.4690001 82.1475462,48.4690001 C80.1187376,48.4690001 78.8369994,50.073004 78.8369994,52.4387267 C78.8369994,54.8044494 80.1040892,56.3864806 82.1475462,56.3864806 C83.2315306,56.3864806 84.1250853,55.895758 84.6231322,55.0241759 L84.7403197,55.0241759 L84.7403197,56.5769103 C84.7403197,57.7414611 83.8980345,58.4372619 82.4844603,58.4372619 C81.3492064,58.4372619 80.6460814,58.0197814 80.5069212,57.3752501 L79.1739134,57.3752501 C79.3643431,58.6789611 80.5801634,59.5358947 82.4844603,59.5358947 Z M82.4258665,55.2731994 C80.9610228,55.2731994 80.1407103,54.1599181 80.1407103,52.4387267 C80.1407103,50.7175353 80.9610228,49.604254 82.4258665,49.604254 C83.8833861,49.604254 84.7696165,50.7175353 84.7696165,52.4387267 C84.7696165,54.1599181 83.8907103,55.2731994 82.4258665,55.2731994 Z M90.3203978,56.6428283 C91.3750853,56.6428283 92.2393431,56.1814025 92.7520384,55.3391173 L92.8692259,55.3391173 L92.8692259,56.5036681 L94.0703978,56.5036681 L94.0703978,51.0983947 C94.0703978,49.4577697 92.9937376,48.4690001 91.0674681,48.4690001 C89.3828978,48.4690001 88.1377806,49.3039611 87.9693236,50.5710509 L89.2437376,50.5710509 C89.4195189,49.9484923 90.0786986,49.5896056 91.0235228,49.5896056 C92.202722,49.5896056 92.8106322,50.1242736 92.8106322,51.0983947 L92.8106322,51.8161681 L90.5328001,51.9553283 C88.6944212,52.0651915 87.6543822,52.8781798 87.6543822,54.291754 C87.6543822,55.7346251 88.7896361,56.6428283 90.3203978,56.6428283 Z M90.5547728,55.5368712 C89.6392455,55.5368712 88.9580931,55.0681212 88.9580931,54.2624572 C88.9580931,53.4714415 89.4854369,53.0539611 90.6866087,52.9733947 L92.8106322,52.8342345 L92.8106322,53.5593322 C92.8106322,54.6872619 91.8511595,55.5368712 90.5547728,55.5368712 Z M97.409265,56.5036681 L97.409265,51.8308165 C97.409265,50.4465392 98.2222533,49.604254 99.4820189,49.604254 C100.741785,49.604254 101.34237,50.2780822 101.34237,51.6989806 L101.34237,56.5036681 L102.602136,56.5036681 L102.602136,51.3913634 C102.602136,49.5163634 101.613367,48.4690001 99.8409056,48.4690001 C98.6324095,48.4690001 97.8633665,48.9816955 97.4678587,49.8532775 L97.3506712,49.8532775 L97.3506712,48.6081603 L96.1494994,48.6081603 L96.1494994,56.5036681 L97.409265,56.5036681 Z M66.3291869,94.9526915 C69.0318236,94.9526915 70.818933,93.2241759 70.818933,90.616754 L70.818933,89.3276915 L66.534265,89.3276915 L66.534265,90.4849181 L69.5078978,90.4849181 L69.5078978,90.7412658 C69.5078978,92.5283751 68.2261595,93.7368712 66.3365111,93.7368712 C64.2124876,93.7368712 62.8941283,92.0815978 62.8941283,89.4155822 C62.8941283,86.7861876 64.2344603,85.1016173 66.3291869,85.1016173 C67.8965697,85.1016173 68.9585814,85.8560119 69.412683,87.2842345 L70.753015,87.2842345 C70.3721556,85.189508 68.6729369,83.885797 66.3291869,83.885797 C63.4361205,83.885797 61.5391478,86.0757384 61.5391478,89.4155822 C61.5391478,92.7993712 63.4068236,94.9526915 66.3291869,94.9526915 Z M74.0699095,94.7036681 L74.0699095,83.6733947 L72.8101439,83.6733947 L72.8101439,94.7036681 L74.0699095,94.7036681 Z M78.8882689,94.8428283 C80.096765,94.8428283 80.9390501,94.3447814 81.334558,93.4658751 L81.4517455,93.4658751 L81.4517455,94.7036681 L82.6529173,94.7036681 L82.6529173,86.8081603 L81.3931517,86.8081603 L81.3931517,91.4810119 C81.3931517,92.8652892 80.631433,93.6929259 79.2398314,93.6929259 C77.9800658,93.6929259 77.452722,93.0337462 77.452722,91.6128478 L77.452722,86.8081603 L76.1929564,86.8081603 L76.1929564,91.920465 C76.1929564,93.7881408 77.115808,94.8428283 78.8882689,94.8428283 Z M87.58114,94.7622619 C87.8301634,94.7622619 88.0718626,94.732965 88.3208861,94.6890197 L88.3208861,93.627008 C88.0865111,93.6489806 87.9619994,93.6563048 87.7349486,93.6563048 C86.9146361,93.6563048 86.5630736,93.260797 86.5630736,92.3306212 L86.5630736,87.8628478 L88.3208861,87.8628478 L88.3208861,86.8081603 L86.5630736,86.8081603 L86.5630736,84.7647033 L85.303308,84.7647033 L85.303308,86.8081603 L84.0288939,86.8081603 L84.0288939,87.8628478 L85.303308,87.8628478 L85.303308,92.6528869 C85.303308,94.1616759 85.9551634,94.7622619 87.58114,94.7622619 Z M93.0293822,94.8428283 C94.7578978,94.8428283 95.9883665,94.0078673 96.3545775,92.6602111 L95.0948119,92.6602111 C94.765222,93.3560119 94.0767455,93.729547 93.058679,93.729547 C91.718347,93.729547 90.846765,92.7407775 90.780847,91.1807189 L90.780847,91.1221251 L96.4571165,91.1221251 L96.4571165,90.6387267 C96.4571165,88.1851134 95.1607298,86.6690001 93.0293822,86.6690001 C90.8614134,86.6690001 89.4698119,88.2803283 89.4698119,90.7632384 C89.4698119,93.260797 90.8394408,94.8428283 93.0293822,94.8428283 Z M95.131433,90.1040587 L90.780847,90.1040587 C90.8760619,88.705133 91.7549681,87.7822814 93.0147337,87.7822814 C94.2671751,87.7822814 95.1021361,88.705133 95.131433,90.1040587 Z M99.4444212,94.7036681 L99.4444212,90.0308165 C99.4444212,88.6465392 100.25741,87.804254 101.517175,87.804254 C102.776941,87.804254 103.377527,88.4780822 103.377527,89.8989806 L103.377527,94.7036681 L104.637292,94.7036681 L104.637292,89.5913634 C104.637292,87.7163634 103.648523,86.6690001 101.876062,86.6690001 C100.667566,86.6690001 99.8985228,87.1816955 99.503015,88.0532775 L99.3858275,88.0532775 L99.3858275,86.8081603 L98.1846556,86.8081603 L98.1846556,94.7036681 L99.4444212,94.7036681 Z M112.149988,94.7036681 L112.149988,90.1260314 L116.830163,90.1260314 L116.830163,88.9541564 L112.149988,88.9541564 L112.149988,85.3213439 L117.247644,85.3213439 L117.247644,84.1348205 L110.831628,84.1348205 L110.831628,94.7036681 L112.149988,94.7036681 Z M120.264245,94.7036681 L120.264245,89.81109 C120.264245,88.6978087 121.135827,87.8921447 122.336999,87.8921447 C122.586023,87.8921447 123.040124,87.93609 123.142663,87.9653869 L123.142663,86.7056212 C122.981531,86.6836486 122.717859,86.6690001 122.512781,86.6690001 C121.465417,86.6690001 120.557214,87.2109923 120.322839,87.9800353 L120.205652,87.9800353 L120.205652,86.8081603 L119.00448,86.8081603 L119.00448,94.7036681 L120.264245,94.7036681 Z M127.411706,94.8428283 C129.140222,94.8428283 130.370691,94.0078673 130.736902,92.6602111 L129.477136,92.6602111 C129.147546,93.3560119 128.45907,93.729547 127.441003,93.729547 C126.100671,93.729547 125.229089,92.7407775 125.163171,91.1807189 L125.163171,91.1221251 L130.839441,91.1221251 L130.839441,90.6387267 C130.839441,88.1851134 129.543054,86.6690001 127.411706,86.6690001 C125.243738,86.6690001 123.852136,88.2803283 123.852136,90.7632384 C123.852136,93.260797 125.221765,94.8428283 127.411706,94.8428283 Z M129.513757,90.1040587 L125.163171,90.1040587 C125.258386,88.705133 126.137292,87.7822814 127.397058,87.7822814 C128.649499,87.7822814 129.48446,88.705133 129.513757,90.1040587 Z M135.731042,94.8428283 C137.459558,94.8428283 138.690027,94.0078673 139.056238,92.6602111 L137.796472,92.6602111 C137.466882,93.3560119 136.778406,93.729547 135.760339,93.729547 C134.420007,93.729547 133.548425,92.7407775 133.482507,91.1807189 L133.482507,91.1221251 L139.158777,91.1221251 L139.158777,90.6387267 C139.158777,88.1851134 137.86239,86.6690001 135.731042,86.6690001 C133.563074,86.6690001 132.171472,88.2803283 132.171472,90.7632384 C132.171472,93.260797 133.541101,94.8428283 135.731042,94.8428283 Z M137.833093,90.1040587 L133.482507,90.1040587 C133.577722,88.705133 134.456628,87.7822814 135.716394,87.7822814 C136.968835,87.7822814 137.803796,88.705133 137.833093,90.1040587 Z M65.5747923,132.903668 C68.7168822,132.903668 70.5625853,130.948102 70.5625853,127.615582 C70.5625853,124.290387 68.709558,122.33482 65.5747923,122.33482 L61.949304,122.33482 L61.949304,132.903668 L65.5747923,132.903668 Z M65.4869017,131.717145 L63.2676634,131.717145 L63.2676634,123.521344 L65.4869017,123.521344 C67.8306517,123.521344 69.214929,125.044781 69.214929,127.630231 C69.214929,130.208356 67.8453001,131.717145 65.4869017,131.717145 Z M74.6338744,133.042828 C75.6885619,133.042828 76.5528197,132.581402 77.065515,131.739117 L77.1827025,131.739117 L77.1827025,132.903668 L78.3838744,132.903668 L78.3838744,127.498395 C78.3838744,125.85777 77.3072142,124.869 75.3809447,124.869 C73.6963744,124.869 72.4512572,125.703961 72.2828001,126.971051 L73.5572142,126.971051 C73.7329955,126.348492 74.3921751,125.989606 75.3369994,125.989606 C76.5161986,125.989606 77.1241087,126.524274 77.1241087,127.498395 L77.1241087,128.216168 L74.8462767,128.355328 C73.0078978,128.465192 71.9678587,129.27818 71.9678587,130.691754 C71.9678587,132.134625 73.1031126,133.042828 74.6338744,133.042828 Z M74.8682494,131.936871 C73.952722,131.936871 73.2715697,131.468121 73.2715697,130.662457 C73.2715697,129.871442 73.7989134,129.453961 75.0000853,129.373395 L77.1241087,129.234235 L77.1241087,129.959332 C77.1241087,131.087262 76.1646361,131.936871 74.8682494,131.936871 Z M81.1221556,123.484723 C81.605554,123.484723 82.0010619,123.089215 82.0010619,122.605817 C82.0010619,122.122418 81.605554,121.72691 81.1221556,121.72691 C80.6387572,121.72691 80.2432494,122.122418 80.2432494,122.605817 C80.2432494,123.089215 80.6387572,123.484723 81.1221556,123.484723 Z M81.7520384,132.903668 L81.7520384,125.00816 L80.4922728,125.00816 L80.4922728,132.903668 L81.7520384,132.903668 Z M85.1641478,132.903668 L85.1641478,128.01109 C85.1641478,126.897809 86.0357298,126.092145 87.2369017,126.092145 C87.4859251,126.092145 87.9400267,126.13609 88.0425658,126.165387 L88.0425658,124.905621 C87.881433,124.883649 87.6177611,124.869 87.412683,124.869 C86.3653197,124.869 85.4571165,125.410992 85.2227415,126.180035 L85.105554,126.180035 L85.105554,125.00816 L83.9043822,125.00816 L83.9043822,132.903668 L85.1641478,132.903668 Z M90.0411009,135.760113 C91.4400267,135.760113 92.0699095,135.218121 92.7437376,133.387067 L95.8272337,125.00816 L94.4869017,125.00816 L92.3262572,131.504742 L92.2090697,131.504742 L90.0411009,125.00816 L88.6787962,125.00816 L91.6011595,132.910992 L91.4546751,133.379742 C91.1250853,134.331891 90.7295775,134.676129 90.0044798,134.676129 C89.8286986,134.676129 89.6309447,134.668805 89.4771361,134.639508 L89.4771361,135.716168 C89.6529173,135.745465 89.8726439,135.760113 90.0411009,135.760113 Z M102.724695,132.903668 L102.724695,128.326031 L107.40487,128.326031 L107.40487,127.154156 L102.724695,127.154156 L102.724695,123.521344 L107.822351,123.521344 L107.822351,122.33482 L101.406335,122.33482 L101.406335,132.903668 L102.724695,132.903668 Z M110.838952,132.903668 L110.838952,128.01109 C110.838952,126.897809 111.710535,126.092145 112.911706,126.092145 C113.16073,126.092145 113.614831,126.13609 113.71737,126.165387 L113.71737,124.905621 C113.556238,124.883649 113.292566,124.869 113.087488,124.869 C112.040124,124.869 111.131921,125.410992 110.897546,126.180035 L110.780359,126.180035 L110.780359,125.00816 L109.579187,125.00816 L109.579187,132.903668 L110.838952,132.903668 Z M117.986413,133.042828 C119.714929,133.042828 120.945398,132.207867 121.311609,130.860211 L120.051843,130.860211 C119.722253,131.556012 119.033777,131.929547 118.01571,131.929547 C116.675378,131.929547 115.803796,130.940777 115.737878,129.380719 L115.737878,129.322125 L121.414148,129.322125 L121.414148,128.838727 C121.414148,126.385113 120.117761,124.869 117.986413,124.869 C115.818445,124.869 114.426843,126.480328 114.426843,128.963238 C114.426843,131.460797 115.796472,133.042828 117.986413,133.042828 Z M120.088464,128.304059 L115.737878,128.304059 C115.833093,126.905133 116.711999,125.982281 117.971765,125.982281 C119.224206,125.982281 120.059167,126.905133 120.088464,128.304059 Z M126.305749,133.042828 C128.034265,133.042828 129.264734,132.207867 129.630945,130.860211 L128.371179,130.860211 C128.041589,131.556012 127.353113,131.929547 126.335046,131.929547 C124.994714,131.929547 124.123132,130.940777 124.057214,129.380719 L124.057214,129.322125 L129.733484,129.322125 L129.733484,128.838727 C129.733484,126.385113 128.437097,124.869 126.305749,124.869 C124.137781,124.869 122.746179,126.480328 122.746179,128.963238 C122.746179,131.460797 124.115808,133.042828 126.305749,133.042828 Z M128.4078,128.304059 L124.057214,128.304059 C124.152429,126.905133 125.031335,125.982281 126.291101,125.982281 C127.543542,125.982281 128.378503,126.905133 128.4078,128.304059 Z M66.2046751,171.352692 C68.4532103,171.352692 70.1231322,170.10025 70.4746947,168.159332 L69.1343626,168.159332 C68.7974486,169.382477 67.6768431,170.136871 66.2046751,170.136871 C64.1685423,170.136871 62.8941283,168.474274 62.8941283,165.822906 C62.8941283,163.171539 64.1685423,161.501617 66.1973509,161.501617 C67.6548705,161.501617 68.7828001,162.358551 69.1343626,163.720856 L70.4746947,163.720856 C70.1597533,161.684723 68.4239134,160.285797 66.1973509,160.285797 C63.3262572,160.285797 61.5391478,162.40982 61.5391478,165.822906 C61.5391478,169.228668 63.3335814,171.352692 66.2046751,171.352692 Z M75.5201048,171.242828 C77.76864,171.242828 79.1602415,169.690094 79.1602415,167.155914 C79.1602415,164.61441 77.76864,163.069 75.5201048,163.069 C73.2715697,163.069 71.8799681,164.61441 71.8799681,167.155914 C71.8799681,169.690094 73.2715697,171.242828 75.5201048,171.242828 Z M75.5201048,170.107574 C74.0259642,170.107574 73.183679,169.02359 73.183679,167.155914 C73.183679,165.280914 74.0259642,164.204254 75.5201048,164.204254 C77.0142455,164.204254 77.8565306,165.280914 77.8565306,167.155914 C77.8565306,169.02359 77.0142455,170.107574 75.5201048,170.107574 Z M82.1475462,171.103668 L82.1475462,166.430817 C82.1475462,165.046539 82.9605345,164.204254 84.2203001,164.204254 C85.4800658,164.204254 86.0806517,164.878082 86.0806517,166.298981 L86.0806517,171.103668 L87.3404173,171.103668 L87.3404173,165.991363 C87.3404173,164.116363 86.3516478,163.069 84.5791869,163.069 C83.3706908,163.069 82.6016478,163.581695 82.20614,164.453277 L82.0889525,164.453277 L82.0889525,163.20816 L80.8877806,163.20816 L80.8877806,171.103668 L82.1475462,171.103668 Z M92.1953978,171.162262 C92.4444212,171.162262 92.6861205,171.132965 92.9351439,171.08902 L92.9351439,170.027008 C92.7007689,170.048981 92.5762572,170.056305 92.3492064,170.056305 C91.5288939,170.056305 91.1773314,169.660797 91.1773314,168.730621 L91.1773314,164.262848 L92.9351439,164.262848 L92.9351439,163.20816 L91.1773314,163.20816 L91.1773314,161.164703 L89.9175658,161.164703 L89.9175658,163.20816 L88.6431517,163.20816 L88.6431517,164.262848 L89.9175658,164.262848 L89.9175658,169.052887 C89.9175658,170.561676 90.5694212,171.162262 92.1953978,171.162262 Z M96.7867064,171.242828 C97.8413939,171.242828 98.7056517,170.781402 99.218347,169.939117 L99.3355345,169.939117 L99.3355345,171.103668 L100.536706,171.103668 L100.536706,165.698395 C100.536706,164.05777 99.4600462,163.069 97.5337767,163.069 C95.8492064,163.069 94.6040892,163.903961 94.4356322,165.171051 L95.7100462,165.171051 C95.8858275,164.548492 96.5450072,164.189606 97.4898314,164.189606 C98.6690306,164.189606 99.2769408,164.724274 99.2769408,165.698395 L99.2769408,166.416168 L96.9991087,166.555328 C95.1607298,166.665192 94.1206908,167.47818 94.1206908,168.891754 C94.1206908,170.334625 95.2559447,171.242828 96.7867064,171.242828 Z M97.0210814,170.136871 C96.105554,170.136871 95.4244017,169.668121 95.4244017,168.862457 C95.4244017,168.071442 95.9517455,167.653961 97.1529173,167.573395 L99.2769408,167.434235 L99.2769408,168.159332 C99.2769408,169.287262 98.3174681,170.136871 97.0210814,170.136871 Z M103.274988,161.684723 C103.758386,161.684723 104.153894,161.289215 104.153894,160.805817 C104.153894,160.322418 103.758386,159.92691 103.274988,159.92691 C102.791589,159.92691 102.396081,160.322418 102.396081,160.805817 C102.396081,161.289215 102.791589,161.684723 103.274988,161.684723 Z M103.90487,171.103668 L103.90487,163.20816 L102.645105,163.20816 L102.645105,171.103668 L103.90487,171.103668 Z M107.31698,171.103668 L107.31698,166.430817 C107.31698,165.046539 108.129968,164.204254 109.389734,164.204254 C110.649499,164.204254 111.250085,164.878082 111.250085,166.298981 L111.250085,171.103668 L112.509851,171.103668 L112.509851,165.991363 C112.509851,164.116363 111.521081,163.069 109.74862,163.069 C108.540124,163.069 107.771081,163.581695 107.375574,164.453277 L107.258386,164.453277 L107.258386,163.20816 L106.057214,163.20816 L106.057214,171.103668 L107.31698,171.103668 Z M117.269617,171.242828 C119.06405,171.242828 120.433679,170.268707 120.433679,168.855133 C120.433679,167.719879 119.715906,167.075348 118.229089,166.716461 L117.013269,166.423492 C116.083093,166.196442 115.64364,165.859527 115.64364,165.317535 C115.64364,164.61441 116.376062,164.138336 117.313562,164.138336 C118.26571,164.138336 118.880945,164.555817 119.049402,165.185699 L120.294519,165.185699 C120.126062,163.889313 118.97616,163.069 117.320886,163.069 C115.64364,163.069 114.37655,164.05777 114.37655,165.368805 C114.37655,166.511383 115.050378,167.14859 116.52987,167.507477 L117.884851,167.837067 C118.727136,168.042145 119.137292,168.408356 119.137292,168.950348 C119.137292,169.675445 118.375574,170.180817 117.313562,170.180817 C116.30282,170.180817 115.672937,169.756012 115.460535,169.089508 L114.164148,169.089508 C114.303308,170.400543 115.511804,171.242828 117.269617,171.242828 Z M127.624109,171.103668 L127.624109,167.331695 L130.2828,167.331695 C132.267663,167.331695 133.681238,165.93277 133.681238,163.955231 C133.681238,161.94107 132.29696,160.53482 130.297449,160.53482 L126.305749,160.53482 L126.305749,171.103668 L127.624109,171.103668 Z M129.95321,166.15982 L127.624109,166.15982 L127.624109,161.706695 L129.95321,161.706695 C131.483972,161.706695 132.326257,162.505035 132.326257,163.955231 C132.326257,165.354156 131.454675,166.15982 129.95321,166.15982 Z M138.367761,171.242828 C140.096277,171.242828 141.326745,170.407867 141.692956,169.060211 L140.433191,169.060211 C140.103601,169.756012 139.415124,170.129547 138.397058,170.129547 C137.056726,170.129547 136.185144,169.140777 136.119226,167.580719 L136.119226,167.522125 L141.795495,167.522125 L141.795495,167.038727 C141.795495,164.585113 140.499109,163.069 138.367761,163.069 C136.199792,163.069 134.808191,164.680328 134.808191,167.163238 C134.808191,169.660797 136.17782,171.242828 138.367761,171.242828 Z M140.469812,166.504059 L136.119226,166.504059 C136.214441,165.105133 137.093347,164.182281 138.353113,164.182281 C139.605554,164.182281 140.440515,165.105133 140.469812,166.504059 Z M145.7203,171.242828 C146.774988,171.242828 147.639245,170.781402 148.151941,169.939117 L148.269128,169.939117 L148.269128,171.103668 L149.4703,171.103668 L149.4703,165.698395 C149.4703,164.05777 148.39364,163.069 146.46737,163.069 C144.7828,163.069 143.537683,163.903961 143.369226,165.171051 L144.64364,165.171051 C144.819421,164.548492 145.478601,164.189606 146.423425,164.189606 C147.602624,164.189606 148.210535,164.724274 148.210535,165.698395 L148.210535,166.416168 L145.932702,166.555328 C144.094324,166.665192 143.054285,167.47818 143.054285,168.891754 C143.054285,170.334625 144.189538,171.242828 145.7203,171.242828 Z M145.954675,170.136871 C145.039148,170.136871 144.357995,169.668121 144.357995,168.862457 C144.357995,168.071442 144.885339,167.653961 146.086511,167.573395 L148.210535,167.434235 L148.210535,168.159332 C148.210535,169.287262 147.251062,170.136871 145.954675,170.136871 Z M152.809167,171.103668 L152.809167,166.430817 C152.809167,165.046539 153.622156,164.204254 154.881921,164.204254 C156.141687,164.204254 156.742273,164.878082 156.742273,166.298981 L156.742273,171.103668 L158.002038,171.103668 L158.002038,165.991363 C158.002038,164.116363 157.013269,163.069 155.240808,163.069 C154.032312,163.069 153.263269,163.581695 152.867761,164.453277 L152.750574,164.453277 L152.750574,163.20816 L151.549402,163.20816 L151.549402,171.103668 L152.809167,171.103668 Z M162.673913,171.242828 C163.88241,171.242828 164.724695,170.744781 165.120202,169.865875 L165.23739,169.865875 L165.23739,171.103668 L166.438562,171.103668 L166.438562,163.20816 L165.178796,163.20816 L165.178796,167.881012 C165.178796,169.265289 164.417077,170.092926 163.025476,170.092926 C161.76571,170.092926 161.238367,169.433746 161.238367,168.012848 L161.238367,163.20816 L159.978601,163.20816 L159.978601,168.320465 C159.978601,170.188141 160.901452,171.242828 162.673913,171.242828 Z M171.366785,171.162262 C171.615808,171.162262 171.857507,171.132965 172.106531,171.08902 L172.106531,170.027008 C171.872156,170.048981 171.747644,170.056305 171.520593,170.056305 C170.700281,170.056305 170.348718,169.660797 170.348718,168.730621 L170.348718,164.262848 L172.106531,164.262848 L172.106531,163.20816 L170.348718,163.20816 L170.348718,161.164703 L169.088952,161.164703 L169.088952,163.20816 L167.814538,163.20816 L167.814538,164.262848 L169.088952,164.262848 L169.088952,169.052887 C169.088952,170.561676 169.740808,171.162262 171.366785,171.162262 Z M176.324304,171.242828 C178.118738,171.242828 179.488367,170.268707 179.488367,168.855133 C179.488367,167.719879 178.770593,167.075348 177.283777,166.716461 L176.067956,166.423492 C175.137781,166.196442 174.698327,165.859527 174.698327,165.317535 C174.698327,164.61441 175.430749,164.138336 176.368249,164.138336 C177.320398,164.138336 177.935632,164.555817 178.104089,165.185699 L179.349206,165.185699 C179.180749,163.889313 178.030847,163.069 176.375574,163.069 C174.698327,163.069 173.431238,164.05777 173.431238,165.368805 C173.431238,166.511383 174.105066,167.14859 175.584558,167.507477 L176.939538,167.837067 C177.781824,168.042145 178.19198,168.408356 178.19198,168.950348 C178.19198,169.675445 177.430261,170.180817 176.368249,170.180817 C175.357507,170.180817 174.727624,169.756012 174.515222,169.089508 L173.218835,169.089508 C173.357995,170.400543 174.566492,171.242828 176.324304,171.242828 Z M63.2676634,209.303668 L63.2676634,204.491656 L69.0684447,204.491656 L69.0684447,209.303668 L70.386804,209.303668 L70.386804,198.73482 L69.0684447,198.73482 L69.0684447,203.305133 L63.2676634,203.305133 L63.2676634,198.73482 L61.949304,198.73482 L61.949304,209.303668 L63.2676634,209.303668 Z M74.8682494,209.442828 C75.9229369,209.442828 76.7871947,208.981402 77.29989,208.139117 L77.4170775,208.139117 L77.4170775,209.303668 L78.6182494,209.303668 L78.6182494,203.898395 C78.6182494,202.25777 77.5415892,201.269 75.6153197,201.269 C73.9307494,201.269 72.6856322,202.103961 72.5171751,203.371051 L73.7915892,203.371051 C73.9673705,202.748492 74.6265501,202.389606 75.5713744,202.389606 C76.7505736,202.389606 77.3584837,202.924274 77.3584837,203.898395 L77.3584837,204.616168 L75.0806517,204.755328 C73.2422728,204.865192 72.2022337,205.67818 72.2022337,207.091754 C72.2022337,208.534625 73.3374876,209.442828 74.8682494,209.442828 Z M75.1026244,208.336871 C74.187097,208.336871 73.5059447,207.868121 73.5059447,207.062457 C73.5059447,206.271442 74.0332884,205.853961 75.2344603,205.773395 L77.3584837,205.634235 L77.3584837,206.359332 C77.3584837,207.487262 76.3990111,208.336871 75.1026244,208.336871 Z M82.0303587,209.303668 L82.0303587,198.273395 L80.7705931,198.273395 L80.7705931,209.303668 L82.0303587,209.303668 Z M86.4239134,209.442828 C87.4786009,209.442828 88.3428587,208.981402 88.855554,208.139117 L88.9727415,208.139117 L88.9727415,209.303668 L90.1739134,209.303668 L90.1739134,203.898395 C90.1739134,202.25777 89.0972533,201.269 87.1709837,201.269 C85.4864134,201.269 84.2412962,202.103961 84.0728392,203.371051 L85.3472533,203.371051 C85.5230345,202.748492 86.1822142,202.389606 87.1270384,202.389606 C88.3062376,202.389606 88.9141478,202.924274 88.9141478,203.898395 L88.9141478,204.616168 L86.6363158,204.755328 C84.7979369,204.865192 83.7578978,205.67818 83.7578978,207.091754 C83.7578978,208.534625 84.8931517,209.442828 86.4239134,209.442828 Z M86.6582884,208.336871 C85.7427611,208.336871 85.0616087,207.868121 85.0616087,207.062457 C85.0616087,206.271442 85.5889525,205.853961 86.7901244,205.773395 L88.9141478,205.634235 L88.9141478,206.359332 C88.9141478,207.487262 87.9546751,208.336871 86.6582884,208.336871 Z M93.5860228,209.303668 L93.5860228,198.273395 L92.3262572,198.273395 L92.3262572,209.303668 L93.5860228,209.303668 Z" id="VegetarianVeganGlutenFreeDairyFreeContainsPeanutsHalal" fill="#4B4A49" fill-rule="nonzero"></path>
                <g id="Group-73" transform="translate(247.157770, 0.653116)">
                    <path d="M11.2940035,-8.8817842e-14 L30.0688734,-8.8817842e-14 C36.3063793,-8.8817842e-14 41.3628769,5.05649762 41.3628769,11.2940035 C41.3628769,17.5315095 36.3063793,22.5880071 30.0688734,22.5880071 L11.2940035,22.5880071 C5.05649762,22.5880071 1.25055521e-12,17.5315095 1.25055521e-12,11.2940035 C1.25055521e-12,5.05649762 5.05649762,-8.8817842e-14 11.2940035,-8.8817842e-14 Z" id="shape" fill="#0093A5"></path>
                    <g id="handle">
                        <use fill="black" fill-opacity="1" filter="url(#filter-2)" xlink:href="#path-1"></use>
                        <use fill="#FFFFFF" fill-rule="evenodd" xlink:href="#path-1"></use>
                    </g>
                </g>
                <g id="Group-73" transform="translate(247.157770, 78.473089)">
                    <path d="M11.2940035,-8.8817842e-14 L30.0688734,-8.8817842e-14 C36.3063793,-8.8817842e-14 41.3628769,5.05649762 41.3628769,11.2940035 C41.3628769,17.5315095 36.3063793,22.5880071 30.0688734,22.5880071 L11.2940035,22.5880071 C5.05649762,22.5880071 1.25055521e-12,17.5315095 1.25055521e-12,11.2940035 C1.25055521e-12,5.05649762 5.05649762,-8.8817842e-14 11.2940035,-8.8817842e-14 Z" id="shape" fill="#E9E9E9"></path>
                    <g id="handle">
                        <use fill="black" fill-opacity="1" filter="url(#filter-4)" xlink:href="#path-3"></use>
                        <use fill="#FFFFFF" fill-rule="evenodd" xlink:href="#path-3"></use>
                    </g>
                </g>
                <g id="Group-73" transform="translate(247.157770, 117.383075)">
                    <path d="M11.2940035,-8.8817842e-14 L30.0688734,-8.8817842e-14 C36.3063793,-8.8817842e-14 41.3628769,5.05649762 41.3628769,11.2940035 C41.3628769,17.5315095 36.3063793,22.5880071 30.0688734,22.5880071 L11.2940035,22.5880071 C5.05649762,22.5880071 1.25055521e-12,17.5315095 1.25055521e-12,11.2940035 C1.25055521e-12,5.05649762 5.05649762,-8.8817842e-14 11.2940035,-8.8817842e-14 Z" id="shape" fill="#E9E9E9"></path>
                    <g id="handle">
                        <use fill="black" fill-opacity="1" filter="url(#filter-6)" xlink:href="#path-5"></use>
                        <use fill="#FFFFFF" fill-rule="evenodd" xlink:href="#path-5"></use>
                    </g>
                </g>
                <g id="Group-73" transform="translate(247.157770, 156.293061)">
                    <path d="M11.2940035,-8.8817842e-14 L30.0688734,-8.8817842e-14 C36.3063793,-8.8817842e-14 41.3628769,5.05649762 41.3628769,11.2940035 C41.3628769,17.5315095 36.3063793,22.5880071 30.0688734,22.5880071 L11.2940035,22.5880071 C5.05649762,22.5880071 1.25055521e-12,17.5315095 1.25055521e-12,11.2940035 C1.25055521e-12,5.05649762 5.05649762,-8.8817842e-14 11.2940035,-8.8817842e-14 Z" id="shape" fill="#E9E9E9"></path>
                    <g id="handle">
                        <use fill="black" fill-opacity="1" filter="url(#filter-8)" xlink:href="#path-7"></use>
                        <use fill="#FFFFFF" fill-rule="evenodd" xlink:href="#path-7"></use>
                    </g>
                </g>
                <g id="Group-73" transform="translate(247.157770, 195.203048)">
                    <path d="M11.2940035,-8.8817842e-14 L30.0688734,-8.8817842e-14 C36.3063793,-8.8817842e-14 41.3628769,5.05649762 41.3628769,11.2940035 C41.3628769,17.5315095 36.3063793,22.5880071 30.0688734,22.5880071 L11.2940035,22.5880071 C5.05649762,22.5880071 1.25055521e-12,17.5315095 1.25055521e-12,11.2940035 C1.25055521e-12,5.05649762 5.05649762,-8.8817842e-14 11.2940035,-8.8817842e-14 Z" id="shape" fill="#E9E9E9"></path>
                    <g id="handle">
                        <use fill="black" fill-opacity="1" filter="url(#filter-10)" xlink:href="#path-9"></use>
                        <use fill="#FFFFFF" fill-rule="evenodd" xlink:href="#path-9"></use>
                    </g>
                </g>
                <g id="Group-73" transform="translate(247.157770, 39.563102)">
                    <path d="M11.2940035,-8.8817842e-14 L30.0688734,-8.8817842e-14 C36.3063793,-8.8817842e-14 41.3628769,5.05649762 41.3628769,11.2940035 C41.3628769,17.5315095 36.3063793,22.5880071 30.0688734,22.5880071 L11.2940035,22.5880071 C5.05649762,22.5880071 1.25055521e-12,17.5315095 1.25055521e-12,11.2940035 C1.25055521e-12,5.05649762 5.05649762,-8.8817842e-14 11.2940035,-8.8817842e-14 Z" id="shape" fill="#E9E9E9"></path>
                    <g id="handle">
                        <use fill="black" fill-opacity="1" filter="url(#filter-12)" xlink:href="#path-11"></use>
                        <use fill="#FFFFFF" fill-rule="evenodd" xlink:href="#path-11"></use>
                    </g>
                </g>
                <line x1="1.01353822" y1="32.3076397" x2="312.083512" y2="32.3076397" id="Line-6" stroke="#E8E8E8" fill-rule="nonzero"></line>
                <line x1="1.01353822" y1="71.1829157" x2="312.083512" y2="71.1829157" id="Line-6" stroke="#E8E8E8" fill-rule="nonzero"></line>
                <line x1="1.01353822" y1="109.333577" x2="312.083512" y2="109.333577" id="Line-6" stroke="#E8E8E8" fill-rule="nonzero"></line>
                <line x1="1.01353822" y1="147.726434" x2="312.083512" y2="147.726434" id="Line-6" stroke="#E8E8E8" fill-rule="nonzero"></line>
                <line x1="1.01353822" y1="186.119291" x2="312.083512" y2="186.119291" id="Line-6" stroke="#E8E8E8" fill-rule="nonzero"></line>
            </g>
        </g>
    </g>
</svg>