<?xml version="1.0" encoding="UTF-8"?>
<svg width="718px" height="410px" viewBox="0 0 718 410" version="1.1" xmlns="http://www.w3.org/2000/svg" xmlns:xlink="http://www.w3.org/1999/xlink">
    <title>Shape</title>
    <g id="Cheebot-2.0" stroke="none" stroke-width="1" fill="none" fill-rule="evenodd">
        <path d="M59.0594455,4.69183472 L62.2701198,0.546840528 C-3.77698329,120.455192 -13.6624026,216.289859 37.1149329,290.397962 C47.406635,305.418413 81.0412124,353.500349 148.567145,358.424538 L150.506128,358.424538 L149.639883,357.546454 C131.445701,340.996578 123.144622,322.851529 126.990925,307.323559 L126.990925,303.527032 C135.075811,273.145216 157.595996,260.733006 182.614446,263.345368 C206.384492,265.827375 224.353314,284.28463 223.339485,308.338304 C222.240263,334.417963 196.938471,356.711672 161.975613,361.010367 L160.956456,361.129239 L161.202849,361.318248 C183.555039,378.298528 215.07184,391.028392 252.962362,398.376446 L255.31421,398.824091 C255.707531,398.897551 256.101524,398.970437 256.496185,399.042747 L257.74455,399.268929 C305.524546,407.828731 360.258624,406.677271 419.229426,394.442011 C486.373087,380.511046 559.376615,352.306863 632.713722,309.423796 L632.901681,309.321767 C633.128764,309.210591 633.173907,309.236247 633.208638,309.363144 L633.252363,309.546736 C633.265123,309.596192 633.281253,309.651141 633.303432,309.711027 L633.159267,310.453259 L632.713722,311.12095 L632.500314,311.390808 L632.09166,311.897585 L631.707223,312.360443 L631.347003,312.779383 L631.010999,313.154405 C630.417191,313.801687 629.945475,314.227547 629.595851,314.431986 L627.272229,316.220372 C553.65167,359.245259 487.55656,385.350688 420.042039,399.358598 C360.580627,411.695651 305.332081,412.857934 257.039178,404.206245 C214.73189,396.62688 179.292692,381.660621 155.392677,362.459349 L154.66577,361.870698 L154.188584,361.898772 C82.1376955,361.010367 47.862682,314.177737 37.1149329,299.821687 C22.5032073,280.304422 14.4269975,258.603413 6.57567413,237.539739 C-1.38634091,216.179098 -0.980451058,175.13393 4.47965697,140.241344 C10.1192981,104.201458 23.4056322,71.7489742 37.1149329,43.0407671 C40.6485695,35.641092 43.6031324,30.4902628 46.841036,24.2569513 C48.7019012,20.6745862 52.7747044,14.1528806 59.0594455,4.69183472 Z M130.989113,307.835574 C127.45415,321.119447 134.687881,336.211525 150.415733,351.16636 L151.476815,352.163124 C152.908304,353.491815 154.406507,354.81908 155.969827,356.143553 L156.562707,356.642069 L156.955257,356.616255 C157.76634,356.555466 158.575331,356.48495 159.382156,356.404722 L160.590761,356.277097 C194.285259,352.510962 218.324332,332.339133 219.343033,308.169859 C220.263186,286.338708 203.9639,269.596369 182.199035,267.323738 C159.152741,264.917304 138.571076,279.343666 130.989113,307.835574 Z M717.48727,258.907407 L717.539293,259.101916 L717.583618,259.303005 L717.702546,259.911419 L717.702546,260.171469 L685.807986,318.193388 C685.243755,319.1872 683.6237,319.118789 682.658542,318.506834 L682.514755,318.417177 L682.200549,318.230034 L681.850898,318.032495 L681.465881,317.824611 L681.045578,317.606432 L680.590068,317.378007 L680.099429,317.139386 L679.29778,316.762449 L678.417537,316.362853 L677.458968,315.940769 L676.42234,315.496364 L675.30792,315.029808 L674.115976,314.54127 L672.406585,313.855983 L670.56048,313.132317 L668.227075,312.236081 L666.264636,311.493382 L665.007371,311.023261 L663.790955,310.573156 L662.615414,310.143072 L661.480772,309.733015 L660.387054,309.342991 L659.334283,308.973005 L658.322485,308.623063 L657.351684,308.29317 L656.421905,307.983331 L655.320232,307.625388 L654.941625,308.603857 L654.523029,309.702892 L654.130769,310.753077 L653.764858,311.754338 L653.425312,312.706601 L653.112144,313.609792 L652.825368,314.463837 L652.565,315.268664 L652.331054,316.024196 L652.156544,316.615017 L651.994938,317.18553 L651.826954,317.799898 L651.563054,318.803584 L651.284888,319.905702 L650.891893,321.528061 L650.782152,321.99657 L651.702185,320.916372 L652.662635,319.805823 L653.584982,318.755451 L654.469383,317.765136 L655.037977,317.138235 L655.589822,316.537939 L656.124961,315.964215 L656.89645,315.153375 L657.390029,314.645929 L657.867064,314.164933 L658.327602,313.710352 L658.771687,313.282153 L659.407068,312.689243 L659.810225,312.326845 L660.19709,311.990708 L660.56771,311.680795 L660.922131,311.397074 L661.260399,311.139508 C661.828534,310.718836 662.126976,311.068713 662.33062,311.562077 L662.402885,311.752589 L662.499101,312.047506 L662.586851,312.331354 C662.596386,312.361359 662.605893,312.390701 662.615414,312.419224 C662.774097,312.89462 662.853439,313.373539 662.853439,313.855983 L658.88973,318.862976 L658.118018,319.697583 L657.581864,320.287237 L656.457737,321.546186 L655.264821,322.911093 L654.325213,324.004141 L653.012802,325.553808 L651.983994,326.785109 L650.553214,328.518688 L649.812625,329.424761 C649.316582,330.03352 648.536469,330.274456 647.819224,330.112173 C646.806065,330.335272 645.629479,329.799815 645.395485,328.521504 L643.869135,320.105812 L642.99222,315.165387 L642.23283,310.76078 L641.909192,308.812749 C641.242823,304.728622 640.657456,300.585157 640.153072,296.382365 L640.140377,296.224352 L640.140114,296.067886 L640.144232,296.000388 L638.724723,295.931647 L638.044698,295.893596 L636.723783,295.80975 C634.134101,295.631721 631.857189,295.391633 629.890877,295.0887 L629.405769,295.011658 L628.378002,294.835116 L627.136401,294.613508 L625.181104,294.251884 L623.114288,293.855201 L620.9359,293.423455 L618.645888,292.956642 L616.2442,292.454756 L614.581005,292.100679 C614.502962,292.083949 614.497226,292.076594 614.517504,292.070255 L614.57903,292.056456 C614.615712,292.047177 614.646879,292.032713 614.616349,292.00292 L614.581005,291.977542 C613.165753,291.146743 612.68358,288.702542 614.475337,288.215218 L621.045047,286.421596 L628.328397,284.415599 L633.279355,283.039826 L639.858654,281.193667 L645.171131,279.68547 L650.987577,278.012514 L654.890658,276.874657 L658.584119,275.784397 L666.772278,273.321394 L679.427415,269.443702 L691.947297,265.561497 L713.471939,258.826665 L715.296068,258.25343 C716.810167,257.670801 717.268984,258.17878 717.48727,258.907407 Z M624.061853,305.367031 C624.838267,305.467547 625.607526,306.395349 625.896341,306.876706 L620.654305,310.154792 L617.18253,312.181662 L615.32783,313.25487 L612.567293,314.840392 C611.189263,315.62814 609.818032,316.406214 608.469097,317.164915 L606.489447,318.273233 L605.08778,319.051136 L602.863008,320.272049 L602.7653,320.322432 L602.444137,320.466287 L602.444137,320.466287 L602.028789,320.628859 C601.968,320.651403 601.905222,320.674217 601.840663,320.697211 L601.326344,320.871606 L601.326344,320.871606 L600.764821,321.044174 L600.531379,321.110771 L600.531379,321.110771 L600.056247,321.236789 L599.578467,321.349583 C598.309765,321.628843 597.11973,321.720306 596.863631,321.249959 C596.658016,320.872329 597.070676,320.24972 597.708636,319.598926 L597.974905,319.337619 L597.974905,319.337619 L598.298671,319.04173 L598.637991,318.750427 L598.810941,318.607899 L598.810941,318.607899 L599.158336,318.331893 L599.500944,318.071695 L599.83063,317.831793 L599.988085,317.720856 L599.988085,317.720856 L600.283132,317.519814 L600.660795,317.278749 L600.660795,317.278749 L602.367976,316.40683 C602.451022,316.314016 602.634808,316.198656 602.919334,316.060751 L603.216258,315.921576 L603.216258,315.921576 L603.551363,315.756557 L603.551363,315.756557 L603.94323,315.553761 L603.94323,315.553761 L604.391859,315.31319 C604.471361,315.269946 604.553228,315.225129 604.63746,315.178738 L605.896894,314.477085 L608.577109,312.969676 C609.254162,312.586659 609.962613,312.153036 610.680242,311.704925 L612.121153,310.800083 C612.841144,310.348703 613.555499,309.906911 614.242,309.510822 L617.876707,307.826221 L618.847967,307.351538 L618.847967,307.351538 L619.739363,306.927576 L619.739363,306.927576 L620.550896,306.554334 L620.550896,306.554334 L621.047549,306.333684 L621.047549,306.333684 L621.725975,306.044977 L621.725975,306.044977 L622.133891,305.880684 L622.133891,305.880684 L622.506311,305.738934 L622.506311,305.738934 L622.843236,305.619726 C622.896433,305.601736 622.94815,305.584686 622.998388,305.568575 L623.282071,305.483181 C623.636652,305.384351 623.896579,305.345634 624.061853,305.367031 Z M691.247452,269.968474 L675.653055,274.79093 L666.391283,277.616742 L660.594033,279.359573 L656.532526,280.561465 L652.323548,281.789901 L647.86992,283.073835 L642.202601,284.687822 L636.182927,286.381745 L630.897348,287.854418 L623.587232,289.871388 L624.916867,290.129869 L626.369192,290.405056 L627.762385,290.66179 L629.661461,290.998514 L630.474698,291.131468 L631.331095,291.256675 L632.230606,291.374119 C633.30517,291.506603 634.46767,291.623206 635.717794,291.723814 L636.81078,291.80613 L637.946639,291.880596 L639.125328,291.947196 L639.730719,291.977542 L641.290959,292.044772 L642.917932,292.099643 L644.267499,292.134621 L645.313232,292.155388 L674.750232,282.096388 L680.52598,279.79079 L682.692871,278.94114 L684.325049,278.312795 L685.807986,277.755189 L687.401795,277.177172 L688.358189,276.84576 L689.022674,276.62493 L689.84153,276.366802 L690.407573,276.19999 L690.762992,276.101344 L691.264488,275.971959 L691.578477,275.897943 L692.020233,275.805021 L692.295999,275.754991 L692.557372,275.714376 L692.804865,275.683072 L693.151203,275.653352 L693.36624,275.644878 L693.569193,275.645355 L693.760573,275.654682 L694.027067,275.685037 L694.191761,275.716036 L694.346676,275.755522 L694.492326,275.803395 L694.662142,275.874872 L694.819284,275.959089 L694.878817,275.996299 L694.992535,276.076686 L695.099553,276.164944 L695.200382,276.260971 L695.295536,276.364663 L695.407278,276.504902 L695.428747,276.53435 C696.181702,277.582059 695.652319,278.58735 694.489703,279.08379 L694.346676,279.138645 L676.035713,285.392887 L675.882282,285.456756 C667.211847,288.950257 659.023305,292.031249 651.316133,294.699718 L648.122957,295.968655 C647.27849,296.254966 646.716183,296.49573 645.883599,296.771855 L644.645065,297.30134 L643.540229,297.611542 L643.851255,300.170158 L643.888812,300.455394 L644.002812,301.211161 L644.118925,301.856135 L644.456574,303.500754 L644.550038,304.000099 L644.645065,304.565163 L644.693184,304.878883 L645.109427,306.608288 L645.440746,308.42214 L645.883599,311.073399 L646.353847,313.801329 L647.590232,318.193388 L647.713219,317.714045 L647.922007,316.918722 L648.122957,316.179578 L648.316093,315.496549 L648.398137,315.215353 L648.605784,314.527474 L648.834506,313.801329 L649.217127,312.640249 L649.647225,311.392776 L650.124835,310.058731 L650.469654,309.121184 L650.835615,308.145028 L651.424221,306.608288 L651.843081,305.535379 L652.28312,304.423676 C652.667037,303.460015 653.724,302.949825 654.717333,303.248694 L655.497559,303.487062 L656.737968,303.879263 L658.06253,304.313056 L658.992358,304.625366 L659.959641,304.956174 L661.480843,305.48708 L662.54186,305.864155 L664.77651,306.673854 L666.551122,307.329754 L668.410353,308.027352 L671.02108,309.022376 L672.66217,309.658011 L673.703583,310.067177 L675.186992,310.659201 L676.576261,311.225356 L677.871741,311.765862 L678.683463,312.11206 L679.823409,312.610313 L680.870503,313.08351 L681.517155,313.385165 L682.410277,313.817097 L682.972232,314.100388 L697.639657,289.548691 L702.587372,281.024496 L705.643178,275.729563 L708.545192,270.659097 L710.524576,267.149351 L711.578437,265.234917 L711.952516,264.533799 L712.224695,264.003413 L712.213036,263.39681 L712.234863,263.345368 L691.247452,269.968474 Z" id="Shape" fill="#2D3134" fill-rule="nonzero"></path>
    </g>
</svg>