<?xml version="1.0" encoding="UTF-8"?>
<svg width="313px" height="253px" viewBox="0 0 313 253" version="1.1" xmlns="http://www.w3.org/2000/svg" xmlns:xlink="http://www.w3.org/1999/xlink">
    <title>feature-menu-soldout-list</title>
    <defs>
        <path d="M30.0594759,1.50297379 C35.4549276,1.50297379 39.8288055,5.87685166 39.8288055,11.2723034 C39.8288055,16.6677552 35.4549276,21.0416331 30.0594759,21.0416331 C24.6640241,21.0416331 20.2901462,16.6677552 20.2901462,11.2723034 C20.2901462,5.87685166 24.6640241,1.50297379 30.0594759,1.50297379 Z" id="path-1"></path>
        <filter x="-23.0%" y="-12.8%" width="135.8%" height="135.8%" filterUnits="objectBoundingBox" id="filter-2">
            <feMorphology radius="0.5" operator="dilate" in="SourceAlpha" result="shadowSpreadOuter1"></feMorphology>
            <feOffset dx="-1" dy="1" in="shadowSpreadOuter1" result="shadowOffsetOuter1"></feOffset>
            <feGaussianBlur stdDeviation="0.5" in="shadowOffsetOuter1" result="shadowBlurOuter1"></feGaussianBlur>
            <feColorMatrix values="0 0 0 0 0   0 0 0 0 0   0 0 0 0 0  0 0 0 0.112403759 0" type="matrix" in="shadowBlurOuter1"></feColorMatrix>
        </filter>
        <path d="M30.0594759,1.50297379 C35.4549276,1.50297379 39.8288055,5.87685166 39.8288055,11.2723034 C39.8288055,16.6677552 35.4549276,21.0416331 30.0594759,21.0416331 C24.6640241,21.0416331 20.2901462,16.6677552 20.2901462,11.2723034 C20.2901462,5.87685166 24.6640241,1.50297379 30.0594759,1.50297379 Z" id="path-3"></path>
        <filter x="-23.0%" y="-12.8%" width="135.8%" height="135.8%" filterUnits="objectBoundingBox" id="filter-4">
            <feMorphology radius="0.5" operator="dilate" in="SourceAlpha" result="shadowSpreadOuter1"></feMorphology>
            <feOffset dx="-1" dy="1" in="shadowSpreadOuter1" result="shadowOffsetOuter1"></feOffset>
            <feGaussianBlur stdDeviation="0.5" in="shadowOffsetOuter1" result="shadowBlurOuter1"></feGaussianBlur>
            <feColorMatrix values="0 0 0 0 0   0 0 0 0 0   0 0 0 0 0  0 0 0 0.112403759 0" type="matrix" in="shadowBlurOuter1"></feColorMatrix>
        </filter>
        <path d="M30.0594759,1.50297379 C35.4549276,1.50297379 39.8288055,5.87685166 39.8288055,11.2723034 C39.8288055,16.6677552 35.4549276,21.0416331 30.0594759,21.0416331 C24.6640241,21.0416331 20.2901462,16.6677552 20.2901462,11.2723034 C20.2901462,5.87685166 24.6640241,1.50297379 30.0594759,1.50297379 Z" id="path-5"></path>
        <filter x="-23.0%" y="-12.8%" width="135.8%" height="135.8%" filterUnits="objectBoundingBox" id="filter-6">
            <feMorphology radius="0.5" operator="dilate" in="SourceAlpha" result="shadowSpreadOuter1"></feMorphology>
            <feOffset dx="-1" dy="1" in="shadowSpreadOuter1" result="shadowOffsetOuter1"></feOffset>
            <feGaussianBlur stdDeviation="0.5" in="shadowOffsetOuter1" result="shadowBlurOuter1"></feGaussianBlur>
            <feColorMatrix values="0 0 0 0 0   0 0 0 0 0   0 0 0 0 0  0 0 0 0.112403759 0" type="matrix" in="shadowBlurOuter1"></feColorMatrix>
        </filter>
        <path d="M30.0594759,1.50297379 C35.4549276,1.50297379 39.8288055,5.87685166 39.8288055,11.2723034 C39.8288055,16.6677552 35.4549276,21.0416331 30.0594759,21.0416331 C24.6640241,21.0416331 20.2901462,16.6677552 20.2901462,11.2723034 C20.2901462,5.87685166 24.6640241,1.50297379 30.0594759,1.50297379 Z" id="path-7"></path>
        <filter x="-23.0%" y="-12.8%" width="135.8%" height="135.8%" filterUnits="objectBoundingBox" id="filter-8">
            <feMorphology radius="0.5" operator="dilate" in="SourceAlpha" result="shadowSpreadOuter1"></feMorphology>
            <feOffset dx="-1" dy="1" in="shadowSpreadOuter1" result="shadowOffsetOuter1"></feOffset>
            <feGaussianBlur stdDeviation="0.5" in="shadowOffsetOuter1" result="shadowBlurOuter1"></feGaussianBlur>
            <feColorMatrix values="0 0 0 0 0   0 0 0 0 0   0 0 0 0 0  0 0 0 0.112403759 0" type="matrix" in="shadowBlurOuter1"></feColorMatrix>
        </filter>
        <path d="M30.0594759,1.50297379 C35.4549276,1.50297379 39.8288055,5.87685166 39.8288055,11.2723034 C39.8288055,16.6677552 35.4549276,21.0416331 30.0594759,21.0416331 C24.6640241,21.0416331 20.2901462,16.6677552 20.2901462,11.2723034 C20.2901462,5.87685166 24.6640241,1.50297379 30.0594759,1.50297379 Z" id="path-9"></path>
        <filter x="-23.0%" y="-12.8%" width="135.8%" height="135.8%" filterUnits="objectBoundingBox" id="filter-10">
            <feMorphology radius="0.5" operator="dilate" in="SourceAlpha" result="shadowSpreadOuter1"></feMorphology>
            <feOffset dx="-1" dy="1" in="shadowSpreadOuter1" result="shadowOffsetOuter1"></feOffset>
            <feGaussianBlur stdDeviation="0.5" in="shadowOffsetOuter1" result="shadowBlurOuter1"></feGaussianBlur>
            <feColorMatrix values="0 0 0 0 0   0 0 0 0 0   0 0 0 0 0  0 0 0 0.112403759 0" type="matrix" in="shadowBlurOuter1"></feColorMatrix>
        </filter>
        <path d="M30.0594759,1.50297379 C35.4549276,1.50297379 39.8288055,5.87685166 39.8288055,11.2723034 C39.8288055,16.6677552 35.4549276,21.0416331 30.0594759,21.0416331 C24.6640241,21.0416331 20.2901462,16.6677552 20.2901462,11.2723034 C20.2901462,5.87685166 24.6640241,1.50297379 30.0594759,1.50297379 Z" id="path-11"></path>
        <filter x="-23.0%" y="-12.8%" width="135.8%" height="135.8%" filterUnits="objectBoundingBox" id="filter-12">
            <feMorphology radius="0.5" operator="dilate" in="SourceAlpha" result="shadowSpreadOuter1"></feMorphology>
            <feOffset dx="-1" dy="1" in="shadowSpreadOuter1" result="shadowOffsetOuter1"></feOffset>
            <feGaussianBlur stdDeviation="0.5" in="shadowOffsetOuter1" result="shadowBlurOuter1"></feGaussianBlur>
            <feColorMatrix values="0 0 0 0 0   0 0 0 0 0   0 0 0 0 0  0 0 0 0.112403759 0" type="matrix" in="shadowBlurOuter1"></feColorMatrix>
        </filter>
    </defs>
    <g id="Cheebot-2.0" stroke="none" stroke-width="1" fill="none" fill-rule="evenodd">
        <g id="feature-menu-soldout-list" transform="translate(0.000000, 0.477857)">
            <g id="Group-38">
                <rect id="Rectangle" fill="#FFFFFF" fill-rule="nonzero" x="1" y="0" width="311" height="252"></rect>
                <g id="Group-70" transform="translate(0.000000, 17.000000)">
                    <path d="M86.1323242,55.7194884 C88.2270508,55.7194884 89.5537109,54.6467345 89.5537109,52.9646056 C89.5537109,51.6189025 88.7919922,50.8825744 86.894043,50.4065001 L85.9355469,50.1525939 C84.6723633,49.8288634 84.1708984,49.4162658 84.1708984,48.6989806 C84.1708984,47.7722228 84.9770508,47.1628478 86.1958008,47.1628478 C87.3383789,47.1628478 88.112793,47.7214415 88.2714844,48.6608947 L89.4204102,48.6608947 C89.3251953,47.1818908 88.0048828,46.1281798 86.2338867,46.1281798 C84.2978516,46.1281798 82.996582,47.1818908 82.996582,48.7370665 C82.996582,50.0383361 83.7138672,50.7873595 85.3706055,51.2063048 L86.5449219,51.5109923 C87.8081055,51.8283751 88.3793945,52.3234923 88.3793945,53.104254 C88.3793945,54.0119689 87.4716797,54.6784728 86.2402344,54.6784728 C84.9389648,54.6784728 84.0249023,54.0690978 83.8852539,53.1106017 L82.7299805,53.1106017 C82.8505859,54.6911681 84.1899414,55.7194884 86.1323242,55.7194884 Z M93.9073568,55.6242736 C95.8560872,55.6242736 97.0621419,54.2785705 97.0621419,52.0822814 C97.0621419,49.8796447 95.8560872,48.5402892 93.9073568,48.5402892 C91.9586263,48.5402892 90.7525716,49.8796447 90.7525716,52.0822814 C90.7525716,54.2785705 91.9586263,55.6242736 93.9073568,55.6242736 Z M93.9073568,54.6403869 C92.6124349,54.6403869 91.8824544,53.7009337 91.8824544,52.0822814 C91.8824544,50.4572814 92.6124349,49.5241759 93.9073568,49.5241759 C95.2022786,49.5241759 95.9322591,50.4572814 95.9322591,52.0822814 C95.9322591,53.7009337 95.2022786,54.6403869 93.9073568,54.6403869 Z M99.7146159,55.5036681 L99.7146159,45.9440978 L98.622819,45.9440978 L98.622819,55.5036681 L99.7146159,55.5036681 Z M104.150781,55.6242736 C105.096582,55.6242736 105.909082,55.17359 106.340723,54.4118712 L106.442285,54.4118712 L106.442285,55.5036681 L107.483301,55.5036681 L107.483301,45.9440978 L106.391504,45.9440978 L106.391504,49.7399962 L106.296289,49.7399962 C105.909082,48.9909728 105.10293,48.5402892 104.150781,48.5402892 C102.411523,48.5402892 101.275293,49.9367736 101.275293,52.0822814 C101.275293,54.2341369 102.398828,55.6242736 104.150781,55.6242736 Z M104.404688,54.6403869 C103.154199,54.6403869 102.405176,53.6818908 102.405176,52.0822814 C102.405176,50.4890197 103.160547,49.5241759 104.404688,49.5241759 C105.64248,49.5241759 106.416895,50.5144103 106.416895,52.0822814 C106.416895,53.6628478 105.648828,54.6403869 104.404688,54.6403869 Z M115.651042,55.6242736 C117.599772,55.6242736 118.805827,54.2785705 118.805827,52.0822814 C118.805827,49.8796447 117.599772,48.5402892 115.651042,48.5402892 C113.702311,48.5402892 112.496257,49.8796447 112.496257,52.0822814 C112.496257,54.2785705 113.702311,55.6242736 115.651042,55.6242736 Z M115.651042,54.6403869 C114.35612,54.6403869 113.626139,53.7009337 113.626139,52.0822814 C113.626139,50.4572814 114.35612,49.5241759 115.651042,49.5241759 C116.945964,49.5241759 117.675944,50.4572814 117.675944,52.0822814 C117.675944,53.7009337 116.945964,54.6403869 115.651042,54.6403869 Z M122.575488,55.6242736 C123.622852,55.6242736 124.352832,55.192633 124.695605,54.4309142 L124.797168,54.4309142 L124.797168,55.5036681 L125.838184,55.5036681 L125.838184,48.6608947 L124.746387,48.6608947 L124.746387,52.7106994 C124.746387,53.9104064 124.08623,54.6276915 122.880176,54.6276915 C121.788379,54.6276915 121.331348,54.0564025 121.331348,52.8249572 L121.331348,48.6608947 L120.239551,48.6608947 L120.239551,53.0915587 C120.239551,54.7102111 121.039355,55.6242736 122.575488,55.6242736 Z M130.10931,55.5544494 C130.32513,55.5544494 130.534603,55.5290587 130.750423,55.4909728 L130.750423,54.5705626 C130.547298,54.5896056 130.439388,54.5959533 130.242611,54.5959533 C129.531673,54.5959533 129.226986,54.2531798 129.226986,53.4470275 L129.226986,49.5749572 L130.750423,49.5749572 L130.750423,48.6608947 L129.226986,48.6608947 L129.226986,46.8898986 L128.135189,46.8898986 L128.135189,48.6608947 L127.030697,48.6608947 L127.030697,49.5749572 L128.135189,49.5749572 L128.135189,53.7263244 C128.135189,55.0339415 128.70013,55.5544494 130.10931,55.5544494 Z" id="Soldout" fill="#E2AE24" fill-rule="nonzero"></path>
                    <path d="M94.6323242,93.7078364 C96.7270508,93.7078364 98.0537109,92.6350825 98.0537109,90.9529536 C98.0537109,89.6072504 97.2919922,88.8709223 95.394043,88.3948481 L94.4355469,88.1409419 C93.1723633,87.8172114 92.6708984,87.4046137 92.6708984,86.6873286 C92.6708984,85.7605708 93.4770508,85.1511958 94.6958008,85.1511958 C95.8383789,85.1511958 96.612793,85.7097895 96.7714844,86.6492426 L97.9204102,86.6492426 C97.8251953,85.1702387 96.5048828,84.1165278 94.7338867,84.1165278 C92.7978516,84.1165278 91.496582,85.1702387 91.496582,86.7254145 C91.496582,88.026684 92.2138672,88.7757075 93.8706055,89.1946528 L95.0449219,89.4993403 C96.3081055,89.8167231 96.8793945,90.3118403 96.8793945,91.092602 C96.8793945,92.0003169 95.9716797,92.6668208 94.7402344,92.6668208 C93.4389648,92.6668208 92.5249023,92.0574458 92.3852539,91.0989497 L91.2299805,91.0989497 C91.3505859,92.6795161 92.6899414,93.7078364 94.6323242,93.7078364 Z M102.407357,93.6126215 C104.356087,93.6126215 105.562142,92.2669184 105.562142,90.0706294 C105.562142,87.8679926 104.356087,86.5286372 102.407357,86.5286372 C100.458626,86.5286372 99.2525716,87.8679926 99.2525716,90.0706294 C99.2525716,92.2669184 100.458626,93.6126215 102.407357,93.6126215 Z M102.407357,92.6287348 C101.112435,92.6287348 100.382454,91.6892817 100.382454,90.0706294 C100.382454,88.4456294 101.112435,87.5125239 102.407357,87.5125239 C103.702279,87.5125239 104.432259,88.4456294 104.432259,90.0706294 C104.432259,91.6892817 103.702279,92.6287348 102.407357,92.6287348 Z M108.214616,93.4920161 L108.214616,83.9324458 L107.122819,83.9324458 L107.122819,93.4920161 L108.214616,93.4920161 Z M112.650781,93.6126215 C113.596582,93.6126215 114.409082,93.1619379 114.840723,92.4002192 L114.942285,92.4002192 L114.942285,93.4920161 L115.983301,93.4920161 L115.983301,83.9324458 L114.891504,83.9324458 L114.891504,87.7283442 L114.796289,87.7283442 C114.409082,86.9793208 113.60293,86.5286372 112.650781,86.5286372 C110.911523,86.5286372 109.775293,87.9251215 109.775293,90.0706294 C109.775293,92.2224848 110.898828,93.6126215 112.650781,93.6126215 Z M112.904688,92.6287348 C111.654199,92.6287348 110.905176,91.6702387 110.905176,90.0706294 C110.905176,88.4773676 111.660547,87.5125239 112.904688,87.5125239 C114.14248,87.5125239 114.916895,88.5027583 114.916895,90.0706294 C114.916895,91.6511958 114.148828,92.6287348 112.904688,92.6287348 Z M124.151042,93.6126215 C126.099772,93.6126215 127.305827,92.2669184 127.305827,90.0706294 C127.305827,87.8679926 126.099772,86.5286372 124.151042,86.5286372 C122.202311,86.5286372 120.996257,87.8679926 120.996257,90.0706294 C120.996257,92.2669184 122.202311,93.6126215 124.151042,93.6126215 Z M124.151042,92.6287348 C122.85612,92.6287348 122.126139,91.6892817 122.126139,90.0706294 C122.126139,88.4456294 122.85612,87.5125239 124.151042,87.5125239 C125.445964,87.5125239 126.175944,88.4456294 126.175944,90.0706294 C126.175944,91.6892817 125.445964,92.6287348 124.151042,92.6287348 Z M131.075488,93.6126215 C132.122852,93.6126215 132.852832,93.1809809 133.195605,92.4192622 L133.297168,92.4192622 L133.297168,93.4920161 L134.338184,93.4920161 L134.338184,86.6492426 L133.246387,86.6492426 L133.246387,90.6990473 C133.246387,91.8987544 132.58623,92.6160395 131.380176,92.6160395 C130.288379,92.6160395 129.831348,92.0447504 129.831348,90.8133051 L129.831348,86.6492426 L128.739551,86.6492426 L128.739551,91.0799067 C128.739551,92.698559 129.539355,93.6126215 131.075488,93.6126215 Z M138.60931,93.5427973 C138.82513,93.5427973 139.034603,93.5174067 139.250423,93.4793208 L139.250423,92.5589106 C139.047298,92.5779536 138.939388,92.5843012 138.742611,92.5843012 C138.031673,92.5843012 137.726986,92.2415278 137.726986,91.4353754 L137.726986,87.5633051 L139.250423,87.5633051 L139.250423,86.6492426 L137.726986,86.6492426 L137.726986,84.8782465 L136.635189,84.8782465 L136.635189,86.6492426 L135.530697,86.6492426 L135.530697,87.5633051 L136.635189,87.5633051 L136.635189,91.7146723 C136.635189,93.0222895 137.20013,93.5427973 138.60931,93.5427973 Z" id="Soldout" fill="#E2AE24" fill-rule="nonzero"></path>
                    <line x1="1.01353822" y1="31.3076397" x2="312.083512" y2="31.3076397" id="Line-6" stroke="#E8E8E8" fill-rule="nonzero"></line>
                    <line x1="1.01353822" y1="70.1829157" x2="312.083512" y2="70.1829157" id="Line-6" stroke="#E8E8E8" fill-rule="nonzero"></line>
                    <line x1="1.01353822" y1="108.333577" x2="312.083512" y2="108.333577" id="Line-6" stroke="#E8E8E8" fill-rule="nonzero"></line>
                    <line x1="1.01353822" y1="146.726434" x2="312.083512" y2="146.726434" id="Line-6" stroke="#E8E8E8" fill-rule="nonzero"></line>
                    <line x1="1.01353822" y1="185.119291" x2="312.083512" y2="185.119291" id="Line-6" stroke="#E8E8E8" fill-rule="nonzero"></line>
                    <g id="Group-73" transform="translate(247.157770, 38.813979)">
                        <path d="M11.2940035,-8.8817842e-14 L30.0688734,-8.8817842e-14 C36.3063793,-8.8817842e-14 41.3628769,5.05649762 41.3628769,11.2940035 C41.3628769,17.5315095 36.3063793,22.5880071 30.0688734,22.5880071 L11.2940035,22.5880071 C5.05649762,22.5880071 1.25055521e-12,17.5315095 1.25055521e-12,11.2940035 C1.25055521e-12,5.05649762 5.05649762,-8.8817842e-14 11.2940035,-8.8817842e-14 Z" id="shape" fill="#E2AE24"></path>
                        <g id="handle">
                            <use fill="black" fill-opacity="1" filter="url(#filter-2)" xlink:href="#path-1"></use>
                            <use fill="#FFFFFF" fill-rule="evenodd" xlink:href="#path-1"></use>
                        </g>
                    </g>
                    <g id="Group-73" transform="translate(247.157770, 77.413637)">
                        <path d="M11.2940035,-8.8817842e-14 L30.0688734,-8.8817842e-14 C36.3063793,-8.8817842e-14 41.3628769,5.05649762 41.3628769,11.2940035 C41.3628769,17.5315095 36.3063793,22.5880071 30.0688734,22.5880071 L11.2940035,22.5880071 C5.05649762,22.5880071 1.25055521e-12,17.5315095 1.25055521e-12,11.2940035 C1.25055521e-12,5.05649762 5.05649762,-8.8817842e-14 11.2940035,-8.8817842e-14 Z" id="shape" fill="#E2AE24"></path>
                        <g id="handle">
                            <use fill="black" fill-opacity="1" filter="url(#filter-4)" xlink:href="#path-3"></use>
                            <use fill="#FFFFFF" fill-rule="evenodd" xlink:href="#path-3"></use>
                        </g>
                    </g>
                    <g id="Group-73" transform="translate(247.157770, 0.214321)">
                        <path d="M11.2940035,-8.8817842e-14 L30.0688734,-8.8817842e-14 C36.3063793,-8.8817842e-14 41.3628769,5.05649762 41.3628769,11.2940035 C41.3628769,17.5315095 36.3063793,22.5880071 30.0688734,22.5880071 L11.2940035,22.5880071 C5.05649762,22.5880071 1.25055521e-12,17.5315095 1.25055521e-12,11.2940035 C1.25055521e-12,5.05649762 5.05649762,-8.8817842e-14 11.2940035,-8.8817842e-14 Z" id="shape" fill="#E9E9E9"></path>
                        <g id="handle">
                            <use fill="black" fill-opacity="1" filter="url(#filter-6)" xlink:href="#path-5"></use>
                            <use fill="#FFFFFF" fill-rule="evenodd" xlink:href="#path-5"></use>
                        </g>
                    </g>
                    <g id="Group-73" transform="translate(247.157770, 116.013294)">
                        <path d="M11.2940035,-8.8817842e-14 L30.0688734,-8.8817842e-14 C36.3063793,-8.8817842e-14 41.3628769,5.05649762 41.3628769,11.2940035 C41.3628769,17.5315095 36.3063793,22.5880071 30.0688734,22.5880071 L11.2940035,22.5880071 C5.05649762,22.5880071 1.25055521e-12,17.5315095 1.25055521e-12,11.2940035 C1.25055521e-12,5.05649762 5.05649762,-8.8817842e-14 11.2940035,-8.8817842e-14 Z" id="shape" fill="#E9E9E9"></path>
                        <g id="handle">
                            <use fill="black" fill-opacity="1" filter="url(#filter-8)" xlink:href="#path-7"></use>
                            <use fill="#FFFFFF" fill-rule="evenodd" xlink:href="#path-7"></use>
                        </g>
                    </g>
                    <g id="Group-73" transform="translate(247.157770, 154.612952)">
                        <path d="M11.2940035,-8.8817842e-14 L30.0688734,-8.8817842e-14 C36.3063793,-8.8817842e-14 41.3628769,5.05649762 41.3628769,11.2940035 C41.3628769,17.5315095 36.3063793,22.5880071 30.0688734,22.5880071 L11.2940035,22.5880071 C5.05649762,22.5880071 1.25055521e-12,17.5315095 1.25055521e-12,11.2940035 C1.25055521e-12,5.05649762 5.05649762,-8.8817842e-14 11.2940035,-8.8817842e-14 Z" id="shape" fill="#E9E9E9"></path>
                        <g id="handle">
                            <use fill="black" fill-opacity="1" filter="url(#filter-10)" xlink:href="#path-9"></use>
                            <use fill="#FFFFFF" fill-rule="evenodd" xlink:href="#path-9"></use>
                        </g>
                    </g>
                    <g id="Group-73" transform="translate(247.157770, 193.212610)">
                        <path d="M11.2940035,-8.8817842e-14 L30.0688734,-8.8817842e-14 C36.3063793,-8.8817842e-14 41.3628769,5.05649762 41.3628769,11.2940035 C41.3628769,17.5315095 36.3063793,22.5880071 30.0688734,22.5880071 L11.2940035,22.5880071 C5.05649762,22.5880071 1.25055521e-12,17.5315095 1.25055521e-12,11.2940035 C1.25055521e-12,5.05649762 5.05649762,-8.8817842e-14 11.2940035,-8.8817842e-14 Z" id="shape" fill="#E9E9E9"></path>
                        <g id="handle">
                            <use fill="black" fill-opacity="1" filter="url(#filter-12)" xlink:href="#path-11"></use>
                            <use fill="#FFFFFF" fill-rule="evenodd" xlink:href="#path-11"></use>
                        </g>
                    </g>
                </g>
            </g>
            <g id="Ham-Turkey-Chicken-B" transform="translate(26.000000, 23.453295)" fill-rule="nonzero">
                <path d="M1.97753906,10.5688477 L1.97753906,5.75683594 L7.77832031,5.75683594 L7.77832031,10.5688477 L9.09667969,10.5688477 L9.09667969,0 L7.77832031,0 L7.77832031,4.5703125 L1.97753906,4.5703125 L1.97753906,0 L0.659179688,0 L0.659179688,10.5688477 L1.97753906,10.5688477 Z M13.578125,10.7080078 C14.6328125,10.7080078 15.4970703,10.246582 16.0097656,9.40429688 L16.1269531,9.40429688 L16.1269531,10.5688477 L17.328125,10.5688477 L17.328125,5.16357422 C17.328125,3.52294922 16.2514648,2.53417969 14.3251953,2.53417969 C12.640625,2.53417969 11.3955078,3.36914062 11.2270508,4.63623047 L12.5014648,4.63623047 C12.6772461,4.01367188 13.3364258,3.65478516 14.28125,3.65478516 C15.4604492,3.65478516 16.0683594,4.18945312 16.0683594,5.16357422 L16.0683594,5.88134766 L13.7905273,6.02050781 C11.9521484,6.13037109 10.9121094,6.94335938 10.9121094,8.35693359 C10.9121094,9.79980469 12.0473633,10.7080078 13.578125,10.7080078 Z M13.8125,9.60205078 C12.8969727,9.60205078 12.2158203,9.13330078 12.2158203,8.32763672 C12.2158203,7.53662109 12.7431641,7.11914062 13.9443359,7.03857422 L16.0683594,6.89941406 L16.0683594,7.62451172 C16.0683594,8.75244141 15.1088867,9.60205078 13.8125,9.60205078 Z M20.6669922,10.5688477 L20.6669922,5.67626953 C20.6669922,4.56298828 21.465332,3.66943359 22.4980469,3.66943359 C23.4941406,3.66943359 24.1459961,4.27001953 24.1459961,5.20751953 L24.1459961,10.5688477 L25.4057617,10.5688477 L25.4057617,5.49316406 C25.4057617,4.48974609 26.1381836,3.66943359 27.2368164,3.66943359 C28.3500977,3.66943359 28.8994141,4.24072266 28.8994141,5.40527344 L28.8994141,10.5688477 L30.1591797,10.5688477 L30.1591797,5.11230469 C30.1591797,3.45703125 29.2583008,2.53417969 27.6469727,2.53417969 C26.5556641,2.53417969 25.6547852,3.08349609 25.2299805,3.91845703 L25.112793,3.91845703 C24.746582,3.09814453 23.9995117,2.53417969 22.9301758,2.53417969 C21.8754883,2.53417969 21.0844727,3.03955078 20.7255859,3.91845703 L20.6083984,3.91845703 L20.6083984,2.67333984 L19.4072266,2.67333984 L19.4072266,10.5688477 L20.6669922,10.5688477 Z" id="Ham" fill="#424242"></path>
                <path d="M4.72412109,48.7688477 L4.72412109,39.3865234 L8.12988281,39.3865234 L8.12988281,38.2 L0,38.2 L0,39.3865234 L3.40576172,39.3865234 L3.40576172,48.7688477 L4.72412109,48.7688477 Z M11.2783203,48.9080078 C12.4868164,48.9080078 13.3291016,48.4099609 13.7246094,47.5310547 L13.8417969,47.5310547 L13.8417969,48.7688477 L15.0429688,48.7688477 L15.0429688,40.8733398 L13.7832031,40.8733398 L13.7832031,45.5461914 C13.7832031,46.9304688 13.0214844,47.7581055 11.6298828,47.7581055 C10.3701172,47.7581055 9.84277344,47.0989258 9.84277344,45.6780273 L9.84277344,40.8733398 L8.58300781,40.8733398 L8.58300781,45.9856445 C8.58300781,47.8533203 9.50585938,48.9080078 11.2783203,48.9080078 Z M18.4257812,48.7688477 L18.4257812,43.8762695 C18.4257812,42.7629883 19.2973633,41.9573242 20.4985352,41.9573242 C20.7475586,41.9573242 21.2016602,42.0012695 21.3041992,42.0305664 L21.3041992,40.7708008 C21.1430664,40.7488281 20.8793945,40.7341797 20.6743164,40.7341797 C19.6269531,40.7341797 18.71875,41.2761719 18.484375,42.0452148 L18.3671875,42.0452148 L18.3671875,40.8733398 L17.1660156,40.8733398 L17.1660156,48.7688477 L18.4257812,48.7688477 Z M23.9619141,48.7688477 L23.9619141,45.7732422 L24.7163086,45.0701172 L27.675293,48.7688477 L29.2792969,48.7688477 L25.6538086,44.2571289 L29.0522461,40.8733398 L27.5068359,40.8733398 L24.0791016,44.3230469 L23.9619141,44.3230469 L23.9619141,37.7385742 L22.7021484,37.7385742 L22.7021484,48.7688477 L23.9619141,48.7688477 Z M33.3212891,48.9080078 C35.0498047,48.9080078 36.2802734,48.0730469 36.6464844,46.7253906 L35.3867188,46.7253906 C35.0571289,47.4211914 34.3686523,47.7947266 33.3505859,47.7947266 C32.0102539,47.7947266 31.1386719,46.805957 31.0727539,45.2458984 L31.0727539,45.1873047 L36.7490234,45.1873047 L36.7490234,44.7039063 C36.7490234,42.250293 35.4526367,40.7341797 33.3212891,40.7341797 C31.1533203,40.7341797 29.7617188,42.3455078 29.7617188,44.828418 C29.7617188,47.3259766 31.1313477,48.9080078 33.3212891,48.9080078 Z M35.4233398,44.1692383 L31.0727539,44.1692383 C31.1679688,42.7703125 32.046875,41.8474609 33.3066406,41.8474609 C34.559082,41.8474609 35.394043,42.7703125 35.4233398,44.1692383 Z M39.0039062,51.625293 C40.402832,51.625293 41.0327148,51.0833008 41.706543,49.2522461 L44.7900391,40.8733398 L43.449707,40.8733398 L41.2890625,47.3699219 L41.171875,47.3699219 L39.0039062,40.8733398 L37.6416016,40.8733398 L40.5639648,48.7761719 L40.4174805,49.2449219 C40.0878906,50.1970703 39.6923828,50.5413086 38.9672852,50.5413086 C38.7915039,50.5413086 38.59375,50.5339844 38.4399414,50.5046875 L38.4399414,51.5813477 C38.6157227,51.6106445 38.8354492,51.625293 39.0039062,51.625293 Z M4.91455078,87.2178711 C7.16308594,87.2178711 8.83300781,85.9654297 9.18457031,84.0245117 L7.84423828,84.0245117 C7.50732422,85.2476563 6.38671875,86.0020508 4.91455078,86.0020508 C2.87841797,86.0020508 1.60400391,84.3394531 1.60400391,81.6880859 C1.60400391,79.0367188 2.87841797,77.3667969 4.90722656,77.3667969 C6.36474609,77.3667969 7.49267578,78.2237305 7.84423828,79.5860352 L9.18457031,79.5860352 C8.86962891,77.5499023 7.13378906,76.1509766 4.90722656,76.1509766 C2.03613281,76.1509766 0.249023438,78.275 0.249023438,81.6880859 C0.249023438,85.0938477 2.04345703,87.2178711 4.91455078,87.2178711 Z M12.3183594,86.9688477 L12.3183594,82.2959961 C12.3183594,80.9629883 13.0947266,80.0694336 14.5083008,80.0694336 C15.7021484,80.0694336 16.3320312,80.7652344 16.3320312,82.1641602 L16.3320312,86.9688477 L17.5917969,86.9688477 L17.5917969,81.856543 C17.5917969,80.0035156 16.5371094,78.9341797 14.8671875,78.9341797 C13.6586914,78.9341797 12.8310547,79.446875 12.4355469,80.318457 L12.3183594,80.318457 L12.3183594,75.9385742 L11.0585938,75.9385742 L11.0585938,86.9688477 L12.3183594,86.9688477 Z M20.3007812,77.5499023 C20.7841797,77.5499023 21.1796875,77.1543945 21.1796875,76.6709961 C21.1796875,76.1875977 20.7841797,75.7920898 20.3007812,75.7920898 C19.8173828,75.7920898 19.421875,76.1875977 19.421875,76.6709961 C19.421875,77.1543945 19.8173828,77.5499023 20.3007812,77.5499023 Z M20.9306641,86.9688477 L20.9306641,79.0733398 L19.6708984,79.0733398 L19.6708984,86.9688477 L20.9306641,86.9688477 Z M26.3129883,87.1080078 C28.2099609,87.1080078 29.3891602,86.0386719 29.6162109,84.5884766 L28.3417969,84.5884766 C28.1074219,85.4820313 27.3676758,85.9727539 26.3056641,85.9727539 C24.8994141,85.9727539 23.9912109,84.8155273 23.9912109,82.9917969 C23.9912109,81.2046875 24.8847656,80.0694336 26.3056641,80.0694336 C27.440918,80.0694336 28.1367188,80.7066406 28.3417969,81.490332 L29.6162109,81.490332 C29.3964844,80.084082 28.2246094,78.9341797 26.3056641,78.9341797 C24.09375,78.9341797 22.6875,80.5308594 22.6875,82.9917969 C22.6875,85.5040039 24.1010742,87.1080078 26.3129883,87.1080078 Z M32.5595703,86.9688477 L32.5595703,83.9732422 L33.3139648,83.2701172 L36.2729492,86.9688477 L37.8769531,86.9688477 L34.2514648,82.4571289 L37.6499023,79.0733398 L36.1044922,79.0733398 L32.6767578,82.5230469 L32.5595703,82.5230469 L32.5595703,75.9385742 L31.2998047,75.9385742 L31.2998047,86.9688477 L32.5595703,86.9688477 Z M41.9189453,87.1080078 C43.6474609,87.1080078 44.8779297,86.2730469 45.2441406,84.9253906 L43.984375,84.9253906 C43.6547852,85.6211914 42.9663086,85.9947266 41.9482422,85.9947266 C40.6079102,85.9947266 39.7363281,85.005957 39.6704102,83.4458984 L39.6704102,83.3873047 L45.3466797,83.3873047 L45.3466797,82.9039063 C45.3466797,80.450293 44.050293,78.9341797 41.9189453,78.9341797 C39.7509766,78.9341797 38.359375,80.5455078 38.359375,83.028418 C38.359375,85.5259766 39.7290039,87.1080078 41.9189453,87.1080078 Z M44.0209961,82.3692383 L39.6704102,82.3692383 C39.765625,80.9703125 40.6445312,80.0474609 41.9042969,80.0474609 C43.1567383,80.0474609 43.9916992,80.9703125 44.0209961,82.3692383 Z M48.3339844,86.9688477 L48.3339844,82.2959961 C48.3339844,80.9117188 49.1469727,80.0694336 50.4067383,80.0694336 C51.6665039,80.0694336 52.2670898,80.7432617 52.2670898,82.1641602 L52.2670898,86.9688477 L53.5268555,86.9688477 L53.5268555,81.856543 C53.5268555,79.981543 52.5380859,78.9341797 50.765625,78.9341797 C49.5571289,78.9341797 48.7880859,79.446875 48.3925781,80.318457 L48.2753906,80.318457 L48.2753906,79.0733398 L47.0742188,79.0733398 L47.0742188,86.9688477 L48.3339844,86.9688477 Z" id="TurkeyChicken" fill="#B7B7B7"></path>
                <path d="M4.78271484,125.168848 C7.03125,125.168848 8.36425781,124.062891 8.36425781,122.202539 C8.36425781,120.803613 7.44873047,119.814844 6.00585938,119.631738 L6.00585938,119.514551 C7.02392578,119.331445 7.82958984,118.335352 7.82958984,117.236719 C7.82958984,115.618066 6.64306641,114.6 4.70214844,114.6 L0.659179688,114.6 L0.659179688,125.168848 L4.78271484,125.168848 Z M4.08691406,119.155664 L1.97753906,119.155664 L1.97753906,115.764551 L4.42382812,115.764551 C5.73486328,115.764551 6.49658203,116.387109 6.49658203,117.46377 C6.49658203,118.584375 5.68359375,119.155664 4.08691406,119.155664 Z M4.58496094,124.004297 L1.97753906,124.004297 L1.97753906,120.290918 L4.46044922,120.290918 C6.14501953,120.290918 7.00927734,120.913477 7.00927734,122.136621 C7.00927734,123.359766 6.17431641,124.004297 4.58496094,124.004297 Z M13.2705078,125.308008 C14.9990234,125.308008 16.2294922,124.473047 16.5957031,123.125391 L15.3359375,123.125391 C15.0063477,123.821191 14.3178711,124.194727 13.2998047,124.194727 C11.9594727,124.194727 11.0878906,123.205957 11.0219727,121.645898 L11.0219727,121.587305 L16.6982422,121.587305 L16.6982422,121.103906 C16.6982422,118.650293 15.4018555,117.13418 13.2705078,117.13418 C11.1025391,117.13418 9.7109375,118.745508 9.7109375,121.228418 C9.7109375,123.725977 11.0805664,125.308008 13.2705078,125.308008 Z M15.3725586,120.569238 L11.0219727,120.569238 C11.1171875,119.170312 11.9960938,118.247461 13.2558594,118.247461 C14.5083008,118.247461 15.3432617,119.170312 15.3725586,120.569238 Z M21.5898438,125.308008 C23.3183594,125.308008 24.5488281,124.473047 24.9150391,123.125391 L23.6552734,123.125391 C23.3256836,123.821191 22.637207,124.194727 21.6191406,124.194727 C20.2788086,124.194727 19.4072266,123.205957 19.3413086,121.645898 L19.3413086,121.587305 L25.0175781,121.587305 L25.0175781,121.103906 C25.0175781,118.650293 23.7211914,117.13418 21.5898438,117.13418 C19.421875,117.13418 18.0302734,118.745508 18.0302734,121.228418 C18.0302734,123.725977 19.3999023,125.308008 21.5898438,125.308008 Z M23.6918945,120.569238 L19.3413086,120.569238 C19.4365234,119.170312 20.3154297,118.247461 21.5751953,118.247461 C22.8276367,118.247461 23.6625977,119.170312 23.6918945,120.569238 Z M28.5322266,125.168848 L28.5322266,118.328027 L30.3413086,118.328027 L30.3413086,117.27334 L28.5322266,117.27334 L28.5322266,116.431055 C28.5322266,115.566797 28.9130859,115.127344 29.8212891,115.127344 C30.0483398,115.127344 30.2607422,115.134668 30.4145508,115.163965 L30.4145508,114.138574 C30.1508789,114.087305 29.8725586,114.065332 29.5649414,114.065332 C28.0634766,114.065332 27.2724609,114.819727 27.2724609,116.394434 L27.2724609,117.27334 L25.9614258,117.27334 L25.9614258,118.328027 L27.2724609,118.328027 L27.2724609,125.168848 L28.5322266,125.168848 Z M1.97753906,163.368848 L1.97753906,159.596875 L4.63623047,159.596875 C6.62109375,159.596875 8.03466797,158.197949 8.03466797,156.22041 C8.03466797,154.20625 6.65039062,152.8 4.65087891,152.8 L0.659179688,152.8 L0.659179688,163.368848 L1.97753906,163.368848 Z M4.30664062,158.425 L1.97753906,158.425 L1.97753906,153.971875 L4.30664062,153.971875 C5.83740234,153.971875 6.6796875,154.770215 6.6796875,156.22041 C6.6796875,157.619336 5.80810547,158.425 4.30664062,158.425 Z M12.8017578,163.508008 C15.050293,163.508008 16.4418945,161.955273 16.4418945,159.421094 C16.4418945,156.87959 15.050293,155.33418 12.8017578,155.33418 C10.5532227,155.33418 9.16162109,156.87959 9.16162109,159.421094 C9.16162109,161.955273 10.5532227,163.508008 12.8017578,163.508008 Z M12.8017578,162.372754 C11.3076172,162.372754 10.465332,161.28877 10.465332,159.421094 C10.465332,157.546094 11.3076172,156.469434 12.8017578,156.469434 C14.2958984,156.469434 15.1381836,157.546094 15.1381836,159.421094 C15.1381836,161.28877 14.2958984,162.372754 12.8017578,162.372754 Z M19.4291992,163.368848 L19.4291992,158.47627 C19.4291992,157.362988 20.3007812,156.557324 21.5019531,156.557324 C21.7509766,156.557324 22.2050781,156.60127 22.3076172,156.630566 L22.3076172,155.370801 C22.1464844,155.348828 21.8828125,155.33418 21.6777344,155.33418 C20.6303711,155.33418 19.722168,155.876172 19.487793,156.645215 L19.3706055,156.645215 L19.3706055,155.47334 L18.1694336,155.47334 L18.1694336,163.368848 L19.4291992,163.368848 Z M24.965332,163.368848 L24.965332,160.373242 L25.7197266,159.670117 L28.6787109,163.368848 L30.2827148,163.368848 L26.6572266,158.857129 L30.0556641,155.47334 L28.5102539,155.47334 L25.0825195,158.923047 L24.965332,158.923047 L24.965332,152.338574 L23.7055664,152.338574 L23.7055664,163.368848 L24.965332,163.368848 Z M4.07958984,201.817871 C6.49658203,201.817871 8.02734375,200.580078 8.02734375,198.63916 C8.02734375,197.086426 7.1484375,196.236816 4.95849609,195.6875 L3.85253906,195.394531 C2.39501953,195.020996 1.81640625,194.544922 1.81640625,193.717285 C1.81640625,192.647949 2.74658203,191.944824 4.15283203,191.944824 C5.47119141,191.944824 6.36474609,192.589355 6.54785156,193.67334 L7.87353516,193.67334 C7.76367188,191.966797 6.24023438,190.750977 4.19677734,190.750977 C1.96289062,190.750977 0.461425781,191.966797 0.461425781,193.76123 C0.461425781,195.262695 1.2890625,196.126953 3.20068359,196.610352 L4.55566406,196.961914 C6.01318359,197.328125 6.67236328,197.899414 6.67236328,198.800293 C6.67236328,199.847656 5.625,200.616699 4.20410156,200.616699 C2.70263672,200.616699 1.64794922,199.913574 1.48681641,198.807617 L0.153808594,198.807617 C0.29296875,200.631348 1.83837891,201.817871 4.07958984,201.817871 Z M11.1391602,201.568848 L11.1391602,196.895996 C11.1391602,195.562988 11.9155273,194.669434 13.3291016,194.669434 C14.5229492,194.669434 15.152832,195.365234 15.152832,196.76416 L15.152832,201.568848 L16.4125977,201.568848 L16.4125977,196.456543 C16.4125977,194.603516 15.3579102,193.53418 13.6879883,193.53418 C12.4794922,193.53418 11.6518555,194.046875 11.2563477,194.918457 L11.1391602,194.918457 L11.1391602,190.538574 L9.87939453,190.538574 L9.87939453,201.568848 L11.1391602,201.568848 Z M19.722168,201.568848 L19.722168,196.67627 C19.722168,195.562988 20.59375,194.757324 21.7949219,194.757324 C22.0439453,194.757324 22.4980469,194.80127 22.6005859,194.830566 L22.6005859,193.570801 C22.4394531,193.548828 22.1757812,193.53418 21.9707031,193.53418 C20.9233398,193.53418 20.0151367,194.076172 19.7807617,194.845215 L19.6635742,194.845215 L19.6635742,193.67334 L18.4624023,193.67334 L18.4624023,201.568848 L19.722168,201.568848 Z M24.5844727,192.149902 C25.0678711,192.149902 25.4633789,191.754395 25.4633789,191.270996 C25.4633789,190.787598 25.0678711,190.39209 24.5844727,190.39209 C24.1010742,190.39209 23.7055664,190.787598 23.7055664,191.270996 C23.7055664,191.754395 24.1010742,192.149902 24.5844727,192.149902 Z M25.2143555,201.568848 L25.2143555,193.67334 L23.9545898,193.67334 L23.9545898,201.568848 L25.2143555,201.568848 Z M28.6264648,201.568848 L28.6264648,196.67627 C28.6264648,195.562988 29.4248047,194.669434 30.4575195,194.669434 C31.4536133,194.669434 32.1054688,195.27002 32.1054688,196.20752 L32.1054688,201.568848 L33.3652344,201.568848 L33.3652344,196.493164 C33.3652344,195.489746 34.0976562,194.669434 35.1962891,194.669434 C36.3095703,194.669434 36.8588867,195.240723 36.8588867,196.405273 L36.8588867,201.568848 L38.1186523,201.568848 L38.1186523,196.112305 C38.1186523,194.457031 37.2177734,193.53418 35.6064453,193.53418 C34.5151367,193.53418 33.6142578,194.083496 33.1894531,194.918457 L33.0722656,194.918457 C32.7060547,194.098145 31.9589844,193.53418 30.8896484,193.53418 C29.8349609,193.53418 29.0439453,194.039551 28.6850586,194.918457 L28.5678711,194.918457 L28.5678711,193.67334 L27.3666992,193.67334 L27.3666992,201.568848 L28.6264648,201.568848 Z M41.4282227,204.205566 L41.4282227,200.382324 L41.5454102,200.382324 C41.9775391,201.217285 42.8857422,201.708008 44.0136719,201.708008 C46.0205078,201.708008 47.331543,200.089355 47.331543,197.621094 C47.331543,195.138184 46.027832,193.53418 44.0136719,193.53418 C42.9370117,193.53418 41.9921875,194.083496 41.4868164,194.991699 L41.3696289,194.991699 L41.3696289,193.67334 L40.168457,193.67334 L40.168457,204.205566 L41.4282227,204.205566 Z M43.7133789,200.572754 C42.2924805,200.572754 41.3916016,199.430176 41.3916016,197.621094 C41.3916016,195.804688 42.2924805,194.669434 43.7207031,194.669434 C45.1635742,194.669434 46.027832,195.775391 46.027832,197.621094 C46.027832,199.466797 45.1635742,200.572754 43.7133789,200.572754 Z" id="BeefPorkShrimp" fill="#424242"></path>
            </g>
        </g>
    </g>
</svg>