<?xml version="1.0" encoding="UTF-8"?>
<svg width="52px" height="81px" viewBox="0 0 52 81" version="1.1" xmlns="http://www.w3.org/2000/svg" xmlns:xlink="http://www.w3.org/1999/xlink">
    <title>Path</title>
    <g id="Cheebot-2.0" stroke="none" stroke-width="1" fill="none" fill-rule="evenodd">
        <g transform="translate(-508.000000, -4461.000000)" fill="#0D5BBC" fill-rule="nonzero" id="Group-16">
            <g transform="translate(-1.000000, 3738.477857)">
                <g id="Group" transform="translate(0.000000, -0.000000)">
                    <path d="M510.478667,802.968846 C514.856884,772.192557 529.515326,747.608011 555.35539,729.161553 C555.460189,729.724496 555.517622,730.295233 555.527085,730.86777 C554.716684,737.023663 555.24003,743.281857 557.061607,749.217649 C557.404088,750.33928 557.830967,751.433381 558.338587,752.490581 C558.693866,753.002639 559.120225,753.461517 559.604836,753.853408 C559.730773,753.891616 559.865212,753.891616 559.991149,753.853408 C560.087728,753.853408 560.141382,753.746099 560.184306,753.574404 C560.055535,752.501312 559.958957,751.342372 559.776531,750.237087 C558.694358,742.667109 558.744991,734.978213 559.926764,727.423143 C560.34527,724.375561 559.229254,723.130774 556.074362,723.399047 C553.588537,723.557492 551.119559,723.916355 548.691487,724.472139 C540.900836,726.468091 533.367728,729.183015 526.607246,733.722195 C525.837349,734.318539 525.119384,734.979066 524.461061,735.696685 C524.424614,735.815572 524.424614,735.94265 524.461061,736.061537 C524.533169,736.183512 524.637011,736.283645 524.761527,736.351272 C525.554187,736.345177 526.341917,736.225933 527.100868,735.997151 C532.649975,733.416756 538.480223,731.490146 544.474234,730.256107 C545.890716,729.966372 547.285736,729.633713 548.970491,729.268862 C548.745141,729.82687 548.73441,730.041488 548.627101,730.105874 C539.935053,735.685954 533.475037,743.444412 527.35841,751.567721 C520.469157,760.689007 514.738844,770.454147 511.991728,781.614308 C510.596708,787.280235 509.845543,793.117858 509.029993,798.901826 C508.847567,800.168075 509.545077,801.552364 509.834812,802.882999 L510.478667,802.968846 Z" id="Path"></path>
                </g>
            </g>
        </g>
    </g>
</svg>