<svg width="246" height="13" xmlns="http://www.w3.org/2000/svg"><g fill-rule="nonzero" fill="none"><path fill="#F7F7F7" d="M1207.708-578.978h-1440v2586h1440z"/><g style="mix-blend-mode:multiply" fill="#F60"><path d="M85.754 11.7h-.718l.757.12.774-.11-.813-.01zm1.116-.31l.843.09a.407.407 0 00.138-.07l-.752-.14-.23.12zm-6.455.44l.35-.05h-1.228l.804.23.597-.09-.484-.08-.04-.01zm3.458-.55h-.056l-.864.15h.224c.311.057.623.057.934 0 .255-.19-.272-.01-.238-.15zm5.846.1c.212 0 .432.08.627.1a.655.655 0 00.229-.09l-.402-.09-.454.08zm-9.88-.08l1.09.08c.05.01.098.01.147 0l-.661-.15-.575.07zm11.851.05l.554.14.475-.1-.908-.09a.287.287 0 00-.12.05zm6.65.09l.644.13.622-.15c-.168 0-.337-.09-.493-.08-.263.01-.514.06-.774.1zm6.748 0l.433.05h.536a1.423 1.423 0 00-.117-.19l-.852.14zm-11.072-.04l.934.15s.035-.08.048-.12l-.433-.14-.549.11zm12.629-.46l.432.07h.432c.074 0 .139 0 .204-.07a.874.874 0 00-.217-.06c-.276.01-.57.04-.851.06zM36.809 8.19h.787-1.837l.432.05c.207-.08.415-.05.618-.05zm29.953 2.97l.35-.11h-.562l-.372-.06.484-.06h.441-.264l-1.885.22h-.164 1.816c.047-.02.112.02.156.01zm.63.27l-1.115.06h1.63l.597-.08h-.93c-.065.03-.13.01-.181.02zm-9.459-2.88c.177 0 .35-.06.528-.09-.204-.05-.433-.15-.606-.15-2.17-.04-4.332-.067-6.485-.08h-.168l.199.05h.32l-.122.05-.536.08c.212 0 .433.07.632.07h.713a.53.53 0 00.117-.06h-.277a.33.33 0 01.143 0h2.52l-.324.07h-.043c.05.009.1.009.151 0 .471-.06.925-.18 1.405-.16.48.02.956.15 1.133.18.428.06.566.06.7.04zm15.426 2.84c-.143 0-.272 0-.406.06l.432.09.463-.1c-.165-.02-.329-.05-.489-.05zm1.807.35H72.2a.416.416 0 00-.16 0l.19.06h3.58l.026.09h.71-.057c-.44-.03-.89-.14-1.323-.15zM67.963 11l.593.08.544-.09-.942-.06a.706.706 0 00-.195.07zm4.168.39h-.687l.432.07.432-.06a.715.715 0 00-.177-.01zm-2.598-1.1h-1.868 1.63c.051.03.1.08.143.15l.095-.15zM32.559 8h.982l-.433-.07h-.864c.104.038.21.06.315.07zm-3.999-.13h-1.003a.323.323 0 00-.104 0l.748.13.36-.13zm81.15 2.41a.17.17 0 00-.138 0c-.358 0-.717.02-1.077.06l-.238-.08-.346.11h.083-.433c-.015-.027-.033-.044-.052-.05h.117-4.315a.697.697 0 00-.207 0h.12-1.093.54c-.198 0-.397-.05-.596-.06h-.865l-.346.06c.143 0 .286.05.433.06h-4.324.091c-.06 0-.125-.05-.186-.05h-3.074.104l1.349.08h1.496c-.035.006-.069.037-.095.09h-3.796c-1.568 0-3.138-.037-4.708-.11-.063-.008-.126.023-.182.09-1.176 0-2.352 0-3.528.08-.067-.01-.134.032-.19.12-4.323.21-8.647.08-12.97.2h-1.937 1.107c-.026.09.039.2.199.2 6.55 0 13.095-.13 19.645-.22l4.28-.05c.02.08.044.157.07.23l.7-.19.212-.05h3.74l.051.2.195-.07c-.108-.06-.216-.15-.32-.19h.497l.726.12.523-.08h-.644 1.124c.042.04.085.066.13.08h2.352c-.1-.04-.201-.068-.303-.08h-1.73 2.924c.717 0 1.422-.05 2.122-.12h.865c.112 0 .177-.07.199-.14.501-.05 1.003-.09 1.513-.1.13 0 .195-.08.203-.15l.74-.07h.484-.489l-.752.08zm7.946-8.05h2.836a.358.358 0 00.139-.05h-.169l-2.676.1a.262.262 0 00-.13-.05zM27.138 8.06h2.58-2.425a.392.392 0 00-.155 0zm89.974-5.45l.67.1 1.132-.15h-1.223c-.199-.03-.385.02-.58.05zM54.228 8.77c-.133.034-.264.09-.393.17h1.297c.285 0 .48-.13.713-.2h-.648a5.945 5.945 0 00-.969.03zm63.368-6.72c.203 0 .385-.09.575-.15h-1.09l-.38.07a.558.558 0 00.16.07c.229.01.48.03.735.01zM36.074 7.69l-.406-.09-.458.09c.224 0 .432.06.661.07a.547.547 0 00.203-.07zm-4.743.91h-.354l1.107.07-.277-.08-.476.01zM100.55 1l-.363.08h1.392c1.422 0 2.849.1 4.263.1 2.204 0 4.396 0 6.588-.05l.947-.05h-1.327L106.874 1h-.195c.065-.01.13-.01.195 0H109a.46.46 0 00.169 0 .255.255 0 00-.074 0h-3.969c-.181 0-.346.07-.523.07-.177 0-.329-.09-.48-.09h-3.748c.065 0 .125 0 .194.06h.165l-.186-.04zm19.528 1.56h.735l.645-.06h-1.129l-.25.06zM93.471 5.31l.817.05h.826l.225-.07h-1.072l-.796.02zm27.9 7.04l-1.553.06h-.26a.964.964 0 01.225-.16c.13 0 .286 0 .433-.06a1.502 1.502 0 00-.459 0c-.358.06-.7.17-1.041.26l-.022.06c.096.034.193.054.29.06l2.455-.08a.276.276 0 01-.069-.14zm-7.666-10.29h1.976a.685.685 0 00.198-.07.85.85 0 00-.242-.08h-1.5l-.54.1c.043-.01.108.05.108.05z"/><path d="M115.607 5.73h-1.046 2.252-6.762l-11.91-.28H87.289h4.362a.332.332 0 00-.086 0l-3.891-.08c-.152 0-.312 0-.467-.06h9.606c.084-.01.168-.03.251-.06a.947.947 0 00-.272-.07c-1.966 0-3.932-.023-5.897-.07H83.64c-1.643 0-3.294 0-4.937-.06h-9.914c-1.331 0-2.672-.06-3.995 0-.946 0-1.867.15-2.818.17H57.22c-1.228 0-2.426.17-3.653.19-1.228.02-2.486 0-3.736 0a.764.764 0 00-.212 0h.044l.198.07a1.083 1.083 0 01-.31 0c-.286-.07-.58-.22-.865-.22h-5.902l.16.06 1.327.08-4.198-.12h-.168a.461.461 0 01.168 0l2.041.08c.088-.109.173-.229.255-.36h-.26l-1.188-.11c-.433 0-.865-.12-1.228-.09-.553 0-1.072.19-1.604.29l-.32.06h.363c.29 0 .57-.08.865-.07.294.01.536.12.804.18a1.12 1.12 0 01-.38.16h-1.112a.592.592 0 00-.138 0h3.476-1.111a.188.188 0 00-.074 0h2.266l-.169.11a.543.543 0 00.178.14c.51-.07 1.003-.22 1.53-.24h2.905-1.677a.953.953 0 00-.281.08c.112 0 .225.08.328.09l2.231.4c.032.01.062.03.091.06a.898.898 0 00.316.2h1.167c2.192 0 4.397.13 6.584.12 2.188-.01 4.233-.08 6.352-.13l4.682-.1c.12-.01.24-.038.359-.08L67.012 6h-.056 1.967l-.398.07h-.185l.211.06c.835 0 1.674.09 2.5.1h8.724c1.894 0 3.77-.1 5.66-.14h.54-.895c.118.014.236.014.354 0l6.485-.08h.316-1.578a.329.329 0 01.104 0c1.361 0 2.719-.12 4.094-.12 2.373 0 4.756.12 7.133.11 5.396 0 10.79-.04 16.183-.12a.62.62 0 00.142 0h-.15c-.844-.16-1.7-.15-2.556-.15zm-4.263-.68h.718-.169L105.53 5a.7.7 0 00-.207 0h.229l5.793.05zm4.09-1.12h-6.81c.109 0 .221.07.325.07h6.485v-.07zM104.5 5h-.108l-3.026-.12a.262.262 0 00-.143.05.563.563 0 00.203.14h2.975a.689.689 0 00.1-.07zm3.922-1h-5.573c.13 0 .263.06.393.06h4.998a.455.455 0 00.182-.06zm6.2-1.55c-.042.066-.081.14-.117.22h1.967l.302-.07s-.021-.07-.026-.08h-1.915a.742.742 0 01-.212-.07zM66.58 8.57a.627.627 0 00-.186 0c-.955.06-1.898.16-2.858.19h-3.324c-1.25 0-2.486.09-3.727.13-.087 0-.16 0-.238.06h5.85l4.323-.34.16-.04z"/><path d="M93.169 6.08h.553L92.987 6l-.622.19.665-.07h.139v-.04zm-36.377.8c.821 0 1.66.08 2.473 0 2.304-.08 4.596-.21 6.891-.31a.534.534 0 01.178 0h-.048l-.164.06h9.165c2.162 0 4.324.08 6.485.09 2.058 0 4.099 0 6.148-.08.917 0 1.829 0 2.75-.06h10.117-3.109c-1.353 0-2.71-.09-4.06-.1H90.06c-.666 0-1.34 0-2.01-.06a.267.267 0 00-.087 0h.26-.169L85.14 6.3h-2.01.575-.177c-1.963 0-3.922.12-5.889.16-.627 0-1.27 0-1.902-.07-1.582 0-3.165-.11-4.756-.12h-5.443c-.644 0-1.297 0-1.924.08a.26.26 0 00-.086 0h.808-2.04c-.433 0-.865-.11-1.298-.09-1.003 0-1.993.13-2.987.19h-.757.748a1.07 1.07 0 00.251-.05h-1.777c-1.046 0-2.08.12-3.121.17h-.459a.414.414 0 00-.172-.1h-.895a.275.275 0 00-.096 0 .056.056 0 00.044 0h.272-1.24c-.247 0-.498 0-.749-.06h.722a1.14 1.14 0 00.26-.05h-.13l-4.35.14a.19.19 0 00-.112 0h.13c1.133 0 2.274.1 3.403.12 2.27.24 4.535.24 6.809.26zM40.748 8.41a.344.344 0 00-.156.14c.07.009.141.009.212 0h4.6a.865.865 0 00-.255-.09l-4.401-.05zM98.11 6.14h-.047c-1.327 0-2.65-.06-3.978-.07-.047 0-.082.08-.12.12h3.972l.173-.05zM42.931 11h.938l.73-.06h-1.37c-.103-.02-.198.06-.298.06zm1.643-2.87h-.752a.62.62 0 00-.143 0c.056.01.113.01.169 0h2.339c.03.005.06.005.09 0h-.13c-.531-.01-1.054 0-1.573 0zm48.858 2.2l-.73-.17-.54.11 1.184.13c.031-.003.061-.028.086-.07zm12.703-3.18a.565.565 0 00-.173-.05c-1.16 0-2.318-.07-3.46-.07H90.35h15.646c.045.045.092.085.139.12zM94.327 8.26h2.244a.216.216 0 00.082-.09h-2.499c.057.04.115.07.173.09zm3.559-.01a.827.827 0 00.207.05h2.936-2.98c-.06-.09-.107-.06-.163-.05zM93.1 9.42h-1.431H93.1zM19.51 8.7h.61l-1.055-.1h-.264l.71.1zm6.602-.45h.973-.048c-.268-.05-.536-.1-.804-.13s-.514 0-.77 0h-.207v.05h.506a.242.242 0 01-.117 0l-1.003.06h1.142l.328.02zm-5.854 2.43h.2l1.34-.07.082-.06a1.328 1.328 0 00-.312-.09h-1.145a.51.51 0 00-.165.22zm3.766-2.6h-1.639a1.32 1.32 0 00-.28.08h1.772c.05-.015.1-.041.147-.08zm10.048 2.66c-.16 0-.33 0-.493-.05h.756a.926.926 0 00-.28 0c-.373 0-.74.13-1.12.12-.813 0-1.64-.13-2.448-.15h-3.402v-.07h-.631c-.255 0-.502.07-.748.1h.778c.108 0 .216 0 .329.06a.591.591 0 01-.178.05l-6.394.1H20a.896.896 0 00.264.06c1.582 0 3.164 0 4.755-.06h7.44c2.193 0 4.393.08 6.585.11.09-.007.18-.03.268-.07l-.302-.05-4.937-.15zm27.453-2.82h.61c.063.01.126.01.19 0a1.021 1.021 0 00-.22-.06l-2.46.1a.19.19 0 00-.109 0h1.989s.004-.03 0-.04zM39.719 10.9l.76.07.705-.05a1.556 1.556 0 00-.51-.16c-.328.02-.64.09-.955.14zm1.755.1l.376.08.52-.09a1.604 1.604 0 00-.368-.06c-.178-.05-.35-.01-.528.07zm-21.915-.42c-.834 0-1.673 0-2.508.09-.224 0-.432.06-.652.09h3.086a.546.546 0 00.165-.13s-.07-.05-.091-.05zm-1.656.34h-.432c-.247 0-.497 0-.744.06h.67c.173 0 .36.07.523.06.329 0 .64-.1.96-.16h-.977v.04zm58.56-2.66h.087-.095c-1.323-.05-2.655-.12-3.974-.13H63.96a.552.552 0 000 .08l-.649.13c.044.034.09.06.135.08h3.212c.743 0 1.465-.1 2.213-.11.502 0 1.038.11 1.54.1 1.14 0 2.265-.11 3.402-.14.882-.04 1.768-.01 2.65-.01zm-8.893.41h3.835a.322.322 0 00.117-.07.642.642 0 00-.19 0h-3.265l-.497.07zm25.932-.52c-2.923 0-5.85-.1-8.764-.1-1.686 0-3.35.12-5.024.19h-.61c.204 0 .407.06.602.06h9.11v-.06h4.569c.129-.01.257-.037.385-.08-.078.02-.178-.01-.268-.01zm-19.205.64l.497-.08c-.285 0-.575-.1-.864-.13a.386.386 0 00-.165.06l.532.15zm-8.439-.95a.55.55 0 00-.125 0h-1.816c.06.01.12.01.181 0h1.76zm.151.9l.679.08.497-.07c-.242 0-.484-.05-.722-.05-.155-.01-.315.03-.454.04zm-6.943-.3h3.506c.035 0 .056-.07.082-.1l-1.12-.2-2.395.24-.073.06zm14.98-.75l-.657.06.58.06h1.02l-.943-.12zm-6.54.07h-.948 2.184c-.407.04-.826.01-1.237 0zm5.157-.03h-1.405c.075.01.15.01.225 0h1.496c-.104.02-.212 0-.316 0zm-.515 1.03c.264 0 .502-.14.748-.22l-.432-.09-.696.27c.112.01.268.06.38.04zm18.146 1.43h-.675c-.112 0-.212.05-.315.08h1.785a.432.432 0 00.182-.07l-.912-.01h-.065zm-12.56-.4l.61.06.588-.07h-.843c-.121-.05-.238-.01-.355.01zm13.632-.39h-3.308a.366.366 0 010-.07L87 9.39a.19.19 0 00-.108 0h4.492l-.017.01zm-9.43 0a.542.542 0 00.126 0h1.474c.203 0 .394-.06.593-.09h-2.11a.707.707 0 00-.082.09zm3.295.04l.692-.08c-.398 0-.796 0-1.198-.06a.311.311 0 00-.164 0l.67.14zM78.292 7.7l-.346.09h.865c.047.01.095.01.142 0l-.661-.09zm9.905.09a.594.594 0 00-.173-.06h-5.076 5.063c.056.1.112.07.186.06zm-27.272-.35c2.162 0 4.323-.17 6.485-.19h7.812c.433 0 .843 0 1.263-.08h-2.607 4.146-.363 7.384c.075.01.15.01.225 0h-4.103a.806.806 0 01-.199-.06h6.567c.35 0 .705 0 1.06.06l1.15.11h-.026l-.567-.09h.7c.064.01.128.01.19 0A1.53 1.53 0 0089.84 7H69.503c-2.53 0-5.05 0-7.575.06-2.525.06-5.045.08-7.57.1h-6.122l.143.06 1.184.11h.32-.311c-.1 0-.203 0-.303.06h.177c3.827.05 7.661.08 11.479.05zm29.049.36h.03-1.496H89.974zM59.472 2.47h.307c.54 0 1.072-.14 1.622-.14.462 0 .946.13 1.188.17h2.664c.052 0 .13 0 .13-.07a1.667 1.667 0 00-.074-.28h-.19c-.264.06-.523.13-.792.17a.408.408 0 01-.181-.07.694.694 0 01.147-.07l.432-.1a1.528 1.528 0 00-.458-.26c-.164 0-.324.1-.497.12-.64.06-1.297.12-1.937.15-.64.03-1.405 0-2.097.07a.869.869 0 00-.264.31zm-7.868-1.21h-2.166l1.418.09.748-.09zM22.3 10.72l3.121-.12h.03a.88.88 0 00-.16-.08c-1.01 0-2.018.07-3.026.12a.236.236 0 00-.134.06l.169.02zm39.027-8.89c-.147 0-.281.06-.432.09l.566.07.329-.06c-.143-.03-.312-.1-.463-.1zM65.132 3h-.178 5.95-1.099c.09-.03.179-.05.268-.06l1.492.08h.307l-.433.07h.882a.616.616 0 00.243-.13h-.057l-2.14-.22h-1.262l.432.1s.043.07.035.08a.573.573 0 01-.225.07h-4.215V3zm25.006.72l.48-.06-.074-.05c-.272 0-.549-.06-.821-.06h-5.378c.062.03.126.05.19.06h5.581l.022.11zm-35.663-2.4h.613-2.486a.465.465 0 00.117 0h1.756zm2.745.98v-.09h-.307c-.039 0-.052.07-.082.11.104 0 .203.08.302.1.04.04.065-.06.087-.12zm-4.237 1.16l11.73-.07c.099 0 .194 0 .293-.05H49.555c.04.01.08.01.12 0 1.103.09 2.205.12 3.308.12zm3.333-.33l.532.11.432-.07c-.142 0-.298-.11-.432-.12-.134-.01-.354.05-.532.08zm1.418.06h3.995v-.07l.432-.07c-.15 0-.315-.08-.458-.07l-3.761.12c-.074.04-.138.07-.208.09zm.411.53l.692-.09a1.472 1.472 0 00-.342-.06c-.38 0-.752.05-1.124.09l.774.06zm-7.064.9h2.313c.212 0 .406 0 .61-.07H51.34a1.092 1.092 0 00-.26.07zm2.529-.39h-1.137a.564.564 0 00-.186 0l.826.07.497-.07zm12.473-1.86c-.139 0-.264.07-.39.11l.36.12.246-.13a.5.5 0 00-.216-.1zm10.134 1.17l.96.06a.516.516 0 00.164-.05l-.722-.1-.402.09zm5.707-1.04c-.255 0-.51-.09-.757-.11l-3.891-.18-.026-.11-.432.09.454.07.315.11a.546.546 0 01-.134 0c-.056 0-.138-.05-.173 0-.034.05-.177.1-.263.15.168 0 .35.11.514.11h3.506c.303-.05.593-.1.887-.13zm-1.678.37l.623-.06c-.095 0-.195-.06-.286-.06h-.998l.661.12zm-13.342-.56l-.385.06c.11.054.222.094.333.12.294 0 .593.07.887.08h6.878v.07h.761-.082l-.169-.08a.88.88 0 01.23 0l1.197.17a.72.72 0 00.29 0 1.435 1.435 0 00-.433-.4c-.726 0-1.44.09-2.161.15h-.32l.29-.08c.029-.02.056-.05.082-.09a.452.452 0 00-.195-.07c-.33.143-.664.23-.999.26-.6 0-1.24-.25-1.841-.26h-4.48l.152.07.272.08-.307-.08zM89.308.82l-.476-.09-.61.07.593.06c.169 0 .329-.03.493-.04zM56.41 2.11c-.138.05-.263.12-.393.18l.549.25v-.32l-.156-.11z"/><path d="M91.703 3.92h8.158c.1 0 .19 0 .286-.05h-3.848a.546.546 0 01.134 0h2.672c.024.012.049.012.073 0-.13 0-.255 0-.385-.06h-3.298l-1.194.05h1.35l.306.06c-.09 0-.173.05-.263.05l-3.606-.19h-7.302c-.485 0-.982-.08-1.47-.11h-.57c-.079 0-.165 0-.247-.06h.419-3.463v.07h.683-6.347.52-.174l-4.457.06h-5.59c-.796 0-1.574.1-2.374.11H51.141h.156l1.25.06H51.21a.362.362 0 00.139 0h2.659a.31.31 0 00.12-.06l-.241-.08h2.65L55.339 4h-.073.043c.488 0 .981.11 1.461.12.48.01.865-.06 1.297-.07.1 0 .22.06.337.09a.785.785 0 01-.285.1h-1.47.58a.275.275 0 01-.096 0l-.16.05h.19c.653 0 1.298-.09 1.963-.11.333 0 .675 0 1.016.05h.074-.03L59.1 4.09h-.286a.517.517 0 01.22-.1h2.426c1.09 0 2.196.17 3.277.19.744 0 1.457-.12 2.188-.18.12 0 .242 0 .359-.06l-.372.06h-.138.134l2.209.12 1.444.08h.354s0 .07-.043.08c-.135.043-.27.07-.406.08-.078 0-.182-.15-.264-.16h-1.185c-.237 0-.47 0-.704.05H69.9l-.233.08-.199.08h.255l4.527.14h.544c-.173 0-.354-.12-.527-.13-.558 0-1.116-.07-1.673-.11h-.195.177l3.46-.06a.33.33 0 00.138 0h-.13L74.016 4a.891.891 0 00-.233 0c.082.04.166.067.25.08h1.276a.386.386 0 01-.138.05h-3.9 1.167l.151-.06a.536.536 0 00-.172 0h-2.249a.937.937 0 01-.224-.06c.06 0 .116 0 .185-.06h5.928c1.967 0 3.934.05 5.897 0h9.75v-.03zm-2.07.67h.795a.633.633 0 00-.035-.08h-.337c-.13.02-.281.05-.424.08z"/><path d="M87.129 4.23c.121 0 .225-.05.337-.07-.134 0-.272-.06-.398-.06H85.46l.355.06h.432l.882.07zM47.034 2.5a.818.818 0 00.23.09l2.355.06h.113c1.25 0 2.49.11 3.744.09.063-.002.125-.036.181-.1h.731v-.07l.674-.07c-.306-.09-.61-.22-.916-.26-.307-.04-.744 0-1.111 0a.485.485 0 00-.173 0h.19l.298.09h-.644l-.294-.09h-1.379l-.255-.05c-.076-.034-.154-.013-.225.06h-.834a.168.168 0 00-.104 0l-2.482.07-.099.18zm194.141-.08h.558-.558zM86.217 2.31l.229-.06a.565.565 0 00-.216 0c-.173 0-.342 0-.515.06h.113c-.99-.06-1.98-.12-2.927 0-.245-.008-.49.076-.722.25.43.111.864.154 1.297.13 3.791 0 7.592.06 11.383 0h1.838c.432 0 .864-.06 1.27 0 .407.06.865.17 1.328.17h11.293c1.201 0 2.403-.06 3.601-.09-.515 0-1.007-.19-1.505-.31a3.423 3.423 0 00-1.837.13 2.866 2.866 0 01-1.626-.23l.178.15c-.614-.09-1.202 0-1.816 0h-1.954c-1.103 0-2.344.1-3.42-.1-.865-.17-1.69.36-2.624.07l.341-.14c-1.686-.06-3.372-.09-5.058-.09-2.162 0-4.324 0-6.485.19h-1.034l.134-.06c-.142 0-.285-.09-.432-.12a.548.548 0 00-.203.06l.268.11-.9-.12zM4.323 1.18a.117.117 0 00-.06.05c.065 0 .13.05.186.05h2.049l-.078-.05-2.097-.05zm93.943-.07c.58 0 1.154-.05 1.73-.09.051 0 .077-.07.116-.11a.805.805 0 00-.203-.05h-5.257.83-1.475a.28.28 0 00-.142.07.53.53 0 00.16.05l4.241.13zM75.093 4.62c.077.01.155.01.233 0h5.046-5.279zm-13.269 0h.169l2.918-.12h.679c.147 0 .26-.06.385-.09-.139 0-.286-.06-.411 0l-3.61.2a.514.514 0 00-.13.01zm18.703-.44c.068.01.136.01.203 0H76.78c-.052 0-.078.11-.117.17h2.797v-.06h1.081l-.013-.11zm-23.77.44h-2.26a.51.51 0 00.172 0h4.877a.45.45 0 00.12 0h-2.909zM7.605 2.49l-1.033.09h1.046v-.1l-.013.01zM84.18 4.2c-.173 0-.345-.06-.514-.07h-.99a.292.292 0 00-.104.07.362.362 0 00.138 0h1.47zM40.445 8.17l.627-.06H39.72l.726.06zm43.926-3.58a.151.151 0 00.1 0h-3.473a.333.333 0 00-.134.06h3.511l-.004-.06zM21.228 2.68l.514-.23.108.13.325-.14a.275.275 0 00-.126-.06h-1.042c-.047 0-.12.08-.108.09a.886.886 0 00.203.17c.04.033.083.047.126.04zm1.43-.48c-.125 0-.25-.09-.375-.11a.386.386 0 00-.195.07l.311.12.26-.08zm6.222-.13L27.9 2s-.035.05-.06.09c.401 0 .648.09.894.11a.483.483 0 00.147-.13zm-8.465.47l.19-.09a.22.22 0 00-.108-.05c-.393 0-.782.06-1.172.09-.033.005-.066.03-.095.07h.065l1.12-.02zm15.17.1a.424.424 0 00.156-.05l-.432-.08-.532.12.809.01zm-18.153-.28h.696a1.24 1.24 0 00-.32-.13c-.748 0-1.492 0-2.23.08a.082.082 0 00-.07 0h.104l1.82.05zm14.911 1.79l-1.859.13-.034-.08-.299.06c.113 0 .225.06.333.06l2.01.08a.438.438 0 00.2 0s0-.07-.035-.08a1.077 1.077 0 00-.316-.17z"/><path d="M23.51 2.23c-.043 0-.047.11 0 .17.058.08.124.119.19.11h.342l.433.09.168-.08h.796l-.06.09.466-.09h2.69l.583.08c.031.01.063.01.095 0l1.05-.21c.21.095.423.159.636.19.281 0 .528-.14.809-.15h2.096c.364 0 .714-.06 1.077-.06h1.064c.043 0 .077-.07.116-.1a.592.592 0 00-.186 0h-6.087l.908-.27h-1.414a.308.308 0 00-.138.08l.519.15h-.939c-.054-.053-.113-.077-.172-.07h-1.613c.177 0 .298 0 .41-.07a.31.31 0 00.148-.09.575.575 0 00-.173 0l-2.248.12h-.398l.069-.06h-.32c-.346 0-.692-.07-1.029-.07-.146.02-.29.07-.432.15.138 0 .28.06.432.07l.113.02zm10.143.63h.623l-.93-.06.307.06zm-12.036-.61a.657.657 0 00.22-.25l-.8.15c-.03 0-.034.06-.082.15.355-.03.536 0 .662-.05zm4.072 4.87c1.362 0 2.703-.09 4.06-.08 1.358.01 2.75.09 4.12.14h.065-.056l-.432-.06h1.236c1.678 0 3.403 0 5.084.07h3.468-.718c-1.73-.07-3.459-.17-5.188-.21h-12.52l-7.8-.13a1.939 1.939 0 01-.501.15H14.11a.825.825 0 00-.22 0H17c2.888.09 5.797.13 8.69.12zm-11.625-1.4c.078 0 .143-.06.216-.06.917 0 1.838.09 2.75.09h4.855c.834 0 1.686.1 2.53.14h1.05L24.449 6h-.532.631-5.478 1.051c2.55 0 5.11.06 7.657.06 1.798 0 3.584-.06 5.374-.1h.47L33.14 6h-.204c.07-.01.139-.01.208 0 .333 0 .674.11 1.007.13h2.162a.922.922 0 00.39-.19h-5.396l-.61-.04.627.1h.238a.593.593 0 01-.23 0c-.864-.06-1.772-.15-2.65-.17h-2.46 9.296c.501 0 .96-.18 1.44-.28a.194.194 0 00-.044-.06c-.212-.09-.432-.21-.64-.27-.618-.16-1.254-.33-1.872-.41a10.47 10.47 0 00-1.945-.06c-.567 0-1.068.27-1.635.3-.432 0-.903-.17-1.349-.2-.864-.06-1.729-.13-2.594-.09-2.049.08-4.072.25-6.126.33h-3.026a.716.716 0 00-.303.13c.1 0 .2.06.29.07l6.251.09h.316-7.09a.42.42 0 01-.156 0 1.904 1.904 0 00-.467-.13c-.255 0-.48.15-.74.16-2.221.07-4.448.12-6.67.18a.875.875 0 00-.216.08h4.902l-.185.08c.134-.02.272-.01.406-.03zm28.175 2.33h-.7l.726.05h1.073l-.459-.05c-.212.02-.428 0-.64 0zm-.367.22h.203l1.474.09h1.5-.15l-2.833-.1-.194.01zM10.878 2.5l.363-.07h-.536c-.173 0-.35 0-.523.09l.696-.02zm3.177 2.79H10.74a.666.666 0 00-.233.07h1.08a.32.32 0 000-.06h2.335c.045.006.09.003.134-.01zM13.8 2.42a.25.25 0 00.104-.06.173.173 0 00-.09 0h-.917l-1.375.11h-.091a.418.418 0 00.1 0l2.27-.05zm2.97.28h.16-.034l.38-.1.035-.07h-.251l-2.127.07c-.156 0-.294.07-.432.11.09 0 .181.05.268.05l2.001-.06zm20.757-.6c-.177-.03-.346-.1-.536-.1-.12.015-.24.045-.359.09h.432l.463.01zM54.193.92h1.008A.534.534 0 0055.4.81a.432.432 0 00-.121-.06h-2.81a.407.407 0 00-.109 0c.04.009.081.009.121 0l1.712.17zm3.688-.21h-1.617l-.492.09.661.16 1.448-.25zm-5.797.51c.168 0 .315-.07.475-.11L52.045 1l-.368.09c.139.07.281.13.407.13zm-4.064-.15h2.641l.433-.05H49.33a.548.548 0 01-.147-.07.53.53 0 01.103-.08h2.478a.418.418 0 00.181-.12.39.39 0 00-.181 0h-3.558l.38.08c.104 0 .203.06.303.09a.188.188 0 01-.074 0L47.99 1l-.181.05c.07.017.141.024.212.02zm.311.18c-.186 0-.376-.06-.558-.06h-1.297l1.35.08.505-.02zm17.458-.16h6.775a.83.83 0 01.203.06h-.087l-.657.05h1.6l.25-.05h-.808c.07-.01.138-.01.208 0h13.07a.35.35 0 00.146 0h-.173L82.34.92c-3.027-.07-6.053-.16-9.08-.2h-8.27l-2.3.06h-.09.042a.465.465 0 01.117 0c.011-.011.024-.011.035 0h-.865c-.13 0-.268-.06-.432-.1h-.571.597a2.092 2.092 0 01-.13.32h-1.88l-.182.05c.077.037.155.06.233.07l6.226-.03zm-7.523.14l.432-.12a1.212 1.212 0 00-.307-.07c-.19 0-.371.06-.553.09l.428.1zm41.007 3.69l.294.14h.36l.32-.07-.974-.07zm-40.907-2.8l-.096-.07h-.423c-.186 0-.376.06-.57.09h.198c.432.1.865.22 1.297.27.165-.024.328-.098.484-.22l-.743-.07c.073.11-.035.06-.147 0zM33.688 2h-.38a.652.652 0 00-.195.07h.817L33.688 2zm3.54 4.58a.68.68 0 00.195-.06h-.082c-1.159-.06-2.348-.13-3.493-.16-.744 0-1.462.07-2.2.08l-5.578.06h-5.02 3.364v-.11l5.966.07c2.261.14 4.57.13 6.849.12zm9.175-3.99h.29a1.354 1.354 0 00-.333-.15h-1.898c-.139 0-.264.11-.402.16l.432.06 1.91-.07zm-10.484-.46l.22-.06a1.698 1.698 0 00-.406-.14h-1.496c.13.09.263.154.398.19.384.03.778.01 1.284.01z"/><path d="M32.175 2.09l.683-.09-.575-.11-1.155.11a.559.559 0 00-.173.08c.07.037.14.06.212.07l1.008-.06zm5.69 4.44a.564.564 0 00-.187 0c.072.03.144.05.216.06h3.195-3.225v-.06zm-1.419-4.06h2.032v.06l.432-.06h-.069l-2.092-.18a1.262 1.262 0 00-.407.15.413.413 0 00.104.03zm6.688.07h.38a.72.72 0 00-.146-.17c-.234 0-.459.08-.692.12h.458v.05zm56.477 2.85h.462-1.647a.75.75 0 00-.216 0h1.401z"/><path d="M202.118 2.36c-.251 0-.506-.1-.757-.11l-3.87-.18-.03-.07-.432.09.432.07.32.11a.546.546 0 01-.134 0h-.177c-.039 0-.173.1-.26.15.17 0 .347.11.51.11h3.507c.311-.09.597-.14.89-.17zM179.692.86l-.181.05c.075.037.152.06.229.07h13.018c.068.01.136.03.203.06h-.744l.692.05h.912l.247-.05-.38-.04h-.433a.746.746 0 01.207-.05h13.07c.05.01.1.01.151 0h-.173l-3.973-.17c-3.026-.07-6.053-.17-9.079-.2h-8.275l-2.304.06h-.091.199-.865c-.13 0-.268-.06-.432-.1h-.575.51a.286.286 0 01.09 0 .394.394 0 01-.15 0l-1.873.32zm-9.874 1.65h.108c1.25 0 2.494.11 3.744.09.064 0 .128-.035.186-.1h.726v-.07l.67-.07c-.302-.09-.61-.22-.912-.26h-1.115a.485.485 0 00-.169 0h.19l.299.09h-.649a1.058 1.058 0 00-.294-.09h-1.626c-.075-.035-.154-.014-.224.06h-.796a.159.159 0 00-.104 0l-2.481.07-.113.07a.796.796 0 00.225.09l2.335.12zm3.363.81l11.73-.07h.29-15.452c.041.01.083.01.125 0 1.102.04 2.196.07 3.307.07zM168.18.82l-.177.05c.066.03.132.05.199.06h3.074-1.76a.638.638 0 01-.151-.07.4.4 0 01.143-.06h2.477a.418.418 0 00.181-.12.643.643 0 00-.185-.05h-3.554l.38.08c.104 0 .199.06.298.09a.144.144 0 01-.069 0l-.856.02zm3.697.18c.134.052.27.085.406.1.164 0 .316-.08.471-.12l-.51-.08-.367.1zm-2.244.1l1.418.09.752-.07h-.536l-1.634-.02zm3.255.03h-.073 2.469-.649c-.57-.02-1.159-.01-1.747 0zm2.711-.46a.45.45 0 00-.125-.07h-2.81l-.104.05c.04.026.08.043.12.05l1.709.1h1.011a.63.63 0 00.2-.13zm21.167 1.81a.7.7 0 00.29 0 1.417 1.417 0 00-.432-.4c-.727 0-1.44.09-2.162.15h-.341l.285-.08a.268.268 0 00.086-.09.472.472 0 00-.194-.07c-.33.137-.664.224-.999.26-.605 0-1.24-.25-1.842-.26h-4.479l.156.07.268.08h-.298l-.385.06c.112 0 .22.1.328.12.299 0 .593.07.891.08h2.594l-.173-.05s-.047-.07-.039-.08h1.44l-.463.09h3.533v.07h.765-.082l-.169-.08c.075-.01.15-.01.225 0l1.197.13zm3.675.25l.623-.06c-.095 0-.195-.06-.285-.06l-.995.05.657.07zM178.037 1l.432.1.432-.12a.92.92 0 00-.307-.07c-.194 0-.372.09-.557.09zm.544 1l-.1-.08h-.358a.136.136 0 01-.086 0l-.571.1h.194c.433.1.865.22 1.297.27.164-.024.325-.098.48-.22l-.739-.07h-.117zM176.46.63l-.498.03.662.16 1.457-.26h-1.436c-.064.03-.12.06-.185.07zM178.123 3c-.073 0-.143 0-.212.06h4v-.07l.432-.07c-.156 0-.316-.08-.459-.07-1.253 0-2.512.08-3.761.12V3zm19.412.41l-.718-.1-.406.09.96.06a.457.457 0 00.164-.05zM185.473 2.4c.047 0 .13 0 .125-.07a1.645 1.645 0 00-.069-.28h-.19l-.791.17a.39.39 0 01-.182-.07.775.775 0 01.143-.07l.458-.1a1.528 1.528 0 00-.458-.26c-.169 0-.325.1-.502.12-.64.06-1.297.12-1.932.15-.636.03-1.406 0-2.102.07a.6.6 0 00-.285.23H180c.54-.05 1.068-.15 1.622-.14.458 0 .946.13 1.189.17h.618l-.273-.07a.706.706 0 01.277-.08c.212 0 .432.07.636.1h-.13l1.535.13zm-3.947-.71c-.147 0-.282.06-.433.09l.562.06.333-.05c-.147-.03-.311-.1-.462-.1zm4.755.53c-.142 0-.263.08-.393.12l.363.12.246-.14a1.037 1.037 0 00-.216-.1zm5.417.71h.835a.586.586 0 00.242-.13.06.06 0 00-.056 0l-2.136-.22h-1.262l.432.09s.043.08.034.08a.49.49 0 01-.229.08h-4.392 5.927l-.839-.06H190v-.06h.268l1.488.08h.31l-.431.07.064.07zm3.589 1.55c.078.01.156.01.233 0h4.778c.09 0 .177 0 .268-.06h-5.046l-.233.06zm40.337-.69h-6.81c.109 0 .225.07.33.07h6.48v-.07zm-25.793.65h.795a.315.315 0 01-.034-.08h-.338c-.108 0-.285.06-.423.08zm29.926 7.82a.69.69 0 01.225-.16c.13 0 .28 0 .432-.06a1.48 1.48 0 00-.467-.04c-.354.06-.696.17-1.042.26v.06a1 1 0 00.286.06l2.001-.07v-.08h-1.163l-.272.03z" opacity=".4"/><path d="M220.06 3.81c.104 0 .194 0 .29-.05h-3.853a.546.546 0 01.134 0h2.672a.137.137 0 00.078-.05l-.385-.07h-4.487 1.348l.303.06h-11.172c-.484 0-.98-.08-1.47-.11h-.574c-.078 0-.16 0-.247-.06h.424-.203l-2.746-.12h-.527v.07h.683a.89.89 0 01-.23 0h-6.117.519-.173l-4.457.06h-5.59c-.8 0-1.579.1-2.374.11h-5.188l-5.253-.05a.562.562 0 00-.134 0h.156l1.253.06h-1.201a.562.562 0 00-.135 0c.047.01.093.01.139 0h2.659a.342.342 0 00.12-.06l-.241-.08h2.65l-1.202.37h-.078.048c.488 0 .981.11 1.461.11.48 0 .865 0 1.297-.06.113.011.226.041.337.09a.765.765 0 01-.28.1h-1.47.574-.25.19c.653 0 1.297-.09 1.958-.11h1.094-.03l-1.09-.14h-.28a.496.496 0 01.22-.1h2.42c1.095 0 2.197.18 3.282.2.744 0 1.457-.12 2.184-.19h.363l-.38-.07h-.143.134l2.209.12 1.448.07.355.06s0 .07-.043.08c-.135.042-.27.07-.407.08-.082 0-.181-.15-.268-.16h-1.89 1.596l-.229.08-.199.08c.085.01.17.01.255 0l4.527.13h.566c-.177 0-.354-.11-.527-.13l-1.66.12h-.195.182l3.471-.11c.045.01.09.01.134 0h-.125l-2.067-.18a.883.883 0 00-.229 0c.083.036.167.063.25.08h1.276a.334.334 0 01-.138 0h-3.9 1.168l.147-.07h-2.417a1.028 1.028 0 01-.23-.06c.066 0 .122 0 .187-.06h5.931c1.963 0 3.934.05 5.893 0h9.75c2.706-.08 5.43-.05 8.149-.04zm-34.924.32h-.433l1.245-.13c.04.025.08.058.117.1h-.942a.119.119 0 01.008.03h.005zm39.563.77a.439.439 0 00-.113 0l-3.026-.12a.4.4 0 00-.143.06c.064.067.13.114.2.14h2.978a.74.74 0 00.104-.08zm11.893 7.56c.368-.05.731-.09 1.098-.1-.514 0-.838-.34-1.197-.34-.497 0-.977.07-1.453.13a.483.483 0 00-.216.15l.337.11c.06.01.121.01.182 0l.782.06h-.8c-1.582 0-3.16.1-4.755.1-1.18 0-2.387-.09-3.567-.09h-35.91 1.02-7.76c-.03-.14-2.408.14-2.438 0-2.543 0-3.727.08-5.4.13h64.66v-.21h-.687c-1.215.04-2.702.25-3.896.06zm-97.168.17h12.997c-3.822-.05-4.596-.14-9.944-.17-.528 0-1.885.1-3.053.17zm-15.37-.17h-.73v.14h10.882c-1.73-.07-3.251-.17-5.672-.2-1.513.01-2.992.05-4.48.06zm43.996.01h1.059c.06 0 .302.05.532.1h3.16c-2.054-.09-5.517-.41-7.073-.47-.07.06 2.386.36 2.322.37zm-3.1-10.26h-.29c-.138 0-.268.12-.402.17l.41.06h1.933c.1 0 .19 0 .286-.05a1.002 1.002 0 00-.329-.15c-.536-.02-1.072-.03-1.608-.03z" opacity=".4"/><path d="M207.327 4.09c.117 0 .225 0 .338-.07-.143-.02-.273-.02-.402-.02h-1.609l.36.06h.431l.882.03zm-30.371.39h-2.261 5.045a.534.534 0 00.125 0h-2.909zm.527-1.48c-.147 0-.298-.1-.432-.11-.134-.01-.359 0-.536.08l.536.1.432-.07zm-8.958-1.89c-.181 0-.372-.06-.553-.06h-1.297l1.349.08.501-.02zm13.515 3.37h.164l2.923-.12h.679c.147 0 .255 0 .38-.08-.134 0-.28-.06-.41 0l-3.61.2a.256.256 0 00-.126 0zm22.629-.07a.259.259 0 00-.122 0h-3.354a.292.292 0 00-.134.07h3.514a.573.573 0 00.096-.07zM200.924 4a1.024 1.024 0 00-.246 0h-3.705c-.052 0-.078.11-.112.17h2.792a.32.32 0 010-.06h1.077a.882.882 0 00.194-.11zm3.45.06c-.168 0-.341-.07-.51-.07h-.99a.18.18 0 00-.103.07.398.398 0 00.134.05h1.08l.39-.05zm-26.956-1.9v-.09h-.307c-.043 0-.056.07-.082.11.099.045.198.075.299.09.043.05.069-.05.09-.11zM152.542 4l-1.86.13-.034-.08-.298.06c.108 0 .224.06.333.06l2.01.08h.194c.061 0 0-.07-.03-.08a1.077 1.077 0 00-.315-.17zm-3.463-2.07c-.329 0-.653-.08-.982-.1 0 0-.034 0-.06.09.397.05.648.09.895.11.05-.02.1-.053.147-.1zm4.773.78h.622l-.93-.06.308.06zm-.805-.82l-.579-.1-1.15.05a.382.382 0 00-.169.08c.069.037.138.06.208.07h1.003c.236-.033.466-.067.687-.1z" opacity=".4"/><path d="M156.251 2.16a.71.71 0 00-.19-.05h-6.079l.917-.2h-1.418a.308.308 0 00-.139.08l.52.15h-.943c-.053-.053-.111-.077-.169-.07h-1.613c.173 0 .299 0 .411-.07a.332.332 0 00.147-.1.476.476 0 00-.173-.07l-2.257.17h-.393l.07-.06h-.312c-.346 0-.692-.08-1.033-.08-.146.023-.291.077-.433.16.139 0 .277.06.41.07h.152c-.043 0-.047.11 0 .16.056.078.12.116.186.11h.346l.432.09.152-.08h.795l-.056.09.467-.09h2.676l.584.08c.031.01.063.01.095 0l1.05-.21c.21.1.422.167.636.2.277 0 .523-.14.804-.15h2.101c.363 0 .714-.06 1.077-.06h1.063a.234.234 0 00.117-.07zM176.61 2c-.139.05-.268.12-.398.18l.553.25v-.32L176.61 2zm-18.885 0c-.181 0-.363-.09-.536-.09-.12.01-.24.04-.359.09h.895zm-1.94.5c.05.01.103.01.155 0l-.41-.08-.533.12.787-.04zm-2.28-.64c-.073 0-.129 0-.194.07h.817l-.246-.1c-.208.03-.298.02-.376.03zm-15.503.21c-.748 0-1.491.05-2.235.08a.09.09 0 00-.07 0h2.634a1.107 1.107 0 00-.329-.08zm-3.748 3.08h-3.32a.666.666 0 00-.234.07h1.085a.32.32 0 010-.06h2.33a.334.334 0 00.139-.01zm23.169 1.29a.709.709 0 00.199-.06.332.332 0 00-.087 0c-1.154 0-2.343-.12-3.493-.15-.74 0-1.461.07-2.196.08l-5.582.06h-5.02 3.369l-.022-.11 5.97.07c2.279.13 4.588.12 6.862.11zm-19.918-4.07c-.082 0-.169-.05-.247-.05-.709 0-1.422 0-2.127.08-.155 0-.298.07-.432.11.09 0 .182.05.268.05h2.162-.035l.385-.1s.004-.06.026-.09zm-6.074-.08h-.537c-.172 0-.35 0-.527.08h.718l.346-.08zm10.6-.44l-.795.15c-.03 0-.035.06-.082.15h.657a.738.738 0 00.22-.3zm-2.607.57h1.19l.185-.1h-.103l-1.176.1a.102.102 0 00-.096 0zm1.687-.07c.066.073.136.13.207.17a.139.139 0 00.108 0c.173-.07.342-.15.515-.24l.103.14.329-.14a.333.333 0 00-.108-.06h-1.042c-.048.04-.121.12-.112.13zm14.816-.56h-1.492c.13.091.263.155.398.19h1.297l.225-.06a1.684 1.684 0 00-.428-.13zm-13.07.27c-.125 0-.255-.09-.38-.11a.386.386 0 00-.19.07l.31.12.26-.08zm15.81.33l.455-.06a.188.188 0 00-.074 0l-2.11-.18a1.262 1.262 0 00-.406.15h2.136v.09zm51.665 1.19l.484-.07a.255.255 0 00-.073 0c-.277 0-.554-.06-.822-.06h-5.378c.063.03.126.05.19.06h5.582l.017.07zm9.14 1.2l.29.14h.363c.108 0 .211 0 .32-.06l-.973-.08zm.337.46h.463-1.652a.79.79 0 00-.216 0h1.405zm10.964-2.63c1.198 0 2.4-.06 3.601-.09-.518 0-1.007-.2-1.508-.31a3.425 3.425 0 00-1.838.13 2.944 2.944 0 01-1.621-.23l.177.15c-.614-.09-1.202 0-1.816 0h-1.954c-1.102 0-2.343.11-3.42-.09-.864-.17-1.69.36-2.628.07l.346-.14c-1.686-.067-3.373-.1-5.059-.1-2.161 0-4.323 0-6.485.19h-1.037l.134-.06-.433-.12a.505.505 0 00-.203.06l.268.11h-.886l.229-.06a.565.565 0 00-.216 0c-.177 0-.346 0-.515.06h.113c-.995-.06-1.98-.12-2.931 0-.244-.012-.487.072-.718.25.43.111.864.155 1.297.13 3.791 0 7.592.06 11.379 0h1.837c.433 0 .865-.06 1.276 0 .41.06.864.17 1.323.17h7.246c1.343-.067 2.69-.107 4.042-.12zM209.503.68l-.472-.09-.614.07.597.06c.168 0 .328-.03.488-.04zM173.8 4.09h-1.142a.643.643 0 00-.186.05l.83.07.498-.12zm-39.702-1.88a.392.392 0 00-.09 0h-.913l-1.375.11a.275.275 0 00-.095 0c.035.008.07.008.104 0h2.274a.267.267 0 00.095-.11zm23.965 4.18a.564.564 0 00-.186 0c.07.03.14.05.212.06h3.216-3.242v-.06zm13.216-1.92c.087 0 .182.06.268.06h2.045c.208 0 .407 0 .61-.07h-2.663a1.022 1.022 0 00-.26.01zm7.065-.89l.691-.09a1.467 1.467 0 00-.346-.06l-1.124.08.779.07zm53.194 1.33h.718-6.736c.076.03.153.05.23.06l5.788-.06zm5.43-2.42s0-.07-.021-.08h-1.915c-.07 0-.208-.09-.212-.08a1.35 1.35 0 00-.117.22h1.967l.298-.06zM214.198.8a.296.296 0 00-.143.07c.054.026.109.043.164.05h3.178-.17a1.52 1.52 0 01.373 0c.238 0 .48 0 .717.07h.147c.58 0 1.155 0 1.73-.08.04-.014.08-.052.112-.11a.805.805 0 00-.203-.05h-5.253l.688.05h.142H214.197zm-50.632 1.46c-.233 0-.462.07-.692.12l.459.05h.38c-.052-.06-.125-.18-.147-.17zm74.22-.35c.198 0 .38-.1.57-.15h-1.09l-.38.07a.615.615 0 00.16.07c.242.01.493.03.74.01zm-9.166 1.9h-5.581c.134 0 .268.06.397.06.398 0 .8.05 1.198.05h3.8a.57.57 0 00.186-.11zM220.743.87l-.363.08.112.05h1.613-.165 2.184c.05-.01.1-.01.151 0h-.264 2.028c2.2 0 4.393 0 6.589-.06.32 0 .631 0 .947-.05h-1.328l-5.18.01h-.19a.67.67 0 01.19-.05h2.132a.46.46 0 00.169 0 .28.28 0 00-.078 0h-3.969c-.177 0-.341.07-.523.07-.181 0-.324-.09-.48-.09h-3.748c.065 0 .13.05.194.06h.19l-.211-.02zm15.149 1.07a.525.525 0 00.199-.08c-.082 0-.169-.07-.247-.08h-1.517l-.54.09h.112l1.993.07zM151.53 8.46h-.355l1.107.07-.28-.08-.472.01zm34.526-.76h-1.945c.06.01.121.01.181 0h1.764zm-4.332.08h.61c.062.01.124.01.186 0a.992.992 0 00-.216-.06l-2.46.1a.222.222 0 00-.113 0h1.993v-.04zm-2.46.51h3.515c.035 0 .052-.07.082-.1L181.733 8c-.817.07-1.608.16-2.395.24a.217.217 0 00-.074.05zm13.597-.7h-1.409c.075.026.15.042.225.05h1.496a1.124 1.124 0 00-.312-.05zm-5.162.03h-.947 2.18c-.403.04-.818.01-1.233 0zm6.546-.07l-.657.06c.19 0 .389 0 .575.06h1.02l-.938-.12zm-6.658 3.73l-1.116.07h1.626l.597-.09h-.93l-.177.02zm-.627-.28l.346-.11h-.536l-.376-.06.484-.06h.445-.264l-1.889.22h-.16 1.812c.03.01.095.01.138.01zm-14.522-2.74h2.663l-.329.07h-.039c.05.009.101.009.152 0 .467-.06.925-.18 1.405-.17.48.01.955.16 1.128.19h.727c.134 0 .35-.06.523-.09-.2-.08-.403-.13-.606-.15-2.164-.04-4.326-.067-6.485-.08h-.164l.199.05h.316-.117l-.536.08c.207 0 .432.06.631.07.199.01.476 0 .709 0a.449.449 0 00.117-.06h-.126l-.168.09zm14.332.17a.633.633 0 00-.19 0c-.952.06-1.894.16-2.858.19h-3.32c-1.25 0-2.486.09-3.732.13-.082 0-.155 0-.233.06h5.845l4.323-.34.165-.04zm-12.741.36h1.297c.285 0 .475-.12.709-.19h-.644c-.338 0-.645 0-.934.06a1.748 1.748 0 00-.428.13zm24.461-1.23l-.345.09h.864c.05.01.098.01.147 0l-.666-.09zm-10.332 3.29l.596.08.545-.09-.947-.06a.706.706 0 00-.194.07zm-1.95-2.25l.679.08.492-.07h-.722c-.151-.06-.298-.02-.45-.01zm23.964-.94h.026-1.491 1.465zm-12.24 1.99l.61.06.588-.07c-.28 0-.566-.05-.864-.05-.104 0-.217.04-.333.06zm10.455-2a.697.697 0 00-.173-.06h-5.076 5.063c.065.1.116.07.186.06zm-27.268-.35c2.162 0 4.323-.17 6.485-.19h7.808c.433 0 .843-.06 1.263-.09h-2.607 4.146-.286a.188.188 0 00-.073 0h7.38a.85.85 0 00.229 0h-4.103a.75.75 0 01-.203 0 .46.46 0 01.169 0h6.402c.346 0 .705 0 1.06.07l1.15.11c-.01-.008-.02-.008-.03 0l-.558-.2h.886a.83.83 0 00-.203-.06H189.7c-2.528 0-5.053.02-7.575.06-2.524 0-5.045.08-7.57.1h-6.122c.047.03.095.05.143.06l1.185.12h.315-.311c-.1 0-.199 0-.303.06h.178c3.83-.04 7.66-.01 11.478-.04zm11.228 1.32c.26 0 .497-.14.748-.22l-.432-.1-.705.28c.12.01.277.06.389.04zm-4.086-.15l-.493.06h3.835a.307.307 0 00.113-.07.588.588 0 00-.186 0h-3.269v.01zm6.235.18l.488-.08c-.29 0-.575-.1-.864-.13a.367.367 0 00-.165.06l.54.15zm2.166-.53h.086-.095C195.326 8 193.994 8 192.68 8h-8.526v.08l-.644.13a.537.537 0 00.134.08h3.208c.748 0 1.47-.1 2.213-.11.506 0 1.042.11 1.544.1 1.141 0 2.261-.11 3.402-.14.882-.05 1.769-.02 2.65-.02zm3.943 3.57h.021l.35-.05h-1.232l.809.23.596-.09-.484-.08-.06-.01zm26.238-.89l.432.07h.433c.073 0 .138 0 .203-.06a.992.992 0 00-.216-.06c-.286 0-.575.03-.852.05z" opacity=".4"/><path d="M235.801 5.59h-1.046 2.118a.51.51 0 00.13 0h-6.757l-11.916-.28h-10.856 4.367a.332.332 0 00-.086 0l-3.891-.08c-.152 0-.307 0-.463-.06h9.632c.083-.01.165-.03.247-.06a.921.921 0 00-.268-.07c-1.966 0-3.932-.023-5.897-.07h-7.277c-1.642 0-3.294 0-4.941-.06h-9.91c-1.33 0-2.671-.06-3.994 0-.951 0-1.868.15-2.819.17h-4.782c-1.227 0-2.42.17-3.649.19-1.227.02-2.49 0-3.735-.05a.845.845 0 00-.216.05h.047l.2.07a1.077 1.077 0 01-.312 0c-.285-.07-.584-.22-.865-.23h-5.745a.635.635 0 00-.152 0l.16.06 1.328.07-4.203-.11a.511.511 0 01-.168 0h.168l2.04.09a.767.767 0 00.265 0h-.264l-1.19-.1c-.431 0-.864-.12-1.227-.09-.549 0-1.068.19-1.6.29l-.32.06h.36c.289 0 .574-.08.864-.07.29.01.532.12.8.18a1.084 1.084 0 01-.38.16h-1.25 2.417l.7-.17c.067.01.134.037.199.08l-.32.1h.48-1.103a.188.188 0 00-.073 0h2.27l-.173.11a.548.548 0 00.181.14c.51-.08 1-.22 1.527-.24h2.91-1.678a.916.916 0 00-.281.08c.108.041.218.068.328.08l2.231.12a.287.287 0 01.09.06c.1.096.205.164.312.2h1.167c2.197 0 4.402.12 6.585.12s4.237-.09 6.351-.13l4.695-.2c.12-.011.24-.038.359-.08l-.298-.07c-.022 0-.035 0-.052-.05a.431.431 0 01.112 0h1.85l-.393.07h-.19l.216.06c.83 0 1.669.09 2.495.1h2.161a.615.615 0 01.19-.06h4.696-.19 3.674-1.028a.275.275 0 01.095 0l4.755-.06h.588-.92c.118.015.236.015.354 0h1.232-.389a1.16 1.16 0 01.316-.05l.994.05h-.32l4.648.09h.311-1.582.103c1.367 0 2.724-.12 4.099-.11 2.37 0 4.756.11 7.13.11 3.285 0 6.57-.023 9.852-.07h-.112l.493-.07h.557-.203 5.62a.62.62 0 00.143 0h-.151l-2.577-.27zm-69.537-.3l-1.799-.09 2.508.07c-.238.02-.471.02-.709.02zm6.364.13l-5.655-.16h.865c.194 0 .41.09.614.09l4.176.07h.151-.151zm1.595 0h-1.037a.463.463 0 01-.169-.08h.173l1.042-.1.329.16-.338.02zm5.383-.16h-2.075 1.094l.946-.08c.045-.01.09-.01.134 0a.27.27 0 01-.1.12v-.04zm12.758-.15l-4.02-.07h-.078a.418.418 0 01.16 0h1.448v.06h2.438a.414.414 0 01.156 0l-.104.01zm10.696-.07h1.25l-1.202.07h-1.146l1.098-.07zm-1.686.08h-6.502a.822.822 0 01-.216 0 .668.668 0 01.246 0l6.485.08h.151c-.069-.06-.112-.04-.164-.04v-.04zm3.204.31h-2.72a.542.542 0 01-.125 0 .387.387 0 01.112 0h2.893a.445.445 0 01-.16.04v-.04zm1.824 0l-.938-.07h-.303 1.933l-.692.07zm23.502 4.71a.161.161 0 00-.134 0c-.363 0-.722 0-1.08.06l-.234-.08-.35.11h.086-.432c-.015-.029-.033-.046-.052-.05h.117-4.315a.745.745 0 00-.208.05h.117-1.094.54l-.592-.06h-.864l-.346.06.432.06h-4.297.09-3.26a.34.34 0 00.1 0l1.349.08h1.496c-.034.005-.066.037-.09.09h-3.797c-1.568 0-3.137-.037-4.708-.11-.063-.01-.126.022-.182.09-1.18 0-2.352 0-3.527.08-.069-.007-.136.031-.195.11-4.323.22-8.647.09-12.944.21h-1.937 1.107c-.026.1.039.21.199.21 6.55 0 13.095-.13 19.64-.22l4.285-.05.048.22.7-.19.212-.05h3.744l.052.2.19-.07c-.104-.06-.216-.15-.32-.19h.497l.731.12.519-.08-.64-.05h1.124c.042.036.085.06.13.07h2.352a1.206 1.206 0 00-.307-.08h-1.73 2.927c.714 0 1.418 0 2.123-.12h.865c.116 0 .181-.07.199-.14.501 0 1.007-.09 1.513-.1.13 0 .194-.08.203-.15l.744-.07h.48l-.49-.05-.786.09zm-4.622 1.16h.969a1.798 1.798 0 00-.121-.18l-.848.18zm-6.744-.01l.64.14.622-.15a2.19 2.19 0 00-.488-.08c-.264.01-.519.06-.774.09zm-4.328-.03l.938.15.044-.12-.433-.14-.549.11zm26.8-8.9h-.734l.225.05h.674v-.05h-.164zm-51.279 7.79h-1.867 1.625c.053.028.103.08.147.15a1.64 1.64 0 01.095-.15z" opacity=".4"/><path d="M213.665 5.17h1.639l.22-.07h-1.072l-.787.07zM240.674 2a.33.33 0 00.138 0c-.056 0-.117-.05-.169-.05l-2.676.1a.22.22 0 00-.12 0h2.239l.588-.05zm-2.785.38c-.199 0-.389.06-.579.09l.67.1 1.133-.15h-1.224v-.04zm-35.758 6.88h1.6c.203 0 .397-.06.596-.09h-2.105a.377.377 0 00-.091.09zm-8.578 1.99c-.138 0-.272 0-.406.06l.432.09.467-.1c-.169-.02-.333-.05-.493-.05zm1.812.35h-2.97a.439.439 0 00-.16 0 .71.71 0 00.19.05h3.58c.01.028.018.058.025.09h.71-.052c-.441-.03-.891-.13-1.323-.14zm-2.836-.3a.808.808 0 00-.2-.05h-.691l.432.07.433-.06.026.04zm19.36-.09l.549.14.48-.1-.908-.09a.287.287 0 00-.121.05zm-11.855-.05l1.09.08a.35.35 0 00.146 0l-.64-.11-.596.03zm7.03.09l.864.08a.416.416 0 00.139-.06l-.753-.14-.25.12zm-3-.11a.05.05 0 00-.053 0l-.864.15h.225c.309.057.62.057.93 0 .263-.2-.265-.01-.239-.15zm5.853.1c.208 0 .432.08.623.09a.49.49 0 00.233-.08l-.402-.09-.454.08zm-3.969.32h-.713l.752.12.774-.11-.813-.01zm-78.145-9.21l-1.033.09h1.042v-.1l-.009.01zm18.504 5.76h.973-.043c-.273 0-.54-.1-.804-.13s-.515 0-.774 0h-.208v.06l.247-.04h.294a.287.287 0 01-.121.05h-1.03 1.142l.324.06zm16.13-.2h-.7 1.799l-.458.09a2.055 2.055 0 00-.64-.09zm-5.43.14h.731a.136.136 0 00.065-.05h-1.833.432c.195 0 .402.05.606.05zm5.258.07h-.195.2l1.478.09h1.5-.151l-2.832-.09zm-13.506-.39h-1.008a.45.45 0 00-.103 0l.748.08.363-.08zm-6.26 2.85l3.12-.12h.027a.432.432 0 00-.16-.08l-3.026.11a.333.333 0 00-.135.06l.173.03zm1.72-2.64h-1.643l-.28.08h1.776c.05-.014.1-.04.147-.08zm3.113-.02h2.581-2.412a.443.443 0 00-.169 0zm13.173 0c-.199 0-.393 0-.588.06h.722l.623.02c-.25 0-.506-.08-.757-.08zm-7.747-.1h.981l-.432-.07h-.865c.105.038.21.061.316.07zm-18.496-2.24c.078 0 .139-.06.217-.06h1.746-.298 1.163a.156.156 0 01.09 0h6.002l3.329-.08h.168-3.216l1.124.08h1.055l-1.02.05h-.533.632-5.474 1.05c2.556 0 5.111.06 7.658.06 1.798 0 3.584-.06 5.378-.1h.471l-.506-.05h-.207c.069-.01.138-.01.207 0 .337 0 .675.11 1.012.13h2.162a.922.922 0 00.389-.19h-5.984l.61.06h.25a.593.593 0 01-.229 0c-.864-.06-1.768-.15-2.646-.18h-2.226a.913.913 0 01-.234 0h9.291c.502 0 .964-.18 1.44-.28a.14.14 0 00-.043-.06c-.208-.1-.433-.21-.636-.27-.622-.16-1.254-.33-1.876-.41a9.683 9.683 0 00-1.946-.06c-.562 0-1.067.27-1.634.3-.432 0-.9-.17-1.344-.2-.865-.06-1.73-.13-2.594-.09-2.05.08-4.077.24-6.127.33h-3.026a.716.716 0 00-.303.13c.095 0 .195.06.29.07l6.247.09h.316-.303l-6.805-.07a.45.45 0 01-.155 0 1.875 1.875 0 00-.463-.13c-.26 0-.48.15-.74.16-2.221.07-4.448.12-6.675.18a.875.875 0 00-.216.08h4.903l-.182.08c.165.44.307.45.441.43zM153.42 5h.865-1.695.83zm-.592.51h1.258-1.708c.147.05.299.03.45.03v-.03zm-3.459-.07a.45.45 0 01.156 0l-.25.06h-.822l.916-.06zm-4.103-.39h1.708l-.29.05h-2.07c.22-.01.428-.04.652-.05zm-19.956-4v.08h1.37l-.082-.05-1.288-.03zm80.12 8.25l.692-.08-1.193-.07h-.164l.665.15zm-68.231-2.36h8.69c1.357 0 2.698-.09 4.06-.08 1.361.01 2.745.08 4.12.13h.06-.484 1.232c1.682 0 3.407 0 5.085.06h3.471-.726c-1.73-.07-3.459-.17-5.188-.21H145.01l-7.803-.08a1.995 1.995 0 01-.502.15h-2.395a.788.788 0 00-.22 0h.25c.956.09 1.902.03 2.858.03zm23.476 3.89l.709-.05a1.589 1.589 0 00-.51-.16c-.329 0-.64.09-.96.14l.76.07zm1.375.05l.519-.08a1.643 1.643 0 00-.368-.06c-.182 0-.354 0-.527.07l.376.07zm3.562-2.42a.912.912 0 00-.255-.09l-4.41-.1a.344.344 0 00-.155.14c.07.026.14.043.211.05h4.363c.095.04.168.01.246 0zm-2.481 2.37l.938.05.726-.06h-1.366c-.104-.04-.203-.01-.298.01zm-6.862-3.28l-.406-.09-.454.09c.22 0 .432.06.657.07a.498.498 0 00.203-.07zm58.09.52c.054.01.109.01.164 0h2.243c.04 0 .052-.06.078-.09H214.5a.941.941 0 00-.143.09zm3.726.04a.755.755 0 00.203.05h2.94-2.983c-.056-.09-.108-.06-.16-.05zM226.333 7h-.177c-1.155 0-2.318-.06-3.459-.06h-12.149 15.65a.488.488 0 00.135.06zm-8.029-1h-.047c-1.323 0-2.65-.06-3.973-.07-.048 0-.082.08-.126.12h3.978l.168-.05zm-4.608 2c-2.923 0-5.85-.11-8.76-.1-1.69 0-3.35.12-5.023.19h-.61c.2 0 .407.06.601.06h9.11v-.06h4.6a1.66 1.66 0 00.384-.08c-.108-.01-.207-.01-.302-.01zm-73.238 2.54h.199l1.336-.07.082-.06a1.273 1.273 0 00-.312-.09h-1.145a.532.532 0 00-.16.22zm72.191-1.24h.645-1.068l-.363.05.523.05h.276l-.013-.1zm.714-3.36h.558l-.735-.07-.623.13h.8v-.06zm.268 4.25l-.73-.19-.541.12 1.184.13c.03.02.057-.03.087-.06zm-2.071-.93h-3.307v-.07l-1.055.05h-.113 4.376a.376.376 0 00.116 0l-.017.02zm-71.803 1.18c-.838 0-1.673 0-2.507.09-.225 0-.432.06-.657.09h3.087a.586.586 0 00.16-.13s-.061-.05-.083-.05zm-.665.33h-1.41l-.748.05h.67c.178 0 .364.07.523.05.33.02.653-.04.965-.1zm8.586-.05l2.737-.06s-.022.05-.04.06h2.279c2.192 0 4.393.08 6.585.11a.887.887 0 00.268-.07l-.303-.05-4.933-.1h-.493.752-.276c-.376 0-.74.13-1.12.12-.813 0-1.639-.13-2.451-.15h-3.399v-.06h-.614c-.255 0-.501.07-.752.1h.778c.108 0 .22 0 .333.07a.534.534 0 01-.181 0l-6.39.1h-.242a.839.839 0 00.263.06l4.756-.06h2.469l-.026-.07zm-7.968-2.16l.605-.05h-1.319l.714.05zm70.782 1.49h-.674c-.113 0-.212 0-.32.08h1.785a.427.427 0 00.186-.07h-.92l-.057-.01zm-33.506-3.31c.826 0 1.664.08 2.477 0 2.3-.08 4.592-.21 6.887-.31a.528.528 0 01.178 0h-.048l-.164.07h9.165c2.162 0 4.324.08 6.485.09 2.054 0 4.099-.05 6.148-.08.917 0 1.83-.06 2.75-.06h10.112-3.104c-1.353 0-2.71-.09-4.06-.1h-3.558c-.665 0-1.34 0-2.01-.06a.267.267 0 00-.086 0h.255-.165l-2.918-.13h-2.006.575-.177c-1.963 0-3.922.12-5.889.16-.627 0-1.27 0-1.906-.07-1.578 0-3.165-.11-4.756-.13h-5.439c-.648 0-1.297 0-1.924.08a.25.25 0 00-.09 0h.086l.722.05h-.744c-.432 0-.864.05-1.297 0-.432-.05-.864-.11-1.275-.09-1.003 0-1.993.13-2.992.19h-.752.743c.085.01.17.01.256 0h-1.782c-1.042 0-2.08.12-3.121.17h-.454a.4.4 0 00-.177-.1h-.904a.34.34 0 00-.1 0h.32-1.24l-.748-.06h.717c.087.01.173.01.26 0h-.13l-4.323.14a.222.222 0 00-.117 0h.13c1.137.05 2.274.11 3.402.13 2.253.09 4.518.09 6.788.11zM164.768 8h-.752a.563.563 0 00-.16 0c.054.026.109.043.164.05h2.34a.436.436 0 00.09-.05h-1.682z" opacity=".4"/><path d="M245.935 8.21c.048-.31-.432-.53-.277-.83.035-.07.126-.13.117-.2-.008-.07-.104-.27-.104-.4s-.63-.41-.549-.57c.127-.207.26-.39.398-.55h-.104l-.363-.29.324-.14h.147a.306.306 0 01-.069-.05 3.988 3.988 0 01-.03-.38v-.3c0-.1-.074-.24-.065-.34 0-.25.07-.5.095-.74.026-.24 0-.35.043-.52.044-.17.195-.39.186-.6.014-.473-.053-.94-.186-1.3-.19-.47.057-.29-.263-.74a.63.63 0 00-.433-.06c-.964.1-2.546-.2-3.558-.2-1.573.15-3.19.17-4.79.24-.09 0-.16.11-.246.1-.472 0-.952-.08-1.423-.09L227.41.22c-3.199-.03-6.407-.08-9.597-.06-4.964 0-9.914.15-14.877.2h-6.295c-5.352-.07-10.713-.15-16.053-.14-6.537 0-13.052.11-19.58.14h-9.667c-2.357 0-3.39-.12-5.75-.13-.065 0-1.453.08-1.522.06h-1.15L140.67.1c-3.33 0-3.891.18-7.26.14-3.709-.05-8.032-.36-11.746-.19-.09 0-.18.024-.268.07-.013.008-.025.026-.035.05h-.332c-1.574.15-3.191.17-4.79.25-.087 0-.156.1-.243.09-.471 0-.955-.08-1.422-.09L107.22.36c-3.204 0-6.416-.08-9.607 0C92.65.36 87.7.5 82.741.55h-6.3C71.09.43 65.716.35 60.394.36c-6.537 0-13.052.11-19.585.14-3.195.02-6.441-.03-9.68-.05-2.36 0-3.394-.12-5.75-.13-.065 0-1.457.08-1.526.06h-1.15l-2.23-.14c-3.33 0-3.892.18-7.255.14C9.485.34 5.188 0 1.47.2a.485.485 0 00-.272.06c-.042.026-.076.097-.091.19A10.078 10.078 0 00.8 2.29c.108.28.58.36.817.6.022.027.04.065.056.11 0 .08-.865.29-.999.45-.19.152-.296.621-.242 1.07.052.42.277.82.286 1.25.006.253.006.507 0 .76.017.59-.178 1.76-.19 2.35 0 .25.108.17.8.33 0 .23-.779.11-.749.47.03.36.217.77.242 1 .048.46.104.91.143 1.19.039.28.216.69.277.69 2.4.1 4.704 0 7.094 0 3.818 0 5.357.27 9.166.29.834 0 3.926-.26 4.756-.26 6.45 0 6.26.16 12.715.2h11.197c.108 0 3.602.07 3.705.06-.108 0-.864-.19-.964-.19l-.864-.05h-.22c.068 0-2.392-.31-2.322-.31 1.794.07 6.121.48 7.907.5 3.744 0 4.544-.16 8.284-.16.025.13 2.408-.15 2.438 0h7.76-1.024 2.42c3.67 0 7.339-.02 11.008-.06h17.224c1.76 0 3.511-.05 5.275 0 1.18 0 2.386.1 3.567.09 1.59 0 3.169-.06 4.755-.1h.8l-.778-.06a.541.541 0 01-.181 0l-.342-.11a.578.578 0 01.216-.15c.48-.06.96-.13 1.453-.13.359 0 .687.37 1.202.34-.368 0-.735.05-1.103.1 1.198.19 2.68 0 3.891 0l3.027-.06h.73c1.488 0 2.966-.05 4.48 0 2.42 0 3.925.13 5.672.2 1.007 0 2.096.08 3.489.09.324 0 .99 0 1.729-.09 1.167-.07 2.525-.17 3.026-.17 5.366 0 6.14.12 9.944.17h13.947c.108 0 3.602.07 3.71.06l-.433-.09c-.229-.05-.47-.1-.531-.1h-1.06c.065 0-2.39-.31-2.321-.31 1.556.06 5.02.38 7.073.47h3.713c1.674-.05 2.858-.13 5.4-.13.03.13 2.409-.15 2.439 0h7.765-1.02 30.665c1.76 0 3.51-.05 5.274 0 1.18 0 2.387.09 3.567.09 1.591 0 3.17-.06 4.756-.1h.8l-.783-.06a.564.564 0 01-.181 0l-.338-.11a.483.483 0 01.217-.15c.475-.06.955-.13 1.452-.13.36 0 .683.37 1.198.34-.368 0-.73.05-1.098.1 1.193.19 2.68 0 3.89-.05h.688l3.027-.07c.142 0 .276 0 .432-.06-.151 0-.311-.07-.458-.06l-2.975.09-2.002.07a1 1 0 01-.285-.06v-.06c.346-.09.687-.2 1.042-.26.153-.024.306-.024.458 0-.142 0-.294 0-.432.06a.69.69 0 00-.225.16h1.418l3.165-.1h.277s-.03-.11-.052-.11h-.562v-.08a2.17 2.17 0 00.523-.23c.254-.235.497-.526.726-.87.143-.24.134-.54.26-.78.125-.24.432-.44.475-.69.082-.48-.095-.91-.039-1.27zM6.485 1.26H4.453c-.056 0-.121 0-.186-.05a.087.087 0 01.056-.03H6.42l.078.05-.013.03zm.38 1.34h-.293l1.033-.09v.1l-.74-.01zm228.512 1.28h-6.217c-.103 0-.22 0-.328-.07h6.779-.238l.004.07zM223.164 5h-1.552a.553.553 0 01-.199-.14.4.4 0 01.143-.06l3.026.12a.439.439 0 01.112 0 .431.431 0 01-.112 0h-1.427s.005.02.009.08zm-21.016-1.18h-11.824c-.065 0-.121 0-.186.06.076.03.152.05.229.06h2.417l-.147.07h-1.168 3.9c.046.01.092.01.138 0h-1.275a1.215 1.215 0 01-.25-.08.883.883 0 01.228 0l2.067.18h.125a.293.293 0 01-.134 0l-3.48.06h-.182.195l1.677.1c.173 0 .35.09.528.13h-.567l-4.526-.13c-.085.01-.17.01-.255 0l.199-.08.229-.08h-1.578 1.89c.086 0 .185.16.267.16.136-.01.272-.038.407-.08.025 0 .03 0 .043-.08L190.76 4h-1.448l-2.21-.12h-.133.142l.38.07h-.362c-.727.07-1.44.2-2.184.19-1.085 0-2.187-.15-3.281-.2h-2.421a.496.496 0 00-.22.1h.28l1.09.14h.03-.073c-.342 0-.688-.06-1.02 0-.658 0-1.298.07-1.96.11h-.19.251-.575 1.47a.765.765 0 00.281-.1 1.12 1.12 0 00-.337-.09c-.432 0-.865.07-1.297.06-.432-.01-.968-.16-1.444-.25h-.048.048l1.163-.05-1.163-.06h-1.47l.242.08c-.04.03-.08.05-.12.06h-2.66a.334.334 0 01-.138 0 .562.562 0 01.134 0h1.202l-1.254-.06h-.156a.562.562 0 01.134 0l5.253.05h5.188c.796 0 1.574-.1 2.374-.11h5.59l4.457-.06h.173-.518 6.117a.89.89 0 00.23 0h-.684v-.07h.528l2.736-.05h.204-.424c.086 0 .168.06.246.06h.575c.489 0 .986.1 1.47.11h11.172l-.303-.06h-1.349 4.488l.385.07a.137.137 0 01-.078.05H216.6a.546.546 0 00-.134 0h3.852c-.095 0-.186.05-.29.05h-8.158c-3.225-.14-6.472-.1-9.723-.1zm8.478.65h-.795c.138 0 .276-.05.432-.06.156-.01.225 0 .337 0a.316.316 0 00.026.06zm-4.19-.38h-.432l-.35-.09h1.609c.13 0 .268 0 .402.06-.113 0-.22.06-.338.07l-.89-.04zm-3.116.37h-2.266a.292.292 0 01.134-.07h3.355c.04-.01.081-.01.121 0a.347.347 0 01-.1 0h-1.249l.005.07zm-.554-.4a.18.18 0 01.104-.07h.99c.169 0 .342 0 .51.07l-.389.05h-1.08a.398.398 0 01-.135-.05zm-3.126 0a.32.32 0 000 .06h-2.792c.034-.06.06-.17.112-.17h3.705c.082-.01.164-.01.247 0a.637.637 0 01-.204 0c-.346.11-.709.13-1.063.13l-.005-.02zm.926.39c-.091 0-.178 0-.268.06h-4.778a.954.954 0 01-.233 0h4.976l.303-.06zm-14.79-.21h.41c-.125 0-.246.07-.38.08-.134.01-.303 0-.68 0l-2.922.12h-.164a.256.256 0 01.125 0l3.61-.2zm-5.924.28a.534.534 0 01-.125 0h-5.032 5.023c.048-.04.095-.01.134 0zm-13.195-3.43h1.297c.182 0 .372 0 .554.06l-.519.06-1.332-.12zm.225 1.31c-.095 0-.186.05-.285.05h-1.933l-.41-.06c.134-.05.263-.13.402-.17h1.898c.111.037.221.097.328.18zm1.916-1.68l-.381-.08h3.554a.643.643 0 01.186.05.418.418 0 01-.182.12h-2.477a.4.4 0 00-.143.06c.05.031.1.054.152.07h1.76-3.075a.754.754 0 01-.199-.06l.186-.06h.83a.144.144 0 00.07 0 1.14 1.14 0 00-.281-.1zm5.59.06l-1.708-.1a.312.312 0 01-.121-.05l.104-.05h2.81a.45.45 0 01.125.07.57.57 0 01-.199.11c-.246.03-.501.02-1.011.02zm.916.38h-2.486 1.842c.208-.04.437-.02.644 0zm-2.55-.2c-.156 0-.308.11-.472.12a1.593 1.593 0 01-.406-.1l.367-.08.51.06zm-.952.16l-.752.07-1.418-.09h1.634c.173-.02.372.01.536.02zm-4.457 1.17l2.481-.07a.159.159 0 01.104 0h.796c.07-.074.149-.095.225-.06h1.625c.099.015.197.045.294.09h.649l-.299-.09h-.19a.485.485 0 01.169 0h1.115c.303 0 .61.17.912.26l-.67.07v.07h-.726c-.058.065-.122.1-.186.1-1.25 0-2.495-.11-3.744-.09h-.108l-2.36-.06a.796.796 0 01-.225-.09l.138-.13zm2.529.92H185.2h-.29l-11.729.07h-3.307a.274.274 0 01-.125 0l.125-.07zM181.629.75h-.51.575c.169 0 .307.09.432.1h.865-.199 10.644c3.027 0 6.053.13 9.08.2l3.986.07h.173a.394.394 0 01-.152 0h-13.07a1.003 1.003 0 00-.198-.12h.432l.368.05-.247.05h-.899l-.692-.05h.744a.784.784 0 00-.203-.06h-6.77L179.74 1a.734.734 0 01-.23-.07l.182-.05h1.877c.05.01.1.01.151 0a.93.93 0 00-.09-.13zm16.1 1.74c-.164 0-.341-.08-.51-.11.087 0 .165-.11.26-.15.095-.04.117 0 .177 0 .045.006.09.006.134 0l-.32-.11-.432-.07.432-.09.03.11 3.87.18c.25 0 .506.07.756.11-.294 0-.579.08-.864.09l-3.532.04zm3.334.18l-.623.06-.657-.07.995-.05c.09 0 .19.04.285.06zm-5.551-.28h.082-.765v-.07h-3.533l.463-.09h.026-1.466s0 .08.04.08l.172.05h-2.594c-.298 0-.592 0-.89-.08-.109 0-.217-.08-.33-.12l.386-.06h.298l-.268-.08-.156-.02h.156c1.444 0 2.884-.05 4.323 0 .601 0 1.237.23 1.842.26.335-.036.669-.123.999-.26.066.007.13.03.194.07a.268.268 0 01-.086.09l-.285.08h.35c.722-.06 1.435-.13 2.161-.15.152.084.298.22.433.4a.7.7 0 01-.29 0l-1.198-.18a.846.846 0 00-.224 0l.16.08zm-3.744.42l-1.488-.08h-.268v.06h.255l.84.06h-.796l-4.972.15h-.19 4.392a.49.49 0 00.23-.08s0-.07-.035-.08l-.433-.09h1.263l2.135.22a.06.06 0 01.057 0 .586.586 0 01-.242.13h-.882l.432-.07c-.108-.2-.195-.22-.298-.22zm-8.357-.56a.706.706 0 00-.277.08l.272.07h-.618c-.242 0-.73-.16-1.189-.17-.553 0-1.08.09-1.621.14h-.312a.6.6 0 01.286-.23c.696 0 1.405 0 2.101-.07s1.297-.09 1.933-.15c.177 0 .332-.14.501-.12.156.053.31.14.458.26l-.458.1a.775.775 0 00-.143.07c.06.04.12.064.182.07l.791-.17h.19c.03.084.053.179.07.28 0 0-.078.07-.126.07h-1.535.13a1.103 1.103 0 00-.635-.23zm-2.305-.47c.138 0 .273-.09.432-.09.16 0 .316.07.476.1l-.333.05-.575-.06zm4.8.56c.129 0 .25-.1.393-.12.072.024.145.057.216.1l-.247.14-.363-.12zm10.929 1l.717.1a.41.41 0 01-.164 0l-.977-.04.424-.06zm-14.916-.44c.143 0 .303 0 .458.07l-.432.07v.07h-4c.07 0 .14 0 .213-.06 1.232-.05 2.49-.15 3.744-.18l.017.03zm-2.931-.55c-.433-.05-.865-.17-1.297-.27h-.195l.57-.1c.03.01.059.01.087 0h.342l.1.08.133.08.74.07a.898.898 0 01-.48.14zm-.515-1.26l-.432-.1c.186 0 .363-.08.558-.09a.92.92 0 01.307.07l-.433.12zm-1.859-.27l-.653-.16h2.127l-1.474.16zm.433 2.09c.138 0 .29.08.432.11l-.432.07-.537-.09c.178 0 .355-.09.537-.09zm-.835-.76c.13-.06.26-.13.398-.18l.147.11v.32l-.545-.25zm.835.07c.025 0 .038-.1.082-.11h.307v.09c0 .03-.048.16-.074.15a1.23 1.23 0 01-.315-.13zm1.988 1.27l-.691.09-.779-.07 1.124-.08c.116.006.232.026.346.06zm-6.295.93h1.453c-.203 0-.402.07-.61.07h-2.044c-.087 0-.182 0-.269-.06.084-.01.168-.01.251 0h1.21l.01-.01zm-.272-.31a.643.643 0 01.186-.05h1.141l-.497.09-.83-.04zm32.075-.67h5.378c.268 0 .545 0 .822.06a.255.255 0 01.073 0l-.484.07v-.08h-5.599a.676.676 0 01-.19-.05zm13.86 1.75a.79.79 0 01.217 0h1.652-1.872.004zm1.73-.28h-.363l-.29-.14.973.07c-.117.03-.22.06-.328.07h.008zm-.648-2.26c-.467 0-.865-.14-1.323-.17-.458-.03-.865 0-1.276 0H203.67a4.204 4.204 0 01-1.297-.13c.231-.178.474-.262.718-.25.95-.11 1.936-.05 2.93 0h-.112c.169 0 .338-.05.515-.06a.565.565 0 01.216 0l-.23.06h.887l-.268-.11a.505.505 0 01.203-.06l.433.12-.134.06h1.037c2.162-.14 4.324-.19 6.485-.19 1.686 0 3.373.03 5.059.09l-.346.14c.938.29 1.73-.24 2.628-.07 1.077.2 2.318.08 3.42.09h1.954c.614 0 1.202-.1 1.816 0l-.177-.15c.534.232 1.079.31 1.621.23a3.425 3.425 0 011.838-.13c.501.11.99.27 1.508.31-1.201 0-2.403.08-3.6.09h-4.052c-2.421.08-4.83.13-7.246.13h.009zm-11.06-2l.614-.07.472.09h-.489l-.596-.02zm7.117.15l-.696-.04h5.253a.805.805 0 01.203.05c-.033.058-.072.096-.113.11-.57 0-1.145.08-1.729.08h-.13c-.237 0-.48-.06-.717-.07a1.52 1.52 0 00-.372 0h.169-3.178a.554.554 0 01-.164-.05.296.296 0 01.142-.07h1.479l-.147-.01zm5.222 0c-.064 0-.13 0-.194-.06h3.748c.156 0 .325.09.48.09.156 0 .346-.07.523-.07h3.97a.28.28 0 01.077 0 .46.46 0 01-.169 0h-2.131a.67.67 0 00-.19.05h6.684c-.316.19-.627.19-.964.19-2.197 0-4.389.06-6.59.06h-2.027.264a.416.416 0 00-.152 0h-2.183.164-1.681l.363-.08h.203-.19l-.005-.18zm13.044 1.05l.519-.07h1.504c.078 0 .165.06.247.08a.525.525 0 01-.199.08h-2.093l.022-.09zm-9.17 2c-.398 0-.8 0-1.197-.05-.13 0-.264 0-.398-.06h5.581a.468.468 0 01-.19.07l-3.796.04zm1.094 1h6.533-6.516a1.027 1.027 0 01-.229-.06c.07.05.134.03.203.03l.009.03zm9.46-2.29h-.485a1.35 1.35 0 01.117-.22s.143.08.212.08h1.915s.03.08.022.08l-.299.07-1.482-.01zm1.69-.72l.38-.07h1.09c-.19.05-.372.13-.57.15-.2.02-.49 0-.74 0a.643.643 0 01-.164-.08h.004zm-73.545.59l-.458-.05c.229 0 .458-.1.692-.12.021 0 .095.11.147.17h-.38zm-2.218 4h.19-3.216a.897.897 0 01-.212-.06.564.564 0 01.186 0h3.052v.06zm-16.502.09h-3.368 5.02l5.58-.06c.736 0 1.458-.1 2.197-.08 1.15 0 2.34.1 3.493.15a.332.332 0 01.087 0 .709.709 0 01-.199.06h-6.861l-5.97-.07h.02zm12.032-4.15h-.104c.134-.076.27-.126.406-.15l2.11.15a.188.188 0 01.074 0l-.467.02v-.06l-2.02.04zm.186-.37c.118-.05.238-.08.359-.09.173 0 .354.06.536.09h-.895zm-1.76.25c-.363 0-.713 0-1.076.06h-2.102c-.28 0-.527.16-.804.15a2.297 2.297 0 01-.635-.2l-1.047.22a.158.158 0 01-.095 0l-.592-.11h-2.72l-.466.09.056-.09h-.761l-.151.08-.433-.09h-.345c-.066.006-.13-.032-.186-.11-.03 0-.026-.12 0-.16h-.152c-.134 0-.272 0-.41-.07.141-.083.286-.137.432-.16.341 0 .687.06 1.033.08h.311l-.069.06h.402l2.262-.17c.058.01.116.034.172.07a.332.332 0 01-.147.1c-.112 0-.237 0-.41.07h1.612c.058-.007.116.017.169.07h.942l-.518-.15a.308.308 0 01.138-.08h1.418l-.916.2h6.078a.71.71 0 01.19.05.278.278 0 01-.116.09c-.36-.01-.718-.05-1.068-.04l.004.04zm.865.24a.392.392 0 01-.156 0h-.787l.532-.12.41.12zm-1.466.22h-.622l-.307-.1.93.1zm-1.587 1.56h-.194l-2.01-.08c-.109 0-.225 0-.333-.06l.298-.06.035.08 1.859-.13a.988.988 0 01.315.14c.022 0 .04.07.03.07v.04zm-4.85-2.35c.026 0 .043-.1.06-.09.329 0 .653.06.982.1a.428.428 0 01-.147.1c-.247-.03-.498-.03-.895-.11zm3.121 0a.382.382 0 01.169-.08l1.15-.05.58.1c-.229 0-.458.02-.688.06h-1.003a.537.537 0 01-.208-.03zm2.162 0c.065 0 .12-.06.194-.07.074-.01.169 0 .377 0l.246.1-.817-.03zm2.801.05h-1.297a1.246 1.246 0 01-.397-.19h1.491c.138.028.275.075.41.14l-.207.05zm-14.89.27h1.043a.333.333 0 01.108.06l-.329.14-.104-.14a5.93 5.93 0 01-.514.24.139.139 0 01-.108 0 .823.823 0 01-.208-.17s.056-.11.104-.11l.009-.02zm-.069-.11c.048-.09.052-.14.083-.15l.795-.15a.627.627 0 01-.22.26c-.134.07-.316.04-.666.06l.008-.02zm1.125-.13a.386.386 0 01.19-.07c.125 0 .255.07.38.11l-.26.08-.31-.12zm-1.488.28l-.186.1h-1.189c.03-.04.062-.063.096-.07l1.176-.1c.026.04.069.08.103.09v-.02zm-3.169-.08h-1.932a.09.09 0 01.069 0c.744 0 1.487-.07 2.235-.08.108.026.215.07.32.13h-.7s.004-.05.008-.03V2.2zm-.506.34h-2.161c-.087 0-.177 0-.268-.05.147 0 .29-.1.432-.11.705 0 1.418-.06 2.127-.08.078 0 .164 0 .247.05 0 0 0 .07-.03.07l-.385.1.038.02zm-5.339 2.69H130.7a.666.666 0 01.233-.07h3.32a.332.332 0 01-.146 0h-2.33a.29.29 0 00.008.07zm-1.43-2.88c.176 0 .345-.07.527-.08.181-.01.358 0 .536 0l-.346.06-.718.02zm1.261-.09a.275.275 0 01.096 0l1.374-.11h.939a.392.392 0 01.09 0c-.031.041-.067.065-.103.07h-2.274a.257.257 0 01-.122.04zm-10.177.25l-.644.06h-.735.74l.64-.06zm-.817-.38a.358.358 0 01-.138.05h-2.836a.222.222 0 01.116 0l2.677-.1c.06 0 .12.04.181.05zm-1.703.43l-1.133.15-.67-.1c.194 0 .38-.08.58-.09.401 0 .808.02 1.218.04h.005zm-1.85-.65h1.089c-.19.06-.372.13-.575.15-.203.02-.489 0-.735 0a.558.558 0 01-.16-.07l.38-.08zm-.744.63h.432s.03.08.026.08l-.303.07h-1.962c.036-.08.075-.154.116-.22.07.038.14.065.212.08l1.479-.01zM115.179 4h-6.23c-.104 0-.216 0-.324-.07h6.775-.238l.017.07zm-12.214 1.09h-1.547a.563.563 0 01-.203-.14.262.262 0 01.142-.05l3.027.12h.108a.431.431 0 01-.113 0h-1.426l.012.07zM104.431 4h-1.197c-.13 0-.264 0-.394-.06h5.573a.468.468 0 01-.19.07L104.43 4zm1.098 1h6.533-6.74a.7.7 0 01.207 0zm8.612-3h1.51a.85.85 0 01.241.08.685.685 0 01-.199.07h-2.092l.54-.15zm-13.58-1c-.068 0-.129 0-.194-.06h3.749c.15 0 .324.09.48.09.155 0 .34-.07.523-.07h3.968a.255.255 0 01.074 0 .46.46 0 01-.169 0l-2.118.04a.661.661 0 00-.195.05h6.684l-.955.13c-2.192 0-4.384.05-6.59.05-1.413 0-2.84-.07-4.262-.1h-1.392l.363-.08.208-.05h-.186.013zm-6.558 0h1.474-.83 5.258a.805.805 0 01.203.05c-.04 0-.065.11-.117.11-.57 0-1.146.09-1.73.09l-4.245-.05a1.357 1.357 0 01-.156-.2.263.263 0 01.143-.06V1zM88.815.79l.476.09h-.493L88.223.8l.592-.01zm-1.794 1.44c.143 0 .285.08.432.12l-.134.06h1.033c2.162-.14 4.324-.19 6.486-.19 1.686 0 3.372.03 5.058.09l-.342.14c.934.29 1.73-.24 2.625-.07 1.076.2 2.317.09 3.42.1h1.954c.614 0 1.201-.1 1.815 0l-.177-.15a2.866 2.866 0 001.626.23 3.423 3.423 0 011.837-.13c.497.12.99.27 1.505.31-1.198 0-2.4.08-3.602.09H99.265c-.472 0-.865-.14-1.328-.17-.462-.03-.864 0-1.27 0H83.444a4.217 4.217 0 01-1.297-.13c.234-.174.477-.258.722-.25.947-.11 1.937 0 2.927 0h-.112c.173 0 .342 0 .514-.06a.565.565 0 01.217 0l-.23.06h.887l-.268-.11a.497.497 0 01.233 0l-.017.06zM81.954 4H70.129c-.069 0-.125 0-.185.06.074.03.149.05.224.06h2.249a.536.536 0 01.172 0l-.15.06H71.27h3.9a.386.386 0 00.138-.05h-1.276a.894.894 0 01-.25-.08.891.891 0 01.233 0l2.062.18h.13a.33.33 0 01-.138 0l-3.459.06h-.177.194c.558 0 1.116.06 1.674.11.172 0 .354.08.527.13h-.566l-4.527-.14h-.255l.199-.08.233-.08h-1.578c.234 0 .467-.05.705-.05h1.185c.082 0 .185.16.263.16.136-.01.272-.037.407-.08.026 0 .03 0 .043-.08h-.355L69.14 4.1 66.91 4h-.134.138l.38.07c-.116 0-.237 0-.359.06-.73.06-1.444.19-2.187.18-1.081 0-2.188-.14-3.277-.19h-2.426a.517.517 0 00-.22.1h.285l1.085.14h.03-.073c-.341 0-.683-.06-1.016-.05-.657 0-1.297.07-1.963.11h-.19l.16-.05a.275.275 0 00.095 0h-.58 1.47a.785.785 0 00.286-.1c-.117 0-.238-.09-.337-.09-.432 0-.865.07-1.297.07-.432 0-.973-.08-1.461-.12h-.044.065L56.511 4h-2.65l.242.08a.31.31 0 01-.121.06h-2.66a.362.362 0 01-.138 0h1.336l-1.25-.06h-.155H61.69c.8 0 1.578-.1 2.374-.11h5.59l4.457-.06h.173-.519 6.347-.683v-.07h3.463-.42c.083 0 .17.06.247.06h.57c.49 0 .987.11 1.47.11h7.303l3.61.05c.09 0 .173 0 .264-.05l-.307-.06h-1.35l1.194-.05h3.299c.13 0 .255.05.385.06a.082.082 0 01-.074 0h-2.672a.546.546 0 00-.134 0h3.848c-.095 0-.186.05-.285.05H91.68c-3.233-.09-6.48-.01-9.727-.01zm8.474.66h-.796c.143 0 .281-.06.433-.07h.337a.287.287 0 01.026.03v.04zm-4.19-.39h-.432l-.355-.06h1.609a.94.94 0 01.398.06c-.113 0-.217.06-.338.07l-.882-.07zm-3.104.41H80.87a.333.333 0 01.134-.06h3.471a.151.151 0 01-.099 0H83.13v.02l.004.04zm-.558-.48a.292.292 0 01.104-.07h.99c.169 0 .342 0 .515.07h-1.47a.362.362 0 01-.139 0zm-3.125 0v.06h-2.798c.04-.06.065-.17.117-.17h3.952a.704.704 0 01-.203 0c-.35.11-.714.13-1.073.13l.005-.02zm.925.4h-5.05a.919.919 0 01-.233 0h4.976c.108-.02.207.01.303.02l.004-.02zm-14.38-.19c-.125 0-.25.07-.384.09-.134.02-.303 0-.68 0l-2.918.12h-.168a.51.51 0 01.13 0l3.61-.2c.13-.05.268-.01.406.01l.004-.02zm-6.333.25a.45.45 0 01-.121 0h-4.873a.51.51 0 01-.173 0h5.167zm-10.04-2.3a.168.168 0 01.104 0h.796c.07-.073.149-.094.225-.06l.255.05h1.379l.294.09h.644l-.298-.09h-.19a.485.485 0 01.173 0h1.11c.372 0 .61.17.917.26l-.674.07v.07h-.73c-.058.064-.12.098-.182.1-1.254 0-2.495-.11-3.744-.09h-.113l-2.356-.06a.818.818 0 01-.23-.09l.113-.07 2.508-.18zm-.19-1.12H51.6l-.747.07-1.419-.07zm3.182.05h2.486-2.356a.465.465 0 01-.125 0h-.005zm-2.94 2.06h15.331c-.1 0-.194.05-.294.05l-11.729.07h-3.307c-.04.01-.081.01-.121 0l.12-.12zm7.61-.18l-.433.07-.531-.11c.177 0 .35-.08.531-.08.182 0 .29.08.433.12zm-.433-.81c.03 0 .044-.1.083-.11h.306v.09c0 .03-.047.16-.069.16-.103-.06-.22-.1-.324-.14h.004zm-.83-.07c.13-.06.255-.13.394-.18l.151.11v.32l-.545-.25zm5.681.71c.143 0 .307.05.458.07l-.432.07v.07h-3.995c.07 0 .134 0 .208-.06L61.703 3zm.152-.84c.652 0 1.297-.09 1.936-.15.173 0 .333-.14.498-.12.156.053.309.14.458.26l-.432.1a.694.694 0 00-.147.07c.059.04.12.063.181.07.268 0 .528-.11.791-.17h.19c.031.084.056.178.074.28 0 0-.078.07-.13.07h-2.663c-.242 0-.726-.16-1.189-.17-.549 0-1.08.09-1.621.14h-.307a.6.6 0 01.285-.23c.67-.11 1.38-.11 2.076-.14v-.01zm-.947-.25c.138 0 .272-.09.432-.09.16 0 .32.07.476.1l-.329.06-.58-.07zM66.472 3h2.875a.573.573 0 00.225-.07s0-.08-.035-.08l-.432-.1h1.262l2.14.22h.057a.616.616 0 01-.243.13h-.882l.433-.07h-.307l-1.492-.08c-.09.01-.179.03-.268.06h.255l.843.06h-5.949.178l1.34-.07zm-.757-.52c.126 0 .251-.09.39-.11a.5.5 0 01.216.1l-.247.13-.359-.12zm1.241-.27l-.151-.07h.155c1.444 0 2.88-.05 4.324 0 .6 0 1.24.23 1.842.26.335-.03.669-.117.998-.26.066.007.131.03.195.07a.301.301 0 01-.082.09l-.29.08h.355c.717-.06 1.43-.13 2.161-.15.152.085.297.22.433.4a.72.72 0 01-.29 0l-1.198-.17a.88.88 0 00-.229 0l.169.08h.082-.761v-.07h-6.93c-.294 0-.593 0-.887-.08a1.565 1.565 0 01-.333-.12l.385-.06h.303-.25zm10.601.42c-.164 0-.346-.08-.514-.11.086 0 .164-.11.263-.15.1-.04.117 0 .173 0 .045.006.09.006.134 0l-.315-.11-.454-.07.432-.09.026.11 3.891.18c.246 0 .501.07.757.11-.294 0-.584.08-.865.09l-3.528.04zm3.333.18l-.622.06-.662-.07h.999c.07-.05.169-.01.264.01h.021zm-3.528.74a.516.516 0 01-.164.05l-.96-.06.402-.09.722.1zm-18.845 0c.114.006.228.026.341.06l-.691.09-.774-.06c.35-.02.722-.05 1.102-.07l.022-.02zm-5.95 1h1.454c-.204 0-.398.07-.61.07h-2.313c.084-.03.17-.05.255-.06h1.21l.005-.01zm-.271-.31a.564.564 0 01.185 0h1.137l-.497.09-.825-.09zm32.07-.67h5.379c.272 0 .549 0 .821.06l.074.05-.48.06-.022-.08h-5.603a.757.757 0 01-.19-.08l.021-.01zm13.865 1.75a.75.75 0 01.217 0h1.647-1.868.004zm1.73-.27h-.36l-.293-.14.973.07-.32.07zm-40.614-4l.182-.05h1.863a.35.35 0 00.147 0h-.597.571c.169 0 .307.09.432.1h.865c-.011-.011-.024-.011-.035 0a.465.465 0 00-.116 0h-.044 2.37c2.758 0 5.508-.05 8.27 0 3.027 0 6.053.13 9.08.2l3.985.07h.173a.35.35 0 01-.147 0h-13.07a.697.697 0 00-.207 0h.433l.371.05-.25.05h-1.6l.657-.05h.087a.83.83 0 00-.203-.06H59.546a.726.726 0 01-.234-.07l.035-.24zm-.052 1.22c-.156.122-.32.196-.484.22-.432-.05-.865-.17-1.297-.27h-.199c.195 0 .385-.05.57-.09h.433l.095.07c.095.06.203.11.134.08l.744.07.004-.08zm-.558-1.16l-.432.12-.432-.1c.181 0 .363-.07.553-.09.093.012.185.035.277.07h.034zM56.264.77h1.617L56.416 1l-.644-.2.492-.03zm-3.796 0h2.81a.432.432 0 01.122.06.534.534 0 01-.2.11h-1.007l-1.729-.1a.285.285 0 01-.12 0 .78.78 0 01.124-.11v.04zm.091.38c-.16 0-.307.1-.475.11-.169.01-.268-.06-.407-.09l.368-.09.514.07zM47.99 1h.826a.188.188 0 00.074 0c-.1 0-.2-.07-.303-.09l-.38-.08h3.558a.39.39 0 01.181 0 .418.418 0 01-.181.12L49.286.87a.382.382 0 00-.138.06.548.548 0 00.147.07h1.764l-.432.05h-2.642a.806.806 0 01-.199-.06l.203.01zm-.229.23c.182 0 .372 0 .558.06l-.523.06-1.349-.08c.454-.05.89-.08 1.327-.08l-.013.04zM44.45 2.41h1.898c.112.033.223.083.332.15h-2.222l-.432-.06c.173-.02.298-.1.437-.13l-.013.04zm-1.094 0a.72.72 0 01.147.17h-.839c.246-.1.471-.15.705-.18l-.013.01zM36.99 2c.173 0 .359.06.536.09h-.865c.109-.043.219-.073.329-.09zm-.242.29l2.114.15h.069l-.432.06v-.06h-2.054a.375.375 0 01-.104 0c.134-.076.27-.126.407-.15zm4.172 4.24h.19-3.195a.874.874 0 01-.216-.06.564.564 0 01.186 0h3.056l-.021.06zm-16.507.09h-3.363 5.019l5.577-.06c.74 0 1.457-.1 2.2-.08 1.146 0 2.335.1 3.494.16h.082a.68.68 0 01-.194.06h-6.866l-5.966-.07s.013-.05.017-.01zm10.173-4.73h1.128c.137.028.273.075.407.14l-.22.06h-1.298a1.291 1.291 0 01-.397-.19c.15.02.272-.01.38-.01zm-1.492.19A.68.68 0 0133.29 2h.38l.243.1h-.818v-.02zM31.128 2l1.15-.05.58.05h-1.686a.616.616 0 01-.212-.07.536.536 0 01.168.07zm-3.23 0l.982.1a.39.39 0 01-.147.1c-.246 0-.493-.06-.895-.11.026-.09.043-.09.06-.09zm-4.5 0c.337 0 .683.05 1.03.07h.31l-.069.06h.398L27.324 2a.688.688 0 01.173.07.332.332 0 01-.147.1c-.113 0-.234 0-.411.07h1.595c.06-.007.119.017.173.07h.938l-.518-.15a.488.488 0 01.155-.16h1.414l-.912.2h.367l5.733.05a.592.592 0 01.186 0c-.039 0-.074.1-.117.1-.354 0-.713-.06-1.063 0s-.714.06-1.077.06h-2.097c-.28 0-.527.16-.808.15a2.31 2.31 0 01-.644-.17l-1.047.21a.162.162 0 01-.095 0l-.588-.09H27.9c-.554 0-1.103.05-1.656 0h-.432l-.467.09.06-.09h-.76l-.156.08-.433-.09h-.341c-.067.009-.133-.03-.19-.11-.03-.06-.026-.13 0-.17h-.178c-.134 0-.276 0-.432-.07.159-.087.32-.137.484-.15zm12.343.58a.424.424 0 01-.155.05h-.787l.532-.12.41.07zm-1.465.22h-.623l-.307-.11.93.11zm-1.583 1.57a.438.438 0 01-.199 0l-2.01-.08c-.108 0-.22 0-.333-.06l.299-.06.034.08 1.86-.13a.988.988 0 01.315.14s.039.11.034.11zm-10.41-2.28c.125 0 .25.07.376.11l-.26.08-.31-.12a.386.386 0 01.194-.07zm-.433-.1a.672.672 0 01-.224.26h-.658c.048-.09.052-.14.083-.15l.8-.11zm-.812.41h1.041c.037.01.074.03.109.06l-.325.14-.108-.13-.514.23a.139.139 0 01-.108 0 .886.886 0 01-.204-.17s.048-.12.096-.13h.013zm-1.7.09c.39 0 .779-.07 1.172-.09a.22.22 0 01.108.05l-.19.09h-1.185a.132.132 0 01.082-.05h.013zm-3.821-.16a.082.082 0 01.069 0c.74 0 1.483-.07 2.23-.08.108.026.215.07.32.13h-2.632l.013-.05zm-1.016.32c.15 0 .29-.1.432-.11l2.127-.07h.25s0 .07-.034.07l-.38.1h.034-2.161c-.087 0-.178 0-.268-.05v.06zm-2.914 2.72h-1.081a.666.666 0 01.233-.07h3.316a.33.33 0 01-.142 0h-2.335a.29.29 0 01.009.07zm-.074-3l1.375-.11h.947a.173.173 0 01.09 0 .25.25 0 01-.103.06h-2.279a.418.418 0 01-.099 0l.07.05zm-.272.06l-.342.07h-.74c.174 0 .347-.08.524-.09.177-.01.359.01.558.02zm2.477 3.19H8.962a.875.875 0 01.217-.08c2.222-.06 4.448-.11 6.67-.18.26 0 .485-.14.74-.16.156.022.312.066.467.13a.42.42 0 00.155 0l6.801.07h.307-.316l-6.277-.11c-.091 0-.19 0-.29-.07.099-.07.2-.114.303-.13 1.007 0 2.032.07 3.026 0 2.054-.08 4.077-.25 6.126-.33.865 0 1.73 0 2.594.09.433 0 .93.22 1.35.2.566 0 1.067-.26 1.634-.3.648 0 1.297 0 1.945.06.649.06 1.254.25 1.872.41.22.06.432.18.64.27.016.014.03.034.043.06-.48.1-.938.27-1.44.28h-9.295.234c.743 0 1.478-.07 2.226 0 .865 0 1.764.11 2.65.17a.593.593 0 00.217 0h-.251l-.614-.1h5.98a.922.922 0 01-.39.19h-2.162c-.333 0-.674-.09-1.007-.13a.723.723 0 00-.207 0h.709-.472c-1.79 0-3.575.09-5.374.1-2.546 0-5.106 0-7.656-.06h-1.05 5.477-.631 1.547-1.05c-.843 0-1.695-.13-2.53-.14h-4.855c-.912 0-1.833-.06-2.75-.09-.073 0-.138.06-.215.06h-.407l.182-.18-.117-.03zm.195 1.47a.825.825 0 01.22 0h2.395c.169-.026.336-.076.502-.15l7.808.08h12.52c1.73 0 3.459.14 5.188.21h.688-3.459c-1.682 0-3.407 0-5.084-.07h-1.237l.433.06h.056-.065c-1.38-.09-2.75-.22-4.129-.22-1.379 0-2.698.08-4.06.08H14.142c-.078.05-.165.02-.251.01h.022zm29.109 1.09h-.757l-.726-.08h1.34l.459.05-.316.03zm1.876.14h.152-1.5l-1.475-.02h-.203.194l2.832.02zm-3.826-.21l-.627.06-.726-.05h.588c.199 0 .51-.02.765-.01zm-5.24 0h1.764-1.405l-.432-.05.073.05zm-.622-.41l.458-.1.406.09a.547.547 0 01-.203.07c-.22-.01-.42-.05-.661-.07v.01zm-1.67.24h-.98a1.176 1.176 0 01-.32 0h1.301zm-1.456.78l-1.107-.07h.83l.277.07zm-3.891-.7h1.522-2.582a.4.4 0 01.16-.02h.895l.005.02zm-.735-.13a.323.323 0 01.104 0h1.003L28.2 8l-.743-.11zm-5.188 2.75c1.007-.05 2.014-.08 3.026-.12a.88.88 0 01.16.08h-.035l-3.121.12h-.164a.298.298 0 01.13-.09l.004.01zm-.152-2.52c.092-.05.184-.09.277-.12h1.639a.312.312 0 01-.139 0l-1.777.12zm2.525.11h1.03c.038.01.077.01.116 0h-.506v-.05h.977c.26 0 .536.08.804.13h.048-1.314l-1.155-.08zm-2.75 2.36l-.082.06-1.34.07h-.199a.32.32 0 01.165-.14h1.145c.1-.009.2-.006.299.01h.013zm-1.772-1.94h-.61l-.709-.06h.264l1.055.06zm-2.188 2.42c-.164 0-.35 0-.523-.06h-.67c.247 0 .497-.05.744-.06h1.41c-.303.05-.632.05-.96.12zm1.73-.39a.546.546 0 01-.165.13h-3.1c.217 0 .433-.07.653-.09.835-.05 1.674-.08 2.508-.09 0 0 .1.09.09.1l.014-.05zM39.04 11c-2.192 0-4.392-.09-6.584-.11h-7.441c-1.587 0-3.169 0-4.756.06a.896.896 0 01-.263-.06h.242l6.394-.1a.716.716 0 00.173-.09c-.112 0-.22-.06-.329-.06h-.778c.247 0 .493-.08.748-.1h.618v.07h3.403c.808 0 1.634.13 2.447.15.38 0 .748-.08 1.12-.12a.926.926 0 01.28 0h-.734c.164 0 .333.05.493.05l4.932.1.303.05c-.087.07-.177.123-.268.16zm1.44 0l-.761-.07c.315-.05.627-.12.955-.14.172.022.343.075.51.16l-.704.05zm1.37 0h-.376c.177 0 .35-.07.528-.07.122.005.245.025.367.06l-.519.01zm2.02 0h-.939c.1 0 .195-.05.298-.05h1.37l-.73.05zm1.525-2.4h-4.591a.848.848 0 01-.212 0 .344.344 0 01.156-.14l4.41.1a.865.865 0 01.255.09l-.018-.05zm.766-.4h-2.322a.489.489 0 01-.169 0 .62.62 0 01.143 0h2.447a.29.29 0 01-.082 0h-.017zm.272-1.53a.19.19 0 01.112 0l4.35-.14h.13a1.14 1.14 0 01-.26.05h-.722c.25 0 .502 0 .748.06h1.24-.272a.056.056 0 01-.043 0 .275.275 0 01.095 0h.934c.06.015.118.05.173.1.156 0 .311.05.458 0 1.042 0 2.076-.13 3.122-.17h1.777a1.07 1.07 0 01-.251.05h-.748.757c.994-.06 1.984-.15 2.987-.19.432 0 .865.08 1.297.09.432.01.865 0 1.297 0h.744-.809a.26.26 0 01.087 0c.64 0 1.297-.07 1.924-.08 1.811 0 3.623-.05 5.443 0 1.573 0 3.156.08 4.755.12.632 0 1.298.08 1.903.07 1.967 0 3.925-.11 5.888-.16h.177-.575 2.01l2.915.12h.168-.259a.267.267 0 01.086 0c.67 0 1.345.06 2.01.06h3.559c1.349 0 2.706.07 4.06.1h3.108-10.117c-.92 0-1.833 0-2.75.06-2.049 0-4.09.08-6.147.08-2.162 0-4.323-.08-6.485-.09h-9.166l.165-.06h.047a.534.534 0 00-.177 0c-2.296.1-4.587.23-6.892.31h-9.282c-1.128 0-2.27-.08-3.402-.12-.065-.22-.108-.25-.152-.26h-.017zm45.914-.51l.64-.16.735.07h-.692l-.683.09zm1.6 0c.039 0 .073-.12.121-.12 1.327 0 2.65 0 3.977.07h.048l-.173.07h-3.813c-.035.02-.09-.01-.143-.02h-.017zm6.355 1H90.32h12.153c1.154 0 2.313 0 3.458.07a.565.565 0 01.173.05.635.635 0 01-.151 0l-5.65-.12zm.71 1.12h-2.936a.827.827 0 01-.208-.05h3.053l.09.05zm-4.354-.08a.216.216 0 01-.082.09h-2.244a.489.489 0 01-.169 0h.151l2.344-.09zm-3.956 2l.73.17c-.025.042-.055.067-.086.07l-1.185-.13.54-.11zm-1.046-.81h1.43H91.657zm1.729-1.11h-4.583v.06h-9.096c-.195 0-.398 0-.601-.06h.61c1.673-.07 3.337-.18 5.023-.19 2.914 0 5.841.06 8.764.1h.285a1.627 1.627 0 01-.402.09zm-2.162 1.15h-4.375a.19.19 0 01.108 0l1.06-.06a.366.366 0 000 .07h3.359l-.152-.01zm.022.81a.432.432 0 01-.182.07h-1.785c.103 0 .203-.07.315-.08h.766l.886.01zm-5.348-.88l-.692.08-.67-.1a.311.311 0 01.164 0c.428-.03.826 0 1.224.02h-.026zm-3.078 0h1.297c-.2 0-.39.08-.593.09H82.05a.542.542 0 01-.125 0 .295.295 0 01.1 0h.812l.008-.12-.025.03zm.103-1.57h5.072c.058.01.116.03.173.06h-4.86l-.385-.06zm5.56 0h1.496-1.496zm-39.196-.4c.1 0 .2 0 .303-.06.104-.06.208 0 .311 0h-.32L48.38 7.2l-.143-.06h6.122c2.525 0 5.045-.07 7.57-.1 2.525-.03 5.045-.04 7.575-.04H89.84a.83.83 0 01.203.06.614.614 0 01-.19 0h-.7l.566.09h.026l-1.15-.11c-.355 0-.71-.06-1.06-.06h-6.567c.066.03.132.05.199.06h4.103a.818.818 0 01-.225 0l-7.224.22h-.147.363-4.146 2.607c-.433 0-.835.09-1.263.08-2.594 0-5.218-.06-7.812 0-2.162 0-4.323.18-6.485.19H49.459c-.051-.08-.11-.128-.173-.14zm29.56.44h-.865l.346-.09.678.1a.35.35 0 01-.177-.01h.017zm.103 1.95l-.588.07-.61-.06c.117 0 .234-.06.355-.06l.843.05zm-5.127-1.52c-1.137 0-2.262.11-3.403.14-.501 0-1.037-.11-1.539-.1-.748 0-1.47.1-2.214.11h-3.212a.636.636 0 01-.134-.08l.649-.13a.552.552 0 010-.08h8.521c1.297 0 2.65.08 3.973.13h.095-.086c-.89.01-1.777-.02-2.65.01zm.964.45l-.489.08-.54-.15a.386.386 0 01.164-.06c.29.03.58.09.873.13h-.008zm-1.89-.17c-.246.08-.484.17-.748.22h-.402l.7-.27.45.05zm-1.374.11a.322.322 0 01-.117.07H67.57l.497-.06h3.269a.644.644 0 01.186-.01zm-4.324.1l-.497.07-.679-.08c.152 0 .299-.05.433 0 .246-.04.488-.01.73.01h.013zm-3.087-.89a.564.564 0 01-.181 0h1.785a.55.55 0 01.126 0h-1.773.043zm2.469-.07h.947c.432 0 .83 0 1.245.07h-1.47l-.722-.07zm6.256 0h-1.332a.857.857 0 01-.225 0H73h-.164zm.575 0l.657-.06.943.12h-1.02l-.58-.06zm-11.855.41l1.12.2c-.026 0-.048.1-.082.1h-3.506.073l2.395-.3zm-1.997-.23a.19.19 0 01.108 0l2.46-.1c.074.011.147.031.22.06a.614.614 0 01-.19 0H59.56v.04zM55.097 9H53.8c.13-.08.26-.136.393-.17.29 0 .597 0 .934-.06h.649c-.199.06-.437.15-.679.23zm-.432-.39a.425.425 0 01-.152 0h.044l.324-.07h-2.52a.33.33 0 00-.143 0h.276a.53.53 0 01-.116.06h-.714c-.242 0-.432 0-.63-.07l.535-.08.121-.05h-.32l-.199-.05h.17c2.16 0 4.322.027 6.484.08.19 0 .402.1.605.15-.177 0-.35.07-.527.09-.177.02-.272 0-.722 0-.177 0-.666-.17-1.133-.18-.467-.01-.903.02-1.375.08l-.008.04zm7.449.39h-5.85c.078 0 .152 0 .238-.06 1.241 0 2.477-.1 3.727-.13h3.325c.96 0 1.902-.13 2.857-.19a.627.627 0 01.186 0h-.138L62.114 9zm2.849 2.18h-.173.164l1.885-.22h.264-.44l-.485.06.372.06h.562l-.35.11h-.156l-1.643-.01zm2.94.39h-1.63l1.115-.06h1.107l-.592.06zm.653-.46l-.593-.11a.706.706 0 01.195-.07l.942.06-.544.12zm-.342-.74h-.549 1.872l-.095.23a.43.43 0 00-.143-.15l-1.085-.08zm3.68 1.17l-.433-.07h.687a.713.713 0 01.2 0l-.455.07zm4.578.45h-.636l-.026-.09h-3.58l-.19-.06a.416.416 0 01.16 0h2.966c.433 0 .865.12 1.323.18h.056l-.073-.03zm-3.52-.5c.135 0 .264-.06.407-.06h.484l-.462.1-.428-.04zm7.385.56l-.787-.27h1.228l-.35.05h.056l.484.08-.631.14zm.592-.63l-1.09-.08.593-.07.644.11a.393.393 0 01-.147 0v.04zm3.16.08c-.31.057-.622.057-.933 0h-.225l.865-.15h.056c-.013.07.514-.11.238.11v.04zm1.704.38l-.757-.12h1.522l-.765.12zm1.92-.36l-.843-.09.229-.12.752.14a.33.33 0 01-.138.03v.04zm2.633 0c-.208 0-.433-.06-.627-.1l.432-.08.402.09a.595.595 0 01-.194.05l-.013.04zm1.898 0l-.554-.14c.04-.01.081-.01.121 0l.908.09-.475.05zm2.706.06l-.934-.15.558-.11.432.14s-.039.09-.056.09v.03zm4.034 0l-.645-.13c.26 0 .51-.09.774-.1.156 0 .325.05.493.08l-.622.15zm6.506-.09l-.432-.05.865-.14c.04.056.08.12.116.19h-.549zm1.985-.48h-.433l-.432-.07c.281 0 .553 0 .834-.06.073.01.145.03.217.06-.009.06-.095.06-.169.06l-.017.01zm3.026-.63l-.74.07c0 .07-.073.15-.202.15-.51 0-1.012 0-1.514.1-.021.07-.086.12-.198.14h-.865c-.7.07-1.405.13-2.123.12h-2.914 1.73c.101.012.202.04.302.08h-2.352a.336.336 0 01-.13-.08h-1.124.645l-.523.08-.727-.12h-.497c.104 0 .212.13.32.19l-.195.07-.052-.2h-3.74l-.211.05-.7.19a2.736 2.736 0 01-.07-.23L90.36 11c-6.55.09-13.096.21-19.646.22-.16 0-.225-.11-.199-.2h-1.107 1.929c4.323-.12 8.646 0 12.97-.2.056-.088.123-.13.19-.12 1.176-.1 2.352-.1 3.528-.08.056-.067.119-.098.181-.09 1.571.06 3.14.097 4.709.11h3.796c.026-.053.06-.084.095-.09h-1.496l-1.35-.08h-.103 3.074c.06 0 .125 0 .186.05h-.09 4.323c-.143 0-.286 0-.433-.06l.346-.06h.865c.199 0 .397 0 .596.06h-.54 1.094-.121c.069-.01.138-.01.207 0h4.315-.117c.02.006.037.023.052.05h.432-.082l.346-.11.238.08c.36 0 .72-.02 1.076-.06a.17.17 0 01.139 0h1.297l-.558-.04zm7.678-4.58l-16.182.12c-2.37 0-4.756-.1-7.134-.11-1.374 0-2.732.07-4.094.12a.329.329 0 00-.104 0h1.57-.316l-6.485.08a1.453 1.453 0 01-.354 0h.895-.54c-1.89 0-3.766.13-5.66.14H71.05c-.825 0-1.664-.07-2.499-.1l-.211-.06h.185l.398-.07h-1.967l.056.08.294.07c-.119.042-.238.07-.359.08l-4.682.1c-2.118 0-4.224.13-6.35.13-2.128 0-4.393-.08-6.585-.12h-1.168a.898.898 0 01-.315-.2.28.28 0 00-.074-.06l-2.23-.11c-.104 0-.217-.06-.33-.09a.953.953 0 01.282-.08h1.677-.151c-.917 0-1.846-.05-2.754 0-.527 0-1.02.17-1.53.24a.543.543 0 01-.178-.14l.169-.11h-2.266a.188.188 0 01.074 0h1.111-3.476a.592.592 0 01.138 0h1.112a1.12 1.12 0 00.38-.16c-.268-.06-.54-.16-.804-.18-.264-.02-.575 0-.865.07h-.363l.32-.06c.532-.1 1.05-.24 1.604-.29.385 0 .817 0 1.228.09L42.11 5h.26a1.14 1.14 0 01-.265 0H40.07a.461.461 0 00-.169 0h.169l4.198.12-1.327-.02L42.8 5h5.902c.268 0 .562.15.864.22.104.015.208.015.312 0l-.2-.07h-.042c.07-.01.141-.01.212 0 1.249 0 2.503.08 3.735 0 1.232-.08 2.425-.16 3.653-.19h4.756c.951 0 1.872-.15 2.819-.17H78.72c1.643 0 3.294.06 4.937.06h7.255c1.963 0 3.928.023 5.897.07a.947.947 0 01.272.07c-.083.03-.166.05-.25.06h-9.624c.155 0 .315.06.467.06l3.89.08a.332.332 0 01.087 0H87.29 98.14l11.893.08h6.762-2.253 3.762a5.598 5.598 0 01-.126.53zm-22.844-.5l-.225.07h-.822l-.817-.05h1.596c.082-.07.177-.04.268-.02zm23.644 7.21a1.029 1.029 0 01-.29-.06s0-.06.022-.06c.342-.09.683-.2 1.042-.26.153-.023.306-.023.458 0-.142 0-.298 0-.432.06a.964.964 0 00-.225.16h.26l1.552-.06c.018.04.04.068.065.08l-2.452.14zm7.722-11.39h-1.37v-.08h1.296l.082.05-.008.03zm.38 1.34h-.311l1.033-.09v.1l-.722-.01zm6.81 3h-4.756a.875.875 0 01.216-.08c2.227-.06 4.453-.11 6.675-.18.26 0 .48-.14.74-.16.155.022.31.066.462.13a.45.45 0 00.156 0l6.805.07h.302-.315l-6.26-.09c-.095 0-.195-.05-.29-.07.098-.07.2-.114.303-.13 1.007 0 2.032.07 3.026 0 2.05-.09 4.077-.25 6.126-.33.865 0 1.73 0 2.594.09.433 0 .925.22 1.345.2.566 0 1.072-.26 1.634-.3a8.642 8.642 0 011.946.06c.622.08 1.253.25 1.876.41.22.06.432.17.635.27a.14.14 0 01.044.06c-.476.1-.939.26-1.44.28h-9.291c.078.01.156.01.234 0 .743 0 1.478-.07 2.226 0 .865 0 1.764.12 2.646.18a.593.593 0 00.23 0h-.252l-.61-.06h5.984a.936.936 0 01-.376.19h-2.162c-.337 0-.674-.09-1.011-.13a.723.723 0 00-.208 0h.208l.506.05h-.472c-1.794 0-3.58.09-5.378.1-2.546 0-5.101 0-7.657-.06h-1.05 5.473-.631.532l1.02-.05h-1.055l-1.124-.08h3.217-.169l-3.329.08h-6a.156.156 0 00-.092 0h-1.163.299-1.773c-.078 0-.138.06-.216.06h-.406l.181-.08-.155-.43zm.432 1.42h2.395c.168-.026.336-.076.502-.15l7.803.08h12.52c1.73 0 3.46.14 5.189.21h.692-3.46c-1.677 0-3.402 0-5.083-.06h-1.233.485-.06c-1.376 0-2.755-.13-4.121-.13-1.366 0-2.702.08-4.06.08h-11.798a.79.79 0 01.216-.01l.013-.02zm30.134 1.6h-3.455a.857.857 0 01-.211-.05.344.344 0 01.155-.14l4.41.1a.912.912 0 01.255.09h-1.154zm.35 2.32l-.726.06-.938-.05c.095 0 .194-.05.298-.05l1.366.04zm-2.227 0l-.518.08-.376-.07c.172 0 .345-.07.527-.07.116.007.231.027.346.06h.021zm-1.694-.18c.171.022.342.076.51.16l-.71.05-.76-.07c.307-.05.618-.12.947-.14h.013zM159.917 8c.195 0 .39-.06.588-.06h.761l-.627.06h-.722zm5.188.27h-1.349l-1.478-.09h-.199.195l2.831.06h.152c-.06-.02-.104.01-.16.01l.008.02zM163.22 8h-1.483 1.799-.316zm-7.194 0h1.777a.08.08 0 01-.052 0h-1.78.055zm-.618-.41l.454-.09.406.09a.498.498 0 01-.203.07 4.567 4.567 0 00-.657-.11v.04zm-1.669.24h-.981a1.184 1.184 0 01-.32-.05h.865l.436.05zm-1.457.78l-1.107-.07h.826l.281.07zm-3.89-.71h1.521-2.581a.442.442 0 01.16 0h.9zm-.736-.12a.45.45 0 01.104 0h1.007l-.363.09-.748-.09zm-5.188 2.74l3.027-.11c.054.013.108.04.16.08h-.026l-3.122.12h-.169a.603.603 0 01.126-.13l.004.04zm-.16-2.52l.281-.08h1.643a.293.293 0 01-.134 0l-1.79.08zm2.516.13h1.03a.287.287 0 00.12-.05l-.276-.08h-.212v-.06h.986c.259 0 .523.06.782.06h.043-1.314l-1.159.13zm-2.75 2.36l-.081.06-1.336.07h-.2a.332.332 0 01.16-.14h1.146c.104-.024.208-.034.312-.03v.04zm-1.759-1.94l-.605.05-.714-.1h.269l1.05.05zm-3.38 2.32l.747-.05h1.41c-.32.06-.636.12-.965.15-.16 0-.345 0-.523-.05l-.67-.05zm2.909-.29a.586.586 0 01-.16.13h-3.065c.216 0 .432-.07.657-.09.834 0 1.669-.08 2.507-.09.022 0 .1.09.087.1l-.026-.05zm.618.25a.839.839 0 01-.264-.06h.242l6.39-.1c.06.01.122.01.182 0-.112 0-.225-.06-.333-.07h-.778c.25 0 .497-.08.752-.1h.614v.06h3.398c.813 0 1.639.13 2.452.15.38 0 .743-.09 1.12-.12h.276-.752.493l4.933.1.302.05a.887.887 0 01-.268.07c-2.192 0-4.392-.09-6.584-.11h-2.279s.026 0 .04-.06l-2.737.06h-2.47l-4.729.13zm25.91-2.73h-2.339a.69.69 0 01-.177-.1.563.563 0 01.143 0h2.45a.547.547 0 01-.077.06v.04zm.272-1.53a.222.222 0 01.117 0l4.324-.14h.13c-.087.01-.174.01-.26 0h-.718l.748.06h1.24-.319a.34.34 0 01.1 0h.929a.4.4 0 01.177.1h.454c1.042 0 2.08-.13 3.122-.17h1.78c-.084.01-.17.01-.254 0h-.744.752c1-.06 1.99-.15 2.992-.19.411 0 .865.08 1.276.09.41.01.864 0 1.297 0h.743l-.722-.05h-.086a.25.25 0 01.09 0c.64 0 1.276-.07 1.924-.08h5.44c1.573 0 3.16.09 4.755.13.636 0 1.297.08 1.907.07 1.967 0 3.925-.11 5.888-.16h.177-.575 2.006l2.919.13h.164-.255a.267.267 0 01.086 0c.67 0 1.345.06 2.01.06h3.559c1.349 0 2.706.07 4.06.1h3.104-10.134c-.921 0-1.833 0-2.75.06-2.05 0-4.094.08-6.148.08-2.162 0-4.323-.08-6.485-.09H186.3l.164-.07h.047a.528.528 0 00-.177 0c-2.296.1-4.587.23-6.887.31h-9.287c-1.128 0-2.265-.08-3.402-.13-.026-.12-.07-.14-.113-.15v.04zM212.563 6l.623-.19.735.07h-.692l-.666.12zm1.595 0c.044 0 .078-.12.126-.12 1.323 0 2.65 0 3.973.07h.047l-.168.07h-3.818c-.047.04-.103-.02-.16-.02zm6.356 1h-9.983l.74-.05h11.417c1.15 0 2.313 0 3.46.06h.176a.394.394 0 01-.151 0l-5.66-.01zm.713 1.12h-2.94a.755.755 0 01-.203-.05h3.052l.091.05zm-4.375-.08c-.026 0-.04.08-.078.09h-2.244a.498.498 0 01-.164 0c.05-.006.1-.006.151 0l2.335-.09zm-5.007 1.21l.364-.05h1.067-.92l-.51.05zm1.05.76l.732.18c-.03 0-.057.08-.087.07l-1.184-.13.54-.12zm.701-1.87h-4.595v.06h-9.097c-.194 0-.402 0-.6-.06h.609c1.673-.07 3.333-.19 5.024-.19 2.91 0 5.836.06 8.759.1.095 0 .194 0 .29.05a1.597 1.597 0 01-.385.04h-.005zm-2.161 1.15h-4.376.113l1.055-.05v.07h3.333a.389.389 0 01-.117-.02h-.008zm.026.81a.427.427 0 01-.186.07h-1.786c.108 0 .208-.07.32-.08h.74l.912.01zm-5.348-.88l-.692.08-.67-.11h.164l1.198.03zm-3.079 0h1.297c-.199 0-.393.08-.596.09h-1.6c.034-.01.07-.01.104 0h.808l-.013-.09zm.104-1.57h5.05a.697.697 0 01.173.06h-4.86l-.363-.06zm5.56 0h1.491-.696c-.242.01-.523-.01-.786-.02l-.01.02zm-39.222-.4c.104 0 .2 0 .303-.06.104-.06.207 0 .311 0h-.315l-1.185-.12a.436.436 0 01-.143-.06h6.122c2.525 0 5.046-.07 7.57-.1 2.525-.03 5.046 0 7.575-.06h20.32a.83.83 0 01.203.06h-.886l.562.09c.01-.008.02-.008.03 0l-1.15-.11c-.354 0-.713-.07-1.06-.07h-6.402a.46.46 0 00-.169 0 .75.75 0 00.203 0h4.103a.85.85 0 01-.229 0l-7.228.3h-.143a.188.188 0 01.073 0h.286-4.146 2.607c-.433 0-.835.1-1.263.09-2.594 0-5.214-.06-7.808 0-2.162 0-4.323.18-6.485.19h-11.478c-.052-.089-.114-.14-.178-.15zm29.56.44h-.865l.345-.09.68.1a.355.355 0 01-.174-.01h.013zm.107 2l-.588.07-.61-.06c.117 0 .23-.06.35-.06.269-.05.554-.02.835 0l.013.05zm-5.123-1.57c-1.141 0-2.261.11-3.402.14-.502 0-1.038-.11-1.544-.1-.743 0-1.465.1-2.213.11h-3.208a.537.537 0 01-.134-.08l.657-.19v-.08h8.525c1.297 0 2.646.08 3.974.13h.095-.087c-.903.07-1.79.04-2.663.07zm.964.45l-.488.08-.54-.15a.367.367 0 01.164-.06c.29.03.575.09.864.13zm-1.89-.17c-.25.08-.488.17-.747.22h-.406l.704-.28.45.06zm-1.378.11a.307.307 0 01-.113.07h-3.835l.493-.06h3.264a.59.59 0 01.19-.01zm-4.324.1l-.493.07-.691-.08h.432c.255-.04.497-.01.74.01h.012zm-3.087-.89a.588.588 0 01-.181 0h1.945-1.777.013zm2.465-.07h.947c.432 0 .83 0 1.249.07h-1.474l-.722-.07zm6.26 0h-1.336a1.003 1.003 0 01-.225-.05h1.721l-.16.05zm.575 0l.657-.06.938.12h-1.037c-.186-.05-.385-.07-.575-.1l.017.04zM181.733 8l1.12.2c-.03 0-.048.1-.082.1h-3.515a.14.14 0 01.073 0c.796-.12 1.587-.21 2.404-.3zm-2.002-.23a.222.222 0 01.113 0l2.46-.1a.992.992 0 01.216.06.564.564 0 01-.186 0h-2.603v.04zm-7.138.61h-.709c-.237 0-.432-.05-.63-.07l.535-.08h.117-.316l-.198-.05h.164c2.164 0 4.326.027 6.485.08.203.02.405.07.605.15-.173 0-.346.07-.523.09-.177.02-.272 0-.726 0-.173 0-.662-.18-1.129-.19-.467-.01-.938.11-1.405.17a.425.425 0 01-.151 0h.039l.328-.07h-2.663.273a.344.344 0 01-.096-.01v-.02zm3.412.22c-.234.07-.459.16-.71.19-.25.03-.562 0-.864 0h-.432a1.88 1.88 0 01.397-.16c.29 0 .597 0 .934-.06l.675.03zm6.303.2h-5.845c.078 0 .151 0 .233-.06 1.245 0 2.482-.1 3.731-.13h3.32c.965 0 1.907-.13 2.858-.19a.633.633 0 01.19 0l-.138.05-4.349.33zm2.68 2.15h.16l1.89-.22h.264-.446l-.484.06.376.06h.558l-.346.11h-1.799l-.172-.01zm3.109.42h-1.626l1.116-.07h1.107l-.597.07zm.657-.46l-.596-.08a.706.706 0 01.194-.07l.947.06-.545.09zm-.341-.74h-.55 1.868a2.64 2.64 0 00-.095.23.417.417 0 00-.147-.15l-1.076-.08zm3.675 1.17l-.433-.07h.692a.808.808 0 01.199.05l-.458.02zm4.578.45h-.636a.704.704 0 00-.026-.09h-3.58a.71.71 0 01-.19-.05.439.439 0 01.16 0h2.97c.433 0 .865.11 1.324.18h.051l-.073-.04zm-3.52-.5c.135 0 .269-.06.407-.06.138 0 .324 0 .489.05l-.467.1-.428-.09zm7.39.56l-.796-.21h1.232l-.35.05h-.022.06l.485.08-.61.08zm.587-.63l-1.09-.08.598-.07.64.11a.42.42 0 01-.148.06v-.02zm3.16.08c-.309.057-.62.057-.929 0h-.225l.865-.15a.05.05 0 01.052 0c-.009.13.519-.06.238.17v-.02zm2.478.27l-.774.11-.752-.12h1.522l.004.01zm1.15-.26l-.865-.08.234-.12.752.14a.516.516 0 01-.12.08v-.02zm2.629 0c-.204 0-.433-.05-.623-.09l.432-.08.403.09a.553.553 0 01-.204.1l-.008-.02zm1.898 0l-.55-.14a.287.287 0 01.122-.05l.908.09-.48.1zm2.71.06l-.938-.15.562-.11.433.14s-.04.16-.057.16v-.04zm4.03 0l-.64-.14c.255 0 .51-.08.774-.09.163.008.326.034.488.08l-.622.15zm6.528-.09h-.432l.838-.14c.042.054.083.115.122.18l-.528-.04zm1.985-.48h-.433l-.432-.07c.277 0 .553-.05.834-.06a.992.992 0 01.216.06c-.034.09-.112.12-.185.13v-.06zm3.026-.62l-.744.07c0 .07-.073.15-.203.15-.506 0-1.012.05-1.513.1 0 .07-.082.12-.199.14h-.865c-.704.07-1.41.13-2.122.12h-2.927 1.729c.103.012.205.04.307.08h-2.352a.301.301 0 01-.13-.07h-1.124l.64.05-.519.08-.73-.12h-.498c.104 0 .217.13.32.19l-.19.07-.052-.2h-3.744l-.212.05-.717.11-.065-.23-4.285.05c-6.545.09-13.09.21-19.64.22-.16 0-.226-.11-.2-.21h-1.106 1.95c4.323-.12 8.646 0 12.944-.21.059-.079.126-.117.194-.11 1.176-.1 2.348-.1 3.528-.08.056-.068.119-.1.182-.09 1.568.06 3.137.097 4.708.11h3.796c.025-.053.057-.085.09-.09h-1.495l-1.35-.08a.34.34 0 01-.099 0h3.26-.09 4.297l-.433-.06.346-.06h.865l.592.06h-.54 1.094-.117a.746.746 0 01.207-.05h4.315-.117c.02.004.038.021.052.05h.433-.087l.35-.11.234.08c.359 0 .718-.06 1.08-.06.045-.02.09-.02.135 0h.808l.489.05h-.48zm7.657-4.58h-5.62.202-.557l-.493.07h.112c-3.286 0-6.57.023-9.853.07-2.365 0-4.755-.1-7.129-.11-1.375 0-2.732.07-4.099.11h-.103 1.57-.312L207.47 6h.32l-.994-.05a1.16 1.16 0 00-.316.05h.39-1.233a1.406 1.406 0 01-.355 0h.895-.588l-4.755.06a.275.275 0 00-.095 0h1.029-3.675.19-4.695a.615.615 0 00-.19.06h-2.162c-.826 0-1.665-.07-2.495-.1l-.216-.06h.19l.394-.07h-1.85a.431.431 0 00-.113 0s.03 0 .052.05l.298.07a1.497 1.497 0 01-.359.08l-4.686.1c-2.114 0-4.224.13-6.351.13s-4.389-.08-6.585-.12h-1.167a.847.847 0 01-.311-.2.287.287 0 00-.091-.06l-2.231-.12a1.313 1.313 0 01-.329-.08.916.916 0 01.281-.08h1.678-2.91c-.527 0-1.016.16-1.526.24a.548.548 0 01-.182-.14l.173-.11h-2.27a.188.188 0 01.074 0h1.103-.48l.32-.1a.503.503 0 00-.2-.08l-.7.17h-2.416 1.25c.128-.025.255-.079.38-.16-.269-.06-.54-.16-.8-.18-.26-.02-.58 0-.865.07h-.359l.32-.06c.532-.1 1.05-.24 1.6-.29.385 0 .817 0 1.228.09l1.189.1h.263a.767.767 0 01-.263 0l-2.041-.09h-.169c.056.01.113.01.169 0l4.202.11-1.297-.23-.147-.1c.05-.006.101-.006.152 0h5.745c.268 0 .567.16.865.23.104.015.208.015.311 0L169.84 5h-.047a.845.845 0 01.216-.05c1.245 0 2.499.08 3.735.05 1.237-.03 2.422-.16 3.65-.19h4.781c.951 0 1.868-.15 2.819-.17h13.904c1.647 0 3.299.06 4.941.06h7.255c1.963 0 3.929.023 5.897.07.09.01.18.032.268.07-.081.03-.164.05-.246.06h-9.607c.156 0 .312.06.463.06l3.89.08a.332.332 0 01.087 0h-4.366 10.856l11.893.08h6.758a.51.51 0 01-.13 0h-2.118 3.765c-.034.189-.076.37-.125.54l-.004-.06zm-22.85-.5l-.22.07h-1.643 1.595c.091-.06.182-.03.273-.01l-.004-.06zm22.452-2.59l-.67-.1c.19 0 .38-.08.579-.09h1.224l-1.133.19zm0-.48h-.139a.22.22 0 01.122 0l2.676-.1c.052 0 .112 0 .168.05a.379.379 0 01-.142.05h-2.685zm3.186.33h-.674l-.225-.05h1.457l-.558.05zM230.32 13h-.07 4.415-4.345zm-76.498-7.39h.264-1.712 1.448z"/><path d="M149.256 5.58l.25-.06a.45.45 0 00-.155 0l-.917.06h.822zM185.948 4l-1.262.11h1.375a.62.62 0 00-.113-.11zM146.68 5.11l.29-.05h-1.708c-.22 0-.432 0-.653.06h.662c.428.03.83.01 1.41-.01zm19.585.18h.709l-2.508-.07 1.799.07zm23.623-.21v-.06h-1.448a.418.418 0 00-.16 0h.077l4.021.07h.117a.414.414 0 00-.156 0l-2.451-.01zm13.212.08l1.202-.07h-2.356 1.107l.047.07zm-1.254.26a.387.387 0 00-.112 0 .542.542 0 00.125 0h2.724c.053.01.107.01.16 0H201.845zm3.636-.05h-.32.303l.938.07.692-.07h-1.613zM194.898 5a.668.668 0 00-.247 0c.072.01.144.01.216 0h6.65-6.619zm-41.509.1h.912-1.73l.8.06.018-.06zm19.801.28h-.173c.055.04.111.067.169.08h1.037l.325-.06-.316-.16-1.042.14zm5.439-.15h-1.094 2.075a.257.257 0 00.104-.12.322.322 0 00-.134 0l-.951.12zm-10.195.07c-.203 0-.432-.09-.614-.09h-.864l5.655.16h.134-.152l-4.159-.07z"/></g></g></svg>